<svg width="118" height="99" viewBox="0 0 118 99" fill="none" xmlns="http://www.w3.org/2000/svg">
<g filter="url(#filter0_d_435_256)">
<path d="M17.2032 7.47203C17.3097 6.84134 17.9073 6.41637 18.5379 6.52282L111.321 22.1835C111.952 22.2899 112.377 22.8875 112.27 23.5182L100.706 92.0351C100.599 92.6658 100.002 93.0907 99.371 92.9843L6.58765 77.3236C5.95697 77.2172 5.532 76.6196 5.63845 75.9889L17.2032 7.47203Z" fill="#FF2626"/>
<path d="M78.6243 59.8453L81.7422 41.3725L79.0272 40.9143L79.7683 36.5234L89.7711 38.2118L89.03 42.6026L86.315 42.1444L83.197 60.6171L78.6243 59.8453Z" fill="white"/>
<path d="M70.9605 58.5486L74.8196 35.6851L79.2364 36.4306L75.3773 59.2941L70.9605 58.5486Z" fill="white"/>
<path d="M53.4236 55.5911L57.2827 32.7275L63.3234 33.7471C64.5878 33.9605 65.5406 34.4108 66.1817 35.098C66.8315 35.7867 67.2289 36.6777 67.3739 37.771C67.5189 38.8643 67.4701 40.1298 67.2275 41.5675C66.9936 42.9531 66.6554 44.1386 66.213 45.1239C65.772 46.1005 65.1576 46.8118 64.3698 47.2578C63.5906 47.7052 62.5688 47.8222 61.3044 47.6088L59.4467 47.2953L57.9184 56.3498L53.4236 55.5911ZM60.1396 43.1902L60.3994 43.2341C61.2481 43.3773 61.8079 43.2269 62.0789 42.7827C62.3498 42.3385 62.5635 41.6531 62.7199 40.7265C62.866 39.8604 62.8833 39.1775 62.7717 38.6777C62.6703 38.1706 62.2731 37.8587 61.5803 37.7417L61.0736 37.6562L60.1396 43.1902Z" fill="white"/>
<path d="M42.9944 53.8338L46.8535 30.9702L55.9989 32.5138L55.2534 36.9307L50.7587 36.172L50.0066 40.6278L54.3195 41.3558L53.5937 45.6557L49.2808 44.9277L48.3972 50.163L53.1907 50.972L52.4386 55.4278L42.9944 53.8338Z" fill="white"/>
<path d="M32.5613 52.0721L36.4204 29.2085L45.5658 30.7521L44.8203 35.169L40.3256 34.4103L39.5735 38.8661L43.8864 39.5941L43.1606 43.894L38.8477 43.166L37.9641 48.4012L42.7576 49.2103L42.0055 53.6661L32.5613 52.0721Z" fill="white"/>
<path d="M20.5152 50.0379L24.3743 27.1743L28.895 27.9374L27.3492 37.0958L31.0255 28.297L35.6242 29.0732L31.2977 39.1117L32.2977 52.0266L27.5561 51.2263L26.9301 39.7373L25.0619 50.8053L20.5152 50.0379Z" fill="white"/>
<path d="M79.439 70.7768C79.4675 70.8945 79.4422 71.1403 79.3629 71.5142C79.302 71.875 79.2401 72.0985 79.1772 72.1847C79.1588 72.1978 79.1325 72.2579 79.0983 72.365C79.0851 72.4435 79.0326 72.5153 78.9409 72.5805C78.8649 72.6484 78.7956 72.677 78.7328 72.6664C78.7014 72.6611 78.6753 72.6728 78.6543 72.7015C78.6306 72.746 78.5783 72.7694 78.4972 72.7718C78.4161 72.7743 78.3625 72.7572 78.3364 72.7205C78.3104 72.6838 78.2568 72.6667 78.1757 72.6692C78.1103 72.6743 78.0397 72.6623 77.9639 72.6334C77.8855 72.6202 77.8097 72.5913 77.7365 72.5466C77.6764 72.5204 77.6412 72.4902 77.6308 72.4562C77.623 72.4065 77.5956 72.3776 77.5486 72.3697C77.5015 72.3617 77.4611 72.3146 77.4272 72.2282C77.4064 72.1602 77.3608 72.096 77.2903 72.0357C77.2328 71.9937 77.2042 71.9243 77.2044 71.8276C77.2046 71.7308 77.1773 71.6536 77.1225 71.5959C77.0677 71.5382 77.0234 71.4662 76.9896 71.3798C76.94 71.2908 76.9182 71.0854 76.9241 70.7637C76.92 70.2145 76.96 69.2128 77.0441 67.7587C77.1441 66.2104 77.2681 65.0454 77.4162 64.2637C77.5115 63.6989 77.5278 63.4112 77.4651 63.4006C77.4337 63.3953 77.3419 63.5089 77.1897 63.7414C77.0402 63.9582 76.9379 64.0861 76.8829 64.1253C76.8279 64.1644 76.7676 64.2349 76.702 64.3367C76.6547 64.4256 76.5931 64.5039 76.5171 64.5718C76.4594 64.6266 76.428 64.6697 76.4227 64.701C76.4174 64.7324 76.3846 64.7834 76.3243 64.8539C76.2797 64.927 76.2429 65.0015 76.214 65.0773C76.1877 65.1374 76.1064 65.2366 75.9701 65.3749C75.8495 65.5159 75.7551 65.6452 75.6868 65.7628C75.6342 65.883 75.5818 65.9548 75.5294 65.9782C75.4928 66.0043 75.3944 66.1571 75.2342 66.4367C75.0085 66.8181 74.8183 67.0845 74.6637 67.2359C74.606 67.2907 74.5719 67.3494 74.5613 67.4122C74.5507 67.475 74.5297 67.5037 74.4984 67.4984C74.4827 67.4957 74.4434 67.5375 74.3804 67.6237C74.3174 67.7099 74.282 67.7765 74.2741 67.8236C74.2688 67.8549 74.2294 67.8967 74.1561 67.9489C74.0854 67.9853 74.0461 68.0271 74.0381 68.0742C74.0328 68.1056 73.9672 68.2074 73.8413 68.3798C73.7338 68.5391 73.6787 68.6266 73.676 68.6423C73.6681 68.6894 73.571 68.8344 73.3848 69.0772C73.2143 69.3227 73.0818 69.4859 72.9875 69.5668C72.8722 69.6764 72.7712 69.7966 72.6847 69.9272C72.4591 70.2118 72.332 70.3436 72.3033 70.3226C72.3033 70.3226 72.3072 70.2991 72.3152 70.252C72.3598 70.1789 72.3664 70.1397 72.3351 70.1344C72.309 70.0977 72.2593 70.1054 72.1859 70.1576C72.1283 70.2124 72.0483 70.3038 71.946 70.4317C71.8385 70.5911 71.7455 70.6641 71.667 70.6509C71.6043 70.6403 71.5166 70.682 71.4039 70.7759C71.3069 70.8725 71.2349 70.9168 71.1878 70.9088C71.1408 70.9009 71.1041 70.927 71.0778 70.9871L71.0384 71.0772L70.9366 70.9632C70.8557 70.8689 70.759 70.8203 70.6466 70.8175C70.5158 70.8277 70.4452 70.8158 70.4348 70.7817C70.4087 70.7451 70.363 70.7293 70.2976 70.7344C70.2165 70.7368 70.1707 70.721 70.1603 70.687C70.15 70.653 70.1278 70.6412 70.0937 70.6516C70.0597 70.662 70.0388 70.6423 70.0311 70.5926C70.0233 70.5429 69.9959 70.514 69.9489 70.5061C69.8861 70.4955 69.8574 70.4745 69.8627 70.4431C69.868 70.4118 69.8431 70.4156 69.7881 70.4548C69.7174 70.4912 69.6742 70.5081 69.6585 70.5055C69.6428 70.5028 69.6403 70.4701 69.6509 70.4074C69.6772 70.3473 69.6746 70.3146 69.6432 70.3093C69.5962 70.3014 69.5674 70.2804 69.5571 70.2463C69.5153 70.207 69.6321 69.9928 69.9076 69.6036C69.9941 69.473 70.0939 69.3124 70.2067 69.1217C70.3931 68.782 70.5939 68.4529 70.8091 68.1342C70.8773 68.0167 70.9364 67.9056 70.9863 67.8011C71.0808 67.6234 71.2094 67.4354 71.372 67.2369C71.4349 67.1507 71.4717 67.0763 71.4823 67.0135C71.4929 66.9508 71.5729 66.811 71.7225 66.5942C71.8903 66.3644 71.99 66.2521 72.0213 66.2574C72.0527 66.2627 72.075 66.2261 72.0883 66.1477C72.1015 66.0692 72.1343 66.0183 72.1867 65.9949C72.2417 65.9558 72.2561 65.9179 72.2301 65.8812C72.2197 65.8472 72.2564 65.7727 72.3404 65.6578C72.5922 65.313 72.7299 65.1185 72.7535 65.074C72.7562 65.0584 72.7903 64.9996 72.8559 64.8977C72.9215 64.7958 72.9556 64.7371 72.9583 64.7214C72.9609 64.7057 73.016 64.6182 73.1236 64.4588C73.2495 64.2865 73.3466 64.1415 73.4148 64.0239C73.5014 63.8933 73.5525 63.8294 73.5682 63.832C73.5996 63.8373 73.6179 63.8243 73.6232 63.7929C73.6391 63.6988 73.7678 63.4623 74.0092 63.0836C74.0275 63.0705 74.059 63.0274 74.1036 62.9543C74.1482 62.8811 74.181 62.8302 74.202 62.8015C74.2913 62.6552 74.3385 62.5663 74.3438 62.535C74.3674 62.4905 74.3976 62.4553 74.4343 62.4292C74.4709 62.4031 74.4919 62.3744 74.4972 62.343C74.5052 62.296 74.5406 62.2293 74.6036 62.1432C74.6822 62.0596 74.7163 62.0008 74.7059 61.9668C74.7112 61.9354 74.7401 61.908 74.7924 61.8846C74.8474 61.8455 74.8789 61.8024 74.8869 61.7553C74.8974 61.6926 74.9775 61.5528 75.127 61.336C75.2923 61.1219 75.3697 60.9978 75.3593 60.9638C75.3228 60.8931 75.5735 60.4594 76.1113 59.6628C76.3055 59.3728 76.4669 59.1338 76.5954 58.9458C76.8052 58.6585 76.956 58.4823 77.0477 58.417C77.142 58.3362 77.1958 58.2565 77.209 58.1781C77.217 58.131 77.2734 58.0356 77.3783 57.892C77.4859 57.7327 77.5935 57.5733 77.701 57.414C77.8243 57.2573 77.9056 57.1581 77.9449 57.1163C77.9999 57.0772 78.0287 57.0498 78.0314 57.0341C78.0367 57.0027 78.0865 56.9466 78.1808 56.8657C78.2752 56.7848 78.3355 56.7143 78.3617 56.6542C78.4064 56.5811 78.4862 56.5381 78.6013 56.5253C78.7348 56.4994 78.8107 56.4799 78.829 56.4669C78.8683 56.4251 78.9768 56.4515 79.1545 56.546C79.3322 56.6405 79.4771 56.7376 79.5894 56.8372C79.712 56.9709 79.7982 57.0338 79.8479 57.0261C79.916 57.0053 79.9447 57.0263 79.9341 57.089C79.9235 57.1518 79.9483 57.1963 80.0084 57.2226C80.0685 57.2489 80.0946 57.2855 80.0866 57.3326C80.0813 57.364 80.1243 57.4439 80.2156 57.5722C80.3095 57.6849 80.406 57.8302 80.505 58.0083C80.6224 58.1733 80.6968 58.2585 80.7282 58.2638C80.8981 58.3086 81.0533 58.4881 81.1939 58.8022C81.3007 59.03 81.3566 59.1766 81.3617 59.242C81.3825 59.3101 81.3482 59.4656 81.2588 59.7087C81.1877 59.9387 81.1283 60.1949 81.0806 60.4773C81.033 60.7597 80.9803 60.9283 80.9226 60.9831C80.8807 61.0406 80.8661 61.1268 80.8789 61.242C80.8997 61.31 80.8731 61.5153 80.7992 61.8578C80.7436 62.1872 80.6975 62.365 80.6608 62.3911C80.6398 62.4198 80.5393 62.9676 80.3592 64.0343C80.1818 65.0854 80.0665 65.8163 80.0134 66.2268C79.9496 66.7001 79.903 67.1198 79.8734 67.4859C79.8466 67.8364 79.8002 68.1109 79.7344 68.3096C79.687 68.4952 79.6591 68.7083 79.6507 68.9489C79.6424 69.1895 79.6277 69.3242 79.6067 69.3529C79.5701 69.379 79.5251 69.5973 79.472 70.0079C79.4345 70.421 79.4235 70.6773 79.439 70.7768Z" fill="#FEC7FF"/>
<path d="M69.6359 55.031C69.6752 54.9892 69.7824 55.0235 69.9574 55.1337C70.1612 55.2649 70.3206 55.324 70.4357 55.3112C70.4671 55.3165 70.4958 55.3375 70.5219 55.3742C70.5637 55.4135 70.6343 55.4254 70.7337 55.4099C70.8174 55.3918 70.8658 55.3919 70.8789 55.4102C70.9076 55.4312 70.9689 55.498 71.0628 55.6107C71.2688 55.9197 71.4346 56.0849 71.5601 56.1061C71.6228 56.1166 71.6646 56.156 71.6854 56.224C71.7062 56.2921 71.7401 56.3301 71.7872 56.338C71.8342 56.3459 71.923 56.4416 72.0534 56.625C72.2021 56.7953 72.2633 56.9105 72.2371 56.9706C72.2108 57.0307 72.208 57.0948 72.2288 57.1628C72.2783 57.2519 72.2922 57.5043 72.2704 57.9201C72.2466 58.0613 72.2372 58.1646 72.2423 58.23C72.2474 58.2954 72.1975 58.3999 72.0926 58.5436C72.0033 58.6899 71.9547 58.7865 71.9468 58.8336C71.9415 58.865 71.8667 58.9734 71.7225 59.1588C71.5966 59.3312 71.5231 59.4801 71.5019 59.6056C71.4833 59.7154 71.4426 59.8134 71.3796 59.8996C71.3167 59.9858 71.2642 60.0576 71.2223 60.1151C71.1986 60.1595 71.1109 60.2012 70.9591 60.2401C70.8257 60.266 70.704 60.2696 70.5942 60.2511C70.223 60.1562 70.0414 60.0852 70.0493 60.0381C70.0546 60.0067 69.9985 59.9569 69.8809 59.8887C69.7634 59.8204 69.6877 59.7431 69.6538 59.6567C69.6384 59.5573 69.594 59.4853 69.5209 59.4407C69.4504 59.3804 69.4204 59.3188 69.431 59.2561C69.4416 59.1933 69.3985 59.1618 69.3018 59.1616C69.0742 59.1716 68.8019 59.3032 68.4849 59.5562C68.3539 59.6632 68.2255 59.7545 68.0998 59.8301C67.9741 59.9057 67.8994 59.9657 67.8758 60.0101C67.8679 60.0571 67.7827 60.1315 67.6203 60.2332C67.4606 60.3192 67.3244 60.4091 67.2117 60.5031C67.0991 60.597 67.0166 60.6557 66.9642 60.6791C66.9145 60.6868 66.8857 60.7143 66.8777 60.7613C66.8724 60.7927 66.7584 60.8945 66.5358 61.0666C66.3157 61.2231 66.2044 61.3092 66.2017 61.3249C66.1991 61.3406 66.1781 61.3693 66.1388 61.4111C65.8244 61.6484 65.6619 61.7985 65.6513 61.8613C65.6461 61.8926 65.6159 61.9279 65.5609 61.967C65.5242 61.9931 65.4941 62.0283 65.4704 62.0728C65.4651 62.1041 65.4035 62.1825 65.2856 62.3078C64.9893 62.6289 64.828 62.8679 64.8015 63.0248C64.7935 63.0718 64.7529 63.1214 64.6796 63.1736C64.5145 63.291 64.3283 63.5338 64.1209 63.9022C64.0264 64.0799 63.9582 64.1974 63.9162 64.2549C63.8926 64.2993 63.8269 64.4496 63.7191 64.7057C63.627 64.9644 63.5482 65.1447 63.4826 65.2466C63.4353 65.3354 63.3879 65.4727 63.3405 65.6583C63.1559 66.3693 63.0634 66.8216 63.063 67.0152L63.0508 67.231L63.2391 67.2627C63.3803 67.2866 63.5163 67.2934 63.6471 67.2832C63.7962 67.26 63.9519 67.2459 64.114 67.241C64.2946 67.2231 64.4293 67.1893 64.5184 67.1398C64.5864 67.119 64.7133 67.084 64.8992 67.0347C65.1033 66.9723 65.2132 66.9425 65.2289 66.9451C65.2446 66.9478 65.314 66.9191 65.437 66.8592C65.5784 66.7863 65.6674 66.7368 65.7041 66.7107C65.7434 66.6689 65.8141 66.6324 65.9162 66.6013C66.2277 66.4764 66.5315 66.3017 66.8275 66.0774C67.0842 65.8949 67.2204 65.8049 67.2361 65.8075C67.2518 65.8102 67.3565 65.7633 67.5503 65.667C67.7624 65.5575 67.8762 65.5041 67.8919 65.5068C67.9233 65.5121 68.0582 65.43 68.2966 65.2605C68.5533 65.0779 68.6973 64.9893 68.7287 64.9946C68.7601 64.9999 68.8412 64.949 68.9722 64.842C69.4097 64.5448 69.826 64.3246 70.2212 64.1816C70.2919 64.1451 70.3953 64.1061 70.5314 64.0645C70.6832 64.0256 70.8036 63.9814 70.8927 63.9319C70.9974 63.885 71.0563 63.8707 71.0693 63.8891C71.098 63.91 71.1661 63.8893 71.2734 63.8267C71.3808 63.7642 71.5117 63.7056 71.6662 63.651C71.8206 63.5964 71.9239 63.6057 71.976 63.6791C72.07 63.7917 72.0423 63.9081 71.8929 64.0281C71.7646 64.1194 71.716 64.216 71.7472 64.3181C71.7419 64.3495 71.7562 64.36 71.7903 64.3496C71.9891 64.3186 72.0846 64.3267 72.0766 64.3737C72.0713 64.4051 72.0935 64.4169 72.1432 64.4092C72.1773 64.3988 72.1982 64.4184 72.2059 64.4681C72.203 64.5806 72.1466 64.676 72.0366 64.7542C71.9633 64.8064 71.9239 64.8481 71.9186 64.8795C71.9133 64.9109 71.8884 64.9631 71.8438 65.0363C71.8175 65.0964 71.8279 65.1304 71.8749 65.1384C71.9377 65.149 71.9351 65.1646 71.867 65.1854C71.7413 65.261 71.6587 65.3681 71.6192 65.5066C71.6479 65.5276 71.6426 65.559 71.6033 65.6008C71.564 65.6425 71.5272 65.717 71.493 65.8242C71.4667 65.8843 71.4601 65.9235 71.4731 65.9418C71.4861 65.9602 71.5162 65.9733 71.5633 65.9813C71.6103 65.9892 71.6325 66.001 71.6299 66.0167C71.6456 66.0194 71.6338 66.0416 71.5944 66.0833C71.5551 66.1251 71.5524 66.1892 71.5862 66.2756C71.6357 66.3646 71.6264 66.4195 71.5584 66.4403C71.4903 66.4611 71.4352 66.5486 71.3931 66.7028C71.3509 66.857 71.284 66.9668 71.1923 67.032C71.1033 67.0815 71.043 67.152 71.0114 67.2435C70.9981 67.3219 70.9562 67.3793 70.8855 67.4158C70.8148 67.4523 70.7755 67.4941 70.7675 67.5411C70.7622 67.5725 70.6744 67.6626 70.5041 67.8113C70.3364 67.9443 70.2591 68.02 70.2721 68.0384C70.2878 68.041 70.2577 68.0763 70.1817 68.1441C70.1083 68.1963 70.0272 68.2471 69.9381 68.2966C69.8491 68.3461 69.7876 68.3761 69.7535 68.3865C69.6515 68.4177 69.6148 68.4437 69.6435 68.4647C69.6853 68.5041 69.57 68.6137 69.2976 68.7936C69.0435 68.9605 68.7227 69.1403 68.3352 69.333C67.9634 69.5284 67.6388 69.6834 67.3613 69.7979C66.966 69.9409 66.648 70.0567 66.4072 70.1451C65.7685 70.3923 65.1078 70.4825 64.4253 70.4157C63.9023 70.3597 63.4356 70.2567 63.0253 70.1068C62.7508 70.012 62.6044 69.9712 62.5861 69.9842C62.5678 69.9973 62.5847 70.0405 62.6368 70.1138C62.7124 70.2395 62.6405 70.2354 62.4211 70.1016L62.3584 70.0426C62.2148 69.9377 62.0373 69.7464 61.826 69.4687C61.6278 69.2093 61.5051 69.0757 61.4581 69.0677C61.3482 69.0492 61.2048 68.8475 61.0277 68.4626C60.7335 67.816 60.5826 67.4194 60.5751 67.2729C60.5706 66.9172 60.5206 66.4005 60.4253 65.7229C60.3429 65.0636 60.3928 64.3378 60.5749 63.5457C60.7754 62.7405 61.0895 61.9787 61.5173 61.2603C61.5436 61.2002 61.5909 61.1114 61.6591 60.9938C61.8298 60.6515 62.1538 60.2141 62.6309 59.6815C63.1107 59.1332 63.6021 58.6595 64.1051 58.2603C64.3304 58.0725 64.7365 57.7699 65.3232 57.3526C65.9126 56.9196 66.2689 56.6732 66.3919 56.6133C66.481 56.5638 66.5883 56.5012 66.714 56.4256C67.0964 56.1675 67.412 55.9706 67.6608 55.8351C67.7472 55.8013 67.8872 55.7362 68.081 55.6398C68.2774 55.5278 68.3834 55.4731 68.3991 55.4757C68.4148 55.4784 68.4934 55.4432 68.6348 55.3703C68.7918 55.3 68.9293 55.2506 69.047 55.222C69.1805 55.1961 69.2747 55.1636 69.3297 55.1245C69.403 55.0724 69.4632 55.0503 69.5103 55.0582C69.5731 55.0688 69.6149 55.0597 69.6359 55.031Z" fill="#FEC7FF"/>
<path d="M56.3644 61.4438C56.3825 61.5275 56.3876 61.5929 56.3797 61.64C56.3717 61.687 56.3808 61.7289 56.4069 61.7656C56.4303 61.8179 56.4195 61.9775 56.3745 62.2442C56.3452 62.5135 56.3029 62.7161 56.2477 62.852C56.1505 63.0454 56.1017 63.2388 56.1013 63.4324C56.0905 63.5919 56.0327 63.7435 55.9278 63.8871C55.8412 64.0177 55.7952 64.0987 55.7899 64.1301C55.7873 64.1458 55.7165 64.2307 55.5775 64.3847C55.4386 64.5387 55.2892 64.7071 55.1292 64.8899C54.9876 65.0596 54.8985 65.1575 54.8618 65.1836C54.7675 65.2645 54.6692 65.3689 54.5669 65.4968C54.4804 65.6274 54.3231 65.7945 54.0951 65.9981C53.8698 66.1859 53.7518 66.3112 53.7412 66.374C53.72 66.4995 53.4462 66.7356 52.9198 67.0824C52.7731 67.1867 52.6787 67.2676 52.6368 67.3251C52.5948 67.3825 52.5424 67.406 52.4797 67.3954C52.4326 67.3874 52.3646 67.4082 52.2755 67.4577C52.1892 67.4916 52.1146 67.5032 52.0518 67.4926C51.9891 67.482 51.9158 67.4858 51.8321 67.5039C51.7144 67.5324 51.53 67.5255 51.279 67.4832C51.0306 67.4251 50.8633 67.3646 50.7771 67.3016C50.6596 67.2334 50.572 67.2267 50.5143 67.2815C50.4593 67.3206 50.4095 67.3767 50.3649 67.4499C50.2809 67.5648 50.0951 67.6141 49.8074 67.5978C49.6479 67.587 49.5434 67.5371 49.4939 67.4481C49.4601 67.3617 49.4275 67.3159 49.3961 67.3106C49.3647 67.3053 49.3151 67.2646 49.2472 67.1886C49.1977 67.0996 49.1494 67.0511 49.1024 67.0432C49.071 67.0379 49.0227 66.9894 48.9575 66.8977C48.9106 66.793 48.8715 66.738 48.8401 66.7327C48.8088 66.7274 48.7957 66.709 48.801 66.6777C48.809 66.6306 48.7791 66.5207 48.7115 66.3479C48.6465 66.1595 48.6128 65.9763 48.6106 65.7984C48.611 65.6049 48.5916 65.4806 48.5525 65.4256C48.5004 65.3522 48.4577 65.1272 48.4244 64.7505C48.4065 64.57 48.432 64.2758 48.5008 63.8679C48.5696 63.46 48.6317 63.1881 48.6869 63.0522C48.7657 62.8719 48.8342 62.6576 48.8922 62.4092C48.9344 62.255 49.012 62.0341 49.1251 61.7466C49.2565 61.4461 49.3379 61.2985 49.3692 61.3038C49.4006 61.3091 49.4164 61.2633 49.4166 61.1666C49.4168 61.0698 49.4261 61.0149 49.4444 61.0018C49.4627 60.9888 49.4838 60.9117 49.5077 60.7705C49.5313 60.7261 49.5655 60.6189 49.6103 60.449C49.671 60.1849 49.7302 60.0255 49.7879 59.9707C49.8245 59.9446 49.8653 59.8466 49.9101 59.6767C49.9549 59.5068 49.9983 59.3931 50.0403 59.3356C50.1006 59.2651 50.1321 59.222 50.1347 59.2063C50.14 59.175 50.1518 59.1528 50.1702 59.1397C50.1885 59.1267 50.1925 59.1031 50.1821 59.0691C50.19 59.0221 50.2373 58.9332 50.3239 58.8026C50.4104 58.672 50.4643 58.544 50.4855 58.4185C50.5409 58.1858 50.5988 58.0342 50.6591 57.9637C50.7194 57.8932 50.743 57.8488 50.73 57.8305C50.7196 57.7964 50.809 57.5534 50.9983 57.1013C51.1902 56.6335 51.3071 56.3708 51.3491 56.3134C51.3884 56.2716 51.4462 56.1684 51.5223 56.0038C51.5985 55.8392 51.6681 55.7138 51.7311 55.6276C51.7783 55.5387 51.886 55.331 52.0541 55.0044C52.2405 54.6648 52.3377 54.4714 52.3456 54.4244C52.3509 54.393 52.3784 54.3734 52.4281 54.3657C52.4778 54.3579 52.5106 54.307 52.5265 54.2129C52.5689 53.9619 52.6647 53.7763 52.8141 53.6563C52.8691 53.6172 52.953 53.5023 53.0659 53.3116C53.1078 53.2541 53.1564 53.1575 53.2116 53.0216C53.2825 52.8883 53.3429 52.7694 53.3928 52.6649C53.4611 52.5473 53.524 52.4612 53.5817 52.4064C53.6027 52.3776 53.6577 52.3385 53.7467 52.289C53.9405 52.1926 54.0923 52.1537 54.2021 52.1722C54.2805 52.1855 54.3759 52.2419 54.4881 52.3415C54.5142 52.3782 54.5468 52.424 54.5859 52.479C54.6825 52.576 54.7934 52.7319 54.9185 52.9466C55.0593 53.164 55.1688 53.3277 55.247 53.4377C55.5131 53.7731 55.6355 54.0519 55.6141 54.2742C55.5982 54.3683 55.615 54.4599 55.6645 54.5489C55.714 54.6379 55.7177 54.7596 55.6756 54.9138C55.6517 55.055 55.6215 55.1386 55.5848 55.1647C55.5481 55.1908 55.5232 55.243 55.5099 55.3215C55.4993 55.3842 55.4547 55.4574 55.3761 55.5409C55.3131 55.6271 55.2868 55.6872 55.2972 55.7212C55.3076 55.7553 55.28 55.8232 55.2144 55.9251C55.1515 56.0113 55.1147 56.0857 55.1041 56.1485C55.0962 56.1956 55.066 56.2308 55.0137 56.2542C54.9796 56.2646 54.9061 56.4136 54.793 56.701C54.7405 56.8213 54.684 56.9166 54.6237 56.9871C54.5661 57.0419 54.5424 57.0863 54.5528 57.1204C54.5632 57.1544 54.5173 57.2354 54.415 57.3633C54.3311 57.4782 54.293 57.5605 54.3007 57.6103C54.3111 57.6443 54.2809 57.7279 54.21 57.8612C54.1548 57.9971 54.1087 58.1264 54.0718 58.2493C54.0376 58.3565 53.9904 58.4453 53.9301 58.5158C53.8198 58.6908 53.8366 58.8308 53.9802 58.9357C54.0664 58.9987 54.1408 59.0354 54.2036 59.046C54.3919 59.0778 54.559 59.1867 54.7051 59.3727C54.7834 59.4827 54.8539 59.543 54.9166 59.5536C54.9637 59.5616 55.0433 59.6153 55.1556 59.715C55.2679 59.8146 55.3853 59.9312 55.508 60.0649C55.6333 60.1828 55.7285 60.2877 55.7937 60.3793C56.1171 60.8534 56.3073 61.2082 56.3644 61.4438ZM53.5262 62.199C53.7047 61.9065 53.7965 61.7445 53.8018 61.7131C53.8151 61.6347 53.7431 61.679 53.5858 61.8461C53.4758 61.9243 53.4116 61.9699 53.3932 61.983C53.3252 62.0038 53.1052 62.1602 52.7331 62.4524C52.5812 62.5881 52.483 62.6442 52.4385 62.6205C52.3654 62.5759 52.1964 62.7168 51.9316 63.0432C51.8109 63.1842 51.7269 63.3475 51.6794 63.5331C51.6214 63.7815 51.5569 63.9723 51.486 64.1055C51.4597 64.1656 51.5763 64.0966 51.8356 63.8983C52.26 63.5827 52.6453 63.2121 52.9914 62.7864C53.0937 62.6585 53.1815 62.5684 53.2548 62.5163C53.3308 62.4484 53.4213 62.3427 53.5262 62.199ZM62.6855 57.4039C62.7193 57.4903 62.719 57.6355 62.6846 57.8394C62.6528 58.0277 62.5924 58.1466 62.5033 58.1961C62.43 58.2482 62.3605 58.3253 62.2949 58.4271C62.245 58.5316 62.1873 58.6348 62.1217 58.7367C61.9538 58.9665 61.8632 59.1207 61.85 59.1991C61.8394 59.2619 61.7882 59.3742 61.6963 59.5362C61.6227 59.6852 61.5741 59.7818 61.5505 59.8262C61.5426 59.8733 61.5084 59.9321 61.4481 60.0026C61.4035 60.0757 61.3786 60.128 61.3733 60.1594C61.3706 60.1751 61.3418 60.2025 61.2868 60.2416C61.2501 60.2677 61.2055 60.3408 61.1529 60.461C61.1004 60.5812 61.0124 60.7681 60.8889 61.0215C60.7471 61.288 60.6237 61.5415 60.5186 61.7819C60.4161 62.0066 60.3334 62.1621 60.2704 62.2483C60.2231 62.3371 60.2034 62.4064 60.2111 62.4561C60.2215 62.4901 60.2084 62.5202 60.1717 62.5462C60.0617 62.6245 59.9514 62.8479 59.8408 63.2165C59.7986 63.3707 59.7579 63.4687 59.7185 63.5105C59.6976 63.5392 59.6896 63.5863 59.6947 63.6517C59.7024 63.7014 59.68 63.7863 59.6275 63.9065C59.5749 64.0267 59.5026 64.2162 59.4105 64.475C59.3211 64.718 59.2554 64.8683 59.2134 64.9258C59.1898 64.9702 59.1687 65.0473 59.1502 65.1571C59.1367 65.3323 59.0762 65.4996 58.9687 65.6589C58.9057 65.7451 58.8281 65.966 58.7358 66.3215C58.7067 66.4941 58.6619 66.664 58.6014 66.8313C58.4172 67.3488 58.2921 67.7553 58.2261 68.0507C58.1838 68.3017 58.1088 68.5069 58.0012 68.6662C57.8963 68.8098 57.8306 68.9601 57.8041 69.117L57.7684 69.3288L57.6272 69.3049C57.4102 69.2522 57.2924 69.2807 57.2739 69.3905C57.2686 69.4219 57.2581 69.4363 57.2424 69.4336C57.2398 69.4493 57.2189 69.4296 57.1798 69.3746C57.125 69.317 57.0727 69.292 57.023 69.2998C56.989 69.3102 56.9459 69.2787 56.8937 69.2053C56.8546 69.1503 56.8089 69.0862 56.7568 69.0128C56.7203 68.9421 56.6488 68.7445 56.5422 68.4199C56.454 68.0823 56.3996 67.8311 56.379 67.6663C56.3584 67.5015 56.3458 67.2896 56.3411 67.0306C56.3364 66.7717 56.3445 66.6278 56.3655 66.5991C56.3891 66.5547 56.3866 66.522 56.3579 66.501C56.3448 66.4827 56.3503 66.3545 56.3743 66.1165C56.4167 65.8655 56.434 65.7152 56.4263 65.6655C56.4185 65.6158 56.4542 65.4523 56.5332 65.1753C56.628 64.9008 56.6845 64.7571 56.7028 64.744C56.7368 64.7336 56.7461 64.6787 56.7306 64.5793C56.7151 64.4799 56.7258 64.3687 56.7627 64.2459C56.868 63.9087 56.9497 63.6159 57.0078 63.3676C57.0263 63.2577 57.0644 63.1754 57.122 63.1206C57.1954 63.0685 57.2007 63.0371 57.1379 63.0265C57.0935 63.0029 57.0832 62.9204 57.1071 62.7792C57.1466 62.6407 57.186 62.5505 57.2253 62.5088C57.2437 62.4957 57.2556 62.4251 57.2611 62.297C57.2849 62.1558 57.2916 62.0682 57.2812 62.0342C57.2708 62.0001 57.2853 61.9622 57.3246 61.9205C57.3796 61.8813 57.4138 61.8226 57.427 61.7441C57.4402 61.6657 57.481 61.5677 57.5492 61.4501C57.6175 61.3326 57.6477 61.2489 57.64 61.1992C57.6322 61.1495 57.6585 61.0894 57.7188 61.0189C57.7818 60.9327 57.8067 60.8805 57.7937 60.8621C57.7833 60.8281 57.8083 60.7274 57.8689 60.5602C57.945 60.3955 57.9793 60.2884 57.9715 60.2387C57.9821 60.1759 58.0071 60.1237 58.0464 60.0819C58.0884 60.0244 58.1765 59.7892 58.3107 59.3762C58.3449 59.269 58.3817 59.1946 58.421 59.1528C58.4683 59.064 58.5341 58.8653 58.6184 58.5569C58.65 58.4654 58.6462 58.3921 58.6071 58.3371C58.5837 58.2848 58.6283 58.2116 58.741 58.1177C58.8536 58.0238 58.9153 57.9454 58.9258 57.8827C58.9417 57.7885 59.0232 57.5925 59.1703 57.2947C59.3174 56.9968 59.4303 56.8061 59.5089 56.7225C59.6085 56.6103 59.7332 56.3974 59.8829 56.0838C60.0484 55.7729 60.1285 55.5847 60.1234 55.5193C60.1183 55.4539 60.1538 55.3873 60.2298 55.3195C60.3084 55.2359 60.3713 55.1981 60.4183 55.2061C60.4811 55.2167 60.523 55.2076 60.5439 55.1789C60.5676 55.1344 60.6146 55.1424 60.6851 55.2027C60.7426 55.2447 60.8132 55.2566 60.8969 55.2384C60.9833 55.2046 61.0434 55.2309 61.0772 55.3173C61.1137 55.388 61.1855 55.4404 61.2927 55.4747C61.4156 55.5115 61.4952 55.5653 61.5317 55.636C61.5865 55.6937 61.6296 55.7251 61.661 55.7304C61.6924 55.7357 61.7106 55.7711 61.7157 55.8365C61.7391 55.8888 61.7665 55.9177 61.7979 55.923C61.845 55.9309 61.8854 55.9781 61.9192 56.0645C61.9531 56.1508 62.004 56.1836 62.072 56.1629C62.1165 56.1865 62.1465 56.1996 62.1622 56.2023C62.1412 56.231 62.2011 56.3541 62.3419 56.5715C62.501 56.7758 62.5636 56.8832 62.5296 56.8936C62.5112 56.9066 62.5268 56.9576 62.5763 57.0467C62.6258 57.1357 62.648 57.1959 62.6427 57.2273C62.64 57.243 62.6543 57.3019 62.6855 57.4039Z" fill="#FEC7FF"/>
<path d="M50.6141 54.7696C50.6218 54.8193 50.5783 54.9814 50.4836 55.2558C50.3889 55.5302 50.2929 55.7641 50.1957 55.9575C50.0986 56.1508 50.0027 56.3364 49.9082 56.514C49.832 56.6786 49.7348 56.872 49.6167 57.0941C49.5038 57.2848 49.4106 57.4546 49.337 57.6035C49.2609 57.7682 49.2044 57.8635 49.1677 57.8896C49.1311 57.9157 49.0195 58.0985 48.8331 58.4382C48.6467 58.7778 48.5509 58.9633 48.5456 58.9947C48.5376 59.0418 48.5153 59.0784 48.4786 59.1044C48.387 59.1696 48.215 59.4714 47.9628 60.0097C47.8656 60.203 47.7738 60.365 47.6872 60.4956C47.6189 60.6132 47.5558 60.7961 47.4977 61.0445C47.3502 61.5359 47.2201 61.877 47.1072 62.0677C47.0233 62.1826 46.9852 62.2649 46.9929 62.3146C47.0163 62.367 47.0097 62.4062 46.973 62.4323C46.8971 62.5001 46.805 62.7589 46.6968 63.2086C46.652 63.3785 46.6086 63.4922 46.5666 63.5496C46.543 63.594 46.485 63.794 46.3928 64.1495C46.3005 64.5051 46.2476 64.7705 46.2342 64.9457C46.213 65.0712 46.1537 65.279 46.0563 65.5691C45.9747 65.8619 45.9246 66.0148 45.9063 66.0279C45.8723 66.0382 45.8513 66.067 45.8434 66.114C45.8354 66.1611 45.7948 66.2107 45.7214 66.2629C45.6481 66.315 45.58 66.3358 45.5173 66.3252C45.4702 66.3173 45.4335 66.3434 45.4073 66.4035C45.3574 66.508 45.2868 66.4961 45.1955 66.3677C45.1433 66.2944 45.0832 66.2681 45.0152 66.2889C44.9471 66.3097 44.9 66.3017 44.874 66.265C44.8636 66.231 44.8165 66.2231 44.7328 66.2412C44.6517 66.2437 44.6138 66.2292 44.6191 66.1978C44.627 66.1508 44.5931 66.1128 44.5173 66.0838C44.4572 66.0576 44.3815 65.9802 44.2902 65.8519C44.2146 65.7262 44.122 65.6057 44.0124 65.4904C43.9211 65.362 43.8848 65.2429 43.9033 65.1331C43.9483 64.8664 43.9148 64.6349 43.8027 64.4385C43.6515 64.187 43.687 63.4992 43.909 62.375C43.9935 61.9697 44.0476 61.7449 44.0712 61.7005L44.0596 61.6259C43.9916 61.6467 43.8684 61.755 43.6902 61.9508C43.5119 62.1466 43.3612 62.2744 43.2382 62.3344C43.1151 62.3943 43.0548 62.4648 43.0573 62.5458C43.0754 62.6296 43.0688 62.6688 43.0374 62.6635C43.006 62.6582 42.9497 62.7052 42.8684 62.8044C42.8054 62.8906 42.757 62.9389 42.7229 62.9493C42.7046 62.9623 42.647 62.9687 42.5503 62.9685C42.4378 62.9657 42.2809 62.9392 42.0796 62.8891C41.9254 62.8469 41.8456 62.8415 41.8403 62.8729C41.822 62.8859 41.7749 62.878 41.6991 62.8491C41.6417 62.8071 41.5777 62.756 41.5072 62.6957C41.4524 62.638 41.4185 62.6 41.4054 62.5817C41.395 62.5476 41.3663 62.5267 41.3192 62.5187C41.2722 62.5108 41.1952 62.4413 41.0882 62.3103C40.9969 62.1819 40.8874 62.0182 40.7596 61.8192C40.6319 61.6201 40.5198 61.4237 40.4234 61.23C40.1135 60.5807 39.9252 59.9277 39.8586 59.2711C39.8354 59.1219 39.8147 59.0055 39.7965 58.9217C39.7448 58.6548 39.7288 58.1762 39.7485 57.4857C39.7682 56.7952 39.8112 56.2539 39.8774 55.8617C39.9226 55.4982 39.9387 55.3073 39.9257 55.2889L39.8431 55.3476L39.658 55.7278C39.5502 55.9839 39.3914 56.2556 39.1816 56.5429C39.0766 56.6865 39.0176 56.7976 39.0043 56.876C38.9937 56.9388 38.936 57.042 38.831 57.1856C38.7288 57.3136 38.671 57.4168 38.6578 57.4952C38.6445 57.5736 38.6196 57.6259 38.5829 57.652C38.5462 57.6781 38.478 57.7956 38.3782 58.0047C38.294 58.2164 38.2323 58.3431 38.193 58.3849C38.172 58.4136 38.1352 58.488 38.0827 58.6083C38.0458 58.7311 37.9736 58.8722 37.866 59.0315C37.7611 59.1752 37.6902 59.3084 37.6533 59.4313C37.6191 59.5385 37.5836 59.6051 37.547 59.6312C37.5129 59.6416 37.4906 59.6781 37.48 59.7409C37.4695 59.8036 37.4235 59.8846 37.3422 59.9838C37.2636 60.0674 37.1953 60.1849 37.1375 60.3365C37.0953 60.4908 37.0441 60.6031 36.9838 60.6736C36.9025 60.7728 36.6609 61.2484 36.2589 62.1002C36.1145 62.3824 36.0028 62.6137 35.924 62.794C35.8295 62.9717 35.7165 63.2108 35.5851 63.5113C35.472 63.7988 35.388 63.9621 35.333 64.0012C35.2806 64.0246 35.2478 64.0756 35.2346 64.154C35.2214 64.2324 35.1964 64.2847 35.1597 64.3108C35.1257 64.3212 35.1034 64.3577 35.0928 64.4205C35.0849 64.4676 35.0389 64.5485 34.955 64.6635C34.8711 64.7784 34.8225 64.875 34.8092 64.9535C34.7933 65.0476 34.75 65.1129 34.6794 65.1494C34.6243 65.1885 34.5942 65.2238 34.5889 65.2551C34.5836 65.2865 34.5338 65.3426 34.4395 65.4235C34.3582 65.5228 34.2638 65.6036 34.1565 65.6662C34.0465 65.7444 33.9758 65.7809 33.9444 65.7756C33.9287 65.773 33.9261 65.7403 33.9367 65.6775C33.9473 65.6148 33.9304 65.5716 33.886 65.5479C33.8389 65.54 33.8036 65.5582 33.78 65.6026C33.7563 65.6471 33.7328 65.6431 33.7094 65.5907C33.6859 65.5384 33.6323 65.5213 33.5486 65.5394C33.4779 65.5759 33.4374 65.5771 33.427 65.5431C33.4166 65.509 33.3722 65.4854 33.2937 65.4722C33.2153 65.4589 33.18 65.4288 33.188 65.3817C33.1933 65.3503 33.1802 65.332 33.1489 65.3267C33.0547 65.3108 32.9203 65.1994 32.7454 64.9924C32.5837 64.8037 32.5094 64.6702 32.5226 64.5917C32.5332 64.529 32.5124 64.4609 32.4603 64.3876C32.3924 64.3116 32.3888 64.19 32.4493 64.0227C32.4967 63.8371 32.4879 63.6984 32.4227 63.6068C32.3862 63.5361 32.3732 63.4693 32.3838 63.4066C32.3971 63.3281 32.4485 63.119 32.5381 62.7792C32.6856 62.2877 32.9722 61.5939 33.3977 60.6976C33.9205 59.608 34.4431 58.5667 34.9657 57.5739C36.024 55.5098 36.7304 54.193 37.0846 53.6235C37.1529 53.5059 37.2434 53.3518 37.3563 53.1611C37.9836 52.1214 38.4546 51.386 38.7694 50.9551C39.0631 50.5529 39.2493 50.3101 39.328 50.2265C39.4066 50.143 39.463 50.0476 39.4973 49.9405C39.5472 49.8359 39.5878 49.7863 39.6192 49.7916C39.6506 49.7969 39.7095 49.7827 39.7958 49.7488C39.8849 49.6993 40.0222 49.6983 40.2078 49.7458C40.4118 49.7802 40.5385 49.8419 40.588 49.9309C40.6532 50.0226 40.7197 50.1065 40.7876 50.1825C40.8424 50.2401 40.8997 50.3305 40.9596 50.4535C41.0352 50.5792 41.0704 50.6578 41.0651 50.6891C41.0598 50.7205 41.0976 50.7834 41.1785 50.8777C41.2594 50.972 41.3324 51.065 41.3976 51.1567C41.4785 51.251 41.5425 51.3022 41.5895 51.3101C41.6549 51.305 41.6928 51.3195 41.7032 51.3535C41.7293 51.3902 41.7816 51.4151 41.86 51.4284C41.9541 51.4443 42.0273 51.4889 42.0794 51.5622C42.1864 51.6932 42.3496 51.8257 42.5691 51.9595C42.6292 51.9858 42.6905 52.0526 42.753 52.16C42.8182 52.2517 42.8729 52.3577 42.9172 52.4781C42.9614 52.5985 42.986 52.6914 42.9911 52.7568C42.9856 52.885 42.9958 53.0158 43.0217 53.1492C43.0476 53.2827 43.0514 53.3559 43.033 53.369C43.0147 53.382 43.0146 53.4304 43.0327 53.5141C43.0613 53.6319 42.9962 54.113 42.8375 54.9575C42.7874 55.1588 42.7662 55.2843 42.774 55.3341C42.8 55.3707 42.6674 56.2519 42.3762 57.9776C42.2965 58.545 42.2868 58.8419 42.3469 58.8682C42.4699 58.8082 42.6403 58.6111 42.8581 58.2768C43.0576 57.9555 43.3053 57.6826 43.6013 57.4583C43.693 57.3931 43.7703 57.3174 43.8333 57.2312C43.8962 57.1451 44.203 56.8096 44.7534 56.2248C45.047 55.9194 45.2476 55.687 45.3552 55.5277C45.4601 55.3841 45.599 55.23 45.772 55.0656C45.945 54.9012 46.0354 54.7954 46.0434 54.7484C46.0696 54.6883 46.1299 54.6178 46.2243 54.5369C46.3212 54.4403 46.3711 54.3842 46.3737 54.3685C46.379 54.3371 46.4865 54.2262 46.6961 54.0356C46.9084 53.8295 47.025 53.712 47.046 53.6833C47.067 53.6545 47.1483 53.5553 47.2899 53.3856C47.5154 53.101 47.8847 52.8729 48.3977 52.7013C48.6882 52.6051 48.8609 52.5858 48.9157 52.6435C48.9862 52.7038 49.0528 52.7393 49.1156 52.7498C49.194 52.7631 49.2384 52.7867 49.2488 52.8207C49.2592 52.8548 49.3324 52.8994 49.4683 52.9546C49.6773 53.0544 49.8783 53.2497 50.0713 53.5404C50.1782 53.6714 50.2709 53.7435 50.3494 53.7568C50.4278 53.77 50.48 53.8434 50.5059 53.9768C50.5501 54.0972 50.5865 54.1679 50.6153 54.1889C50.644 54.2099 50.6451 54.2988 50.6186 54.4557C50.5948 54.5969 50.5933 54.7015 50.6141 54.7696Z" fill="#FEC7FF"/>
<path d="M31.4308 48.5989C31.4702 48.5571 31.5773 48.5913 31.7523 48.7015C31.9561 48.8327 32.1155 48.8919 32.2306 48.8791C32.262 48.8844 32.2907 48.9054 32.3168 48.942C32.3586 48.9813 32.4292 48.9933 32.5286 48.9778C32.6123 48.9596 32.6607 48.9597 32.6738 48.9781C32.7025 48.9991 32.7638 49.0659 32.8578 49.1785C33.0638 49.4876 33.2295 49.6527 33.355 49.6739C33.4178 49.6845 33.4595 49.7238 33.4803 49.7919C33.5011 49.8599 33.535 49.8979 33.5821 49.9059C33.6292 49.9138 33.7179 50.0095 33.8483 50.1928C33.997 50.3632 34.0583 50.4784 34.032 50.5385C34.0057 50.5986 34.0029 50.6626 34.0237 50.7307C34.0732 50.8197 34.0871 51.0722 34.0653 51.488C34.0415 51.6292 34.0321 51.7325 34.0372 51.7979C34.0423 51.8633 33.9924 51.9678 33.8875 52.1115C33.7983 52.2577 33.7497 52.3544 33.7417 52.4015C33.7364 52.4329 33.6617 52.5413 33.5174 52.7267C33.3915 52.899 33.318 53.048 33.2968 53.1735C33.2783 53.2833 33.2375 53.3813 33.1746 53.4675C33.1116 53.5537 33.0591 53.6255 33.0172 53.6829C32.9935 53.7274 32.9058 53.769 32.7541 53.8079C32.6206 53.8338 32.499 53.8375 32.3892 53.819C32.0179 53.724 31.8363 53.653 31.8442 53.606C31.8495 53.5746 31.7934 53.5248 31.6758 53.4565C31.5583 53.3883 31.4826 53.311 31.4488 53.2246C31.4333 53.1252 31.389 53.0531 31.3158 53.0085C31.2453 52.9482 31.2154 52.8867 31.226 52.8239C31.2365 52.7612 31.1935 52.7297 31.0967 52.7295C30.8691 52.7395 30.5968 52.871 30.2798 53.1241C30.1488 53.2311 30.0204 53.3223 29.8947 53.3979C29.769 53.4735 29.6944 53.5335 29.6707 53.578C29.6628 53.625 29.5776 53.6994 29.4153 53.8011C29.2555 53.887 29.1193 53.977 29.0067 54.0709C28.894 54.1649 28.8115 54.2235 28.7591 54.247C28.7094 54.2547 28.6806 54.2821 28.6726 54.3292C28.6673 54.3606 28.5534 54.4623 28.3307 54.6345C28.1106 54.791 27.9993 54.8771 27.9967 54.8928C27.994 54.9084 27.973 54.9372 27.9337 54.9789C27.6193 55.2163 27.4569 55.3664 27.4463 55.4291C27.441 55.4605 27.4108 55.4958 27.3558 55.5349C27.3191 55.561 27.289 55.5962 27.2654 55.6406C27.2601 55.672 27.1984 55.7503 27.0805 55.8756C26.7842 56.1968 26.6229 56.4357 26.5964 56.5926C26.5885 56.6397 26.5478 56.6893 26.4745 56.7415C26.3095 56.8588 26.1232 57.1017 25.9159 57.4701C25.8213 57.6477 25.7531 57.7653 25.7111 57.8227C25.6875 57.8672 25.6218 58.0174 25.514 58.2735C25.4219 58.5323 25.3431 58.7126 25.2775 58.8145C25.2302 58.9033 25.1829 59.0405 25.1354 59.2261C24.9508 59.9372 24.8584 60.3895 24.858 60.5831L24.8457 60.7988L25.034 60.8306C25.1752 60.8544 25.3112 60.8613 25.442 60.8511C25.5911 60.8278 25.7468 60.8138 25.909 60.8089C26.0895 60.7909 26.2243 60.7572 26.3133 60.7077C26.3813 60.6869 26.5083 60.6519 26.6941 60.6025C26.8982 60.5402 27.0081 60.5103 27.0238 60.513C27.0395 60.5156 27.1089 60.487 27.2319 60.4271C27.3733 60.3542 27.4624 60.3046 27.499 60.2786C27.5384 60.2368 27.6091 60.2003 27.7111 60.1691C28.0226 60.0442 28.3264 59.8696 28.6224 59.6453C28.8791 59.4627 29.0153 59.3728 29.031 59.3754C29.0467 59.3781 29.1514 59.3312 29.3452 59.2348C29.5573 59.1254 29.6712 59.072 29.6869 59.0747C29.7182 59.08 29.8531 58.9979 30.0915 58.8283C30.3482 58.6458 30.4922 58.5571 30.5236 58.5624C30.555 58.5677 30.6362 58.5169 30.7672 58.4099C31.2046 58.1126 31.6209 57.8925 32.0162 57.7494C32.0869 57.713 32.1903 57.6739 32.3264 57.6324C32.4781 57.5935 32.5986 57.5492 32.6876 57.4997C32.7923 57.4529 32.8512 57.4386 32.8642 57.4569C32.893 57.4779 32.961 57.4571 33.0684 57.3946C33.1757 57.332 33.3066 57.2734 33.4611 57.2188C33.6155 57.1642 33.7188 57.1736 33.771 57.2469C33.8649 57.3596 33.8372 57.4759 33.6879 57.596C33.5595 57.6872 33.5109 57.7839 33.5421 57.886C33.5368 57.9174 33.5512 57.9279 33.5852 57.9175C33.784 57.8865 33.8795 57.8945 33.8715 57.9416C33.8662 57.973 33.8885 57.9848 33.9382 57.977C33.9722 57.9666 33.9931 57.9863 34.0008 58.036C33.998 58.1485 33.9415 58.2438 33.8315 58.3221C33.7582 58.3742 33.7189 58.416 33.7136 58.4474C33.7083 58.4788 33.6833 58.531 33.6387 58.6042C33.6124 58.6643 33.6228 58.6983 33.6699 58.7062C33.7326 58.7168 33.73 58.7325 33.6619 58.7533C33.5362 58.8289 33.4536 58.936 33.4141 59.0745C33.4428 59.0955 33.4375 59.1269 33.3982 59.1686C33.3589 59.2104 33.3221 59.2849 33.2879 59.392C33.2616 59.4521 33.255 59.4914 33.268 59.5097C33.2811 59.528 33.3111 59.5412 33.3582 59.5491C33.4052 59.5571 33.4275 59.5689 33.4248 59.5846C33.4405 59.5872 33.4287 59.6094 33.3894 59.6512C33.35 59.693 33.3473 59.757 33.3811 59.8434C33.4306 59.9325 33.4214 59.9874 33.3533 60.0082C33.2853 60.0289 33.2302 60.1164 33.188 60.2707C33.1458 60.4249 33.0789 60.5346 32.9872 60.5998C32.8982 60.6493 32.8379 60.7198 32.8063 60.8113C32.7931 60.8898 32.7511 60.9472 32.6804 60.9837C32.6097 61.0202 32.5704 61.0619 32.5624 61.109C32.5571 61.1404 32.4693 61.2304 32.299 61.3792C32.1313 61.5122 32.054 61.5879 32.0671 61.6062C32.0828 61.6089 32.0526 61.6441 31.9766 61.712C31.9033 61.7642 31.8221 61.815 31.733 61.8645C31.644 61.914 31.5825 61.944 31.5485 61.9544C31.4464 61.9855 31.4097 62.0116 31.4384 62.0326C31.4802 62.0719 31.3649 62.1815 31.0925 62.3615C30.8384 62.5283 30.5177 62.7081 30.1302 62.9009C29.7583 63.0963 29.4337 63.2513 29.1562 63.3658C28.7609 63.5088 28.4429 63.6246 28.2021 63.713C27.5634 63.9602 26.9028 64.0503 26.2202 63.9835C25.6972 63.9275 25.2305 63.8246 24.8202 63.6746C24.5458 63.5799 24.3994 63.5391 24.381 63.5521C24.3627 63.5651 24.3796 63.6083 24.4318 63.6817C24.5074 63.8074 24.4354 63.8033 24.216 63.6695L24.1534 63.6105C24.0097 63.5056 23.8322 63.3142 23.621 63.0366C23.4227 62.7772 23.3 62.6436 23.253 62.6356C23.1432 62.6171 22.9997 62.4154 22.8227 62.0305C22.5284 61.3839 22.3775 60.9873 22.37 60.8408C22.3655 60.4851 22.3156 59.9684 22.2202 59.2907C22.1378 58.6314 22.1877 57.9057 22.3698 57.1136C22.5703 56.3084 22.8844 55.5466 23.3122 54.8282C23.3385 54.7681 23.3858 54.6792 23.454 54.5617C23.6248 54.2194 23.9487 53.7819 24.4258 53.2493C24.9056 52.7011 25.397 52.2273 25.9 51.8282C26.1254 51.6403 26.5314 51.3378 27.1182 50.9205C27.7076 50.4875 28.0638 50.2411 28.1868 50.1812C28.2759 50.1316 28.3832 50.0691 28.509 49.9935C28.8914 49.7353 29.2069 49.5385 29.4557 49.403C29.5421 49.3692 29.6822 49.3041 29.8759 49.2077C30.0723 49.0956 30.1784 49.0409 30.1941 49.0436C30.2097 49.0462 30.2883 49.0111 30.4297 48.9381C30.5868 48.8678 30.7242 48.8184 30.8419 48.7899C30.9754 48.764 31.0696 48.7315 31.1246 48.6924C31.198 48.6402 31.2582 48.6181 31.3052 48.6261C31.368 48.6367 31.4099 48.6276 31.4308 48.5989Z" fill="#FEC7FF"/>
<path d="M102.165 44.1323C102.118 44.4111 101.988 44.6261 101.776 44.7774C101.591 44.909 101.406 44.9592 101.222 44.9281C101.089 44.9058 100.993 44.8433 100.933 44.7408C100.872 44.6382 100.855 44.5078 100.882 44.3495C100.917 44.1439 101.026 43.9351 101.21 43.7232C101.396 43.5116 101.558 43.4282 101.693 43.473C101.73 43.4719 101.767 43.4746 101.805 43.4809C101.94 43.5037 102.039 43.5679 102.104 43.6736C102.177 43.7904 102.197 43.9433 102.165 44.1323ZM101.999 44.1042C102.023 43.96 102.009 43.846 101.958 43.7619C101.916 43.6941 101.86 43.6542 101.789 43.6422C101.749 43.6355 101.719 43.6328 101.699 43.6344C101.682 43.6339 101.661 43.6376 101.635 43.6455C101.506 43.6771 101.382 43.7692 101.264 43.9218C101.148 44.0748 101.077 44.2329 101.049 44.3959C101.03 44.5117 101.042 44.6025 101.087 44.6684C101.126 44.726 101.182 44.761 101.255 44.7733C101.411 44.7997 101.565 44.7454 101.716 44.6106C101.871 44.4738 101.965 44.305 101.999 44.1042Z" fill="white"/>
<path d="M100.789 43.906C100.742 44.1824 100.629 44.4038 100.447 44.5701C100.284 44.7198 100.127 44.7822 99.9784 44.757C99.9264 44.7483 99.8622 44.718 99.7859 44.6662C99.7096 44.6145 99.6414 44.5507 99.5813 44.4749L99.5724 44.4625C99.4743 44.6695 99.3965 44.8423 99.3391 44.9809C99.2841 45.1198 99.2514 45.22 99.241 45.2814C99.2394 45.2909 99.2392 45.3066 99.2403 45.3287C99.2415 45.3508 99.241 45.3677 99.239 45.3795C99.2318 45.4221 99.2147 45.452 99.1874 45.4692C99.1602 45.4865 99.1324 45.4928 99.1041 45.488C99.0686 45.482 99.0435 45.4656 99.0285 45.4388C99.0136 45.412 99.0094 45.3796 99.0157 45.3418C99.0293 45.2615 99.1144 45.0523 99.2711 44.7142C99.3863 44.4639 99.4963 44.237 99.6011 44.0335C99.7684 43.7045 99.8612 43.5221 99.8794 43.4863C99.9818 43.297 100.066 43.208 100.132 43.2192C100.163 43.2243 100.183 43.2362 100.192 43.2547C100.204 43.2713 100.207 43.2938 100.202 43.3221C100.198 43.3481 100.186 43.3729 100.168 43.3965C100.096 43.4889 100.053 43.5533 100.037 43.5895C100.139 43.5022 100.235 43.4358 100.326 43.3903C100.418 43.3452 100.498 43.3283 100.564 43.3394C100.649 43.3538 100.715 43.411 100.761 43.5112C100.808 43.609 100.817 43.7406 100.789 43.906ZM100.617 43.9133C100.639 43.781 100.635 43.6746 100.605 43.5942C100.582 43.5295 100.549 43.4936 100.506 43.4864C100.45 43.4769 100.369 43.5106 100.263 43.5876C100.161 43.6626 100.051 43.768 99.9329 43.9036C99.8298 44.0248 99.7358 44.1571 99.6508 44.3007C99.6849 44.3575 99.7399 44.4203 99.8158 44.489C99.8945 44.5557 99.9645 44.5943 100.026 44.6047C100.135 44.623 100.248 44.5693 100.367 44.4435C100.497 44.3051 100.58 44.1283 100.617 43.9133Z" fill="white"/>
<path d="M99.3817 43.3776C99.3899 43.4154 99.3933 43.4597 99.392 43.5105C99.3908 43.5614 99.3865 43.608 99.3793 43.6506C99.357 43.7829 99.3136 43.9031 99.2492 44.0114C99.1848 44.1196 99.1101 44.209 99.0253 44.2798C98.9317 44.3588 98.8302 44.4133 98.7206 44.4434C98.6311 44.4696 98.5415 44.4751 98.4517 44.46C98.3548 44.4436 98.2751 44.4047 98.2126 44.3431C98.1501 44.2815 98.1105 44.1995 98.0937 44.097C98.0875 44.0619 98.0852 44.0251 98.0869 43.9865C98.0889 43.9455 98.0934 43.905 98.1001 43.8648C98.1093 43.8104 98.119 43.7671 98.1294 43.7349C98.1397 43.7026 98.1563 43.6616 98.1793 43.612C98.0436 43.6961 97.9317 43.7829 97.8437 43.8725C97.8026 43.9142 97.7556 43.9695 97.7027 44.0383C97.6521 44.1075 97.6223 44.1475 97.6132 44.1581C97.5855 44.1923 97.5597 44.2159 97.5356 44.2288C97.512 44.2394 97.4895 44.2429 97.4683 44.2393C97.447 44.2357 97.4295 44.2243 97.4157 44.2049C97.4067 44.1864 97.4044 44.1641 97.4088 44.1381C97.4172 44.0885 97.4431 44.0212 97.4866 43.9362C97.508 43.8961 97.5459 43.8296 97.6005 43.7367C97.6179 43.7056 97.6823 43.6047 97.7937 43.434C97.8431 43.3572 97.872 43.2941 97.8804 43.2445C97.89 43.1877 97.8983 43.1527 97.9054 43.1393C97.9272 43.0968 97.9704 43.064 98.0351 43.0409C98.0611 43.0307 98.0859 43.0276 98.1095 43.0316C98.1426 43.0372 98.1554 43.0624 98.1478 43.1073C98.1422 43.1404 98.1282 43.1733 98.1056 43.2059C98.0558 43.285 98.0175 43.3466 97.9906 43.3906C97.94 43.4745 97.9074 43.5309 97.8928 43.56L97.8085 43.7354C97.8701 43.6729 97.9326 43.619 97.9961 43.5738C98.0017 43.5699 98.0563 43.5342 98.16 43.4666L98.2825 43.3889C98.3762 43.2516 98.4467 43.1578 98.4941 43.1074C98.5415 43.0571 98.5793 43.0343 98.6077 43.0391C98.6219 43.0415 98.6401 43.0555 98.6625 43.0812C98.7154 43.0415 98.7736 43.0137 98.837 42.9977C98.9005 42.9816 98.9547 42.9774 98.9996 42.985C99.0941 43.0009 99.1755 43.0438 99.2439 43.1137C99.3151 43.1816 99.361 43.2696 99.3817 43.3776ZM99.1164 43.9124C99.1623 43.8278 99.1942 43.7323 99.2122 43.626C99.2261 43.5433 99.2267 43.468 99.2138 43.4003C99.2033 43.3329 99.1776 43.2763 99.1367 43.2305C99.0982 43.1851 99.0494 43.1574 98.9904 43.1475C98.9313 43.1375 98.8734 43.1423 98.8166 43.1619C98.7393 43.1877 98.6596 43.2423 98.5775 43.3257C98.3959 43.5089 98.288 43.7021 98.2537 43.9053C98.2338 44.0234 98.2454 44.1202 98.2886 44.1955C98.3074 44.2279 98.3339 44.2578 98.3681 44.2855C98.4051 44.3112 98.4461 44.3278 98.4909 44.3354C98.5406 44.3438 98.5985 44.339 98.6647 44.321C98.7518 44.2944 98.837 44.2431 98.9203 44.1673C99.004 44.089 99.0694 44.0041 99.1164 43.9124Z" fill="white"/>
<path d="M98.1947 42.1347C98.1879 42.1749 98.1798 42.1942 98.1704 42.1926C98.1562 42.1902 98.143 42.1819 98.1308 42.1677C98.1187 42.1535 98.0889 42.1424 98.0417 42.1344C97.9117 42.1125 97.7376 42.1147 97.5193 42.141C97.2639 42.1708 97.1297 42.2247 97.1165 42.3027C97.1101 42.3405 97.1244 42.3854 97.1594 42.4375C97.1751 42.4596 97.2085 42.4993 97.2596 42.5565C97.3512 42.6619 97.415 42.7662 97.451 42.8695C97.4992 43.0016 97.5097 43.1479 97.4826 43.3086C97.4439 43.5378 97.3259 43.7403 97.1286 43.9159C96.934 44.0897 96.741 44.1604 96.5496 44.1281C96.4551 44.1121 96.3825 44.0598 96.3319 43.971C96.284 43.8803 96.272 43.7641 96.296 43.6223C96.3323 43.4073 96.4256 43.2286 96.576 43.0863C96.7177 42.9523 96.8547 42.8964 96.987 42.9188C97.0744 42.9335 97.1449 42.977 97.1983 43.0492C97.2545 43.1194 97.2746 43.2018 97.2587 43.2963C97.2535 43.327 97.245 43.3487 97.2331 43.3613C97.2213 43.3739 97.2035 43.3782 97.1799 43.3742C97.161 43.371 97.15 43.3497 97.1469 43.3103C97.1408 43.2461 97.1361 43.2088 97.133 43.1986C97.1256 43.1706 97.1158 43.1495 97.1036 43.1353C97.0816 43.1073 97.0517 43.0901 97.0139 43.0837C96.891 43.0629 96.7719 43.1133 96.6566 43.2348C96.5417 43.3539 96.4711 43.4915 96.4448 43.6474C96.4265 43.7561 96.435 43.8426 96.4703 43.9069C96.5001 43.9605 96.5434 43.9922 96.6001 44.0017C96.7324 44.0241 96.8791 43.954 97.0402 43.7917C97.2012 43.6293 97.2983 43.4501 97.3314 43.2539C97.351 43.1382 97.3461 43.0304 97.3167 42.9307C97.2952 42.8566 97.2554 42.783 97.1972 42.71C97.1414 42.6374 97.0864 42.5674 97.0322 42.4999C96.9717 42.4119 96.9471 42.3348 96.9582 42.2687C96.9718 42.1883 97.0353 42.1213 97.1489 42.0676C97.2861 42.0032 97.4936 41.9617 97.7714 41.943C97.8723 41.9357 97.9558 41.9376 98.022 41.9488C98.0952 41.9612 98.1458 41.9855 98.1737 42.0218C98.1957 42.0498 98.2027 42.0875 98.1947 42.1347Z" fill="white"/>
<path d="M92.996 35.4129C93.1126 35.4325 93.1979 35.4833 93.2518 35.5652C93.3117 35.6428 93.3318 35.7398 93.3122 35.856L92.6726 39.6456C92.6529 39.7618 92.6017 39.8493 92.5188 39.908C92.4418 39.9626 92.345 39.98 92.2285 39.9604L91.8483 39.8962L91.7204 40.6541L91.4163 40.6028L92.3118 35.2974L92.996 35.4129ZM95.1262 35.7724C95.2428 35.7921 95.3281 35.8429 95.382 35.9247C95.4419 36.0024 95.462 36.0993 95.4424 36.2155L94.8028 40.0051C94.7832 40.1213 94.7319 40.2088 94.649 40.2676C94.572 40.3221 94.4752 40.3396 94.3587 40.3199L94.6109 41.142L94.2687 41.0843L94.0165 40.2622L93.9785 40.2557L93.8506 41.0137L93.5465 40.9624L94.442 35.6569L95.1262 35.7724ZM97.2588 36.1324C97.3754 36.152 97.4606 36.2028 97.5146 36.2847C97.5745 36.3623 97.5946 36.4593 97.575 36.5755L96.8074 41.123C96.7878 41.2392 96.7365 41.3267 96.6536 41.3855C96.5767 41.44 96.4799 41.4575 96.3633 41.4378L96.0592 41.3865C95.9426 41.3668 95.8544 41.3181 95.7945 41.2405C95.7406 41.1586 95.7234 41.0595 95.743 40.9433L96.5106 36.3958C96.5302 36.2796 96.5785 36.1942 96.6555 36.1397C96.7384 36.0809 96.8381 36.0614 96.9547 36.081L97.2588 36.1324ZM99.1621 36.4536C99.2786 36.4733 99.3639 36.5241 99.4179 36.6059C99.4777 36.6836 99.4979 36.7805 99.4783 36.8967L99.4527 37.0483L99.1486 36.997L99.1742 36.8454C99.1827 36.7949 99.1616 36.7653 99.1109 36.7568L98.8068 36.7054C98.7561 36.6969 98.7265 36.7179 98.718 36.7684L98.6668 37.0716C98.6583 37.1221 98.6781 37.1592 98.7262 37.1829L99.1011 37.3709C99.183 37.4107 99.2433 37.4703 99.2821 37.5496C99.3259 37.6297 99.3401 37.7153 99.3247 37.8063L98.7107 41.4442C98.6911 41.5604 98.6398 41.648 98.5569 41.7067C98.4799 41.7613 98.3831 41.7787 98.2666 41.759L97.9625 41.7077C97.8459 41.688 97.7577 41.6394 97.6978 41.5617C97.6438 41.4798 97.6267 41.3808 97.6463 41.2646L97.6719 41.113L97.976 41.1643L97.9504 41.3159C97.9419 41.3664 97.963 41.3959 98.0136 41.4045L98.3178 41.4558C98.3684 41.4644 98.3981 41.4434 98.4066 41.3929L99.0206 37.7549C99.0292 37.7044 99.0094 37.6672 98.9612 37.6435L98.5864 37.4556C98.5044 37.4158 98.4416 37.3558 98.3978 37.2756C98.359 37.1963 98.3474 37.1112 98.3627 37.0202L98.4139 36.7171C98.4335 36.6009 98.4818 36.5155 98.5587 36.4609C98.6416 36.4021 98.7414 36.3826 98.858 36.4023L99.1621 36.4536ZM101.391 37.1416L101.011 37.0775L100.167 42.0797L99.8624 42.0284L100.707 37.0261L100.327 36.962L100.378 36.6588L101.442 36.8385L101.391 37.1416ZM102.96 37.0947C103.077 37.1143 103.162 37.1651 103.216 37.247C103.276 37.3246 103.296 37.4216 103.276 37.5378L102.509 42.0853C102.489 42.2015 102.438 42.289 102.355 42.3478C102.278 42.4023 102.181 42.4198 102.065 42.4001L101.76 42.3488C101.644 42.3291 101.556 42.2804 101.496 42.2028C101.442 42.1209 101.425 42.0218 101.444 41.9056L102.212 37.3581C102.231 37.2419 102.28 37.1565 102.357 37.102C102.44 37.0432 102.539 37.0237 102.656 37.0433L102.96 37.0947ZM96.9035 36.3842C96.8528 36.3756 96.8232 36.3966 96.8147 36.4471L96.0471 40.9946C96.0386 41.0452 96.0597 41.0747 96.1104 41.0832L96.4145 41.1346C96.4652 41.1431 96.4948 41.1222 96.5033 41.0716L97.2709 36.5241C97.2794 36.4736 97.2583 36.4441 97.2076 36.4355L96.9035 36.3842ZM102.605 37.3465C102.554 37.3379 102.525 37.3589 102.516 37.4094L101.748 41.9569C101.74 42.0075 101.761 42.037 101.812 42.0455L102.116 42.0969C102.166 42.1054 102.196 42.0845 102.205 42.0339L102.972 37.4864C102.981 37.4359 102.96 37.4064 102.909 37.3978L102.605 37.3465ZM91.8995 39.593L92.2797 39.6572C92.3303 39.6657 92.3599 39.6448 92.3684 39.5942L93.0081 35.8046C93.0166 35.7541 92.9955 35.7246 92.9449 35.716L92.5647 35.6519L91.8995 39.593ZM94.0297 39.9526L94.4098 40.0167C94.4605 40.0253 94.4901 40.0043 94.4987 39.9538L95.1383 36.1642C95.1468 36.1137 95.1257 36.0841 95.075 36.0756L94.6949 36.0114L94.0297 39.9526Z" fill="white"/>
</g>
<defs>
<filter id="filter0_d_435_256" x="0.101821" y="0.986099" width="117.705" height="97.5346" filterUnits="userSpaceOnUse" color-interpolation-filters="sRGB">
<feFlood flood-opacity="0" result="BackgroundImageFix"/>
<feColorMatrix in="SourceAlpha" type="matrix" values="0 0 0 0 0 0 0 0 0 0 0 0 0 0 0 0 0 0 127 0" result="hardAlpha"/>
<feOffset/>
<feGaussianBlur stdDeviation="2.76012"/>
<feComposite in2="hardAlpha" operator="out"/>
<feColorMatrix type="matrix" values="0 0 0 0 0 0 0 0 0 0 0 0 0 0 0 0 0 0 0.1 0"/>
<feBlend mode="normal" in2="BackgroundImageFix" result="effect1_dropShadow_435_256"/>
<feBlend mode="normal" in="SourceGraphic" in2="effect1_dropShadow_435_256" result="shape"/>
</filter>
</defs>
</svg>
