<svg width="158" height="91" viewBox="0 0 158 91" fill="none" xmlns="http://www.w3.org/2000/svg">
<rect x="0.583008" y="24.0054" width="148.556" height="67.5257" rx="1.94318" transform="rotate(-8.98459 0.583008 24.0054)" fill="black"/>
<g filter="url(#filter0_g_435_197)">
<path d="M141.996 7.09595C147.889 8.87216 140.605 37.0231 131.23 65.8878C131.079 66.3532 130.555 66.5631 130.241 66.2769C120.35 57.2621 105.386 39.9259 111.371 35.1003C114.918 32.2399 121.926 38.8547 126.122 42.7672C126.349 42.9791 126.884 42.5593 126.829 42.2275C126.225 38.6216 126.506 31.0064 128.686 23.4328C132.98 8.52147 137.846 5.84531 141.996 7.09595Z" fill="#FEC7FF"/>
</g>
<path d="M11.9971 54.9292L8.71616 34.178L21.7894 32.111L22.1971 34.6901L11.9402 36.3118L14.4055 51.9048L19.6526 51.0752C20.4234 50.9534 21.0636 50.7103 21.5732 50.3462C22.0994 49.9591 22.4686 49.4753 22.6807 48.8949C22.9094 48.2915 22.9659 47.6242 22.8503 46.893C22.7378 46.1815 22.4813 45.584 22.0807 45.1004C21.6999 44.6136 21.1995 44.2674 20.5795 44.0615C19.9793 43.8526 19.2938 43.809 18.523 43.9309L12.772 44.8402L12.3642 42.2611L18.1746 41.3425C19.4394 41.1425 20.6081 41.2312 21.6806 41.6085C22.7531 41.9859 23.641 42.6051 24.3444 43.4663C25.0446 44.3076 25.4853 45.3015 25.6666 46.4477C25.8509 47.6137 25.7414 48.7148 25.338 49.7509C24.9315 50.7673 24.2764 51.6204 23.3726 52.3102C22.4688 53 21.3845 53.4449 20.1197 53.6449L11.9971 54.9292ZM35.5065 51.5464C34.1626 51.7588 32.8842 51.6166 31.6712 51.1197C30.4582 50.6227 29.4418 49.8313 28.6219 48.7455C27.802 47.6597 27.2749 46.3757 27.0405 44.8935C26.8124 43.4508 26.9208 42.0866 27.3658 40.8008C27.8305 39.5119 28.5631 38.444 29.5635 37.5971C30.5609 36.7304 31.7118 36.1939 33.0161 35.9877C34.3007 35.7846 35.5183 35.9263 36.6688 36.4129C37.8392 36.8963 38.8098 37.6544 39.5808 38.6872C40.3716 39.7168 40.8763 40.9233 41.095 42.3067C41.1419 42.6032 41.1758 42.8814 41.1966 43.1415C41.2175 43.4015 41.2123 43.6252 41.1812 43.8124L29.2344 45.7013L28.897 43.5669L39.1836 41.9405L38.5459 43.8644C38.577 43.6772 38.59 43.503 38.5848 43.3417C38.5962 43.1576 38.5894 42.9865 38.5644 42.8284C38.4113 41.86 38.086 41.0201 37.5887 40.3087C37.0882 39.5776 36.4676 39.0477 35.7269 38.7192C34.9831 38.3709 34.2061 38.2608 33.3958 38.3889C32.5657 38.5201 31.8309 38.8693 31.1913 39.4363C30.5517 40.0034 30.09 40.7347 29.8062 41.6304C29.5193 42.5063 29.4571 43.4581 29.6196 44.4857C29.7914 45.5727 30.1391 46.4901 30.6624 47.2379C31.1858 47.9857 31.8277 48.5223 32.5882 48.8477C33.3684 49.17 34.213 49.2593 35.1221 49.1155C35.9719 48.9812 36.6667 48.6991 37.2065 48.2694C37.7463 47.8397 38.1669 47.2972 38.4684 46.6418L41.1661 46.2152C40.9884 47.0131 40.6463 47.7964 40.1399 48.5653C39.6304 49.3143 38.9736 49.9651 38.1697 50.5176C37.3823 51.0472 36.4946 51.3901 35.5065 51.5464ZM49.4039 49.3491C48.2182 49.5365 47.1577 49.4915 46.2225 49.214C45.3039 48.9136 44.5398 48.4368 43.9301 47.7837C43.3371 47.1077 42.9291 46.3214 42.7064 45.4248L45.2854 45.017C45.4801 45.7357 45.8817 46.2901 46.4903 46.68C47.1187 47.0668 47.9467 47.179 48.9744 47.0165C49.9823 46.8572 50.702 46.5408 51.1336 46.0674C51.5818 45.5711 51.7513 44.9772 51.6419 44.2855C51.5294 43.574 51.1834 43.0514 50.604 42.7176C50.0412 42.3609 49.2854 42.2576 48.3368 42.4076L46.6767 42.67L46.3439 40.5653L47.9447 40.3122C48.5179 40.2216 48.9896 40.066 49.3598 39.8454C49.727 39.605 49.9859 39.321 50.1367 38.9933C50.2874 38.6656 50.3316 38.3041 50.2691 37.9089C50.2066 37.5136 50.0401 37.1652 49.7696 36.8636C49.499 36.562 49.1407 36.3452 48.6944 36.2132C48.2481 36.0811 47.7483 36.0589 47.1949 36.1464C46.3056 36.287 45.6483 36.6137 45.2229 37.1266C44.8174 37.6364 44.6199 38.245 44.6304 38.9523L42.0513 39.3601C41.9574 37.9974 42.3244 36.7949 43.1521 35.7525C43.9997 34.7069 45.2733 34.0497 46.9729 33.781C48.0203 33.6154 48.9622 33.6792 49.7986 33.9723C50.6516 34.2426 51.3387 34.6809 51.86 35.2872C52.401 35.8904 52.7356 36.5972 52.8637 37.4075C52.9637 38.0399 52.9113 38.6052 52.7065 39.1035C52.5183 39.5789 52.2667 39.9732 51.9516 40.2864C51.6364 40.5995 51.3104 40.8435 50.9734 41.0184L50.9265 40.7219C51.3801 40.7717 51.8393 40.922 52.3044 41.1725C52.7694 41.4231 53.1824 41.7934 53.5435 42.2832C53.9211 42.7502 54.1631 43.3196 54.2694 43.9916C54.3975 44.8019 54.2988 45.5872 53.9734 46.3477C53.6448 47.0884 53.0885 47.7334 52.3043 48.2828C51.517 48.8124 50.5502 49.1678 49.4039 49.3491ZM15.0178 76.7249L12.6602 61.8137L15.2393 61.4059L17.0532 72.8783L16.6085 72.9486L23.1247 60.1592L25.4666 59.7889L27.8242 74.7L25.2155 75.1125L23.4016 63.6401L23.8463 63.5698L17.3301 76.3593L15.0178 76.7249ZM30.318 74.64C30.1006 74.6744 29.8899 74.6874 29.686 74.6791C29.5019 74.6677 29.3277 74.6548 29.1633 74.6402L28.7931 72.2983L29.3267 72.214C29.8405 72.1327 30.2597 71.9652 30.5841 71.7113C30.9055 71.4377 31.1291 71.0579 31.2548 70.5721C31.3806 70.0863 31.4138 69.4633 31.3543 68.7029L30.6361 58.9715L40.9227 57.3451L43.2803 72.2563L40.642 72.6734L38.6734 60.2228L33.4263 61.0524L33.999 68.7101C34.1356 70.4712 33.8774 71.8489 33.2244 72.8435C32.5714 73.8381 31.6025 74.4369 30.318 74.64ZM45.7921 72.1934C45.5747 72.2278 45.3641 72.2408 45.1602 72.2325C44.9761 72.2211 44.8019 72.2082 44.6375 72.1936L44.2672 69.8517L44.8008 69.7674C45.3147 69.6861 45.7338 69.5186 46.0583 69.2647C46.3797 68.991 46.6033 68.6113 46.729 68.1255C46.8548 67.6397 46.8879 67.0167 46.8285 66.2563L46.1103 56.5249L56.3969 54.8985L58.7545 69.8097L56.1161 70.2268L54.1476 57.7762L48.9005 58.6058L49.4732 66.2635C49.6098 68.0246 49.3516 69.4023 48.6986 70.3969C48.0455 71.3915 47.0767 71.9903 45.7921 72.1934ZM73.8059 67.7642C72.5411 67.9642 71.3334 67.8209 70.1829 67.3343C69.0292 66.828 68.0538 66.0402 67.2568 64.9711C66.4567 63.8822 65.9363 62.5768 65.6957 61.0551C65.4582 59.5531 65.5521 58.1608 65.9773 56.8781C66.4024 55.5955 67.0872 54.5453 68.0315 53.7275C68.9758 52.9097 70.0804 52.4008 71.3452 52.2008C72.5903 52.004 73.7881 52.1488 74.9387 52.6354C76.0892 53.122 77.0646 53.9097 77.8647 54.9986C78.6648 56.0875 79.1836 57.383 79.4211 58.885C79.6617 60.4067 79.5694 61.8089 79.1443 63.0916C78.716 64.3544 78.0312 65.4047 77.09 66.2422C76.1457 67.06 75.051 67.5673 73.8059 67.7642ZM62.193 69.266L59.8354 54.3549L62.4738 53.9377L63.4628 60.1927L66.1011 59.7756L66.4761 62.1471L63.8377 62.5643L64.8314 68.8489L62.193 69.266ZM73.4169 65.3037C74.1679 65.1849 74.8268 64.8681 75.3936 64.3531C75.977 63.8152 76.3924 63.1114 76.6398 62.2417C76.9038 61.3492 76.9515 60.3693 76.7828 59.3021C76.614 58.2349 76.268 57.3274 75.7446 56.5796C75.241 55.8287 74.6287 55.2874 73.9078 54.9558C73.2066 54.621 72.4806 54.5129 71.7296 54.6317C70.9588 54.7535 70.2817 55.0834 69.6983 55.6213C69.1346 56.1561 68.7192 56.8599 68.4521 57.7326C68.2047 58.6023 68.1653 59.5707 68.3341 60.6379C68.5028 61.7051 68.8405 62.6241 69.3473 63.3947C69.8707 64.1425 70.4829 64.6838 71.1841 65.0186C71.9019 65.3305 72.6462 65.4255 73.4169 65.3037ZM87.6673 65.5726C86.4815 65.7601 85.421 65.715 84.4858 65.4375C83.5673 65.1371 82.8031 64.6603 82.1935 64.0072C81.6004 63.3312 81.1925 62.5449 80.9697 61.6483L83.5488 61.2405C83.7434 61.9593 84.1451 62.5136 84.7537 62.9035C85.382 63.2904 86.21 63.4025 87.2377 63.24C88.2456 63.0807 88.9654 62.7643 89.3969 62.2909C89.8452 61.7947 90.0146 61.2007 89.9052 60.509C89.7927 59.7975 89.4468 59.2749 88.8673 58.9411C88.3045 58.5844 87.5488 58.4811 86.6001 58.6311L84.9401 58.8936L84.6073 56.7888L86.2081 56.5357C86.7812 56.4451 87.2529 56.2895 87.6232 56.0689C87.9903 55.8285 88.2492 55.5445 88.4 55.2168C88.5508 54.8891 88.5949 54.5276 88.5324 54.1324C88.4699 53.7371 88.3034 53.3887 88.0329 53.0871C87.7624 52.7855 87.404 52.5687 86.9577 52.4367C86.5115 52.3047 86.0116 52.2824 85.4583 52.3699C84.5689 52.5105 83.9116 52.8373 83.4863 53.3502C83.0807 53.8599 82.8832 54.4685 82.8937 55.1758L80.3147 55.5836C80.2208 54.221 80.5877 53.0184 81.4155 51.976C82.263 50.9304 83.5366 50.2733 85.2362 50.0045C86.2837 49.8389 87.2256 49.9027 88.0619 50.1959C88.915 50.4661 89.6021 50.9044 90.1234 51.5108C90.6644 52.114 90.9989 52.8207 91.1271 53.631C91.227 54.2634 91.1746 54.8287 90.9698 55.327C90.7816 55.8024 90.53 56.1967 90.2149 56.5099C89.8998 56.8231 89.5737 57.0671 89.2367 57.2419L89.1899 56.9454C89.6434 56.9953 90.1027 57.1455 90.5677 57.3961C91.0327 57.6467 91.4458 58.0169 91.8068 58.5067C92.1845 58.9737 92.4265 59.5432 92.5327 60.2151C92.6608 61.0254 92.5621 61.8107 92.2367 62.5712C91.9082 63.3119 91.3518 63.9569 90.5676 64.5063C89.7803 65.0359 88.8135 65.3913 87.6673 65.5726ZM95.689 63.97L93.3314 49.0589L95.9105 48.6511L97.7243 60.1235L97.2797 60.1938L103.796 47.4043L106.138 47.0341L108.495 61.9452L105.887 62.3577L104.073 50.8853L104.517 50.815L98.0012 63.6044L95.689 63.97ZM111.916 61.4044L109.558 46.4933L112.137 46.0855L113.951 57.5579L113.507 57.6282L120.023 44.8387L122.365 44.4684L124.722 59.3796L122.114 59.7921L120.3 48.3197L120.744 48.2494L114.228 61.0388L111.916 61.4044ZM115.796 43.4712C114.946 43.6056 114.178 43.5548 113.493 43.3188C112.807 43.0828 112.24 42.6965 111.79 42.1599C111.338 41.6035 111.025 40.9742 110.854 40.2721L112.869 39.9534C113.048 40.5733 113.355 41.0413 113.79 41.3575C114.222 41.6538 114.794 41.7458 115.505 41.6333C116.217 41.5208 116.732 41.257 117.051 40.8419C117.367 40.407 117.515 39.8671 117.494 39.2222L119.51 38.9035C119.563 39.6243 119.46 40.3192 119.201 40.9881C118.939 41.6372 118.519 42.1798 117.939 42.6158C117.36 43.0517 116.645 43.3369 115.796 43.4712Z" fill="white"/>
<path d="M66.5137 32.2565C66.5609 32.5549 66.5025 32.8168 66.3386 33.0423C66.196 33.2385 66.0261 33.3522 65.8288 33.3834C65.6872 33.4058 65.5684 33.3754 65.4722 33.2921C65.3761 33.2088 65.3147 33.0824 65.2879 32.913C65.2531 32.693 65.2929 32.4444 65.4071 32.1671C65.5239 31.8895 65.6587 31.7502 65.8115 31.7494C65.8482 31.7358 65.8868 31.7258 65.9273 31.7194C66.0714 31.6966 66.1943 31.7278 66.2958 31.8128C66.4091 31.9063 66.4818 32.0542 66.5137 32.2565ZM66.3355 32.2847C66.3111 32.1305 66.2586 32.0195 66.1779 31.952C66.1123 31.8975 66.0415 31.8763 65.9657 31.8883C65.9227 31.8951 65.8915 31.9026 65.872 31.9109C65.8547 31.9162 65.8344 31.9272 65.8111 31.9438C65.691 32.0199 65.597 32.1552 65.5293 32.35C65.4642 32.5443 65.4454 32.7287 65.473 32.9032C65.4926 33.0271 65.5362 33.1148 65.604 33.1663C65.6629 33.2114 65.7316 33.2277 65.81 33.2153C65.9769 33.189 66.1142 33.0817 66.2218 32.8936C66.3316 32.7026 66.3694 32.4997 66.3355 32.2847Z" fill="white"/>
<path d="M65.0413 32.4866C65.0881 32.7824 65.048 33.0454 64.9211 33.2754C64.8062 33.4827 64.669 33.599 64.5097 33.6242C64.4541 33.633 64.3788 33.6242 64.2839 33.5977C64.189 33.5712 64.0983 33.5299 64.0116 33.4736L63.9984 33.464C63.9695 33.707 63.9495 33.9085 63.9385 34.0683C63.93 34.2278 63.9309 34.3404 63.9413 34.4061C63.9429 34.4162 63.948 34.4323 63.9567 34.4542C63.9654 34.4762 63.9707 34.4935 63.9727 34.5061C63.9799 34.5516 63.9726 34.5878 63.9509 34.6145C63.9293 34.6413 63.9032 34.6571 63.8729 34.6619C63.835 34.6679 63.8039 34.6598 63.7797 34.6377C63.7554 34.6156 63.7401 34.5844 63.7337 34.5439C63.7201 34.4579 63.7352 34.2171 63.7789 33.8214C63.8104 33.5287 63.8446 33.2616 63.8815 33.0198C63.9391 32.6297 63.971 32.4135 63.9772 32.371C64.0166 32.1445 64.0717 32.0256 64.1425 32.0144C64.1753 32.0092 64.1995 32.0145 64.2149 32.0302C64.2325 32.043 64.2437 32.0645 64.2485 32.0949C64.2529 32.1227 64.2497 32.1517 64.2389 32.1819C64.1979 32.2998 64.1756 32.3798 64.1719 32.4219C64.2457 32.2988 64.3206 32.1988 64.3966 32.122C64.4751 32.0448 64.5498 32.0006 64.6206 31.9894C64.7116 31.975 64.7976 32.0106 64.8785 32.0963C64.9591 32.1795 65.0133 32.3096 65.0413 32.4866ZM64.869 32.5527C64.8467 32.4111 64.8065 32.3047 64.7486 32.2335C64.7032 32.1759 64.6577 32.1507 64.6122 32.1579C64.5515 32.1675 64.481 32.2292 64.4005 32.343C64.3221 32.4539 64.2464 32.598 64.1734 32.7754C64.1102 32.9332 64.06 33.0992 64.0227 33.2736C64.0766 33.3195 64.1537 33.3643 64.2539 33.4081C64.3563 33.4489 64.4404 33.4641 64.5061 33.4537C64.6224 33.4353 64.7192 33.3423 64.7963 33.1746C64.8812 32.9901 64.9054 32.7828 64.869 32.5527Z" fill="white"/>
<path d="M63.4422 32.4266C63.4634 32.4621 63.482 32.5058 63.4979 32.5577C63.5139 32.6096 63.5255 32.6584 63.5327 32.7039C63.5551 32.8455 63.5521 32.982 63.5236 33.1135C63.4952 33.245 63.45 33.361 63.3881 33.4615C63.3203 33.5733 63.236 33.6631 63.1352 33.7309C63.0535 33.7879 62.9646 33.824 62.8686 33.8391C62.7649 33.8555 62.6709 33.8432 62.5867 33.8021C62.5024 33.761 62.4344 33.6914 62.3826 33.5933C62.3643 33.5599 62.3495 33.5234 62.338 33.4837C62.3262 33.4415 62.3169 33.3989 62.3101 33.3559C62.3009 33.2978 62.296 33.2506 62.2955 33.2144C62.2949 33.1782 62.2978 33.1311 62.3042 33.0731C62.1954 33.2043 62.1116 33.3303 62.053 33.451C62.0255 33.5072 61.9968 33.5791 61.9666 33.6668C61.9389 33.7542 61.9223 33.8047 61.9167 33.8186C61.9003 33.8626 61.8822 33.8953 61.8622 33.9166C61.8418 33.9354 61.8203 33.9466 61.7975 33.9502C61.7748 33.9538 61.7531 33.9481 61.7326 33.9332C61.7172 33.9175 61.7073 33.8957 61.7029 33.8679C61.6945 33.8148 61.6979 33.7378 61.713 33.637C61.721 33.589 61.7368 33.5088 61.7605 33.3962C61.7675 33.3588 61.7984 33.2347 61.8532 33.0238C61.8772 32.9293 61.8849 32.8555 61.8765 32.8024C61.8669 32.7417 61.8635 32.7034 61.8661 32.6874C61.8737 32.637 61.9063 32.5891 61.9639 32.5437C61.9868 32.5245 62.0109 32.5129 62.0362 32.5089C62.0716 32.5033 62.0931 32.5246 62.1007 32.5726C62.1063 32.608 62.1032 32.6461 62.0915 32.6868C62.068 32.7838 62.0501 32.8592 62.0379 32.913C62.0151 33.0151 62.0013 33.0834 61.9964 33.1178L61.9707 33.3241C62.0118 33.2398 62.0568 33.164 62.1058 33.0967C62.11 33.0908 62.1532 33.036 62.2353 32.9323L62.3329 32.8119C62.3811 32.641 62.4206 32.522 62.4514 32.4549C62.4823 32.3879 62.5129 32.3519 62.5432 32.3471C62.5584 32.3447 62.5817 32.3527 62.6131 32.3711C62.6532 32.3129 62.7026 32.2649 62.7614 32.2271C62.8202 32.1893 62.8737 32.1666 62.9217 32.159C63.0229 32.143 63.1199 32.1587 63.213 32.2062C63.3082 32.2508 63.3846 32.3243 63.4422 32.4266ZM63.3555 33.0585C63.3732 32.9572 63.373 32.8496 63.355 32.7358C63.341 32.6473 63.316 32.571 63.2799 32.5067C63.2464 32.442 63.2011 32.3934 63.1441 32.361C63.0897 32.3281 63.0309 32.3167 62.9677 32.3267C62.9044 32.3367 62.8474 32.3612 62.7966 32.4004C62.7271 32.4528 62.665 32.5352 62.6102 32.6476C62.4886 32.8949 62.445 33.1273 62.4794 33.3447C62.4993 33.4712 62.544 33.5652 62.6134 33.6268C62.6435 33.6531 62.6805 33.6745 62.7246 33.6908C62.7708 33.7043 62.8179 33.7072 62.8659 33.6996C62.919 33.6912 62.9761 33.6666 63.037 33.6259C63.1162 33.5693 63.185 33.4884 63.2436 33.3833C63.3017 33.2756 63.339 33.1673 63.3555 33.0585Z" fill="white"/>
<path d="M61.8103 31.5732C61.8171 31.6162 61.8154 31.6385 61.8053 31.6401C61.7901 31.6425 61.774 31.6385 61.7568 31.6283C61.7396 31.6181 61.7057 31.6169 61.6552 31.6249C61.5161 31.6469 61.3405 31.7084 61.1284 31.8093C60.8799 31.9263 60.7623 32.0266 60.7755 32.11C60.7819 32.1505 60.8116 32.1911 60.8647 32.232C60.8882 32.249 60.9355 32.2778 61.0067 32.3184C61.1353 32.394 61.2354 32.4779 61.307 32.5703C61.4007 32.6876 61.4612 32.8323 61.4884 33.0043C61.5271 33.2495 61.4765 33.4947 61.3364 33.7397C61.1984 33.9819 61.027 34.1191 60.8222 34.1515C60.7211 34.1675 60.6298 34.1392 60.5483 34.0665C60.469 33.9909 60.4173 33.8773 60.3933 33.7256C60.3569 33.4955 60.3907 33.2828 60.4946 33.0875C60.5925 32.9036 60.7123 32.8004 60.8539 32.778C60.9474 32.7632 61.0335 32.7833 61.1122 32.8382C61.193 32.8903 61.2414 32.9668 61.2574 33.068C61.2626 33.1009 61.2613 33.1257 61.2536 33.1424C61.2459 33.1592 61.2294 33.1696 61.2041 33.1736C61.1839 33.1768 61.1655 33.159 61.149 33.1201C61.1209 33.0572 61.1035 33.021 61.0969 33.0117C61.0798 32.9859 61.0627 32.9679 61.0456 32.9576C61.0137 32.9367 60.9776 32.9295 60.9372 32.9359C60.8057 32.9567 60.7022 33.0482 60.6268 33.2105C60.5509 33.3702 60.5262 33.5335 60.5526 33.7004C60.571 33.8167 60.609 33.9014 60.6667 33.9545C60.7151 33.9987 60.7697 34.016 60.8304 34.0064C60.972 33.984 61.0967 33.8632 61.2046 33.6439C61.3125 33.4247 61.3499 33.2102 61.3167 33.0003C61.2971 32.8764 61.2555 32.7689 61.1918 32.6779C61.1448 32.6102 61.0795 32.5492 60.9958 32.4951C60.9146 32.4405 60.835 32.3883 60.7572 32.3384C60.666 32.2699 60.6148 32.2002 60.6036 32.1294C60.59 32.0435 60.6316 31.9539 60.7283 31.8609C60.8454 31.7491 61.0414 31.6364 61.3164 31.523C61.416 31.4813 61.5013 31.4549 61.5721 31.4437C61.6505 31.4313 61.71 31.4387 61.7506 31.466C61.7824 31.4869 61.8023 31.5226 61.8103 31.5732Z" fill="white"/>
<path d="M64.9239 24.8517C65.0486 24.832 65.1518 24.8549 65.2342 24.9193C65.3212 24.9775 65.3753 25.0684 65.3951 25.1925L66.1646 30.0598C66.1842 30.184 66.1612 30.2902 66.0973 30.3779C66.0379 30.4591 65.9461 30.5095 65.8216 30.5292L65.4956 30.5808C65.371 30.6004 65.265 30.5814 65.178 30.5232C65.0956 30.4587 65.0451 30.3641 65.0254 30.2399L64.2559 25.3726C64.2364 25.2486 64.2558 25.146 64.315 25.0647C64.3789 24.9771 64.4734 24.923 64.5979 24.9033L64.9239 24.8517ZM58.8228 25.8154C58.9475 25.7957 59.0506 25.8185 59.1331 25.883C59.2201 25.9412 59.2742 26.0319 59.2939 26.1561L60.0635 31.0234C60.083 31.1476 60.06 31.2539 59.9961 31.3415C59.9367 31.4227 59.8449 31.4732 59.7205 31.4929L59.3945 31.5444C59.2699 31.564 59.1638 31.5451 59.0769 31.4869C58.9945 31.4224 58.944 31.3277 58.9243 31.2035L58.1548 26.3362C58.1352 26.2122 58.1547 26.1096 58.2138 26.0283C58.2777 25.9407 58.3722 25.8867 58.4968 25.8669L58.8228 25.8154ZM63.3507 25.4317L62.9436 25.496L63.7901 30.8495L63.465 30.9008L62.6186 25.5474L62.2115 25.6118L62.1603 25.2877L63.2994 25.1076L63.3507 25.4317ZM54.2612 26.5356C54.3859 26.5159 54.4899 26.5385 54.5724 26.6031C54.6592 26.6613 54.7126 26.7524 54.7323 26.8764L55.3736 30.9324C55.3932 31.0567 55.3711 31.1628 55.3072 31.2504C55.2478 31.3319 55.1553 31.3822 55.0306 31.4019L54.6235 31.4663L54.7518 32.2775L54.4267 32.3289L53.5291 26.6514L54.2612 26.5356ZM56.5414 26.1751C56.6661 26.1554 56.7702 26.178 56.8527 26.2425C56.9395 26.3008 56.9931 26.3926 57.0127 26.5168L57.6538 30.5719C57.6735 30.6961 57.6513 30.8023 57.5875 30.8899C57.5281 30.9713 57.4355 31.0217 57.3108 31.0414L57.8462 31.7882L57.4796 31.8462L56.9443 31.0993L56.9038 31.1058L57.032 31.917L56.707 31.9684L55.8093 26.2908L56.5414 26.1751ZM60.8599 25.4923C60.9844 25.4727 61.0877 25.4955 61.1701 25.5599C61.2572 25.6182 61.3115 25.7097 61.3311 25.834L61.3567 25.9961L61.0307 26.0476L61.0051 25.8856C60.9966 25.8316 60.9654 25.8089 60.9113 25.8174L60.5852 25.8689C60.5312 25.8776 60.5085 25.9088 60.517 25.9627L60.5683 26.2868C60.5768 26.3408 60.6094 26.3714 60.6659 26.3792L61.1099 26.4424C61.2064 26.4549 61.2881 26.4949 61.3543 26.562C61.4257 26.6282 61.4696 26.7101 61.485 26.8073L62.1005 30.7003C62.1201 30.8246 62.0971 30.9308 62.0332 31.0185C61.9738 31.0997 61.882 31.1501 61.7575 31.1698L61.4315 31.2214C61.3069 31.241 61.2009 31.222 61.1139 31.1638C61.0316 31.0993 60.981 31.0047 60.9614 30.8805L60.9357 30.7184L61.2608 30.667L61.2864 30.8291C61.295 30.8829 61.3263 30.9057 61.3803 30.8973L61.7063 30.8457C61.7603 30.8371 61.783 30.8058 61.7745 30.7519L61.159 26.8588C61.1504 26.8048 61.1179 26.7732 61.0612 26.7655L60.6173 26.7032C60.5208 26.6908 60.4369 26.6512 60.3652 26.5849C60.299 26.5178 60.2586 26.4356 60.2432 26.3382L60.192 26.0141C60.1723 25.8899 60.1916 25.7867 60.2509 25.7053C60.3148 25.6176 60.4093 25.5636 60.5338 25.5439L60.8599 25.4923ZM64.6492 25.2274C64.5954 25.236 64.5726 25.2676 64.5809 25.3212L65.3505 30.1885C65.3591 30.2422 65.3904 30.2651 65.4443 30.2567L65.7704 30.2051C65.8244 30.1965 65.847 30.1651 65.8386 30.1113L65.069 25.244C65.0604 25.1904 65.0292 25.1673 64.9752 25.1758L64.6492 25.2274ZM58.548 26.191C58.4942 26.1997 58.4714 26.2311 58.4798 26.2848L59.2494 31.1521C59.258 31.2058 59.2894 31.2287 59.3432 31.2203L59.6692 31.1688C59.7232 31.1602 59.7458 31.1287 59.7375 31.075L58.9679 26.2077C58.9593 26.1539 58.9281 26.131 58.8741 26.1395L58.548 26.191ZM54.5723 31.1422L54.9793 31.0778C55.0335 31.0693 55.056 31.0379 55.0475 30.984L54.4062 26.9279C54.3976 26.8742 54.3665 26.8512 54.3124 26.8597L53.9054 26.9241L54.5723 31.1422ZM56.8525 30.7817L57.2596 30.7173C57.3137 30.7087 57.3363 30.6774 57.3278 30.6235L56.6867 26.5684C56.6781 26.5143 56.6469 26.4907 56.5927 26.4992L56.1856 26.5635L56.8525 30.7817Z" fill="white"/>
<defs>
<filter id="filter0_g_435_197" x="109.472" y="6.29586" width="35.1746" height="60.6397" filterUnits="userSpaceOnUse" color-interpolation-filters="sRGB">
<feFlood flood-opacity="0" result="BackgroundImageFix"/>
<feBlend mode="normal" in="SourceGraphic" in2="BackgroundImageFix" result="shape"/>
<feTurbulence type="fractalNoise" baseFrequency="9.4632863998413086 9.4632863998413086" numOctaves="3" seed="5292" />
<feDisplacementMap in="shape" scale="1.0567153692245483" xChannelSelector="R" yChannelSelector="G" result="displacedImage" width="100%" height="100%" />
<feMerge result="effect1_texture_435_197">
<feMergeNode in="displacedImage"/>
</feMerge>
</filter>
</defs>
</svg>
