<svg width="97" height="97" viewBox="0 0 97 97" fill="none" xmlns="http://www.w3.org/2000/svg">
<circle cx="48.3705" cy="48.7538" r="47.9071" fill="black"/>
<mask id="mask0_435_235" style="mask-type:alpha" maskUnits="userSpaceOnUse" x="0" y="0" width="97" height="97">
<circle cx="48.3705" cy="48.7538" r="47.9071" fill="black"/>
</mask>
<g mask="url(#mask0_435_235)">
<path d="M13.7625 16.2456C13.7625 16.2456 13.7625 16.2456 13.7688 16.2794L13.7625 16.2456ZM17.3481 18.7576C17.7053 19.3555 17.5954 20.6359 17.5596 21.3776C17.5701 21.6205 17.5237 22.1192 17.5681 22.3558C17.6061 22.5586 17.5913 22.6664 17.5153 22.8206C17.4667 22.9347 17.4667 22.9347 17.492 23.07C17.5512 23.1988 17.5491 23.3742 17.5132 23.5559C17.5048 23.6975 17.509 23.9067 17.5069 24.082C17.5386 24.251 17.5449 24.2849 17.5154 24.5004C17.5196 24.7095 17.4816 25.0666 17.4647 25.3497C17.4816 25.6265 17.4352 26.1252 17.4183 26.4083C17.395 26.6576 17.3993 26.8668 17.3972 27.0421C17.4289 27.2112 17.4268 27.3865 17.412 27.4943C17.3317 27.9993 17.3085 28.2486 17.2958 28.7409C17.2853 29.0578 17.2917 29.6515 17.2875 30.0023C17.26 30.6023 17.2664 31.196 17.2664 31.7559C17.258 31.8975 17.2643 31.9313 17.2495 32.0391C17.2073 32.187 17.22 32.2546 17.2453 32.3898C17.277 32.5588 17.2601 32.842 17.258 33.0173C17.2285 33.2328 17.2179 33.5498 17.2433 33.685C17.2475 33.8942 17.2602 33.9618 17.1377 34.0547C16.9538 34.1942 17.0806 34.3104 17.1588 34.5407C17.2116 34.6358 17.2581 34.697 17.1609 34.9252C17.1039 35.1809 17.2286 36.0324 17.2793 36.3028C17.3765 36.6345 17.59 37.3994 17.385 37.6128C17.2688 37.7396 17.2752 37.7734 17.2329 37.9213C17.2245 38.0628 17.216 38.2044 17.1738 38.3523C17.1252 38.4664 17.083 38.6143 17.028 38.6946C17.0132 38.8024 16.9794 38.8087 16.9118 38.8214C16.8104 38.8404 16.8231 38.908 16.802 38.982C16.7322 39.17 16.5696 39.2355 16.4428 39.1193C16.3562 39.0306 16.3562 39.0306 16.2674 39.1172C16.0836 39.2567 15.7202 39.1848 15.5533 39.0412C15.4392 38.9926 15.3251 38.944 15.2511 38.9229C14.9955 38.8658 14.8011 38.7623 14.6827 38.5046C14.6236 38.3757 14.6426 38.4771 14.4968 38.2595C14.2644 37.9531 14.2961 38.1221 14.1291 37.4186C13.9241 36.5122 13.4634 34.4289 13.3556 33.2943C13.326 32.9499 13.3535 32.9098 13.2964 32.6055C13.2795 32.3287 13.2626 32.052 13.2393 31.7414C13.2562 31.4582 13.2329 31.1476 13.216 30.8709C13.2329 30.5877 13.2054 30.068 13.235 29.8525C13.2519 29.5693 13.2751 29.32 13.1758 29.1637C13.0765 29.0073 13.0913 28.8996 13.0722 28.7982C13.0194 28.7031 13.1229 28.5087 12.9814 28.5002C12.6243 28.4622 12.0876 28.7729 11.8024 28.9313C11.6799 29.0243 11.551 29.0835 11.4496 29.1025C11.308 29.094 11.3418 29.0877 11.1855 29.187C11.0228 29.2525 10.6699 29.4237 10.446 29.5357C10.2157 29.6139 9.89666 29.7787 9.74031 29.878C9.55016 29.9837 9.38747 30.0492 9.25859 30.1083C9.13605 30.2013 8.93955 30.2731 8.88462 30.3534C8.75364 30.588 8.52334 30.6662 8.29304 30.7443C8.19163 30.7634 8.06275 30.8225 8.00782 30.9028C7.94654 30.9493 7.88527 30.9958 7.81766 31.0085C7.51341 31.0655 7.36554 31.5832 7.41626 31.8536C7.46275 31.9149 7.45431 32.0565 7.43318 32.1304C7.36981 32.3523 7.27263 32.5805 7.35715 32.8446C7.44168 33.1087 7.38254 33.5397 7.2579 33.8081C7.21565 33.956 7.21989 34.1651 7.27905 34.294C7.31075 34.463 7.3488 34.6659 7.34669 34.8412C7.34459 35.0166 7.33615 35.1582 7.36785 35.3272C7.37208 35.5364 7.36788 35.8871 7.37211 36.0963C7.37635 36.3054 7.32142 36.3857 7.39961 36.616C7.47779 36.8463 7.39119 37.3175 7.36796 37.5668C7.34684 37.6408 7.32571 37.7147 7.38488 37.8436C7.60887 38.2915 7.6723 39.1895 7.62584 39.6881C7.58359 39.836 7.58993 39.8698 7.61529 40.0051C7.64065 40.1403 7.5646 40.2945 7.47586 40.3812C7.42093 40.4614 7.37234 40.5755 7.31741 40.6558C7.27516 40.8037 6.92443 40.7995 6.77653 40.7573C6.73638 40.7298 6.69623 40.7023 6.63496 40.7488C6.56735 40.7615 6.4934 40.7404 6.41311 40.6855C6.36662 40.6242 6.32648 40.5967 6.19126 40.6221C6.09618 40.6749 5.90813 40.6052 5.79404 40.5566C5.6736 40.4742 5.45174 40.4108 5.32286 40.47C5.22779 40.5228 5.15384 40.5017 5.13481 40.4003C5.12213 40.3327 5.11579 40.2989 5.04818 40.3116C5.00804 40.2841 4.96789 40.2566 4.96155 40.2228C4.94887 40.1552 4.94887 40.1552 4.87492 40.1341C4.84111 40.1404 4.80097 40.113 4.75448 40.0517C4.53684 39.6376 4.07831 39.0587 3.77827 38.765C3.56486 38.5601 3.61769 38.6551 3.5395 38.4248C3.43385 38.2347 3.57965 38.4523 3.3599 38.2136C3.17395 37.9685 3.24156 37.9558 3.10208 37.2121C2.7935 35.3802 2.66448 32.6399 2.75734 30.5228C2.77633 30.0643 2.73405 29.6523 2.46147 29.3185C2.26919 29.0396 2.28397 28.9318 2.37481 28.6698C2.47199 28.4416 2.5396 28.4289 2.70863 28.3972C2.87766 28.3655 2.89455 28.0824 2.94945 27.4422C3.04657 26.0942 3.33165 23.1362 3.4837 21.7079C3.62097 20.3873 3.70334 19.707 3.77089 18.5745C3.79412 18.3252 3.78778 18.2914 3.72227 18.1287C3.69057 17.9597 3.67789 17.8921 3.69267 17.7843C3.76239 17.5962 3.75605 17.5624 3.93142 17.5645C4.03283 17.5455 4.31596 17.5624 4.45752 17.5709C4.7005 17.5603 5.11884 17.5518 5.2583 17.7356C5.31113 17.8307 5.29845 17.7631 5.35972 17.7166C5.45479 17.6638 5.56255 17.6786 5.71045 17.7208C5.82455 17.7694 6.11402 17.8201 6.26192 17.8623C6.66548 17.9616 7.10919 18.0884 7.44303 18.3757C7.57615 18.5257 7.70293 18.6419 7.86985 18.7856C8.23751 19.0666 8.4953 19.5081 8.61787 19.9751C8.64957 20.1441 8.67493 20.2793 8.7341 20.4082C8.79326 20.5371 8.77848 20.6448 8.72989 20.7589C8.72145 20.9005 8.713 21.0421 8.73202 21.1435C8.72358 21.285 8.70245 21.359 8.68133 21.4329C8.63274 21.547 8.61795 21.6548 8.63698 21.7562C8.64966 21.8238 8.66234 21.8914 8.60741 21.9717C8.58628 22.0457 8.58628 22.0457 8.6053 22.1471C8.58418 22.221 8.55461 22.4366 8.53982 22.5443C8.49124 22.6584 8.44054 22.9479 8.45322 23.0155C8.45746 23.2247 8.4955 23.4275 8.35183 23.5944C8.20183 23.7275 8.18494 24.0107 8.18918 24.2198C8.20609 24.4966 8.24203 24.8748 8.11105 25.1094C8.06246 25.2235 8.0688 25.2573 8.05401 25.365C8.07303 25.4664 8.08571 25.534 8.06459 25.608C8.016 25.7221 8.00122 25.8298 8.02024 25.9313C7.99911 26.0052 8.01813 26.1066 7.99701 26.1806C8.09842 26.1616 8.26111 26.0961 8.32872 26.0834C9.12103 25.8298 10.169 25.6332 10.8979 25.6015C11.6332 25.6036 11.9903 25.6416 12.6094 25.7704C12.7509 25.7789 12.8587 25.7937 12.9664 25.8085C13.1693 25.7704 13.2221 25.8655 13.1714 25.5951C13.146 25.4598 13.1566 25.1429 13.1925 24.9612C13.2051 24.4689 13.2452 23.9365 13.1966 23.4906C13.186 23.2477 13.1945 23.1061 13.2241 22.8906C13.2198 22.6814 13.2304 22.3645 13.2261 22.1553C13.2156 21.9123 13.1775 21.7095 13.2007 21.4602C13.1902 21.2172 13.2282 20.8601 13.2514 20.6108C13.2408 20.3678 13.2577 20.0847 13.3 19.9368C13.3422 19.7889 13.3359 19.7551 13.357 19.6811C13.338 19.5797 13.338 19.5797 13.3528 19.472C13.395 19.3241 13.3971 19.1487 13.3591 18.9459C13.3527 18.9121 13.3548 18.7367 13.376 18.6627C13.3971 18.5888 13.4055 18.4472 13.3929 18.3796C13.3464 18.3183 13.3675 18.2444 13.3823 18.1366C13.4034 18.0627 13.4309 18.0225 13.3992 17.8535C13.34 17.7246 13.4245 17.4288 13.4604 17.2471C13.4836 16.9978 13.6315 16.4801 13.7688 16.2794C13.8724 16.085 13.9083 15.9033 14.0435 15.878C14.1724 15.8188 14.185 15.8864 14.3055 15.9688C14.5062 16.1061 14.9288 16.3068 15.1908 16.3977C15.4465 16.4547 15.5732 16.5709 15.719 16.7885C15.8648 17.0061 16.2325 17.2871 16.4797 17.4857C16.56 17.5406 16.6804 17.623 16.7333 17.7181C16.7586 17.8533 16.8516 17.9759 16.9784 18.0921C17.065 18.1808 17.1706 18.371 17.196 18.5062C17.2615 18.6689 17.2425 18.5675 17.3481 18.7576ZM33.35 30.9441C33.3817 31.1131 33.4747 31.2356 33.5613 31.3244C33.7346 31.5018 33.8191 31.766 33.6691 31.8991C33.6078 31.9456 33.5656 32.0935 33.5846 32.1949C33.5487 32.3766 33.5276 32.4505 33.2529 32.852C33.2318 32.9259 33.0754 33.0253 32.9466 33.0844C32.7902 33.1837 32.7289 33.2302 32.7268 33.4056C32.6909 33.5873 32.6635 33.6274 32.1479 33.8641C31.8289 34.0289 31.5437 34.1874 31.4824 34.2339C31.3324 34.367 30.5042 34.8023 30.4028 34.8213C30.369 34.8277 30.3415 34.8678 30.314 34.908C30.2992 35.0157 29.4647 35.4172 28.5498 35.7638C28.3259 35.8758 28.0956 35.9539 28.0681 35.9941C28.0406 36.0342 27.5864 36.2244 27.1871 36.3343C27.092 36.3871 26.8892 36.4252 26.7265 36.4907C26.5976 36.5498 26.4349 36.6153 26.3736 36.6618C26.3187 36.7421 25.9595 36.8795 25.594 36.983C24.4425 37.374 24.1932 37.3507 22.9086 37.0318C22.3508 36.8564 22.2367 36.8078 21.8627 36.493C21.6154 36.2944 21.2816 36.0071 21.0745 35.836C20.7069 35.555 20.3878 35.1599 20.1765 34.7796C20.1173 34.6507 19.999 34.393 19.8997 34.2366C19.5151 33.6788 19.4496 33.5161 19.2869 33.0217C18.9742 32.1006 18.7522 30.3575 18.8198 29.225C18.8219 29.0496 18.8282 28.5235 18.8472 28.065C18.8535 26.979 19.0392 23.8646 19.0878 23.7505C19.1089 23.6766 19.0899 23.5751 19.0836 23.5413C19.0646 23.4399 19.2715 21.9313 19.3286 21.6757C19.3772 21.5616 19.4574 21.0566 19.5715 20.5453C19.6856 20.034 19.7722 19.5628 19.8208 19.4487C19.8355 19.3409 19.9707 18.7557 20.1123 18.2042C20.2475 17.6189 20.3763 16.9999 20.4186 16.852C20.539 16.3744 20.5897 16.085 20.558 15.916C20.5453 15.8483 20.5474 15.673 20.596 15.5589C20.7206 15.2905 20.8896 15.2588 21.1707 15.4511C21.3714 15.5884 22.4532 15.9454 22.5884 15.9201C22.6222 15.9137 22.8166 16.0173 23.3258 16.3067C23.554 16.4039 23.7632 16.3996 23.9745 16.22C24.0294 16.1397 24.1858 16.0404 24.3146 15.9813C24.4435 15.9221 24.5661 15.8291 24.5935 15.789C24.6273 15.7826 24.7224 15.7298 24.7837 15.6833C24.8851 15.6643 24.9802 15.6115 25.0076 15.5713C25.0964 15.4847 25.8781 14.9881 26.3324 14.7979C26.4612 14.7388 26.6789 14.593 26.8415 14.5275C27.2895 14.3035 28.1219 14.0774 28.6818 14.0773C28.891 14.0731 28.9649 14.0942 29.0178 14.1893C29.0368 14.2907 29.1171 14.3457 29.191 14.3668C29.2586 14.3541 29.4065 14.3963 29.4467 14.4238C29.5206 14.4449 29.6009 14.4999 29.6685 14.4872C29.7425 14.5083 29.8165 14.5294 29.7953 14.6034C29.808 14.671 29.9622 14.7471 30.2116 14.7703C30.2855 14.7914 30.3257 14.8189 30.3383 14.8865C30.3447 14.9203 30.3975 15.0154 30.444 15.0766C30.4905 15.1379 30.5433 15.233 30.5158 15.2731C30.4884 15.3133 30.5687 15.3682 30.6764 15.383C30.7905 15.4316 30.8434 15.5267 30.856 15.5943C30.8687 15.6619 30.8877 15.7633 30.9279 15.7908C30.9744 15.852 30.8751 16.2556 30.7737 16.2746C30.7737 16.2746 30.7462 16.3148 30.7589 16.3824C30.7779 16.4838 30.4821 16.9592 30.3807 16.9782C30.3469 16.9846 30.292 17.0648 30.2434 17.1789C30.1885 17.2592 30.1061 17.3797 30.0046 17.3987C29.9434 17.4452 29.787 17.5445 29.6983 17.6311C29.5757 17.7241 29.4807 17.7769 29.4469 17.7833C29.4131 17.7896 29.2905 17.8826 29.2081 18.003C29.1194 18.0896 28.9968 18.1826 28.963 18.189C28.8616 18.208 28.1264 18.7658 28.0714 18.8461C28.0503 18.9201 27.5475 19.2243 27.4123 19.2497C27.3785 19.256 27.2221 19.3553 27.0658 19.4547C26.8819 19.5941 26.7256 19.6934 26.6918 19.6998C26.6242 19.7124 26.4953 19.7716 26.3453 19.9047C25.8213 20.283 25.3206 20.4119 24.6128 20.3697C24.505 20.3549 24.4776 20.395 24.3804 20.6232C24.3043 20.7775 24.2684 20.9592 24.2811 21.0268C24.2938 21.0944 24.2579 21.2761 24.2156 21.424C24.167 21.5381 24.1586 21.6797 24.1924 21.6733C24.1924 21.6733 24.1438 21.7874 24.0339 21.948C23.9579 22.1022 23.8882 22.2903 23.9008 22.3579C23.9135 22.4255 23.8776 22.6072 23.8354 22.7551C23.7931 22.903 23.7847 23.0446 23.7974 23.1122C23.81 23.1798 23.7614 23.2939 23.7192 23.4418C23.6558 23.6637 23.7086 23.7587 23.865 23.6594C23.9263 23.6129 24.0002 23.6341 24.0742 23.6552C24.1545 23.7101 24.2221 23.6974 24.9742 23.4164C25.1369 23.3509 25.3059 23.3192 25.3123 23.353C25.3524 23.3804 25.3862 23.3741 25.4137 23.334C25.4961 23.2135 26.1722 23.0867 26.1912 23.1881C26.2102 23.2895 26.4384 23.3867 26.5737 23.3614C26.7427 23.3297 26.8293 23.4184 26.7342 23.4712C26.7004 23.4776 26.8145 23.5262 27.0026 23.5959C27.1843 23.6318 27.3723 23.7015 27.3787 23.7353C27.385 23.7691 27.4717 23.8578 27.5858 23.9064C27.6999 23.955 27.7865 24.0438 27.759 24.0839C27.7654 24.1177 27.8182 24.2128 27.9386 24.2952C28.0253 24.3839 28.152 24.5001 28.1647 24.5677C28.1774 24.6353 28.1901 24.7029 28.2239 24.6966C28.338 24.7452 28.3232 24.853 28.2218 24.872C28.1204 24.891 28.1394 24.9924 28.2809 25.0009C28.3549 25.022 28.3612 25.0558 28.3063 25.1361C28.2852 25.21 28.2641 25.284 28.2641 25.284C28.2894 25.4192 28.1436 25.7615 28.0549 25.8481C27.9598 25.901 27.8986 25.9474 27.9049 25.9812C27.8838 26.0552 27.7211 26.1207 27.4506 26.1714C26.9837 26.294 26.9288 26.3743 27.0556 26.4905C27.1359 26.5454 27.1084 26.5856 26.9119 26.6574C25.9231 26.9828 25.3061 27.2385 24.4991 27.5999C24.2413 27.7182 23.842 27.8281 23.6455 27.8999L23.2736 27.9697L23.3032 28.3141C23.3011 28.4894 23.299 28.6648 23.2715 28.705C23.1955 28.8592 23.1617 29.9854 23.2484 30.0741C23.2547 30.1079 23.261 30.1417 23.2336 30.1819C23.1998 30.1882 23.185 30.2959 23.2104 30.4312C23.2294 30.5326 23.2146 30.6403 23.2209 30.6741C23.1935 30.7143 23.1576 30.896 23.1555 31.0714C23.1386 31.3545 23.1365 31.5299 23.2527 32.5229C23.2844 32.6919 23.2823 32.8673 23.2549 32.9074C23.2337 32.9814 23.2253 33.123 23.2781 33.218L23.3563 33.4483L23.7556 33.3384C23.9521 33.2666 24.4803 33.0975 24.8395 32.9602C25.2261 32.7827 25.6529 32.6326 25.748 32.5798C25.8832 32.5545 26.0459 32.489 26.141 32.4361C26.2361 32.3833 26.5551 32.2185 26.8805 32.0875C27.2059 31.9565 27.5312 31.8254 27.5925 31.779C27.6538 31.7325 27.7827 31.6733 27.8841 31.6543C27.9517 31.6416 28.0806 31.5824 28.108 31.5423C28.1693 31.4958 28.332 31.4303 28.4947 31.3648C28.651 31.2655 29.0102 31.1281 29.268 31.0098C29.5321 30.9253 29.9124 30.7139 30.1701 30.5956C30.3941 30.4836 30.7195 30.3526 30.8821 30.2871C31.0448 30.2216 31.2688 30.1096 31.3913 30.0166C31.6428 29.8645 31.9132 29.8138 31.9724 29.9426C32.0104 30.1455 32.0167 30.1793 32.1182 30.1603C32.1858 30.1476 32.2259 30.175 32.1985 30.2152C32.2238 30.3504 32.2703 30.4117 32.433 30.3462C32.5619 30.287 32.6358 30.3081 32.7901 30.3842C32.8704 30.4391 32.957 30.5279 32.9633 30.5617C32.9697 30.5955 33.05 30.6504 33.1577 30.6652C33.2993 30.6736 33.312 30.7412 33.35 30.9441ZM58.3384 8.34017C58.2645 8.31904 58.1969 8.33172 58.2032 8.36553C58.2159 8.43314 58.2497 8.4268 58.2835 8.42046C58.3173 8.41412 58.3638 8.47539 58.3765 8.543C58.3892 8.61061 58.368 8.68456 58.3342 8.6909C58.3004 8.69724 58.3194 8.79866 58.3385 8.90007C58.3976 9.02896 58.4505 9.12403 58.4568 9.15784C58.4631 9.19164 58.4631 9.19164 58.4293 9.19798C58.3216 9.1832 58.1357 9.49802 58.161 9.63325C58.1737 9.70086 58.1462 9.741 58.1124 9.74734C58.0786 9.75368 57.9688 9.91427 57.9265 10.0622C57.8505 10.2164 57.7406 10.377 57.6857 10.4573C57.6244 10.5038 57.6033 10.5777 57.6434 10.6052C57.7364 10.7277 57.3012 11.0193 56.9293 11.0891C56.7265 11.1271 56.5236 11.1652 56.5363 11.2328C56.5088 11.2729 56.4412 11.2856 56.3736 11.2983C56.306 11.311 56.1835 11.4039 56.0884 11.4568C56.0335 11.537 55.7419 11.6617 55.4377 11.7188C55.1397 11.8097 54.8418 11.9005 54.8144 11.9407C54.7594 12.021 54.4277 12.1182 54.0622 12.2217C53.6629 12.3316 53.3037 12.469 53.2424 12.5154C53.1812 12.5619 53.0523 12.6211 52.9509 12.6401C52.8494 12.6591 52.7206 12.7183 52.6931 12.7585C52.6656 12.7986 52.5706 12.8514 52.4755 12.9042C52.3403 12.9296 52.1776 12.9951 52.0888 13.0818C51.9938 13.1346 51.8987 13.1874 51.8649 13.1937C51.8311 13.2001 51.7085 13.2931 51.6198 13.3797C51.436 13.5191 51.3874 13.6332 51.343 13.9565C51.3473 14.1657 51.2839 14.3875 51.2564 14.4277C51.2628 14.4615 51.2543 14.6031 51.286 14.7721C51.3431 15.0763 51.2776 15.4736 51.21 15.4862C51.1762 15.4926 51.1551 15.5665 51.1741 15.6679C51.2058 15.837 51.1741 16.2278 51.0685 16.5976C51.0263 16.7455 51.003 16.9948 50.9946 17.1364C51.0199 17.2716 51.0115 17.4132 50.9502 17.4597C50.889 17.5061 50.8531 17.6879 50.8848 17.8569C50.8826 18.0322 50.8531 18.2478 50.8045 18.3619C50.7834 18.4358 50.7749 18.5774 50.7939 18.6788C50.813 18.7802 50.7918 18.8542 50.758 18.8605C50.6904 18.8732 50.6735 19.1563 50.6313 19.8641C50.6609 20.2085 50.6039 20.4642 50.5405 20.686C50.5194 20.76 50.5109 20.9015 50.53 21.0029C50.549 21.1044 50.5469 21.2797 50.4919 21.36C50.4772 21.4678 50.4624 21.5755 50.5089 21.6368C50.5215 21.7044 50.5194 21.8798 50.4561 22.1016C50.3631 22.539 50.3399 22.7883 50.3801 23.3757C50.397 23.6525 50.3801 23.9356 50.3315 24.0497C50.3167 24.1575 50.3336 24.4342 50.3379 24.6434C50.3759 24.8463 50.3865 25.0892 50.3316 25.1695C50.3104 25.2435 50.3274 25.5203 50.3443 25.797C50.3591 26.2492 50.431 27.5655 50.4775 28.7466C50.4923 29.1987 50.5156 29.5093 50.5685 30.1643C50.6065 30.3671 50.5833 30.6165 50.5685 30.7242C50.5537 30.832 50.6234 31.2038 50.7207 31.5356C50.8749 32.1715 50.8411 32.1779 50.7313 32.3384C50.6425 32.4251 50.6003 32.573 50.613 32.6406C50.6383 32.7758 50.577 32.8223 50.4165 32.7124C50.3362 32.6575 50.3425 32.6913 50.3214 32.7653C50.2791 32.9132 50.0763 32.9512 49.9495 32.835C49.9094 32.8075 49.7615 32.7653 49.6939 32.778C49.5925 32.797 49.4847 32.7822 49.4044 32.7273C49.3579 32.666 49.3241 32.6723 49.2966 32.7125C49.322 32.8477 49.1804 32.8393 49.0537 32.7231C49.0008 32.628 48.8931 32.6132 48.8656 32.6534C48.798 32.666 48.7241 32.6449 48.6247 32.4886C48.5318 32.366 48.4177 32.3174 48.3902 32.3576C48.3226 32.3703 48.2825 32.3428 48.2698 32.2752C48.2508 32.1738 48.1578 32.0512 48.0775 31.9963C47.8704 31.8252 47.6591 31.4449 47.4689 30.9906C47.4034 30.8279 47.2978 30.6378 47.2175 30.5828C47.1372 30.5279 47.0041 30.3779 46.9449 30.249C46.7674 29.8624 46.4673 27.889 46.37 26.4374C46.3911 26.3635 46.3742 26.0867 46.3636 25.8437C46.3193 25.6071 46.3023 25.3303 46.3235 25.2564C46.3404 24.9732 46.2896 24.1429 46.2156 23.5618C46.1628 22.9069 46.186 22.6575 46.1965 21.2208C46.2218 19.6763 46.2576 18.9347 46.2999 18.7868C46.321 18.7128 46.3295 18.5713 46.3104 18.4698C46.2661 18.2332 46.3125 17.1747 46.4202 16.6295C46.4498 16.414 46.4794 16.1985 46.4455 16.2049C46.4054 16.1774 45.8878 16.5894 45.7779 16.75C45.5244 17.0775 44.4088 17.2867 43.8235 17.1515C43.4601 17.0797 42.2156 16.2283 42.1036 16.0044C42.0508 15.9093 42.0043 15.848 41.9705 15.8543C41.8691 15.8734 41.7043 15.5543 41.1443 14.4345C41.0386 14.2444 40.9393 14.088 40.8654 14.0669C40.8252 14.0395 40.7196 13.8493 40.6477 13.6528C40.4913 13.1922 40.5949 12.9978 40.9942 12.8879C41.2583 12.8034 41.6048 12.5984 42.04 12.3069C42.1626 12.2139 42.4077 12.0279 42.564 11.9286C42.7542 11.823 42.938 11.6835 43.0267 11.5969C43.4218 11.2778 45.3846 10.1748 46.1029 9.90009C46.2994 9.82824 46.5572 9.70991 46.6248 9.69723C46.7199 9.6444 46.815 9.59158 46.8488 9.58523C46.8826 9.57889 47.0114 9.51973 47.1403 9.46056C47.2629 9.36759 47.4594 9.29574 47.622 9.23023C47.7573 9.20487 47.9538 9.13303 48.015 9.08654C48.1038 8.99991 48.3341 8.92172 48.5369 8.88368C48.7334 8.81183 48.9299 8.73998 48.9975 8.7273C49.025 8.68716 49.2553 8.60897 49.4581 8.57093C50.2229 8.35749 51.1103 8.05108 51.2793 8.01938C51.3406 7.97289 51.8076 7.85032 52.3146 7.75521C52.7816 7.63264 53.221 7.55022 53.2485 7.51007C53.276 7.46993 55.4121 7.10429 55.5198 7.11908C55.5938 7.1402 55.8029 7.13597 56.0058 7.09793C56.1748 7.06622 56.384 7.06199 56.4241 7.08945C56.4579 7.08311 56.6671 7.07887 56.8361 7.04717C57.039 7.00913 57.3897 7.01334 57.6052 7.04291C57.8207 7.07248 58.0024 7.10839 58.0024 7.10839C58.0362 7.10205 58.0616 7.23727 58.0933 7.40629C58.125 7.57532 58.1905 7.73801 58.2306 7.76547C58.2771 7.82674 58.2898 7.89435 58.2349 7.97465C58.1926 8.12255 58.199 8.15636 58.3194 8.23875C58.4462 8.35495 58.4462 8.35495 58.3384 8.34017ZM62.4191 6.94492C62.5416 6.85195 62.6092 6.83927 62.7635 6.91532C62.8438 6.97025 62.9515 6.98504 63.053 6.96602C63.1882 6.94066 63.2621 6.96178 63.3551 7.08432C63.4481 7.20686 63.6361 7.27658 63.8178 7.31249C63.9995 7.3484 64.2615 7.43924 64.3883 7.55544C64.7433 7.76882 65.1447 8.04347 65.1574 8.11108C65.1574 8.11108 65.2441 8.19982 65.3307 8.28855C65.4913 8.39841 65.6307 8.58222 65.7744 8.97521C65.8272 9.07028 65.8737 9.13156 65.9413 9.11887C66.009 9.10619 66.1294 9.18859 66.2097 9.24352C66.2625 9.33859 66.4696 9.50973 66.6027 9.65973C67.0295 10.0696 67.2408 10.4499 67.4437 10.9718C67.5282 11.2359 67.6529 11.5274 67.7057 11.6225C67.8579 11.8739 68.0079 12.8606 68.0671 13.5494C68.0502 13.8326 68.0735 14.1431 68.0925 14.2446C68.1179 14.3798 68.1031 14.4875 68.1094 14.5213C68.082 14.5615 68.0925 14.8045 68.1306 15.0073C68.175 15.2439 68.1644 15.5609 68.1285 15.7426C68.1264 15.9179 68.1243 16.0933 68.1306 16.1271C68.1771 16.1884 68.1687 16.33 68.1539 16.4377C68.0609 16.8751 68.0145 17.3737 68.0673 17.4688C68.1138 17.5301 68.0969 17.8132 68.0673 18.0287C68.0441 18.278 68.0674 18.5886 68.0864 18.69C68.1118 18.8252 68.1139 19.2098 68.116 19.5943C68.078 19.9514 68.0865 20.3697 68.0844 20.5451C68.114 21.4494 68.1246 21.6924 68.0358 21.779C67.9809 21.8593 67.9873 21.8931 68.0528 22.0558C68.1394 22.1446 68.1584 22.246 68.1098 22.3601C68.0612 22.4742 68.0993 22.677 68.131 22.846C68.2028 23.0425 68.1944 23.1841 68.1733 23.258C68.0909 23.3785 68.1057 23.8306 68.2114 24.5807C68.2621 24.8511 68.3044 25.2631 68.3149 25.5061C68.3551 26.0935 68.6616 27.5408 68.8243 28.0352C68.9278 28.4007 69.1561 29.6177 69.1075 29.7318C69.1138 29.7656 69.0927 29.8395 69.0779 29.9473C69.0969 30.0487 69.042 30.129 69.0019 30.1015C68.9617 30.0741 68.8603 30.0931 68.8265 30.0994C68.7589 30.1121 68.6511 30.0973 68.5708 30.0424C68.3764 29.9389 68.275 29.9579 68.3004 30.0931C68.3469 30.1544 68.3321 30.2622 68.3046 30.3023C68.2835 30.3763 68.2497 30.3826 68.049 30.2453C67.9285 30.1629 67.7743 30.0868 67.7067 30.0995C67.6391 30.1122 67.4637 30.1101 67.282 30.0742C67.0327 30.0509 66.9925 30.0235 66.8467 29.8059C66.7812 29.6432 66.4558 29.2143 66.1706 28.8128C65.8113 28.3903 65.6 28.01 65.5282 27.8135C65.4627 27.6508 65.3908 27.4543 65.3444 27.393C65.2915 27.298 65.207 27.0339 65.1563 26.7634C65.0781 26.5331 64.9745 26.1676 64.9027 25.9711C64.871 25.8021 64.7357 25.2675 64.6533 24.8281C64.6047 24.3823 64.4885 23.9491 64.4821 23.9153C64.423 23.7864 64.2877 23.8118 64.2053 23.9322C64.0405 24.1731 63.2525 24.6359 63.0982 24.5598C63.0644 24.5662 63.0306 24.5725 63.0095 24.6464C63.0158 24.6802 62.7919 24.7922 62.5616 24.8704C62.3038 24.9888 62.1137 25.0944 62.0862 25.1346C62.0587 25.1747 61.9637 25.2275 61.8622 25.2466C61.6594 25.2846 61.3531 25.517 61.2559 25.7452C61.1862 25.9333 61.1101 26.6474 61.0489 27.2538C61.0088 27.7863 60.9496 28.2173 60.9074 28.3652C60.8525 28.4455 60.8651 28.5131 60.8651 28.5131C60.9053 28.5406 60.8356 29.2885 60.7786 29.5442C60.7511 29.5843 60.749 29.7597 60.7469 29.9351C60.7448 30.1104 60.7025 30.2583 60.6201 30.3788C60.5103 30.5393 60.4955 30.6471 60.5209 30.7823C60.5462 30.9175 60.5188 30.9577 60.4511 30.9704C60.3835 30.9831 60.3561 31.0232 60.3624 31.057C60.3814 31.1584 60.1448 31.2028 59.8279 31.1923C59.5384 31.1416 59.4708 31.1542 59.4497 31.2282C59.3947 31.3085 59.3947 31.3085 59.3546 31.281C59.3419 31.2134 59.2342 31.1986 59.1665 31.2113C59.0651 31.2303 59.025 31.2029 59.0123 31.1352C58.9996 31.0676 58.913 30.9789 58.8052 30.9641C58.6975 30.9493 58.6235 30.9282 58.6172 30.8944C58.6108 30.8606 58.5094 30.8796 58.3742 30.905C58.1038 30.9557 58.0171 30.867 57.9727 30.6303C57.9072 30.4676 57.4952 29.95 57.4339 29.9965C57.4001 30.0028 57.36 29.9754 57.3135 29.9141C57.3008 29.8465 57.1825 29.5887 57.0303 29.3373C56.8064 28.8894 56.7937 28.8218 56.6817 28.0379C56.5506 27.1526 56.5506 27.1526 56.0647 27.1738C55.9294 27.1991 55.7139 27.1696 55.5724 27.1611C55.4308 27.1527 55.1139 27.1421 54.8709 27.1527C54.5878 27.1358 54.3659 27.0725 54.2455 26.9901C54.0447 26.8527 53.582 26.6246 53.1996 26.4513C53.0115 26.3816 52.8847 26.2654 52.8657 26.164C52.8129 26.0689 52.6333 25.8576 52.4664 25.714C52.2593 25.5429 52.0734 25.2978 52.0142 25.1689C51.955 25.04 51.8557 24.8837 51.8156 24.8562C51.6148 24.7189 51.5894 24.0237 51.7733 23.8843C51.8895 23.7575 52.7494 23.4912 52.8909 23.4997C52.9248 23.4933 52.9712 23.5546 52.9839 23.6222C52.9966 23.6898 53.0431 23.7511 53.1234 23.806C53.2311 23.8208 53.2776 23.8821 53.2776 23.8821C53.284 23.9159 53.2565 23.956 53.1551 23.9751C52.986 24.0068 53.0642 24.2371 53.265 24.3744C53.4319 24.5181 53.4657 24.5117 53.9326 24.3891C54.7313 24.1694 55.7137 23.8101 56.2969 23.5608C56.8124 23.3241 56.9899 23.1508 56.9518 22.948C56.9392 22.8804 56.9539 22.7726 57.0152 22.7262C57.0427 22.686 57.0638 22.6121 57.0638 22.6121C56.9772 22.5233 57.2137 21.3591 57.3363 21.2662C57.3638 21.226 57.3574 21.1922 57.3511 21.1584C57.3109 21.1309 57.3468 20.9492 57.4102 20.7274C57.4799 20.5393 57.5856 20.1696 57.6151 19.9541C57.6468 19.5632 57.744 19.335 57.875 19.1004C57.8961 19.0265 57.9045 18.8849 57.9257 18.811C57.9066 18.7096 57.9552 18.5955 57.9763 18.5215C58.0313 18.4412 58.0524 18.3673 58.0397 18.2997C58.027 18.2321 58.0756 18.118 58.1306 18.0377C58.1791 17.9236 58.1939 17.8158 58.1939 17.8158C58.1686 17.6806 58.8636 15.4156 59.0643 14.993C59.1065 14.8451 59.1699 14.6232 59.191 14.5493C59.2122 14.4753 59.2269 14.3676 59.2544 14.3274C59.3579 14.133 59.8565 12.4998 59.8649 12.3582C59.8269 12.1554 60.0086 11.6314 60.2283 11.3102C60.3318 11.1158 60.4776 10.7735 60.5811 10.5791C60.6508 10.3911 60.7966 10.0488 60.8938 9.8206C60.9973 9.62622 61.1156 9.32407 61.1578 9.17617C61.255 8.94797 61.5254 8.33734 61.7536 7.87461C61.912 7.59994 62.324 6.99775 62.4191 6.94492ZM63.9979 16.4823C63.9218 16.0766 63.8732 16.1907 63.5923 17.1183C63.55 17.2662 63.4317 17.5683 63.362 17.7564C63.2585 17.9508 63.1951 18.1726 63.2014 18.2064C63.2078 18.2402 63.1528 18.3205 63.0979 18.4008C63.0768 18.4748 63.0345 18.6227 63.0261 18.7642C63.0177 18.9058 63.0092 19.0474 62.9479 19.0938C62.8592 19.1805 62.7113 19.6981 62.7367 19.8334C62.743 19.8672 62.7008 20.0151 62.6522 20.1292C62.4937 20.4038 62.5022 20.8222 62.6374 20.7968C62.6712 20.7905 62.9353 20.706 63.1994 20.6214C63.4297 20.5432 63.7277 20.4524 63.8291 20.4334C63.8903 20.3869 63.9918 20.3678 64.0192 20.3277C64.0467 20.2876 64.0509 19.9368 64.0488 19.5523C64.0128 19.1741 64.0255 18.6818 64.0149 18.4388C64.0381 18.1895 64.036 17.8049 64.0254 17.562C64.0212 17.3528 64.0043 17.076 64.0127 16.9344C64.0275 16.8267 64.0233 16.6175 63.9979 16.4823ZM70.9512 4.39984C71.0062 4.31955 71.1414 4.29418 71.621 4.23922C71.9316 4.21597 72.3098 4.18003 72.4112 4.16101C72.614 4.12296 73.2669 4.24548 74.0867 4.51166C74.3487 4.60249 74.5833 4.73348 74.7565 4.91095C74.8896 5.06096 75.0904 5.19828 75.1981 5.21307C75.3798 5.24898 75.4263 5.31025 75.8405 6.21242C75.9588 6.47018 75.9842 6.6054 75.9525 6.99628C75.9567 7.20546 75.8997 7.46112 75.8659 7.46746C75.8384 7.5076 75.8237 7.61536 75.8363 7.68297C75.8997 8.02102 75.9061 8.61474 75.8512 8.69503C75.8237 8.73518 75.8153 8.87674 75.8343 8.97815C75.8596 9.11338 75.8512 9.25494 75.8237 9.29508C75.7963 9.33523 75.7583 9.69231 75.7541 10.043C75.7562 10.4276 75.752 10.7783 75.7245 10.8185C75.6632 10.8649 75.6253 11.7819 75.6274 12.1665C75.6253 12.3418 75.6591 12.3355 75.7753 12.2087C75.8366 12.1622 75.9126 12.008 75.995 11.8876C76.0436 11.7735 76.1873 11.6065 76.3035 11.4798C76.4535 11.3466 76.6669 10.9917 76.7915 10.7233C76.95 10.4486 77.157 10.0599 77.2542 9.83168C77.4823 9.36895 78.1203 7.91949 78.2598 7.5434C78.302 7.39549 78.3781 7.24125 78.4119 7.23491C78.4732 7.18842 78.4943 7.11447 78.4879 7.08067C78.4816 7.04686 78.5027 6.97291 78.5577 6.89262C78.5788 6.81867 78.6823 6.62428 78.7119 6.40877C78.9379 5.5615 78.9316 5.52769 79.1006 5.49599C79.202 5.47697 79.3837 5.51288 79.5316 5.55513C79.7133 5.59104 79.969 5.64807 80.1042 5.62271C80.3134 5.61847 80.4211 5.63326 80.5078 5.72199C80.6345 5.83819 80.9768 5.98396 81.8431 6.31141C82.0312 6.38113 82.3059 6.53958 82.3988 6.66212C82.5784 6.8734 82.6587 6.92833 82.9799 7.14805C83.1405 7.25791 83.1468 7.29171 83.1637 7.5685C83.168 7.77767 83.1933 7.91289 83.2335 7.94036C83.3814 7.98261 83.3349 8.48124 83.1068 8.94397C82.9821 9.21231 82.8638 9.51446 82.849 9.62222C82.8004 9.73631 82.7244 9.89055 82.6356 9.97719C82.5807 10.0575 82.5047 10.2117 82.4561 10.3258C82.4011 10.4061 82.3525 10.5202 82.2849 10.5329C82.2511 10.5392 82.2173 10.5456 82.2237 10.5794C82.2363 10.647 81.8075 11.5323 81.704 11.7267C81.6765 11.7668 81.6004 11.9211 81.518 12.0415C81.4758 12.1894 81.3385 12.3901 81.2497 12.4768C81.1673 12.5972 81.0849 12.7176 81.0913 12.7515C81.0976 12.7853 81.049 12.8994 80.9941 12.9796C80.9054 13.0663 80.7955 13.2269 80.7194 13.3811C80.4025 13.9305 78.6955 16.2103 78.5941 16.2294C78.5264 16.242 78.499 16.2822 78.5053 16.316C78.5117 16.3498 78.4504 16.3963 78.4102 16.3688C78.3764 16.3752 78.1715 16.5886 78.0004 16.7956C77.8018 17.0428 77.5905 17.2224 77.4891 17.2415C77.4215 17.2542 77.2651 17.3535 77.1489 17.4802C77.0327 17.607 76.8827 17.7401 76.8151 17.7528C76.7412 17.7317 76.6186 17.8247 76.5637 17.905C76.4749 17.9916 76.3461 18.0508 76.2447 18.0698C76.177 18.0825 76.0883 18.1691 76.027 18.2156C75.9721 18.2959 75.8432 18.355 75.7756 18.3677C75.708 18.3804 75.6531 18.4607 75.6594 18.4945C75.6573 18.6699 77.7745 19.8825 78.4527 20.1403C78.6407 20.21 78.8689 20.3072 78.983 20.3558C80.2909 20.9853 80.8551 21.1945 81.1995 21.1649C81.3748 21.167 81.5904 21.1965 81.6981 21.2113C81.8059 21.2261 81.9474 21.2345 82.2052 21.1162C82.6933 20.9197 83.0651 20.8499 83.1855 20.9323C83.232 20.9936 83.2722 21.0211 83.306 21.0147C83.3398 21.0084 83.4602 21.0908 83.5807 21.1732C83.6673 21.2619 83.8215 21.338 83.923 21.319C84.1321 21.3147 84.2314 21.4711 84.0286 21.5091C83.8934 21.5345 83.9589 21.6972 84.2061 21.8958C84.4132 22.0669 84.4385 22.2021 84.2759 22.2676C84.2146 22.3141 84.2209 22.3479 84.335 22.3965C84.4555 22.4789 84.4555 22.4789 84.3456 22.6395C84.2569 22.7261 84.2083 22.8402 84.2146 22.874C84.2273 22.9416 84.1724 23.0219 84.0709 23.0409C84.0033 23.0536 83.9822 23.1276 83.9886 23.1614C84.0414 23.2564 83.8174 23.3684 83.6019 23.3389C83.5005 23.3579 83.4667 23.3642 83.473 23.398C83.4794 23.4318 83.4181 23.4783 83.3167 23.4974C83.2153 23.5164 83.154 23.5629 83.1265 23.603C83.1054 23.677 83.0378 23.6896 82.8286 23.6939C82.6871 23.6854 82.3765 23.7087 82.1736 23.7467C81.9708 23.7848 81.7278 23.7953 81.6539 23.7742C81.1214 23.7341 79.9784 23.4236 79.3677 23.1532C79.2071 23.0433 78.9451 22.9525 78.831 22.9039C77.8971 22.5891 76.3336 21.9025 75.9321 21.6279C75.8117 21.5455 75.6976 21.4969 75.6638 21.5032C75.63 21.5095 75.6406 21.7525 75.6575 22.0293C75.6807 22.3399 75.7209 22.9273 75.7695 23.3731C75.8182 24.3788 75.9577 25.6824 76.1648 26.9734C76.2832 27.791 76.2747 27.9326 76.2071 27.9453C76.1395 27.958 76.1121 27.9981 76.1247 28.0657C76.1374 28.1333 75.8501 28.4672 75.7487 28.4862C75.7149 28.4925 75.6536 28.539 75.6599 28.5728C75.6515 28.7144 75.1719 28.7694 74.9711 28.632C74.8169 28.556 74.7493 28.5687 74.688 28.6151C74.6331 28.6954 74.5253 28.6807 74.183 28.5349C73.7203 28.3067 73.3991 28.087 73.0125 27.7046C72.8519 27.5947 72.7314 27.5123 72.6638 27.525C72.6364 27.5652 72.5962 27.5377 72.5835 27.4701C72.5772 27.4363 72.4779 27.2799 72.3849 27.1574C72.2856 27.001 72.2264 26.8722 72.2602 26.8658C72.2539 26.832 72.2412 26.7644 72.1673 26.7433C72.0405 26.6271 71.8693 26.2742 71.6686 25.577C71.5587 25.1777 71.4382 24.5354 71.2459 23.1367C70.9859 21.1907 70.9373 20.7449 70.952 20.0773C70.9478 19.8681 70.9499 19.6927 70.9098 19.6653C70.9034 19.6315 70.8928 19.3885 70.8696 19.0779C70.8421 18.5581 70.8357 18.5243 70.6752 18.4145C70.5547 18.3321 70.4681 18.2433 70.4681 18.2433C70.4618 18.2095 70.3815 18.1546 70.3139 18.1673C70.2061 18.1525 70.1195 18.0638 70.073 18.0025C70.0603 17.9349 69.9737 17.8461 69.9399 17.8525C69.8997 17.825 69.7603 17.6412 69.5807 17.4299C69.3144 17.1299 69.2954 17.0285 69.3165 16.9545C69.3651 16.8404 69.4327 16.8278 69.7433 16.8045C70.1955 16.7897 70.6751 16.7347 70.7363 16.6882C70.73 16.6544 70.7532 16.4051 70.7363 16.1283C70.7511 15.4607 70.7763 13.3563 70.7953 12.8978C70.7974 12.7224 70.8143 12.4393 70.8101 12.2301C70.8396 12.0146 70.8291 11.7716 70.8375 11.6301C70.8523 11.5223 70.8734 10.8884 70.9008 10.2884C70.9283 9.68833 70.9768 9.01432 70.9726 8.80515C70.9683 8.59598 71.0232 7.95578 71.0507 7.35572C71.1499 5.27244 71.1372 5.20483 71.0337 4.83931C70.9153 4.58154 70.9301 4.47379 70.9512 4.39984ZM32.4091 37.6594C33.0049 37.4776 33.924 37.3402 34.281 37.3783C34.4902 37.374 34.7057 37.4036 34.7733 37.3909C34.8748 37.3719 34.9889 37.4205 35.0966 37.4353C35.1769 37.4902 35.4664 37.5409 35.722 37.5979C36.0051 37.6148 36.3411 37.7268 36.489 37.769C36.6369 37.8113 36.7848 37.8535 36.8862 37.8345C37.0214 37.8091 38.2026 38.3225 38.5575 38.5359C39.8823 39.4422 40.269 39.8246 40.6768 40.693C40.96 41.2698 40.998 41.4726 40.922 42.1868C40.8249 42.9749 40.5481 43.5517 39.8615 44.5554C39.2847 45.3984 39.1136 45.6055 38.7185 45.9246C38.5621 46.0239 38.4459 46.1506 38.4523 46.1845C38.5389 46.2732 38.2516 46.607 37.7276 46.9853C37.6325 47.0381 37.4614 47.2452 37.3515 47.4057L37.1255 47.6931L37.4107 48.0945C37.584 48.272 37.7361 48.5234 37.7826 48.5847C37.7953 48.6523 37.8481 48.7474 37.901 48.8425C37.9876 48.9312 38.0066 49.0326 38.1144 50.1672C38.1525 50.37 38.1504 50.5454 38.1229 50.5856C38.0954 50.6257 38.0807 50.7335 38.0933 50.8011C38.106 50.8687 38.0617 51.192 38.0236 51.549C37.9518 51.9124 37.9138 52.2695 37.9328 52.3709C37.9519 52.4724 37.9498 52.6477 37.9075 52.7956C37.8991 52.9372 37.8758 53.1865 37.9012 53.3217C37.9667 53.4844 37.9435 53.7337 37.9139 53.9492C37.878 54.131 37.8822 54.3401 37.8886 54.3739C37.9287 54.4014 37.9139 54.5092 37.8865 54.5493C37.7766 54.7099 37.7956 54.8113 37.897 54.7923C37.9647 54.7796 37.8104 55.2635 37.5823 55.7262C37.3478 56.1551 37.3478 56.1551 37.4745 56.2713C37.521 56.3326 37.445 56.4868 37.2316 56.8418C37.0393 57.1228 36.9084 57.3573 36.9485 57.3848C36.9485 57.3848 36.8513 57.613 36.7203 57.8475C36.5344 58.1624 36.5196 58.2701 36.5873 58.2574C36.6612 58.2786 36.7013 58.306 36.6802 58.38C36.6654 58.4877 36.3359 58.9695 36.2344 58.9885C36.2006 58.9948 36.2006 58.9948 36.2133 59.0625C36.2197 59.0963 36.1711 59.2104 36.0887 59.3308C36.0401 59.4449 35.9978 59.5928 36.0105 59.6604C36.0486 59.8632 34.4703 61.524 34.1661 61.5811C34.0985 61.5938 33.9696 61.6529 33.8809 61.7396C33.8196 61.7861 33.5555 61.8706 33.3865 61.9023C33.1836 61.9403 32.9406 61.9509 32.8329 61.9361C32.7188 61.8875 32.5434 61.8854 32.4082 61.9108C32.2054 61.9488 32.03 61.9467 31.5123 61.7989C31.4384 61.7777 31.244 61.6742 31.0898 61.5982C30.9693 61.5158 30.8151 61.4397 30.7749 61.4122C30.5531 61.3489 29.9192 60.7679 29.8072 60.5439C29.636 60.1911 29.3444 59.7558 29.2768 59.7685C29.1416 59.7939 28.9451 59.3058 28.271 57.5775C28.14 57.2522 27.8441 55.4879 27.7849 54.7991C27.7954 54.4822 27.7658 54.1378 27.7405 54.0026C27.7172 53.692 27.677 51.9848 27.6917 51.3171C27.7002 50.6157 27.6832 50.3389 27.7888 48.2894C27.8458 47.4738 27.8563 47.1569 27.7824 47.1358C27.7486 47.1421 27.681 47.1548 27.6535 47.195C27.5986 47.2752 27.5584 47.2478 27.4655 47.1252C27.4063 46.9964 27.326 46.9414 27.2922 46.9478C27.1908 46.9668 26.8886 46.8485 26.8823 46.8147C26.8759 46.7809 26.8421 46.7872 26.8083 46.7936C26.7407 46.8062 26.6266 46.7576 26.5463 46.7027C26.466 46.6478 26.3118 46.5717 26.2379 46.5506C25.942 46.4661 25.6885 45.6738 25.6398 44.6681C25.6166 44.3575 25.6334 44.0744 25.6208 44.0068C25.6419 43.9328 25.6926 43.6433 25.7158 43.394C25.8045 42.7475 26.0348 42.1094 26.3855 41.5537C26.6475 41.0846 27.4609 40.1972 27.9172 39.8316C28.0398 39.7387 28.1898 39.6055 28.251 39.559C28.306 39.4788 28.5574 39.3266 28.8088 39.1745C29.0264 39.0287 29.2715 38.8427 29.3391 38.8301C29.4553 38.7033 30.2286 38.3483 30.7843 38.1391C31.0484 38.0545 31.4477 37.9447 31.7182 37.8939C31.9886 37.8432 32.2189 37.765 32.2189 37.765C32.2126 37.7312 32.3076 37.6784 32.4091 37.6594ZM35.9694 40.0362C35.9715 39.8608 35.9715 39.8608 35.7348 39.9052C35.1327 40.0531 33.5396 40.7018 33.2332 40.9343C33.172 40.9807 33.1107 41.0272 33.0431 41.0399C33.0093 41.0463 32.948 41.0927 32.9269 41.1667C32.9332 41.2005 32.8783 41.2808 32.8107 41.2935C32.7494 41.34 32.7072 41.4879 32.7304 41.7984C32.741 42.0414 32.7114 42.2569 32.684 42.2971C32.6502 42.3034 32.6354 42.4112 32.6481 42.4788C32.6607 42.5464 32.6798 42.6478 32.646 42.6542C32.591 42.7345 32.5277 43.5162 32.57 43.9282C32.5953 44.0634 32.5636 44.4543 32.513 44.7438C32.4686 45.0671 32.4306 45.4241 32.456 45.5594C32.5003 45.796 32.4665 45.8023 33.2948 45.9269C33.4025 45.9417 33.9688 45.4156 34.311 45.0015C34.8582 44.3739 35.0631 44.1605 35.1646 44.1415C35.1984 44.1351 35.2596 44.0887 35.247 44.021C35.2406 43.9872 35.3167 43.833 35.4054 43.7464C35.7477 43.3322 36.5378 42.1342 36.7596 41.6377C36.9751 41.1073 37.0681 40.67 37.0258 40.2579C36.9878 40.0551 36.9814 40.0213 36.806 40.0192C36.6983 40.0044 36.4617 40.0488 36.2926 40.0805L35.9609 40.1777L35.9694 40.0362ZM35.3909 49.4532C35.3381 49.3581 35.2979 49.3307 35.2979 49.3307C35.2641 49.337 35.0803 49.4765 34.869 49.6561C34.6578 49.8357 34.4402 49.9815 34.4 49.954C34.3662 49.9603 34.2711 50.0132 34.2162 50.0935C34.1613 50.1738 34.0387 50.2667 33.9711 50.2794C33.6732 50.3703 33.4894 50.5097 33.1006 50.8626C32.8957 51.076 32.6971 51.3232 32.6422 51.4035C32.6274 51.5113 32.4774 51.6444 32.3274 51.7775C32.1774 51.9106 32.0612 52.0374 32.0739 52.105C32.1098 52.4832 32.0591 53.3326 32.0443 53.4403C32.0169 53.4805 32.0084 53.6221 32.0211 53.6897C32.0401 53.7911 32.0317 53.9326 31.9894 54.0805C31.981 54.2221 31.9641 54.5052 32.0022 54.7081C32.0064 54.9172 32.0043 55.0926 31.9705 55.0989C31.943 55.1391 31.9684 55.2743 32.0339 55.437C32.0656 55.606 32.1036 55.8089 32.0825 55.8828C32.0276 55.9631 32.0403 56.0307 32.0804 56.0582C32.1544 56.0793 32.184 56.4237 32.1121 56.7871C32.0889 57.0364 32.1481 57.1653 32.3044 57.066C32.3382 57.0597 32.5918 56.7322 32.8389 56.3708C33.1199 56.0032 33.477 55.4813 33.6418 55.2404C33.8066 54.9996 34.1087 54.5579 34.2946 54.2431C34.4805 53.9283 34.6601 53.5797 34.715 53.4994C34.7699 53.4191 34.8185 53.305 34.8185 53.305C34.8122 53.2712 34.8819 53.0831 34.9854 52.8887C35.2981 52.1302 35.579 50.6427 35.5029 50.2371C35.4903 50.1695 35.5452 50.0892 35.5727 50.049C35.6276 49.9687 35.6276 49.9687 35.5874 49.9413C35.5473 49.9138 35.4945 49.8187 35.4818 49.7511C35.4628 49.6497 35.4036 49.5208 35.3909 49.4532ZM47.9176 35.2756C47.9387 35.2017 48.1141 35.2038 48.4036 35.2545C48.5515 35.2967 49.0438 35.3094 49.1452 35.2903C49.1726 35.2502 49.2128 35.2777 49.2867 35.2988C49.367 35.3537 49.4346 35.341 49.591 35.2417C49.7811 35.1361 49.7811 35.1361 50.1086 35.3896C50.5101 35.6642 50.8862 35.8037 51.0552 35.772C51.1228 35.7593 51.2031 35.8142 51.2496 35.8755C51.3024 35.9706 51.4102 35.9853 51.4778 35.9727C51.5116 35.9663 51.7462 36.0973 51.9807 36.2283C52.2955 36.4142 52.3821 36.5029 52.3674 36.6107C52.3526 36.7185 52.4054 36.8135 52.492 36.9023C52.6188 37.0185 52.6907 37.215 52.8851 37.8784C52.9506 38.0411 52.9886 38.2439 53.0351 38.3052C53.0478 38.3728 53.0584 38.6158 52.9887 38.8038C52.9591 39.0193 52.8957 39.2412 52.9021 39.275C52.9147 39.3426 52.8852 39.5581 52.7943 39.8201C52.7373 40.0758 52.6929 40.399 52.7183 40.5343C52.7099 40.6758 52.7141 40.885 52.6718 41.0329C52.6232 41.147 52.6148 41.2886 52.5937 41.3625C52.5916 41.5379 52.1225 41.8358 51.8119 41.8591C51.3999 41.9014 50.9478 41.9162 50.9351 41.8486C50.9351 41.8486 50.8147 41.7662 50.6731 41.7577C50.4914 41.7218 50.3372 41.6458 50.2442 41.5232C50.1914 41.4281 50.0371 41.3521 49.923 41.3035C49.8491 41.2824 49.7286 41.2 49.716 41.1324C49.6969 41.0309 49.6568 41.0035 49.5279 41.0627C49.2638 41.1472 48.8539 41.574 48.6131 41.9691C48.5096 42.1635 48.311 42.4107 48.1948 42.5375C48.0786 42.6643 48.0025 42.8185 48.0152 42.8861C48.0279 42.9537 47.918 43.1143 47.7743 43.2812C47.637 43.482 47.4384 43.7292 47.3624 43.8834C47.2927 44.0715 47.1426 44.2046 47.0814 44.2511C47.0539 44.2912 46.9926 44.3377 47.0053 44.4053C47.0117 44.4391 46.887 44.7075 46.6948 44.9885C46.5363 45.2632 46.4053 45.4977 46.4053 45.4977C46.4117 45.5315 46.3905 45.6055 46.3293 45.652C46.1708 45.9266 45.8877 46.4697 45.9004 46.5373C45.9067 46.5711 45.8793 46.6112 45.8582 46.6852C45.8307 46.7253 45.8096 46.7993 45.7884 46.8732C45.7948 46.907 45.7314 47.1289 45.6553 47.2831C45.4885 47.6994 45.2983 48.3649 45.3237 48.5001C45.3364 48.5678 45.2878 48.6818 45.2329 48.7621C45.1019 48.9967 44.9477 49.4805 44.8737 50.0193C44.8167 50.275 44.7935 50.5243 44.7723 50.5982C44.7512 50.6722 44.7407 50.9891 44.7301 51.3061C44.7259 51.6568 44.7217 52.0075 44.6795 52.1554C44.6309 52.2695 44.6541 52.5801 44.6584 52.7893C44.8 53.9175 44.874 54.4986 44.9585 54.7627L45.0832 55.0542L45.3536 55.0035C45.5226 54.9718 45.7529 54.8936 45.9156 54.8281C46.072 54.7288 46.3297 54.6105 46.5262 54.5386C46.7164 54.433 46.9403 54.321 47.0291 54.2344C47.1727 54.0674 47.8192 53.5962 47.8869 53.5836C47.9207 53.5772 48.3305 53.1504 48.3791 53.0363C48.4066 52.9961 48.5228 52.8694 48.6115 52.7827C49.0341 52.4235 49.2665 52.17 49.6235 51.6481C49.8094 51.3333 50.008 51.086 50.008 51.086C50.0418 51.0797 50.2193 50.9064 50.3904 50.6994C50.5616 50.4923 50.7391 50.319 50.7729 50.3127C50.8067 50.3064 51.0053 50.0591 51.1975 49.7781C51.4172 49.457 51.6158 49.2097 51.6158 49.2097C51.6496 49.2034 51.7658 49.0766 51.9095 48.9097C52.1018 48.6287 53.0187 47.5468 53.23 47.3672C53.2912 47.3208 53.475 47.1813 53.6251 47.0482C53.7814 46.9489 53.9589 46.7756 54.0476 46.689C54.1363 46.6023 54.2314 46.5495 54.2716 46.577C54.3054 46.5706 54.4279 46.4777 54.5166 46.391C54.599 46.2706 54.804 46.0572 54.9603 45.9579C55.1991 45.7381 55.2329 45.7318 55.3533 45.8142C55.554 45.9515 55.5794 46.0867 55.4484 46.3213C55.2836 46.5621 55.3196 46.9403 55.4759 46.841C55.6935 46.6952 55.8562 46.6297 55.8689 46.6973C55.8752 46.7311 55.9154 46.7586 55.9766 46.7121C56.1055 46.6529 56.114 47.0713 55.9703 47.2382C55.9154 47.3185 55.8668 47.4326 55.8795 47.5002C55.8858 47.534 55.9049 47.6354 55.8837 47.7094C55.8753 47.8509 55.9154 47.8784 55.983 47.8657C56.0845 47.8467 56.0845 47.8467 55.9957 47.9333C55.8394 48.0327 55.6788 48.4827 55.7866 48.4975C55.8204 48.4911 55.8331 48.5588 55.8457 48.6264C55.8246 48.7003 55.7824 48.8482 55.8014 48.9496C55.8056 49.1588 55.812 49.1926 55.9472 49.1673C56.1162 49.1356 56.1162 49.1356 56.0676 49.2497C56.019 49.3637 56.0317 49.4314 56.1585 49.5476C56.2916 49.6976 56.2916 49.6976 56.2029 49.7842C56.1078 49.837 56.0994 49.9786 56.1099 50.2216C56.1205 50.4645 56.0783 50.6124 55.9621 50.7392C55.9135 50.8533 55.8374 51.0076 55.8564 51.109C55.8755 51.2104 55.7994 51.3646 55.7381 51.4111C55.6832 51.4914 55.6283 51.5717 55.641 51.6393C55.6473 51.6731 55.5501 51.9013 55.4191 52.1359C55.322 52.364 55.2184 52.5584 55.2184 52.5584C55.2987 52.6134 54.8804 53.1817 54.6966 53.3212C54.5741 53.4142 54.5466 53.4543 54.6205 53.4754C54.8086 53.5452 53.1797 55.4954 52.1571 56.3871C51.7683 56.74 51.2909 57.1795 51.0796 57.3591C50.2345 58.0775 49.5626 58.4135 48.4935 58.684C47.6273 58.9164 47.2152 58.9587 46.4863 58.9904C46.1356 58.9862 45.825 59.0095 45.8313 59.0433C45.7975 59.0496 45.844 59.1109 45.9306 59.1996C46.1314 59.337 45.9961 59.3623 45.5524 59.2356C45.3306 59.1722 44.9017 58.9377 44.5467 58.7243C44.2255 58.5046 43.8832 58.3588 43.8156 58.3715C43.7142 58.3905 43.2663 58.0546 42.9324 57.7673C42.2394 57.0574 41.8273 56.5398 41.7618 56.3771C41.6371 56.0855 41.0518 54.8305 40.7877 54.3551C39.9108 52.6649 39.6106 50.1316 40.0035 47.7482C40.0246 47.6743 40.0605 47.4926 40.0689 47.351C40.2041 46.2058 41.0808 43.9767 42.0104 42.4026C42.4646 41.6525 44.0301 39.3642 44.3175 39.0303C44.3724 38.9501 44.5435 38.743 44.6259 38.6225C44.9069 38.2549 45.4414 37.5597 45.6189 37.3865C45.7077 37.2998 45.9063 37.0526 46.0837 36.8794C46.2549 36.6723 46.4387 36.5328 46.4387 36.5328C46.4725 36.5265 46.5887 36.3997 46.7387 36.2666C46.8549 36.1398 47.0936 35.9201 47.2225 35.8609C47.345 35.7679 47.495 35.6348 47.55 35.5545C47.6049 35.4742 47.6936 35.3876 47.7613 35.3749C47.8289 35.3622 47.8901 35.3158 47.9176 35.2756ZM70.9155 49.3344C70.9472 49.5035 71.0402 49.626 71.1268 49.7147C71.3001 49.8922 71.3846 50.1563 71.2346 50.2894C71.1733 50.3359 71.1311 50.4838 71.1501 50.5852C71.1142 50.7669 71.0931 50.8409 70.8184 51.2424C70.7973 51.3163 70.6409 51.4156 70.5121 51.4748C70.3557 51.5741 70.2944 51.6206 70.2923 51.796C70.2564 51.9777 70.229 52.0178 69.7134 52.2545C69.3944 52.4193 69.1092 52.5778 69.0479 52.6243C68.8979 52.7574 68.0697 53.1927 67.9683 53.2117C67.9345 53.218 67.907 53.2582 67.8795 53.2983C67.8647 53.4061 67.0302 53.8076 66.1153 54.1541C65.8914 54.2661 65.6611 54.3443 65.6336 54.3845C65.6061 54.4246 65.1519 54.6148 64.7526 54.7247C64.6575 54.7775 64.4547 54.8155 64.292 54.881C64.1631 54.9402 64.0004 55.0057 63.9391 55.0522C63.8842 55.1325 63.525 55.2698 63.1595 55.3734C62.008 55.7643 61.7587 55.7411 60.4741 55.4221C59.9163 55.2468 59.8022 55.1982 59.4282 54.8834C59.1809 54.6848 58.8471 54.3975 58.64 54.2263C58.2724 53.9454 57.9533 53.5503 57.742 53.17C57.6828 53.0411 57.5645 52.7833 57.4652 52.627C57.0806 52.0692 57.0151 51.9065 56.8524 51.4121C56.5397 50.4909 56.3177 48.7478 56.3853 47.6153C56.3874 47.44 56.3937 46.9138 56.4127 46.4554C56.419 45.3693 56.6047 42.255 56.6533 42.1409C56.6744 42.0669 56.6554 41.9655 56.6491 41.9317C56.6301 41.8303 56.837 40.3217 56.8941 40.066C56.9427 39.9519 57.0229 39.447 57.137 38.9356C57.2511 38.4243 57.3377 37.9532 57.3863 37.8391C57.401 37.7313 57.5362 37.146 57.6778 36.5946C57.813 36.0093 57.9418 35.3902 57.9841 35.2423C58.1045 34.7648 58.1552 34.4753 58.1235 34.3063C58.1108 34.2387 58.1129 34.0633 58.1615 33.9492C58.2861 33.6809 58.4551 33.6492 58.7362 33.8415C58.9369 33.9788 60.0187 34.3358 60.1539 34.3104C60.1877 34.3041 60.3821 34.4076 60.8913 34.6971C61.1195 34.7942 61.3287 34.79 61.54 34.6104C61.5949 34.5301 61.7513 34.4308 61.8801 34.3716C62.009 34.3125 62.1316 34.2195 62.159 34.1793C62.1928 34.173 62.2879 34.1202 62.3492 34.0737C62.4506 34.0547 62.5457 34.0018 62.5731 33.9617C62.6619 33.8751 63.4436 33.3785 63.8979 33.1883C64.0267 33.1291 64.2444 32.9833 64.407 32.9178C64.855 32.6939 65.6874 32.4677 66.2473 32.4677C66.4565 32.4635 66.5304 32.4846 66.5833 32.5797C66.6023 32.6811 66.6826 32.736 66.7565 32.7571C66.8241 32.7445 66.972 32.7867 67.0122 32.8142C67.0861 32.8353 67.1664 32.8902 67.234 32.8776C67.308 32.8987 67.3819 32.9198 67.3608 32.9938C67.3735 33.0614 67.5277 33.1374 67.7771 33.1606C67.851 33.1818 67.8912 33.2092 67.9038 33.2768C67.9102 33.3107 67.963 33.4057 68.0095 33.467C68.056 33.5283 68.1088 33.6233 68.0813 33.6635C68.0539 33.7036 68.1342 33.7586 68.2419 33.7734C68.356 33.8219 68.4089 33.917 68.4215 33.9846C68.4342 34.0522 68.4532 34.1537 68.4934 34.1811C68.5399 34.2424 68.4406 34.646 68.3392 34.665C68.3392 34.665 68.3117 34.7051 68.3244 34.7727C68.3434 34.8741 68.0476 35.3496 67.9462 35.3686C67.9124 35.3749 67.8575 35.4552 67.8089 35.5693C67.754 35.6496 67.6716 35.77 67.5701 35.7891C67.5089 35.8355 67.3525 35.9349 67.2638 36.0215C67.1412 36.1145 67.0462 36.1673 67.0124 36.1736C66.9786 36.18 66.856 36.2729 66.7736 36.3934C66.6849 36.48 66.5623 36.573 66.5285 36.5793C66.4271 36.5983 65.6919 37.1562 65.6369 37.2365C65.6158 37.3104 65.113 37.6147 64.9778 37.6401C64.944 37.6464 64.7876 37.7457 64.6313 37.845C64.4474 37.9845 64.2911 38.0838 64.2573 38.0901C64.1897 38.1028 64.0608 38.162 63.9108 38.2951C63.3868 38.6733 62.8861 38.8022 62.1783 38.76C62.0705 38.7452 62.0431 38.7854 61.9459 39.0136C61.8698 39.1678 61.8339 39.3495 61.8466 39.4171C61.8593 39.4847 61.8234 39.6665 61.7811 39.8144C61.7325 39.9285 61.7241 40.07 61.7579 40.0637C61.7579 40.0637 61.7093 40.1778 61.5994 40.3384C61.5234 40.4926 61.4537 40.6806 61.4663 40.7483C61.479 40.8159 61.4431 40.9976 61.4009 41.1455C61.3586 41.2934 61.3502 41.4349 61.3629 41.5026C61.3755 41.5702 61.3269 41.6843 61.2847 41.8322C61.2213 42.054 61.2741 42.1491 61.4305 42.0498C61.4918 42.0033 61.5657 42.0244 61.6397 42.0455C61.72 42.1005 61.7876 42.0878 62.5397 41.8067C62.7024 41.7412 62.8714 41.7095 62.8778 41.7433C62.9179 41.7708 62.9517 41.7645 62.9792 41.7243C63.0616 41.6039 63.7377 41.4771 63.7567 41.5785C63.7757 41.6799 64.0039 41.7771 64.1392 41.7517C64.3082 41.72 64.3948 41.8088 64.2997 41.8616C64.2659 41.8679 64.38 41.9165 64.5681 41.9862C64.7498 42.0221 64.9378 42.0919 64.9442 42.1257C64.9505 42.1595 65.0372 42.2482 65.1513 42.2968C65.2653 42.3454 65.352 42.4341 65.3245 42.4743C65.3309 42.5081 65.3837 42.6031 65.5041 42.6855C65.5908 42.7743 65.7175 42.8905 65.7302 42.9581C65.7429 43.0257 65.7556 43.0933 65.7894 43.087C65.9035 43.1356 65.8887 43.2433 65.7873 43.2623C65.6859 43.2814 65.7049 43.3828 65.8464 43.3912C65.9204 43.4123 65.9267 43.4462 65.8718 43.5264C65.8507 43.6004 65.8296 43.6743 65.8296 43.6743C65.8549 43.8096 65.7091 44.1519 65.6204 44.2385C65.5253 44.2913 65.4641 44.3378 65.4704 44.3716C65.4493 44.4456 65.2866 44.5111 65.0161 44.5618C64.5492 44.6844 64.4943 44.7647 64.6211 44.8809C64.7013 44.9358 64.6739 44.9759 64.4774 45.0478C63.4886 45.3732 62.8716 45.6289 62.0646 45.9902C61.8068 46.1086 61.4075 46.2185 61.211 46.2903L60.8391 46.3601L60.8687 46.7044C60.8666 46.8798 60.8645 47.0552 60.837 47.0953C60.761 47.2496 60.7272 48.3757 60.8139 48.4645C60.8202 48.4983 60.8265 48.5321 60.7991 48.5722C60.7653 48.5786 60.7505 48.6863 60.7759 48.8215C60.7949 48.923 60.7801 49.0307 60.7864 49.0645C60.759 49.1047 60.7231 49.2864 60.721 49.4617C60.7041 49.7449 60.702 49.9202 60.8182 50.9133C60.8499 51.0823 60.8478 51.2577 60.8204 51.2978C60.7992 51.3718 60.7908 51.5133 60.8436 51.6084L60.9218 51.8387L61.3211 51.7288C61.5176 51.657 62.0458 51.4879 62.405 51.3505C62.7916 51.173 63.2184 51.023 63.3135 50.9702C63.4487 50.9448 63.6114 50.8793 63.7065 50.8265C63.8016 50.7737 64.1206 50.6088 64.446 50.4778C64.7714 50.3468 65.0967 50.2158 65.158 50.1693C65.2193 50.1228 65.3481 50.0637 65.4496 50.0446C65.5172 50.032 65.6461 49.9728 65.6735 49.9326C65.7348 49.8862 65.8975 49.8207 66.0602 49.7551C66.2165 49.6558 66.5757 49.5185 66.8335 49.4001C67.0976 49.3156 67.4779 49.1043 67.7356 48.986C67.9596 48.874 68.285 48.743 68.4476 48.6775C68.6103 48.612 68.8343 48.5 68.9568 48.407C69.2083 48.2549 69.4787 48.2041 69.5379 48.333C69.5759 48.5358 69.5822 48.5697 69.6837 48.5506C69.7513 48.5379 69.7914 48.5654 69.764 48.6056C69.7893 48.7408 69.8358 48.8021 69.9985 48.7365C70.1274 48.6774 70.2013 48.6985 70.3556 48.7746C70.4359 48.8295 70.5225 48.9182 70.5288 48.952C70.5352 48.9858 70.6155 49.0408 70.7232 49.0556C70.8648 49.064 70.8775 49.1316 70.9155 49.3344ZM21.6657 65.8101C21.7946 65.751 22.0249 65.6728 22.1664 65.6812C22.308 65.6897 22.5848 65.6727 22.8277 65.6622C23.1383 65.6389 23.2461 65.6537 23.4194 65.8312C23.5461 65.9474 23.6602 65.996 23.7278 65.9833C23.844 65.8565 24.3744 66.072 24.4462 66.2685C24.4589 66.3361 24.5793 66.4185 24.6533 66.4396C24.7949 66.448 24.8012 66.4819 24.7463 66.5621C24.6913 66.6424 24.6977 66.6762 24.778 66.7312C24.8583 66.7861 24.8646 66.8199 24.797 66.8326C24.6618 66.8579 24.7146 66.953 24.8688 67.0291C25.0167 67.0713 25.0167 67.0713 24.9597 67.327C24.9175 67.4749 24.8139 67.6693 24.7315 67.7897C24.6766 67.87 24.4844 68.151 24.347 68.3518C24.1759 68.5588 24.0238 68.8673 23.9879 69.049C23.952 69.2307 23.9161 69.4124 23.8949 69.4864C23.8738 69.5603 23.8717 69.7357 23.9098 69.9385C23.9076 70.1139 23.9055 70.2893 23.8781 70.3294C23.857 70.4034 23.8422 70.5111 23.8274 70.6189C23.8253 70.7943 23.7133 71.6901 23.593 72.7275C23.4831 73.448 23.3754 74.5531 23.3797 74.7622C23.3712 74.9038 23.348 75.1531 23.3396 75.2947C23.3036 75.4764 23.2868 75.7595 23.291 75.9687C23.2889 76.144 23.2551 76.7103 23.2087 77.2089C23.1221 78.7999 23.1433 80.4057 23.2321 81.9988C23.2808 83.0045 23.2618 84.0229 23.2492 85.0751C23.2366 85.5674 23.2302 86.0935 23.2577 86.6133C23.262 86.8225 23.2726 87.0654 23.2768 87.2746C23.2472 87.4901 23.1775 87.6782 23.1881 87.9211C23.186 88.0965 23.2177 88.2655 23.1416 88.4198C23.0592 88.5402 22.9303 88.5994 22.8015 88.6586C22.5712 88.7367 22.3134 88.8551 22.0641 88.8318C21.9225 88.8234 21.7746 88.7811 21.6267 88.7389C21.2971 88.6607 21.0013 88.5762 20.6717 88.4981C20.5576 88.4495 20.4097 88.4072 20.2893 88.3248C20.0547 88.1939 19.8962 87.9086 19.6596 87.953C19.4652 87.2896 19.4863 86.6557 19.4334 86.0007C19.425 85.5824 19.4165 85.1641 19.4756 84.733C19.539 83.9513 19.3192 83.1526 19.3424 82.3434C19.3508 81.6419 19.1965 81.006 19.1711 80.3108C19.1563 79.8587 19.1626 79.3326 19.1246 79.1297C19.1204 78.9206 19.1246 78.5698 19.1267 78.3945C19.1562 78.1789 19.1182 77.9761 19.1119 77.9423C19.0781 77.9486 19.0865 77.8071 19.0886 77.6317C19.097 77.4902 19.1203 77.2408 19.116 77.0317C19.0738 76.6197 19.1223 75.9457 19.1667 75.6224C19.1962 75.4069 19.1709 75.2716 19.1856 74.604C19.1603 74.4688 19.1835 74.2194 19.1983 74.1117C19.2574 73.6807 19.2828 73.256 19.3693 72.2249C19.4031 71.6586 19.4305 71.0586 19.4453 70.9508C19.4876 70.8029 19.4897 70.6276 19.5108 70.5536C19.4981 70.486 19.5066 70.3444 19.5277 70.2705C19.5699 70.1226 19.5023 70.1353 18.0086 70.3804C17.1296 70.5453 16.3859 70.6848 16.3183 70.6975C16.0816 70.7418 16.1831 71.8426 16.181 72.018C16.1007 72.523 16.1684 73.0702 16.1283 73.6026C16.0882 74.1351 16.048 74.6675 16.0016 75.1662C15.9425 76.1571 15.8432 77.1206 15.744 78.084C15.6785 78.4813 15.7355 78.7855 15.7377 79.1701C15.7398 79.5546 15.6342 79.9244 15.6363 80.3089C15.6258 80.6258 15.5878 80.9829 15.573 81.0907C15.48 81.528 15.4378 81.6759 15.4843 81.7372C15.4969 81.8048 15.4801 82.0879 15.4357 82.4112C15.4188 82.6943 15.3935 83.119 15.4188 83.2542C15.4506 83.4233 15.4463 83.774 15.4231 84.0233C15.269 85.627 15.2395 87.5222 15.3367 87.8539C15.3832 87.9152 15.3747 88.0568 15.286 88.1434C15.2036 88.2638 15.1825 88.3378 15.248 88.5005C15.3388 88.7984 15.2903 89.4724 15.1614 89.5316C15.1001 89.578 15.079 89.652 15.1192 89.6795C15.172 89.7745 15.0283 89.9415 14.9734 90.0218C14.9375 90.2035 14.9692 90.3725 14.7389 90.4507C14.7051 90.457 14.6375 90.4697 14.61 90.5098C14.5487 90.5563 14.5339 90.6641 14.4663 90.6768C14.4325 90.6831 14.386 90.6218 14.3184 90.6345C14.2508 90.6472 14.2234 90.6873 14.1959 90.7275C14.1008 90.7803 14.0269 90.7592 13.9191 90.7444C13.6698 90.7212 13.4331 90.7656 13.2155 90.9114C13.2176 90.736 13.0507 90.5923 12.9028 90.5501C12.7148 90.4804 12.5394 90.4783 12.3915 90.436C12.2372 90.3599 12.0767 90.2501 11.9562 90.1677C11.8696 90.079 11.7893 90.024 11.7027 89.9353C11.5357 89.7916 11.335 89.6543 11.2568 89.424C11.1913 89.2613 11.2547 89.0395 11.0603 88.9359C11.0202 88.9085 10.9864 88.9148 10.9462 88.8874C10.792 88.8113 10.7074 88.5472 10.6145 88.4247C10.4687 88.207 10.3017 88.0634 10.101 87.926C9.87282 87.8289 9.8855 87.8965 9.85591 87.5521C9.84533 87.3091 9.86856 87.0598 9.91081 86.9119C9.9594 86.7978 9.96784 86.6562 9.91502 86.5611C9.90233 86.4935 9.88965 86.4259 9.91712 86.3858C9.97839 86.3393 9.98683 86.1977 9.96147 86.0625C9.91709 85.8259 9.97833 85.2195 10.0438 84.8223C10.1494 84.4525 10.1642 84.3447 10.0987 84.1821C10.0734 84.0468 10.1156 83.8989 10.124 83.7574C10.1832 83.3263 10.236 82.8615 10.255 82.403C10.2782 82.1537 10.1493 81.653 10.2803 81.4184C10.3352 81.3381 10.3732 80.9811 10.3647 80.5627C10.3753 79.6859 10.4449 78.9379 10.4956 78.6484C10.5104 78.5407 10.5337 78.2914 10.5294 78.0822C10.4533 77.6765 10.5674 77.1652 10.5927 76.7405C10.6392 76.2419 10.6857 75.7433 10.7384 75.2784C10.8081 74.5305 10.9243 73.8438 10.8524 73.0874C10.8419 72.8444 10.8651 72.5951 10.8883 72.3458C10.8883 71.7859 10.9221 71.2196 10.9558 70.6534C10.9727 70.3702 10.9558 70.0934 10.9389 69.8167C10.941 69.6413 10.9769 69.4596 10.9452 69.2906C10.8543 68.9927 10.9536 68.5891 11.129 68.5912C11.1966 68.5785 11.3466 68.4454 11.4353 68.3588C11.6065 68.1517 11.6403 68.1454 11.8558 68.1749C12.0375 68.2108 12.1051 68.1982 12.16 68.1179C12.2488 68.0312 12.2826 68.0249 13.1362 68.2847C13.2841 68.327 13.5207 68.2826 13.9813 68.1262C14.5032 67.9234 14.6722 67.8917 14.7863 67.9402C14.9067 68.0226 15.4138 67.9275 15.8681 67.7374C16.0709 67.6993 16.0709 67.6993 17.3576 67.283C18.3866 66.985 18.6845 66.8942 19.5655 66.554C19.9585 66.4103 20.548 66.1947 20.8459 66.1039C21.1375 65.9792 21.4967 65.8418 21.6657 65.8101ZM39.4549 64.9933C39.7422 65.2194 40.2304 66.7026 40.2283 67.4379C40.2325 67.647 40.241 68.0654 40.2706 68.4098C40.2622 68.5513 40.2537 68.6929 40.2199 68.6992C40.1925 68.7394 40.1713 68.8133 40.1903 68.9147C40.2094 69.0162 40.2073 69.1915 40.1587 69.3056C40.1439 69.4134 40.0953 69.5275 40.108 69.5951C40.1397 69.7641 39.7341 70.96 39.4573 71.5368C38.7454 72.9652 37.6932 74.6323 36.8862 75.5535C36.6876 75.8007 36.5228 76.0416 36.4953 76.0818C36.4742 76.1557 36.358 76.2825 36.208 76.4156C36.0918 76.5424 35.8805 76.722 35.7981 76.8424C35.6819 76.9692 35.5383 77.1361 35.4157 77.2291C35.327 77.3157 35.0946 77.5693 34.9298 77.8102C34.7713 78.0848 34.5389 78.3384 34.4777 78.3849C33.5523 79.0484 33.2058 79.2533 33.0367 79.285C32.5297 79.3801 32.0099 79.4076 31.9296 79.3527C31.8831 79.2914 31.8493 79.2978 31.862 79.3654C31.8134 79.4795 31.3739 79.5619 31.3549 79.4605C31.3486 79.4267 31.2683 79.3718 31.2007 79.3844C31.1605 79.357 31.0464 79.3084 30.9725 79.2873C30.7717 79.1499 30.6682 79.3443 30.7253 79.6486C30.7443 79.75 30.7084 79.9317 30.6809 79.9718C30.6598 80.0458 30.6302 80.2613 30.6007 80.4768C30.5944 81.0029 30.5521 81.7107 30.5162 81.8924C30.4951 81.9664 30.493 82.1418 30.4909 82.3171C30.5247 82.8707 30.4403 83.7264 30.3917 83.8405C30.3367 83.9208 30.3283 84.0624 30.3473 84.1638C30.3663 84.2652 30.3769 84.5082 30.3748 84.6835C30.3727 84.8589 30.3748 85.2434 30.3918 85.5202C30.4552 86.4182 30.4108 86.7415 30.2608 86.8746C30.1721 86.9612 30.0897 87.0816 30.0284 87.1281C30.0073 87.2021 29.9122 87.2549 29.7707 87.2465C29.6291 87.238 29.4199 87.2423 29.2509 87.274C28.9805 87.3247 28.8262 87.2486 28.7882 87.0458C28.7818 87.012 28.7079 86.9909 28.6403 87.0035C28.4036 87.0479 27.9198 86.8937 27.6662 86.6613C27.1063 86.1014 26.8865 85.8627 26.7619 85.5711C26.7365 85.4359 26.5907 85.2183 26.5041 85.1296C26.0773 84.7197 25.868 84.164 25.8257 83.1921C25.7961 82.8477 25.7877 82.4294 25.7496 82.2265C25.7074 81.8145 25.7199 80.2024 25.7474 79.6023C25.7643 79.3192 25.7812 79.0361 25.8023 78.9621C25.8128 78.6452 25.8487 77.9036 25.8952 77.405C25.9184 77.1556 25.9564 76.7986 25.9649 76.657C25.9479 76.3802 26.024 75.6661 26.0915 75.0935C26.1275 74.9118 26.1655 74.5547 26.176 74.2378C26.1929 73.9546 26.2246 73.5638 26.2605 73.3821C26.2626 73.2067 26.3069 72.8834 26.3429 72.7017C26.3386 72.4925 26.3999 71.8861 26.44 71.3537C26.4864 70.8551 26.4991 70.3628 26.4864 70.2952C26.4399 70.2339 26.461 70.1599 26.4885 70.1198C26.5223 70.1134 26.5244 69.9381 26.4927 69.769C26.4483 69.5324 26.4716 69.2831 26.5708 68.8795C26.7884 68.1738 26.8708 66.9336 26.7461 66.642C26.6806 66.4793 26.7017 66.4054 26.7566 66.3251C26.8116 66.2448 26.8327 66.1708 26.8264 66.137C26.82 66.1032 26.8411 66.0293 26.8749 66.0229C27.0313 65.9236 27.5849 65.8898 27.6715 65.9785C27.7919 66.0609 27.9483 65.9616 28.168 65.6404C28.525 65.1185 29.4673 64.1719 30.2026 63.6141C31.1216 62.9168 31.8548 62.5343 32.5309 62.4075C32.7675 62.3631 32.9704 62.3251 32.9978 62.285C33.019 62.211 33.4098 62.2427 33.5239 62.2913C33.5641 62.3187 33.7056 62.3272 33.8409 62.3018C34.367 62.3081 34.7916 62.3335 34.9057 62.3821C35.06 62.4581 35.2417 62.494 35.753 62.6081C35.9749 62.6715 36.1566 62.7074 36.1967 62.7348C36.2031 62.7686 36.351 62.8109 36.5327 62.8468C36.6806 62.889 37.0292 63.0686 37.3102 63.2609C37.5849 63.4193 37.8532 63.544 37.8871 63.5376C37.9885 63.5186 38.504 63.8419 38.523 63.9433C38.523 63.9433 38.616 64.0658 38.7365 64.1482C38.8294 64.2707 39.0027 64.4482 39.102 64.6046C39.2351 64.7546 39.3746 64.9384 39.4549 64.9933ZM36.6004 65.6337C36.63 65.4181 36.5856 65.1815 36.5455 65.154C36.4863 65.0252 36.2835 65.0632 36.032 65.2153C35.9095 65.3083 35.7806 65.3675 35.713 65.3802C35.5778 65.4055 35.0475 65.7499 34.8425 65.9634C34.7813 66.0098 34.6249 66.1092 34.4686 66.2085C34.3122 66.3078 34.1622 66.4409 34.1411 66.5148C34.1136 66.555 33.9974 66.6818 33.8686 66.7409C33.7798 66.8276 33.6298 66.9607 33.5812 67.0748C33.4988 67.1952 33.4439 67.2755 33.4101 67.2819C33.296 67.2333 32.9284 67.5122 32.6748 67.8397C32.565 68.0003 32.3875 68.1735 32.3199 68.1862C32.2861 68.1926 32.2312 68.2728 32.21 68.3468C32.1953 68.4546 32.1255 68.6426 32.0431 68.763C31.891 69.0715 31.7073 70.3308 31.6461 71.4971C31.6207 71.9218 31.5891 72.3127 31.5616 72.3528C31.5341 72.393 31.5299 72.7437 31.5257 73.0944C31.4962 73.8699 31.4307 74.2671 31.2997 74.5016C31.1624 74.7023 31.2997 75.0615 31.4624 74.996C31.5237 74.9495 31.6124 74.8629 31.6674 74.7826C31.7223 74.7023 31.7836 74.6558 31.8174 74.6495C31.885 74.6368 32.0287 74.4699 32.9583 73.4557C33.6829 72.6548 34.6991 71.1695 35.3266 70.0369C35.54 69.682 35.7259 69.3671 35.7597 69.3608C35.7935 69.3544 35.821 69.3143 35.8146 69.2805C35.8083 69.2467 35.878 69.0586 35.9477 68.8706C36.0576 68.71 36.1273 68.522 36.121 68.4882C36.1146 68.4544 36.1357 68.3804 36.197 68.3339C36.3681 68.1268 36.6597 66.8824 36.6174 66.4703C36.6131 66.2612 36.611 65.8766 36.6004 65.6337ZM53.2755 67.3005C53.6474 68.3505 54.0067 70.4528 53.9497 71.2684C53.9074 71.4163 53.8969 71.7332 53.8673 71.9487C53.8462 72.5826 53.7448 73.1615 53.5019 74.2919C53.409 74.7293 53.316 75.1666 53.2801 75.3483C53.2379 75.4962 53.202 75.678 53.1808 75.7519C53.1534 75.7921 53.0963 76.0477 53.0393 76.3034C52.7436 77.3387 52.0823 79.0375 51.8288 79.365C51.7401 79.4516 51.7189 79.5256 51.7316 79.5932C51.7041 79.6333 51.683 79.7073 51.6218 79.7537C51.5605 79.8002 51.5056 79.8805 51.5246 79.9819C51.5436 80.0834 51.4274 80.2101 51.2225 80.4235C51.045 80.5968 50.7027 81.0109 50.4767 81.2983C50.2168 81.592 49.9844 81.8456 49.9506 81.8519C49.9168 81.8582 49.7668 81.9914 49.6168 82.1245C49.2893 82.4309 47.7406 83.3162 47.43 83.3395C46.849 83.4135 45.7757 83.4748 45.4925 83.4579C44.7847 83.4157 44.4298 83.2023 42.7669 81.7995C42.1921 81.3473 42.0189 81.1699 41.6744 80.6395C40.8863 79.4226 40.3453 78.4042 40.0326 77.483C39.4261 75.7421 39.2105 73.4728 39.4554 71.0473C39.5378 69.807 39.6138 69.0929 39.6835 68.9048C39.7047 68.8309 39.7131 68.6893 39.7004 68.6217C39.6877 68.5541 39.7236 68.3724 39.7659 68.2245C39.8419 68.0702 39.9624 67.5927 40.0553 67.1553C40.1482 66.718 40.2687 66.2405 40.3384 66.0524C40.3806 65.9045 40.444 65.6827 40.4651 65.6087C40.4862 65.5348 40.5221 65.3531 40.5707 65.239C40.5855 65.1312 40.6552 64.9432 40.7038 64.8291C40.7123 64.6875 40.782 64.4994 40.858 64.3452C40.9066 64.2311 40.9911 63.9353 41.0883 63.7071C41.1453 63.4514 41.3249 63.1028 41.4559 62.8683C41.813 62.3464 42.5017 61.1674 42.5165 61.0596C42.5101 61.0258 42.5313 60.9519 42.5925 60.9054C42.6411 60.7913 42.7489 60.8061 42.9031 60.8821C43.0574 60.9582 43.6426 61.0934 44.0398 61.1588C44.1476 61.1736 44.2617 61.2222 44.3082 61.2835C44.3821 61.3046 44.4561 61.3257 44.5512 61.2729C44.7477 61.2011 45.409 61.182 45.5632 61.2581C45.6097 61.3193 45.7513 61.3278 45.859 61.3426C45.9943 61.3172 46.1358 61.3257 46.2161 61.3806C46.2901 61.4017 46.3978 61.4165 46.4654 61.4038C46.533 61.3911 46.7485 61.4207 46.9366 61.4904C47.0845 61.5327 47.374 61.5834 47.5092 61.558C47.6846 61.5601 47.9064 61.6235 48.1747 61.7481C48.3691 61.8516 48.7051 61.9636 48.853 62.0059C49.2967 62.1326 50.744 62.946 51.0039 63.2122C51.1307 63.3284 51.304 63.5059 51.397 63.6284C51.4498 63.7235 51.5428 63.846 51.5766 63.8397C51.7033 63.9559 51.9358 64.2622 51.9548 64.3636C51.9738 64.4651 52.0731 64.6214 52.1999 64.7376C52.3732 64.9151 52.426 65.0102 52.4767 65.2806C52.5084 65.4496 52.6331 65.7412 52.7387 65.9313C52.8444 66.1215 52.9691 66.4131 53.0282 66.5419C53.0536 66.6772 53.1846 67.0025 53.2755 67.3005ZM49.7238 68.7015C49.7513 68.6613 49.7259 68.5261 49.6668 68.3972C49.6351 68.2282 49.5379 67.8965 49.4871 67.626C49.2568 66.5844 48.9398 65.454 48.5806 64.4716L48.4707 64.0723L48.2002 64.123C48.0587 64.1145 47.9234 64.1399 47.9298 64.1737C47.896 64.18 47.7671 64.2392 47.5981 64.2709C47.091 64.366 46.9346 64.4653 46.6536 64.833C46.5924 64.8795 46.4762 65.0062 46.3811 65.0591C46.2924 65.1457 46.2311 65.1922 46.2374 65.226C46.2565 65.3274 45.8867 65.7817 45.8191 65.7944C45.7515 65.807 45.0015 67.0325 45.0205 67.134C45.0269 67.1678 44.9571 67.3558 44.8811 67.5101C44.805 67.6643 44.729 67.8185 44.7417 67.8862C44.748 67.92 44.7121 68.1017 44.6635 68.2158C44.5515 68.5517 44.4438 69.0968 44.4819 69.2997C44.4945 69.3673 44.4248 69.5553 44.3699 69.6356C44.2875 69.7561 44.2452 69.904 44.2643 70.0054C44.2769 70.073 44.241 70.2547 44.1988 70.4026C44.1164 70.523 44.0657 70.8125 44.0699 71.0217C44.034 71.2034 44.0045 71.4189 43.9833 71.4929C43.9136 71.6809 43.8355 72.5704 43.7827 73.5952C43.7489 74.1614 43.7152 74.7277 43.7131 74.903C43.6455 75.4756 43.8315 77.4004 44.0302 78.273C44.1971 78.9766 44.7043 80.0013 44.8458 80.0098C45.0148 79.978 45.5114 79.64 45.879 79.361C46.8804 78.5433 47.5502 77.8228 47.8206 77.2122C47.9241 77.0178 48.0614 76.8171 48.1227 76.7706C48.2178 76.7177 48.6002 75.7712 48.6086 75.6296C48.5896 75.5282 48.8135 74.8563 48.8748 74.8098C48.9022 74.7696 48.9297 74.7295 48.8832 74.6682C48.8769 74.6344 48.8917 74.5267 48.9403 74.4126C48.9888 74.2985 49.0311 74.1506 49.0184 74.083C49.0121 74.0492 49.048 73.8674 49.1177 73.6794C49.1599 73.5315 49.1959 73.3498 49.1895 73.316C49.1832 73.2822 49.2043 73.2082 49.2592 73.1279C49.3205 73.0814 49.3353 72.9737 49.3226 72.9061C49.3036 72.8047 49.3606 72.549 49.424 72.3272C49.5148 72.0652 49.5507 71.8834 49.5444 71.8496C49.4979 71.7884 49.5866 71.1418 49.7049 70.8397C49.7408 70.658 49.7598 70.1995 49.6964 69.3015C49.7133 69.0184 49.7027 68.7754 49.7238 68.7015ZM61.6298 58.1397C61.6509 58.0658 61.8263 58.0679 62.1157 58.1186C62.2636 58.1608 62.7559 58.1735 62.8574 58.1545C62.8848 58.1143 62.925 58.1418 62.9989 58.1629C63.0792 58.2178 63.1468 58.2052 63.3032 58.1059C63.4933 58.0002 63.4933 58.0002 63.8208 58.2537C64.2223 58.5284 64.5984 58.6678 64.7674 58.6361C64.835 58.6234 64.9153 58.6784 64.9618 58.7396C65.0146 58.8347 65.1224 58.8495 65.19 58.8368C65.2238 58.8305 65.4583 58.9615 65.6929 59.0924C66.0077 59.2783 66.0943 59.3671 66.0795 59.4748C66.0648 59.5826 66.1176 59.6777 66.2042 59.7664C66.331 59.8826 66.4028 60.0791 66.5973 60.7425C66.6628 60.9052 66.7008 61.1081 66.7473 61.1693C66.76 61.2369 66.7706 61.4799 66.7008 61.668C66.6713 61.8835 66.6079 62.1053 66.6142 62.1391C66.6269 62.2067 66.5973 62.4223 66.5065 62.6843C66.4495 62.9399 66.4051 63.2632 66.4305 63.3984C66.422 63.54 66.4263 63.7491 66.384 63.897C66.3354 64.0111 66.327 64.1527 66.3059 64.2267C66.3038 64.402 65.8347 64.7 65.5241 64.7232C65.1121 64.7655 64.66 64.7803 64.6473 64.7127C64.6473 64.7127 64.5269 64.6303 64.3853 64.6219C64.2036 64.586 64.0493 64.5099 63.9564 64.3874C63.9035 64.2923 63.7493 64.2162 63.6352 64.1676C63.5613 64.1465 63.4408 64.0641 63.4281 63.9965C63.4091 63.8951 63.369 63.8676 63.2401 63.9268C62.976 64.0113 62.5661 64.4381 62.3253 64.8333C62.2217 65.0276 62.0232 65.2749 61.907 65.4016C61.7907 65.5284 61.7147 65.6827 61.7274 65.7503C61.7401 65.8179 61.6302 65.9785 61.4865 66.1454C61.3492 66.3461 61.1506 66.5933 61.0746 66.7476C61.0048 66.9356 60.8548 67.0687 60.7936 67.1152C60.7661 67.1554 60.7048 67.2019 60.7175 67.2695C60.7238 67.3033 60.5992 67.5716 60.4069 67.8526C60.2485 68.1273 60.1175 68.3618 60.1175 68.3618C60.1239 68.3957 60.1027 68.4696 60.0415 68.5161C59.883 68.7908 59.5999 69.3338 59.6126 69.4014C59.6189 69.4352 59.5915 69.4754 59.5703 69.5493C59.5429 69.5894 59.5218 69.6634 59.5006 69.7374C59.507 69.7712 59.4436 69.993 59.3675 70.1473C59.2006 70.5635 59.0105 71.2291 59.0359 71.3643C59.0486 71.4319 59 71.546 58.945 71.6263C58.8141 71.8608 58.6598 72.3447 58.5859 72.8834C58.5289 73.1391 58.5057 73.3884 58.4845 73.4624C58.4634 73.5363 58.4529 73.8533 58.4423 74.1702C58.4381 74.5209 58.4339 74.8717 58.3916 75.0196C58.3431 75.1337 58.3663 75.4442 58.3706 75.6534C58.5122 76.7817 58.5862 77.3627 58.6707 77.6268L58.7954 77.9184L59.0658 77.8677C59.2348 77.836 59.4651 77.7578 59.6278 77.6923C59.7842 77.593 60.0419 77.4746 60.2384 77.4028C60.4286 77.2971 60.6525 77.1851 60.7413 77.0985C60.8849 76.9316 61.5314 76.4604 61.599 76.4477C61.6328 76.4413 62.0427 76.0145 62.0913 75.9004C62.1188 75.8603 62.235 75.7335 62.3237 75.6469C62.7463 75.2877 62.9787 75.0341 63.3357 74.5122C63.5216 74.1974 63.7202 73.9502 63.7202 73.9502C63.754 73.9438 63.9315 73.7706 64.1026 73.5635C64.2738 73.3564 64.4512 73.1832 64.485 73.1768C64.5188 73.1705 64.7174 72.9233 64.9097 72.6423C65.1294 72.3211 65.328 72.0739 65.328 72.0739C65.3618 72.0675 65.478 71.9408 65.6217 71.7738C65.8139 71.4928 66.7309 70.411 66.9421 70.2314C67.0034 70.1849 67.1872 70.0454 67.3372 69.9123C67.4936 69.813 67.6711 69.6397 67.7598 69.5531C67.8485 69.4665 67.9436 69.4136 67.9837 69.4411C68.0176 69.4348 68.1401 69.3418 68.2288 69.2552C68.3112 69.1347 68.5162 68.9213 68.6725 68.822C68.9113 68.6023 68.9451 68.5959 69.0655 68.6783C69.2662 68.8156 69.2916 68.9509 69.1606 69.1854C68.9958 69.4263 69.0317 69.8045 69.1881 69.7052C69.4057 69.5594 69.5684 69.4939 69.5811 69.5615C69.5874 69.5953 69.6276 69.6227 69.6888 69.5762C69.8177 69.5171 69.8262 69.9354 69.6825 70.1023C69.6276 70.1826 69.579 70.2967 69.5917 70.3643C69.598 70.3982 69.617 70.4996 69.5959 70.5735C69.5875 70.7151 69.6276 70.7425 69.6952 70.7299C69.7966 70.7108 69.7966 70.7108 69.7079 70.7975C69.5516 70.8968 69.391 71.3468 69.4988 71.3616C69.5326 71.3553 69.5453 71.4229 69.5579 71.4905C69.5368 71.5645 69.4946 71.7124 69.5136 71.8138C69.5178 72.0229 69.5242 72.0568 69.6594 72.0314C69.8284 71.9997 69.8284 71.9997 69.7798 72.1138C69.7312 72.2279 69.7439 72.2955 69.8707 72.4117C70.0038 72.5617 70.0038 72.5617 69.9151 72.6483C69.82 72.7012 69.8115 72.8427 69.8221 73.0857C69.8327 73.3287 69.7905 73.4766 69.6743 73.6034C69.6257 73.7175 69.5496 73.8717 69.5686 73.9731C69.5876 74.0745 69.5116 74.2288 69.4503 74.2753C69.3954 74.3556 69.3405 74.4358 69.3531 74.5035C69.3595 74.5373 69.2623 74.7655 69.1313 75C69.0341 75.2282 68.9306 75.4226 68.9306 75.4226C69.0109 75.4775 68.5926 76.0459 68.4088 76.1853C68.2862 76.2783 68.2588 76.3185 68.3327 76.3396C68.5208 76.4093 66.8919 78.3596 65.8693 79.2512C65.4805 79.6041 65.003 80.0436 64.7918 80.2232C63.9467 80.9416 63.2748 81.2776 62.2057 81.5481C61.3394 81.7806 60.9274 81.8228 60.1985 81.8546C59.8478 81.8504 59.5372 81.8736 59.5435 81.9074C59.5097 81.9138 59.5562 81.975 59.6428 82.0638C59.8436 82.2011 59.7083 82.2265 59.2646 82.0997C59.0428 82.0363 58.6138 81.8018 58.2589 81.5885C57.9377 81.3687 57.5954 81.223 57.5278 81.2356C57.4264 81.2547 56.9784 80.9187 56.6446 80.6314C55.9515 79.9215 55.5395 79.4039 55.474 79.2412C55.3493 78.9496 54.764 77.6946 54.4999 77.2193C53.6229 75.529 53.3228 72.9957 53.7157 70.6124C53.7368 70.5384 53.7727 70.3567 53.7811 70.2152C53.9163 69.07 54.793 66.8409 55.7226 65.2667C56.1768 64.5166 57.7423 62.2283 58.0297 61.8945C58.0846 61.8142 58.2557 61.6071 58.3381 61.4867C58.6191 61.119 59.1536 60.4239 59.3311 60.2506C59.4198 60.164 59.6184 59.9168 59.7959 59.7435C59.967 59.5364 60.1509 59.397 60.1509 59.397C60.1847 59.3906 60.3009 59.2639 60.4509 59.1307C60.5671 59.004 60.8058 58.7842 60.9347 58.725C61.0572 58.6321 61.2072 58.499 61.2622 58.4187C61.3171 58.3384 61.4058 58.2517 61.4734 58.2391C61.5411 58.2264 61.6023 58.1799 61.6298 58.1397ZM84.7889 54.2511C84.715 54.23 84.6474 54.2427 84.6537 54.2765C84.6664 54.3441 84.7002 54.3377 84.734 54.3314C84.7678 54.325 84.8143 54.3863 84.827 54.4539C84.8396 54.5215 84.8185 54.5955 84.7847 54.6018C84.7509 54.6082 84.7699 54.7096 84.789 54.811C84.8481 54.9399 84.9009 55.035 84.9073 55.0688C84.9136 55.1026 84.9136 55.1026 84.8798 55.1089C84.7721 55.0941 84.5861 55.409 84.6115 55.5442C84.6242 55.6118 84.5967 55.6519 84.5629 55.6583C84.5291 55.6646 84.4193 55.8252 84.377 55.9731C84.3009 56.1273 84.1911 56.2879 84.1362 56.3682C84.0749 56.4147 84.0538 56.4887 84.0939 56.5161C84.1869 56.6387 83.7516 56.9303 83.3798 57C83.177 57.038 82.9741 57.0761 82.9868 57.1437C82.9593 57.1838 82.8917 57.1965 82.8241 57.2092C82.7565 57.2219 82.634 57.3149 82.5389 57.3677C82.484 57.448 82.1924 57.5727 81.8881 57.6297C81.5902 57.7206 81.2923 57.8115 81.2649 57.8516C81.2099 57.9319 80.8782 58.0291 80.5127 58.1326C80.1134 58.2425 79.7542 58.3799 79.6929 58.4264C79.6316 58.4729 79.5028 58.532 79.4013 58.551C79.2999 58.5701 79.1711 58.6292 79.1436 58.6694C79.1161 58.7095 79.021 58.7624 78.926 58.8152C78.7907 58.8405 78.6281 58.9061 78.5393 58.9927C78.4442 59.0455 78.3492 59.0983 78.3154 59.1047C78.2816 59.111 78.159 59.204 78.0703 59.2906C77.8865 59.4301 77.8379 59.5442 77.7935 59.8674C77.7978 60.0766 77.7344 60.2985 77.7069 60.3386C77.7133 60.3724 77.7048 60.514 77.7365 60.683C77.7936 60.9873 77.7281 61.3845 77.6605 61.3972C77.6267 61.4035 77.6056 61.4775 77.6246 61.5789C77.6563 61.7479 77.6246 62.1388 77.519 62.5085C77.4767 62.6564 77.4535 62.9058 77.4451 63.0473C77.4704 63.1825 77.462 63.3241 77.4007 63.3706C77.3394 63.4171 77.3035 63.5988 77.3352 63.7678C77.3331 63.9432 77.3036 64.1587 77.255 64.2728C77.2339 64.3467 77.2254 64.4883 77.2444 64.5897C77.2635 64.6911 77.2423 64.7651 77.2085 64.7714C77.1409 64.7841 77.124 65.0672 77.0818 65.775C77.1114 66.1194 77.0544 66.3751 76.991 66.597C76.9699 66.6709 76.9614 66.8125 76.9804 66.9139C76.9995 67.0153 76.9974 67.1907 76.9424 67.271C76.9276 67.3787 76.9129 67.4865 76.9593 67.5477C76.972 67.6153 76.9699 67.7907 76.9065 68.0126C76.8136 68.4499 76.7904 68.6993 76.8306 69.2866C76.8475 69.5634 76.8306 69.8465 76.782 69.9606C76.7672 70.0684 76.7841 70.3452 76.7884 70.5544C76.8264 70.7572 76.837 71.0002 76.782 71.0805C76.7609 71.1544 76.7778 71.4312 76.7948 71.708C76.8096 72.1601 76.8815 73.4764 76.928 74.6575C76.9428 75.1097 76.9661 75.4203 77.0189 76.0752C77.057 76.2781 77.0338 76.5274 77.019 76.6352C77.0042 76.7429 77.0739 77.1148 77.1711 77.4465C77.3254 78.0824 77.2916 78.0888 77.1817 78.2494C77.093 78.336 77.0508 78.4839 77.0634 78.5515C77.0888 78.6867 77.0275 78.7332 76.867 78.6234C76.7867 78.5684 76.793 78.6022 76.7719 78.6762C76.7296 78.8241 76.5268 78.8621 76.4 78.7459C76.3599 78.7185 76.212 78.6762 76.1444 78.6889C76.0429 78.7079 75.9352 78.6931 75.8549 78.6382C75.8084 78.5769 75.7746 78.5833 75.7471 78.6234C75.7725 78.7586 75.6309 78.7502 75.5042 78.634C75.4513 78.5389 75.3436 78.5241 75.3161 78.5643C75.2485 78.577 75.1745 78.5558 75.0752 78.3995C74.9823 78.277 74.8682 78.2284 74.8407 78.2685C74.7731 78.2812 74.7329 78.2537 74.7203 78.1861C74.7012 78.0847 74.6083 77.9622 74.528 77.9072C74.3209 77.7361 74.1096 77.3558 73.9194 76.9015C73.8539 76.7388 73.7483 76.5487 73.668 76.4938C73.5877 76.4388 73.4546 76.2888 73.3954 76.1599C73.2179 75.7733 72.9178 73.7999 72.8205 72.3484C72.8416 72.2744 72.8247 71.9976 72.8141 71.7547C72.7697 71.518 72.7528 71.2412 72.774 71.1673C72.7908 70.8842 72.7401 70.0538 72.6661 69.4728C72.6133 68.8178 72.6365 68.5685 72.647 67.1317C72.6722 65.5872 72.7081 64.8456 72.7504 64.6977C72.7715 64.6238 72.7799 64.4822 72.7609 64.3808C72.7165 64.1441 72.763 63.0856 72.8707 62.5405C72.9003 62.325 72.9298 62.1094 72.896 62.1158C72.8559 62.0883 72.3383 62.5004 72.2284 62.6609C71.9749 62.9884 70.8593 63.1977 70.274 63.0625C69.9106 62.9907 68.6661 62.1392 68.5541 61.9153C68.5013 61.8202 68.4548 61.7589 68.421 61.7653C68.3196 61.7843 68.1547 61.4653 67.5948 60.3455C67.4891 60.1553 67.3898 59.999 67.3159 59.9779C67.2757 59.9504 67.1701 59.7602 67.0982 59.5637C66.9418 59.1031 67.0454 58.9088 67.4447 58.7989C67.7088 58.7143 68.0553 58.5094 68.4905 58.2178C68.6131 58.1248 68.8581 57.9389 69.0145 57.8396C69.2046 57.7339 69.3884 57.5944 69.4772 57.5078C69.8723 57.1887 71.8351 56.0857 72.5534 55.811C72.7499 55.7392 73.0077 55.6208 73.0753 55.6082C73.1704 55.5553 73.2654 55.5025 73.2992 55.4962C73.3331 55.4898 73.4619 55.4307 73.5908 55.3715C73.7134 55.2785 73.9098 55.2067 74.0725 55.1412C74.2078 55.1158 74.4043 55.044 74.4655 54.9975C74.5543 54.9108 74.7846 54.8327 74.9874 54.7946C75.1839 54.7228 75.3804 54.6509 75.448 54.6382C75.4754 54.5981 75.7057 54.5199 75.9086 54.4819C76.6734 54.2684 77.5608 53.962 77.7298 53.9303C77.7911 53.8838 78.258 53.7613 78.7651 53.6661C79.2321 53.5436 79.6715 53.4612 79.699 53.421C79.7265 53.3809 81.8625 53.0152 81.9703 53.03C82.0443 53.0511 82.2534 53.0469 82.4563 53.0089C82.6253 52.9772 82.8345 52.9729 82.8746 53.0004C82.9084 52.994 83.1176 52.9898 83.2866 52.9581C83.4894 52.9201 83.8402 52.9243 84.0557 52.9538C84.2712 52.9834 84.4529 53.0193 84.4529 53.0193C84.4867 53.013 84.5121 53.1482 84.5438 53.3172C84.5755 53.4863 84.641 53.6489 84.6811 53.6764C84.7276 53.7377 84.7403 53.8053 84.6854 53.8856C84.6431 54.0335 84.6495 54.0673 84.7699 54.1497C84.8967 54.2659 84.8967 54.2659 84.7889 54.2511ZM95.9139 59.3035C96.2859 60.3535 96.6451 62.4558 96.5881 63.2714C96.5459 63.4193 96.5353 63.7362 96.5058 63.9517C96.4847 64.5856 96.3833 65.1645 96.1404 66.2949C96.0474 66.7323 95.9545 67.1696 95.9186 67.3514C95.8763 67.4993 95.8404 67.681 95.8193 67.7549C95.7918 67.7951 95.7348 68.0507 95.6778 68.3064C95.382 69.3417 94.7208 71.0405 94.4672 71.368C94.3785 71.4546 94.3574 71.5286 94.3701 71.5962C94.3426 71.6363 94.3215 71.7103 94.2602 71.7568C94.1989 71.8032 94.144 71.8835 94.163 71.9849C94.182 72.0864 94.0658 72.2131 93.8609 72.4266C93.6834 72.5998 93.3412 73.014 93.1151 73.3013C92.8552 73.595 92.6228 73.8486 92.589 73.8549C92.5552 73.8613 92.4052 73.9944 92.2552 74.1275C91.9277 74.4339 90.3791 75.3192 90.0685 75.3425C89.4874 75.4165 88.4141 75.4778 88.131 75.4609C87.4232 75.4187 87.0682 75.2053 85.4053 73.8025C84.8306 73.3503 84.6573 73.1729 84.3129 72.6426C83.5247 71.4256 82.9838 70.4072 82.671 69.486C82.0646 67.7451 81.8489 65.4759 82.0939 63.0503C82.1762 61.81 82.2523 61.0959 82.322 60.9078C82.3431 60.8339 82.3515 60.6923 82.3389 60.6247C82.3262 60.5571 82.3621 60.3754 82.4043 60.2275C82.4804 60.0732 82.6008 59.5957 82.6938 59.1584C82.7867 58.721 82.9071 58.2435 82.9768 58.0554C83.0191 57.9075 83.0824 57.6857 83.1036 57.6117C83.1247 57.5378 83.1606 57.3561 83.2092 57.242C83.224 57.1342 83.2937 56.9462 83.3423 56.8321C83.3507 56.6905 83.4204 56.5025 83.4965 56.3482C83.5451 56.2341 83.6296 55.9383 83.7268 55.7101C83.7838 55.4545 83.9634 55.1058 84.0944 54.8713C84.4514 54.3494 85.1401 53.1704 85.1549 53.0626C85.1486 53.0288 85.1697 52.9549 85.231 52.9084C85.2796 52.7943 85.3873 52.8091 85.5416 52.8851C85.6958 52.9612 86.2811 53.0964 86.6783 53.1619C86.7861 53.1766 86.9002 53.2252 86.9466 53.2865C87.0206 53.3076 87.0945 53.3287 87.1896 53.2759C87.3861 53.2041 88.0474 53.185 88.2017 53.2611C88.2482 53.3223 88.3897 53.3308 88.4975 53.3456C88.6327 53.3202 88.7743 53.3287 88.8546 53.3836C88.9285 53.4047 89.0363 53.4195 89.1039 53.4068C89.1715 53.3941 89.387 53.4237 89.5751 53.4934C89.723 53.5357 90.0124 53.5864 90.1476 53.561C90.323 53.5631 90.5449 53.6265 90.8132 53.7511C91.0076 53.8546 91.3435 53.9666 91.4914 54.0089C91.9351 54.1356 93.3825 54.949 93.6424 55.2152C93.7692 55.3314 93.9424 55.5089 94.0354 55.6314C94.0882 55.7265 94.1812 55.849 94.215 55.8427C94.3418 55.9589 94.5742 56.2652 94.5932 56.3667C94.6123 56.4681 94.7116 56.6244 94.8384 56.7406C95.0116 56.9181 95.0644 57.0132 95.1152 57.2836C95.1469 57.4526 95.2715 57.7442 95.3772 57.9344C95.4828 58.1245 95.6075 58.4161 95.6667 58.545C95.6921 58.6802 95.8231 59.0056 95.9139 59.3035ZM92.3623 60.7045C92.3898 60.6643 92.3644 60.5291 92.3052 60.4002C92.2735 60.2312 92.1763 59.8995 92.1256 59.629C91.8952 58.5874 91.5782 57.457 91.219 56.4746L91.1091 56.0753L90.8387 56.126C90.6971 56.1175 90.5619 56.1429 90.5682 56.1767C90.5344 56.183 90.4055 56.2422 90.2365 56.2739C89.7294 56.369 89.5731 56.4683 89.2921 56.836C89.2308 56.8825 89.1146 57.0092 89.0196 57.0621C88.9308 57.1487 88.8695 57.1952 88.8759 57.229C88.8949 57.3304 88.5252 57.7847 88.4576 57.7974C88.39 57.8101 87.64 59.0356 87.659 59.137C87.6653 59.1708 87.5956 59.3588 87.5195 59.5131C87.4435 59.6673 87.3674 59.8216 87.3801 59.8892C87.3865 59.923 87.3505 60.1047 87.302 60.2188C87.19 60.5547 87.0823 61.0999 87.1203 61.3027C87.133 61.3703 87.0633 61.5583 87.0083 61.6386C86.9259 61.7591 86.8837 61.907 86.9027 62.0084C86.9154 62.076 86.8795 62.2577 86.8372 62.4056C86.7548 62.526 86.7042 62.8155 86.7084 63.0247C86.6725 63.2064 86.6429 63.4219 86.6218 63.4959C86.5521 63.6839 86.4739 64.5734 86.4212 65.5982C86.3874 66.1644 86.3536 66.7307 86.3515 66.906C86.2839 67.4786 86.47 69.4034 86.6686 70.276C86.8356 70.9796 87.3427 72.0043 87.4843 72.0128C87.6533 71.9811 88.1498 71.643 88.5174 71.3641C89.5189 70.5463 90.1886 69.8258 90.459 69.2152C90.5626 69.0208 90.6999 68.8201 90.7612 68.7736C90.8562 68.7207 91.2386 67.7742 91.2471 67.6326C91.228 67.5312 91.452 66.8593 91.5132 66.8128C91.5407 66.7727 91.5682 66.7325 91.5217 66.6712C91.5153 66.6374 91.5301 66.5297 91.5787 66.4156C91.6273 66.3015 91.6695 66.1536 91.6569 66.086C91.6505 66.0522 91.6864 65.8705 91.7562 65.6824C91.7984 65.5345 91.8343 65.3528 91.828 65.319C91.8216 65.2852 91.8428 65.2112 91.8977 65.1309C91.959 65.0845 91.9737 64.9767 91.9611 64.9091C91.942 64.8077 91.9991 64.552 92.0624 64.3302C92.1533 64.0682 92.1892 63.8865 92.1829 63.8526C92.1364 63.7914 92.2251 63.1448 92.3434 62.8427C92.3793 62.661 92.3983 62.2025 92.3349 61.3045C92.3517 61.0214 92.3412 60.7784 92.3623 60.7045Z" fill="#FEC7FF"/>
</g>
<path d="M43.0286 25.5388C43.0765 25.791 43.0338 26.0151 42.9005 26.211C42.7844 26.3814 42.643 26.4825 42.4763 26.5142C42.3566 26.5369 42.2548 26.5141 42.1709 26.4459C42.0871 26.3776 42.0316 26.2719 42.0044 26.1287C41.9691 25.9427 41.9963 25.7304 42.0861 25.4918C42.1781 25.2529 42.2889 25.131 42.4187 25.1263C42.4496 25.1138 42.4821 25.1043 42.5163 25.0978C42.6382 25.0747 42.7434 25.0979 42.8319 25.1675C42.9306 25.244 42.9962 25.3677 43.0286 25.5388ZM42.8779 25.5674C42.8532 25.437 42.8056 25.3441 42.7353 25.2888C42.6781 25.2443 42.6175 25.2281 42.5533 25.2403C42.517 25.2472 42.4907 25.2544 42.4744 25.2619C42.4598 25.2669 42.4429 25.2768 42.4235 25.2915C42.3234 25.3593 42.2472 25.4768 42.1947 25.644C42.1445 25.8108 42.1333 25.9679 42.1613 26.1155C42.1812 26.2202 42.2206 26.2936 42.2796 26.3355C42.3308 26.3723 42.3896 26.3844 42.4559 26.3718C42.597 26.345 42.7108 26.2503 42.7973 26.0877C42.8856 25.9226 42.9124 25.7491 42.8779 25.5674Z" fill="white"/>
<path d="M41.7834 25.7724C41.8309 26.0225 41.8038 26.247 41.702 26.4457C41.6097 26.6249 41.4963 26.7273 41.3616 26.7529C41.3146 26.7618 41.2504 26.7563 41.1691 26.7363C41.0877 26.7163 41.0095 26.6835 40.9344 26.638L40.923 26.6302C40.9048 26.8374 40.8931 27.0091 40.8879 27.1452C40.8849 27.2809 40.8886 27.3765 40.8992 27.4321C40.9008 27.4406 40.9056 27.4541 40.9135 27.4726C40.9215 27.491 40.9264 27.5056 40.9285 27.5162C40.9358 27.5547 40.9306 27.5856 40.9128 27.6089C40.8951 27.6322 40.8734 27.6463 40.8478 27.6512C40.8157 27.6573 40.7891 27.6512 40.7679 27.6331C40.7468 27.615 40.7329 27.5888 40.7264 27.5546C40.7126 27.4819 40.7191 27.2769 40.7459 26.9396C40.7649 26.6901 40.787 26.4622 40.812 26.2559C40.8507 25.9229 40.8721 25.7383 40.8763 25.7021C40.9038 25.5086 40.9475 25.4062 41.0074 25.3948C41.0351 25.3895 41.0558 25.3934 41.0693 25.4063C41.0846 25.4167 41.0947 25.4347 41.0995 25.4604C41.104 25.4839 41.1021 25.5086 41.0937 25.5346C41.062 25.6358 41.0451 25.7044 41.043 25.7402C41.1025 25.6337 41.1636 25.5468 41.2261 25.4795C41.2908 25.4119 41.3531 25.3724 41.4129 25.361C41.4899 25.3464 41.5639 25.3744 41.6349 25.4451C41.7055 25.5136 41.755 25.6227 41.7834 25.7724ZM41.6388 25.8331C41.616 25.7134 41.5791 25.624 41.5281 25.565C41.488 25.5173 41.4487 25.4971 41.4102 25.5044C41.3589 25.5141 41.3006 25.5684 41.2352 25.6672C41.1715 25.7634 41.111 25.8879 41.0536 26.0406C41.004 26.1762 40.9657 26.3186 40.9387 26.4677C40.9857 26.5053 41.0523 26.5414 41.1386 26.5759C41.2267 26.608 41.2985 26.6187 41.354 26.6081C41.4524 26.5894 41.5321 26.5079 41.5933 26.3633C41.6606 26.2044 41.6757 26.0276 41.6388 25.8331Z" fill="white"/>
<path d="M40.4231 25.7632C40.442 25.7928 40.4589 25.8295 40.4738 25.8731C40.4888 25.9168 40.4999 25.9579 40.5072 25.9964C40.53 26.1161 40.531 26.2322 40.5102 26.3447C40.4895 26.4571 40.4542 26.5569 40.4043 26.6439C40.3495 26.7407 40.2803 26.8192 40.1965 26.8794C40.1285 26.9299 40.054 26.9629 39.9727 26.9783C39.8851 26.995 39.8049 26.987 39.7322 26.9542C39.6596 26.9215 39.6 26.8642 39.5534 26.7822C39.537 26.7543 39.5234 26.7237 39.5127 26.6903C39.5015 26.6547 39.4925 26.6188 39.4856 26.5825C39.4762 26.5333 39.4708 26.4933 39.4694 26.4626C39.468 26.4318 39.4693 26.3917 39.4732 26.3423C39.3841 26.4566 39.3163 26.5659 39.2696 26.67C39.2478 26.7184 39.2252 26.7803 39.2019 26.8556C39.1806 26.9305 39.1678 26.9739 39.1635 26.9858C39.1507 27.0237 39.1361 27.0519 39.1197 27.0706C39.1029 27.087 39.0849 27.0971 39.0657 27.1008C39.0464 27.1044 39.0279 27.1002 39.0101 27.0881C38.9966 27.0751 38.9876 27.0569 38.9831 27.0334C38.9746 26.9885 38.9754 26.923 38.9857 26.8369C38.9912 26.7959 39.0025 26.7273 39.0197 26.6311C39.0247 26.5991 39.0477 26.4928 39.0887 26.3123C39.1066 26.2314 39.1112 26.1685 39.1027 26.1236C39.093 26.0723 39.089 26.0398 39.0909 26.0261C39.096 25.9831 39.1224 25.9415 39.1702 25.9014C39.1891 25.8845 39.2093 25.8741 39.2307 25.87C39.2606 25.8643 39.2794 25.8818 39.2871 25.9224C39.2928 25.9523 39.2912 25.9848 39.2823 26.0197C39.2649 26.1027 39.2517 26.1673 39.2427 26.2133C39.226 26.3006 39.2161 26.359 39.2128 26.3884L39.1964 26.5643C39.2291 26.4916 39.2654 26.426 39.3052 26.3675C39.3087 26.3624 39.3439 26.3148 39.4109 26.2245L39.4907 26.1197C39.5271 25.9732 39.5576 25.8711 39.582 25.8133C39.6065 25.7555 39.6315 25.7241 39.6572 25.7192C39.67 25.7168 39.69 25.723 39.7172 25.7377C39.7497 25.6873 39.7904 25.6452 39.8394 25.6115C39.8884 25.5779 39.9332 25.5572 39.9738 25.5495C40.0593 25.5332 40.1422 25.5441 40.2225 25.582C40.3046 25.6173 40.3714 25.6777 40.4231 25.7632ZM40.366 26.3023C40.3783 26.2158 40.3754 26.1244 40.3571 26.0282C40.3429 25.9534 40.3196 25.8891 40.2873 25.8355C40.2571 25.7814 40.2174 25.7413 40.1681 25.7152C40.121 25.6888 40.0707 25.6806 40.0173 25.6907C39.9638 25.7009 39.916 25.7233 39.8738 25.7578C39.8162 25.8042 39.7656 25.8759 39.722 25.9727C39.6251 26.186 39.5942 26.3846 39.6291 26.5685C39.6494 26.6754 39.6898 26.7541 39.7503 26.8046C39.7766 26.8262 39.8087 26.8434 39.8465 26.8561C39.8861 26.8663 39.9262 26.8676 39.9668 26.8599C40.0117 26.8513 40.0595 26.829 40.1102 26.7927C40.176 26.7426 40.2324 26.6721 40.2794 26.5812C40.326 26.4882 40.3548 26.3952 40.366 26.3023Z" fill="white"/>
<path d="M39.0142 25.0814C39.0211 25.1177 39.0203 25.1367 39.0118 25.1383C38.9989 25.1408 38.9851 25.1379 38.9702 25.1296C38.9554 25.1214 38.9266 25.1213 38.8838 25.1294C38.7662 25.1517 38.6187 25.2086 38.4411 25.2999C38.2331 25.4058 38.1357 25.4941 38.1491 25.5646C38.1556 25.5988 38.182 25.6326 38.2282 25.6659C38.2485 25.6798 38.2895 25.703 38.3511 25.7356C38.4623 25.7964 38.5495 25.8651 38.6128 25.9417C38.6955 26.039 38.7507 26.1603 38.7783 26.3057C38.8177 26.513 38.781 26.7227 38.6684 26.9345C38.5576 27.1439 38.4156 27.265 38.2424 27.2979C38.1569 27.3141 38.0786 27.2924 38.0074 27.2328C37.9381 27.1707 37.8912 27.0755 37.8668 26.9472C37.8299 26.7527 37.853 26.5711 37.9361 26.4025C38.0145 26.2436 38.1135 26.1528 38.2333 26.1301C38.3124 26.1151 38.3861 26.1299 38.4543 26.1745C38.5243 26.2166 38.5675 26.2804 38.5837 26.3659C38.589 26.3937 38.5886 26.4148 38.5825 26.4292C38.5763 26.4437 38.5626 26.4529 38.5412 26.457C38.5241 26.4603 38.508 26.4456 38.493 26.413C38.4675 26.3603 38.4518 26.33 38.4459 26.3223C38.4307 26.3008 38.4157 26.2859 38.4008 26.2777C38.3733 26.2608 38.3424 26.2555 38.3082 26.262C38.197 26.2832 38.1115 26.3636 38.0517 26.5035C37.9914 26.6412 37.9747 26.7805 38.0015 26.9216C38.0202 27.02 38.0547 27.091 38.1051 27.1346C38.1474 27.1708 38.1942 27.1841 38.2455 27.1743C38.3652 27.1516 38.4681 27.0457 38.554 26.8566C38.6399 26.6675 38.666 26.4843 38.6323 26.3068C38.6124 26.2021 38.5742 26.1118 38.5178 26.0362C38.4761 25.9799 38.4189 25.9298 38.3464 25.886C38.276 25.8418 38.207 25.7995 38.1396 25.7591C38.0603 25.7033 38.015 25.6455 38.0036 25.5856C37.9898 25.5129 38.0228 25.4358 38.1025 25.3542C38.1991 25.2561 38.3627 25.1553 38.5933 25.0517C38.6769 25.0137 38.7486 24.989 38.8085 24.9776C38.8747 24.965 38.9255 24.9698 38.9607 24.9919C38.9883 25.0088 39.0061 25.0386 39.0142 25.0814Z" fill="white"/>
<path d="M41.4826 19.2887C41.588 19.2687 41.6777 19.2857 41.7494 19.3384C41.8246 19.3857 41.8723 19.4619 41.8922 19.5668L42.6735 23.6807C42.6934 23.7858 42.6778 23.877 42.6258 23.9532C42.5775 24.024 42.4997 24.0696 42.3943 24.0896L42.1199 24.1417C42.0144 24.1618 41.9232 24.1482 41.8477 24.101C41.776 24.0483 41.7302 23.9688 41.7102 23.8637L40.929 19.7497C40.909 19.6448 40.9233 19.5568 40.9714 19.4862C41.0234 19.41 41.1027 19.3608 41.2082 19.3408L41.4826 19.2887ZM36.3247 20.2682C36.4302 20.2482 36.5187 20.2645 36.5905 20.3171C36.666 20.3644 36.7142 20.4402 36.7342 20.5453L37.5157 24.6602C37.5355 24.7652 37.5188 24.8558 37.4669 24.9319C37.4185 25.0026 37.3416 25.0481 37.2363 25.0682L36.9609 25.1204C36.8556 25.1404 36.7651 25.1267 36.6897 25.0795C36.6181 25.0269 36.5724 24.948 36.5524 24.8432L35.771 20.7282C35.751 20.6232 35.7652 20.5354 35.8134 20.4647C35.8653 20.3886 35.9441 20.3406 36.0494 20.3205L36.3247 20.2682ZM40.1616 19.8229L39.8181 19.8881L40.6777 24.4146L40.4023 24.4669L39.5427 19.9404L39.1983 20.0058L39.1462 19.7314L40.1094 19.5485L40.1616 19.8229ZM32.4677 20.9997C32.573 20.9797 32.6617 20.9961 32.7334 21.0486C32.8089 21.0958 32.8574 21.1726 32.8774 21.2777L33.5283 24.7057C33.5483 24.8109 33.5318 24.9022 33.4797 24.9784C33.4314 25.0489 33.3545 25.0946 33.2491 25.1146L32.9057 25.1798L33.0358 25.8649L32.7604 25.9171L31.8489 21.1172L32.4677 20.9997ZM34.3961 20.6335C34.5014 20.6135 34.5902 20.6298 34.6619 20.6824C34.7372 20.7296 34.7846 20.8059 34.8046 20.9107L35.4558 24.3397C35.4758 24.4448 35.4602 24.536 35.4082 24.6122C35.3599 24.6828 35.2829 24.7283 35.1776 24.7484L35.6511 25.3682L35.3412 25.427L34.8677 24.8072L34.8331 24.8138L34.9632 25.4988L34.6879 25.5511L33.7763 20.7512L34.3961 20.6335ZM38.0467 19.9402C38.1522 19.9202 38.2416 19.9363 38.3134 19.9889C38.3887 20.0362 38.4362 20.1124 38.4562 20.2173L38.4822 20.3545L38.2069 20.4068L38.1808 20.2696C38.1721 20.2241 38.1446 20.2059 38.0988 20.2146L37.8244 20.2667C37.7786 20.2754 37.7597 20.3024 37.7683 20.3479L37.8204 20.6223C37.8291 20.668 37.8579 20.6934 37.9064 20.6984L38.285 20.7398C38.3671 20.7479 38.4371 20.7801 38.495 20.8352C38.5576 20.8896 38.5969 20.9582 38.6125 21.0405L39.2376 24.3322C39.2575 24.4371 39.2416 24.5277 39.1898 24.6037C39.1414 24.6745 39.0637 24.7201 38.9582 24.7402L38.6838 24.7923C38.5784 24.8123 38.4872 24.7987 38.4117 24.7515C38.3402 24.6989 38.2943 24.62 38.2744 24.5152L38.2483 24.378L38.5237 24.3257L38.5497 24.4629C38.5584 24.5084 38.586 24.5266 38.6317 24.5179L38.9061 24.4658C38.9519 24.4571 38.9708 24.4301 38.9623 24.3845L38.3372 21.0928C38.3285 21.0471 38.2996 21.0217 38.2511 21.0167L37.8735 20.9751C37.7912 20.967 37.7184 20.9356 37.6558 20.8812C37.5978 20.8259 37.5607 20.7569 37.545 20.6746L37.4929 20.4002C37.4731 20.2953 37.4872 20.2074 37.5353 20.1367C37.5874 20.0605 37.6668 20.0123 37.7723 19.9923L38.0467 19.9402ZM41.2603 19.6152C41.2144 19.6239 41.1956 19.6517 41.2043 19.6974L41.9856 23.8114C41.9943 23.8571 42.0219 23.876 42.0678 23.8673L42.3422 23.8152C42.388 23.8065 42.4068 23.7787 42.3981 23.733L41.6169 19.6191C41.6082 19.5733 41.5805 19.5544 41.5347 19.5631L41.2603 19.6152ZM36.1015 20.5949C36.0559 20.6037 36.0377 20.6304 36.0463 20.6759L36.8278 24.7909C36.8365 24.8361 36.8633 24.8546 36.9088 24.8461L37.1842 24.7938C37.2299 24.7851 37.2488 24.758 37.2403 24.7125L36.4589 20.5976C36.4502 20.5519 36.4227 20.5339 36.3768 20.5426L36.1015 20.5949ZM32.8536 24.9054L33.197 24.8402C33.2429 24.8315 33.2617 24.8037 33.253 24.758L32.602 21.33C32.5933 21.2843 32.5657 21.2654 32.5198 21.2741L32.1763 21.3393L32.8536 24.9054ZM34.781 24.5394L35.1255 24.474C35.1711 24.4652 35.1891 24.4376 35.1805 24.392L34.5293 20.963C34.5205 20.9178 34.4937 20.8993 34.4482 20.9078L34.1038 20.9733L34.781 24.5394Z" fill="white"/>
</svg>
