<svg width="96" height="96" viewBox="0 0 96 96" fill="none" xmlns="http://www.w3.org/2000/svg">
<circle cx="47.9071" cy="47.9071" r="47.9071" fill="black"/>
<mask id="mask0_435_235" style="mask-type:alpha" maskUnits="userSpaceOnUse" x="0" y="0" width="96" height="96">
<circle cx="47.9071" cy="47.9071" r="47.9071" fill="black"/>
</mask>
<g mask="url(#mask0_435_235)">
<path d="M13.2991 15.3989C13.2991 15.3989 13.2991 15.3989 13.3055 15.4327L13.2991 15.3989ZM16.8848 17.9109C17.2419 18.5089 17.1321 19.7893 17.0962 20.5309C17.1068 20.7739 17.0603 21.2725 17.1047 21.5091C17.1427 21.712 17.1279 21.8197 17.0519 21.974C17.0033 22.0881 17.0033 22.0881 17.0287 22.2233C17.0878 22.3522 17.0857 22.5275 17.0498 22.7092C17.0414 22.8508 17.0456 23.06 17.0435 23.2353C17.0752 23.4044 17.0816 23.4382 17.052 23.6537C17.0562 23.8629 17.0182 24.2199 17.0013 24.5031C17.0182 24.7798 16.9718 25.2785 16.9549 25.5616C16.9317 25.8109 16.9359 26.0201 16.9338 26.1955C16.9655 26.3645 16.9634 26.5399 16.9486 26.6476C16.8683 27.1526 16.8451 27.4019 16.8325 27.8942C16.8219 28.2111 16.8283 28.8049 16.8241 29.1556C16.7966 29.7556 16.803 30.3494 16.803 30.9093C16.7946 31.0508 16.8009 31.0846 16.7862 31.1924C16.7439 31.3403 16.7566 31.4079 16.7819 31.5431C16.8136 31.7122 16.7968 31.9953 16.7947 32.1706C16.7651 32.3862 16.7545 32.7031 16.7799 32.8383C16.7841 33.0475 16.7968 33.1151 16.6743 33.2081C16.4905 33.3475 16.6172 33.4637 16.6954 33.694C16.7483 33.7891 16.7947 33.8504 16.6976 34.0786C16.6405 34.3342 16.7652 35.1857 16.816 35.4561C16.9132 35.7879 17.1266 36.5527 16.9217 36.7661C16.8055 36.8929 16.8118 36.9267 16.7696 37.0746C16.7611 37.2162 16.7527 37.3577 16.7104 37.5056C16.6618 37.6197 16.6196 37.7676 16.5646 37.8479C16.5499 37.9557 16.5161 37.962 16.4484 37.9747C16.347 37.9937 16.3597 38.0613 16.3386 38.1353C16.2689 38.3233 16.1062 38.3888 15.9794 38.2726C15.8928 38.1839 15.8928 38.1839 15.804 38.2705C15.6202 38.41 15.2568 38.3382 15.0899 38.1945C14.9758 38.1459 14.8617 38.0973 14.7877 38.0762C14.5321 38.0192 14.3377 37.9156 14.2194 37.6579C14.1602 37.529 14.1792 37.6304 14.0334 37.4128C13.801 37.1064 13.8327 37.2755 13.6657 36.5719C13.4607 35.6655 13 33.5822 12.8922 32.4476C12.8626 32.1032 12.8901 32.0631 12.833 31.7588C12.8161 31.4821 12.7992 31.2053 12.7759 30.8947C12.7928 30.6116 12.7696 30.301 12.7526 30.0242C12.7695 29.7411 12.742 29.2213 12.7716 29.0058C12.7885 28.7227 12.8117 28.4733 12.7124 28.317C12.6131 28.1606 12.6279 28.0529 12.6089 27.9515C12.556 27.8564 12.6596 27.662 12.518 27.6536C12.1609 27.6156 11.6243 27.9262 11.339 28.0847C11.2165 28.1776 11.0876 28.2368 10.9862 28.2558C10.8446 28.2474 10.8784 28.241 10.7221 28.3403C10.5594 28.4058 10.2066 28.577 9.98261 28.689C9.75231 28.7672 9.43328 28.932 9.27693 29.0313C9.08678 29.137 8.92409 29.2025 8.79521 29.2616C8.67267 29.3546 8.47618 29.4265 8.42125 29.5068C8.29026 29.7413 8.05996 29.8195 7.82966 29.8977C7.72825 29.9167 7.59937 29.9759 7.54444 30.0561C7.48317 30.1026 7.4219 30.1491 7.35428 30.1618C7.05004 30.2189 6.90216 30.7365 6.95288 31.007C6.99937 31.0682 6.99093 31.2098 6.9698 31.2837C6.90643 31.5056 6.80925 31.7338 6.89378 31.9979C6.9783 32.262 6.91917 32.693 6.79452 32.9614C6.75227 33.1093 6.75651 33.3184 6.81567 33.4473C6.84738 33.6164 6.88542 33.8192 6.88331 33.9946C6.88121 34.1699 6.87277 34.3115 6.90447 34.4805C6.9087 34.6897 6.9045 35.0404 6.90873 35.2496C6.91297 35.4588 6.85804 35.5391 6.93623 35.7694C7.01442 35.9997 6.92781 36.4708 6.90458 36.7201C6.88346 36.7941 6.86233 36.868 6.9215 36.9969C7.14549 37.4448 7.20892 38.3428 7.16246 38.8414C7.12021 38.9893 7.12655 39.0232 7.15191 39.1584C7.17728 39.2936 7.10122 39.4478 7.01249 39.5345C6.95756 39.6148 6.90897 39.7289 6.85404 39.8092C6.81179 39.9571 6.46105 39.9528 6.31315 39.9106C6.273 39.8831 6.23286 39.8557 6.17159 39.9022C6.10397 39.9148 6.03002 39.8937 5.94973 39.8388C5.90325 39.7775 5.8631 39.75 5.72788 39.7754C5.6328 39.8282 5.44475 39.7585 5.33066 39.7099C5.21022 39.6275 4.98837 39.5642 4.85948 39.6233C4.76441 39.6761 4.69046 39.655 4.67144 39.5536C4.65876 39.486 4.65241 39.4522 4.5848 39.4649C4.54466 39.4374 4.50451 39.4099 4.49817 39.3761C4.48549 39.3085 4.48549 39.3085 4.41154 39.2874C4.37773 39.2937 4.33759 39.2663 4.2911 39.205C4.07346 38.7909 3.61494 38.212 3.31489 37.9183C3.10148 37.7134 3.15431 37.8085 3.07612 37.5782C2.97047 37.388 3.11627 37.6056 2.89652 37.3669C2.71057 37.1218 2.77819 37.1091 2.6387 36.3654C2.33013 34.5336 2.2011 31.7932 2.29396 29.6761C2.31295 29.2176 2.27067 28.8056 1.99809 28.4718C1.80581 28.1929 1.82059 28.0851 1.91143 27.8231C2.00861 27.5949 2.07622 27.5823 2.24525 27.5506C2.41428 27.5189 2.43117 27.2357 2.48607 26.5955C2.58319 25.2475 2.86827 22.2895 3.02033 20.8612C3.15759 19.5407 3.23996 18.8603 3.30751 17.7278C3.33074 17.4785 3.3244 17.4447 3.25889 17.282C3.22719 17.113 3.21451 17.0454 3.2293 16.9376C3.29901 16.7496 3.29267 16.7158 3.46804 16.7179C3.56945 16.6988 3.85258 16.7157 3.99414 16.7242C4.23712 16.7136 4.65547 16.7051 4.79492 16.8889C4.84775 16.984 4.83507 16.9164 4.89634 16.8699C4.99142 16.8171 5.09917 16.8319 5.24708 16.8741C5.36117 16.9227 5.65064 16.9734 5.79854 17.0157C6.2021 17.1149 6.64581 17.2417 6.97966 17.529C7.11277 17.679 7.23955 17.7952 7.40647 17.9389C7.77413 18.2199 8.03192 18.6615 8.15449 19.1284C8.18619 19.2974 8.21155 19.4326 8.27072 19.5615C8.32988 19.6904 8.3151 19.7982 8.26651 19.9123C8.25807 20.0538 8.24962 20.1954 8.26864 20.2968C8.2602 20.4384 8.23907 20.5123 8.21795 20.5863C8.16936 20.7004 8.15458 20.8081 8.1736 20.9095C8.18628 20.9771 8.19896 21.0448 8.14403 21.1251C8.1229 21.199 8.1229 21.199 8.14192 21.3004C8.1208 21.3744 8.09123 21.5899 8.07645 21.6976C8.02786 21.8117 7.97716 22.1012 7.98984 22.1688C7.99408 22.378 8.03212 22.5808 7.88846 22.7477C7.73845 22.8809 7.72156 23.164 7.7258 23.3732C7.74271 23.6499 7.77865 24.0281 7.64767 24.2627C7.59908 24.3768 7.60542 24.4106 7.59063 24.5183C7.60965 24.6198 7.62233 24.6874 7.60121 24.7613C7.55262 24.8754 7.53784 24.9832 7.55686 25.0846C7.53573 25.1585 7.55475 25.26 7.53363 25.3339C7.63504 25.3149 7.79773 25.2494 7.86534 25.2367C8.65765 24.9831 9.70562 24.7866 10.4346 24.7548C11.1698 24.7569 11.5269 24.7949 12.146 24.9238C12.2875 24.9322 12.3953 24.947 12.5031 24.9618C12.7059 24.9237 12.7587 25.0188 12.708 24.7484C12.6826 24.6132 12.6932 24.2962 12.7291 24.1145C12.7417 23.6222 12.7819 23.0898 12.7332 22.644C12.7227 22.401 12.7311 22.2594 12.7607 22.0439C12.7564 21.8347 12.767 21.5178 12.7628 21.3086C12.7522 21.0657 12.7141 20.8628 12.7374 20.6135C12.7268 20.3705 12.7648 20.0134 12.788 19.7641C12.7774 19.5211 12.7943 19.238 12.8366 19.0901C12.8788 18.9422 12.8725 18.9084 12.8936 18.8345C12.8746 18.733 12.8746 18.733 12.8894 18.6253C12.9316 18.4774 12.9337 18.302 12.8957 18.0992C12.8894 18.0654 12.8915 17.89 12.9126 17.8161C12.9337 17.7421 12.9422 17.6005 12.9295 17.5329C12.883 17.4717 12.9041 17.3977 12.9189 17.29C12.94 17.216 12.9675 17.1759 12.9358 17.0068C12.8766 16.878 12.9611 16.5822 12.997 16.4004C13.0203 16.1511 13.1681 15.6335 13.3055 15.4327C13.409 15.2383 13.4449 15.0566 13.5801 15.0313C13.709 14.9721 13.7217 15.0397 13.8421 15.1221C14.0428 15.2594 14.4654 15.4601 14.7274 15.551C14.9831 15.608 15.1099 15.7242 15.2557 15.9418C15.4014 16.1595 15.7691 16.4404 16.0163 16.639C16.0966 16.694 16.217 16.7764 16.2699 16.8714C16.2952 17.0067 16.3882 17.1292 16.515 17.2454C16.6016 17.3341 16.7073 17.5243 16.7326 17.6595C16.7981 17.8222 16.7791 17.7208 16.8848 17.9109ZM32.8866 30.0974C32.9183 30.2664 33.0113 30.389 33.0979 30.4777C33.2712 30.6552 33.3557 30.9193 33.2057 31.0524C33.1444 31.0989 33.1022 31.2468 33.1212 31.3482C33.0853 31.5299 33.0642 31.6039 32.7895 32.0053C32.7684 32.0793 32.6121 32.1786 32.4832 32.2377C32.3268 32.3371 32.2656 32.3835 32.2635 32.5589C32.2275 32.7406 32.2001 32.7808 31.6846 33.0174C31.3655 33.1822 31.0803 33.3407 31.019 33.3872C30.869 33.5203 30.0408 33.9556 29.9394 33.9746C29.9056 33.981 29.8781 34.0211 29.8506 34.0613C29.8359 34.169 29.0013 34.5705 28.0865 34.9171C27.8625 35.0291 27.6322 35.1073 27.6047 35.1474C27.5773 35.1876 27.123 35.3777 26.7237 35.4876C26.6286 35.5404 26.4258 35.5785 26.2631 35.644C26.1342 35.7032 25.9715 35.7687 25.9103 35.8152C25.8553 35.8954 25.4961 36.0328 25.1306 36.1364C23.9791 36.5273 23.7298 36.5041 22.4452 36.1851C21.8874 36.0097 21.7733 35.9612 21.3993 35.6464C21.1521 35.4478 20.8182 35.1604 20.6112 34.9893C20.2435 34.7083 19.9244 34.3132 19.7131 33.9329C19.654 33.804 19.5356 33.5463 19.4363 33.3899C19.0517 32.8322 18.9862 32.6695 18.8235 32.1751C18.5108 31.2539 18.2888 29.5108 18.3564 28.3783C18.3585 28.2029 18.3648 27.6768 18.3838 27.2183C18.3901 26.1323 18.5758 23.0179 18.6244 22.9038C18.6456 22.8299 18.6265 22.7285 18.6202 22.6947C18.6012 22.5932 18.8082 21.0847 18.8652 20.829C18.9138 20.7149 18.994 20.2099 19.1081 19.6986C19.2222 19.1873 19.3088 18.7161 19.3574 18.602C19.3722 18.4943 19.5074 17.909 19.6489 17.3575C19.7841 16.7723 19.9129 16.1532 19.9552 16.0053C20.0756 15.5278 20.1263 15.2383 20.0946 15.0693C20.0819 15.0017 20.084 14.8263 20.1326 14.7122C20.2572 14.4439 20.4263 14.4122 20.7073 14.6044C20.908 14.7417 21.9898 15.0988 22.125 15.0734C22.1588 15.0671 22.3532 15.1706 22.8625 15.46C23.0906 15.5572 23.2998 15.553 23.5111 15.3733C23.566 15.2931 23.7224 15.1937 23.8513 15.1346C23.9801 15.0754 24.1027 14.9824 24.1301 14.9423C24.1639 14.936 24.259 14.8831 24.3203 14.8366C24.4217 14.8176 24.5168 14.7648 24.5443 14.7246C24.633 14.638 25.4147 14.1414 25.869 13.9513C25.9979 13.8921 26.2155 13.7463 26.3782 13.6808C26.8261 13.4568 27.6585 13.2307 28.2184 13.2307C28.4276 13.2264 28.5016 13.2476 28.5544 13.3426C28.5734 13.444 28.6537 13.499 28.7277 13.5201C28.7953 13.5074 28.9432 13.5497 28.9833 13.5771C29.0573 13.5983 29.1376 13.6532 29.2052 13.6405C29.2791 13.6616 29.3531 13.6828 29.3319 13.7567C29.3446 13.8243 29.4989 13.9004 29.7482 13.9236C29.8221 13.9447 29.8623 13.9722 29.875 14.0398C29.8813 14.0736 29.9341 14.1687 29.9806 14.23C30.0271 14.2912 30.0799 14.3863 30.0525 14.4264C30.025 14.4666 30.1053 14.5215 30.2131 14.5363C30.3271 14.5849 30.38 14.68 30.3927 14.7476C30.4053 14.8152 30.4244 14.9166 30.4645 14.9441C30.511 15.0053 30.4117 15.4089 30.3103 15.4279C30.3103 15.4279 30.2828 15.4681 30.2955 15.5357C30.3145 15.6371 30.0187 16.1125 29.9173 16.1315C29.8835 16.1379 29.8286 16.2182 29.78 16.3323C29.7251 16.4126 29.6427 16.533 29.5413 16.552C29.48 16.5985 29.3236 16.6978 29.2349 16.7844C29.1124 16.8774 29.0173 16.9302 28.9835 16.9366C28.9497 16.9429 28.8271 17.0359 28.7447 17.1563C28.656 17.243 28.5335 17.3359 28.4997 17.3423C28.3982 17.3613 27.663 17.9191 27.6081 17.9994C27.5869 18.0734 27.0841 18.3777 26.9489 18.403C26.9151 18.4094 26.7587 18.5087 26.6024 18.608C26.4186 18.7474 26.2622 18.8467 26.2284 18.8531C26.1608 18.8658 26.0319 18.9249 25.8819 19.0581C25.3579 19.4363 24.8572 19.5652 24.1494 19.523C24.0416 19.5082 24.0142 19.5483 23.917 19.7765C23.8409 19.9308 23.805 20.1125 23.8177 20.1801C23.8304 20.2477 23.7945 20.4294 23.7522 20.5773C23.7036 20.6914 23.6952 20.833 23.729 20.8266C23.729 20.8266 23.6804 20.9407 23.5706 21.1013C23.4945 21.2556 23.4248 21.4436 23.4375 21.5112C23.4501 21.5788 23.4142 21.7605 23.372 21.9084C23.3297 22.0563 23.3213 22.1979 23.334 22.2655C23.3467 22.3331 23.2981 22.4472 23.2558 22.5951C23.1924 22.817 23.2453 22.912 23.4016 22.8127C23.4629 22.7663 23.5368 22.7874 23.6108 22.8085C23.6911 22.8634 23.7587 22.8507 24.5109 22.5697C24.6735 22.5042 24.8426 22.4725 24.8489 22.5063C24.8891 22.5338 24.9229 22.5274 24.9503 22.4873C25.0327 22.3668 25.7088 22.24 25.7278 22.3414C25.7469 22.4429 25.9751 22.54 26.1103 22.5147C26.2793 22.483 26.3659 22.5717 26.2709 22.6245C26.2371 22.6309 26.3512 22.6795 26.5392 22.7492C26.7209 22.7851 26.909 22.8548 26.9153 22.8886C26.9216 22.9224 27.0083 23.0112 27.1224 23.0597C27.2365 23.1083 27.3231 23.1971 27.2956 23.2372C27.302 23.271 27.3548 23.3661 27.4752 23.4485C27.5619 23.5372 27.6887 23.6534 27.7013 23.721C27.714 23.7887 27.7267 23.8563 27.7605 23.8499C27.8746 23.8985 27.8598 24.0063 27.7584 24.0253C27.657 24.0443 27.676 24.1457 27.8176 24.1542C27.8915 24.1753 27.8979 24.2091 27.8429 24.2894C27.8218 24.3633 27.8007 24.4373 27.8007 24.4373C27.826 24.5725 27.6803 24.9148 27.5915 25.0014C27.4965 25.0543 27.4352 25.1008 27.4415 25.1346C27.4204 25.2085 27.2577 25.274 26.9873 25.3247C26.5203 25.4473 26.4654 25.5276 26.5922 25.6438C26.6725 25.6987 26.645 25.7389 26.4485 25.8107C25.4597 26.1362 24.8428 26.3918 24.0357 26.7532C23.7779 26.8715 23.3786 26.9814 23.1821 27.0533L22.8102 27.123L22.8398 27.4674C22.8377 27.6428 22.8356 27.8181 22.8082 27.8583C22.7321 28.0125 22.6984 29.1387 22.785 29.2274C22.7913 29.2612 22.7977 29.295 22.7702 29.3352C22.7364 29.3415 22.7216 29.4493 22.747 29.5845C22.766 29.6859 22.7512 29.7937 22.7576 29.8275C22.7301 29.8676 22.6942 30.0493 22.6921 30.2247C22.6752 30.5078 22.6731 30.6832 22.7893 31.6762C22.821 31.8452 22.8189 32.0206 22.7915 32.0608C22.7703 32.1347 22.7619 32.2763 22.8147 32.3714L22.8929 32.6016L23.2922 32.4918C23.4887 32.4199 24.0169 32.2509 24.3761 32.1135C24.7628 31.936 25.1896 31.786 25.2846 31.7331C25.4199 31.7078 25.5825 31.6423 25.6776 31.5894C25.7727 31.5366 26.0917 31.3718 26.4171 31.2408C26.7425 31.1098 27.0678 30.9788 27.1291 30.9323C27.1904 30.8858 27.3193 30.8266 27.4207 30.8076C27.4883 30.7949 27.6172 30.7357 27.6446 30.6956C27.7059 30.6491 27.8686 30.5836 28.0313 30.5181C28.1876 30.4188 28.5468 30.2814 28.8046 30.1631C29.0687 30.0786 29.449 29.8673 29.7067 29.7489C29.9307 29.6369 30.2561 29.5059 30.4188 29.4404C30.5815 29.3749 30.8054 29.2629 30.928 29.1699C31.1794 29.0178 31.4498 28.9671 31.509 29.096C31.547 29.2988 31.5534 29.3326 31.6548 29.3136C31.7224 29.3009 31.7625 29.3284 31.7351 29.3685C31.7604 29.5037 31.8069 29.565 31.9696 29.4995C32.0985 29.4403 32.1724 29.4615 32.3267 29.5375C32.407 29.5924 32.4936 29.6812 32.5 29.715C32.5063 29.7488 32.5866 29.8037 32.6943 29.8185C32.8359 29.8269 32.8486 29.8946 32.8866 30.0974ZM57.8751 7.49349C57.8011 7.47236 57.7335 7.48504 57.7398 7.51885C57.7525 7.58646 57.7863 7.58012 57.8201 7.57378C57.8539 7.56744 57.9004 7.62871 57.9131 7.69632C57.9258 7.76393 57.9047 7.83788 57.8708 7.84422C57.837 7.85056 57.8561 7.95198 57.8751 8.05339C57.9343 8.18228 57.9871 8.27735 57.9934 8.31116C57.9998 8.34496 57.9998 8.34496 57.966 8.3513C57.8582 8.33652 57.6723 8.65135 57.6976 8.78657C57.7103 8.85418 57.6829 8.89432 57.6491 8.90066C57.6152 8.907 57.5054 9.06759 57.4631 9.21549C57.3871 9.36973 57.2772 9.53032 57.2223 9.61061C57.161 9.65709 57.1399 9.73104 57.18 9.75851C57.273 9.88105 56.8378 10.1726 56.4659 10.2424C56.2631 10.2804 56.0603 10.3185 56.0729 10.3861C56.0455 10.4262 55.9779 10.4389 55.9102 10.4516C55.8426 10.4643 55.7201 10.5572 55.625 10.6101C55.5701 10.6904 55.2785 10.815 54.9743 10.8721C54.6764 10.963 54.3785 11.0538 54.351 11.094C54.2961 11.1743 53.9643 11.2715 53.5988 11.375C53.1995 11.4849 52.8403 11.6223 52.7791 11.6688C52.7178 11.7152 52.5889 11.7744 52.4875 11.7934C52.3861 11.8125 52.2572 11.8716 52.2297 11.9118C52.2023 11.9519 52.1072 12.0047 52.0121 12.0576C51.8769 12.0829 51.7142 12.1484 51.6255 12.2351C51.5304 12.2879 51.4353 12.3407 51.4015 12.3471C51.3677 12.3534 51.2452 12.4464 51.1564 12.533C50.9726 12.6725 50.924 12.7866 50.8797 13.1098C50.8839 13.319 50.8205 13.5409 50.7931 13.581C50.7994 13.6148 50.791 13.7564 50.8227 13.9254C50.8797 14.2297 50.8142 14.6269 50.7466 14.6396C50.7128 14.6459 50.6917 14.7198 50.7107 14.8213C50.7424 14.9903 50.7108 15.3812 50.6051 15.7509C50.5629 15.8988 50.5397 16.1481 50.5312 16.2897C50.5566 16.4249 50.5481 16.5665 50.4869 16.613C50.4256 16.6595 50.3897 16.8412 50.4214 17.0102C50.4193 17.1856 50.3897 17.4011 50.3411 17.5152C50.32 17.5891 50.3115 17.7307 50.3306 17.8321C50.3496 17.9335 50.3285 18.0075 50.2947 18.0138C50.227 18.0265 50.2102 18.3096 50.1679 19.0174C50.1975 19.3618 50.1405 19.6175 50.0771 19.8393C50.056 19.9133 50.0476 20.0549 50.0666 20.1563C50.0856 20.2577 50.0835 20.4331 50.0286 20.5133C50.0138 20.6211 49.999 20.7289 50.0455 20.7901C50.0582 20.8577 50.0561 21.0331 49.9927 21.255C49.8997 21.6923 49.8765 21.9416 49.9167 22.529C49.9336 22.8058 49.9167 23.0889 49.8681 23.203C49.8533 23.3108 49.8703 23.5876 49.8745 23.7967C49.9125 23.9996 49.9231 24.2425 49.8682 24.3228C49.8471 24.3968 49.864 24.6736 49.8809 24.9504C49.8957 25.4025 49.9676 26.7188 50.0142 27.8999C50.029 28.3521 50.0522 28.6626 50.1051 29.3176C50.1431 29.5205 50.1199 29.7698 50.1051 29.8775C50.0903 29.9853 50.1601 30.3572 50.2573 30.6889C50.4115 31.3248 50.3777 31.3312 50.2679 31.4918C50.1791 31.5784 50.1369 31.7263 50.1496 31.7939C50.1749 31.9291 50.1137 31.9756 49.9531 31.8658C49.8728 31.8108 49.8791 31.8446 49.858 31.9186C49.8158 32.0665 49.6129 32.1045 49.4862 31.9883C49.446 31.9609 49.2981 31.9186 49.2305 31.9313C49.1291 31.9503 49.0213 31.9355 48.941 31.8806C48.8945 31.8193 48.8607 31.8257 48.8333 31.8658C48.8586 32.001 48.7171 31.9926 48.5903 31.8764C48.5375 31.7813 48.4297 31.7665 48.4022 31.8067C48.3346 31.8194 48.2607 31.7982 48.1614 31.6419C48.0684 31.5193 47.9543 31.4708 47.9268 31.5109C47.8592 31.5236 47.8191 31.4961 47.8064 31.4285C47.7874 31.3271 47.6944 31.2045 47.6141 31.1496C47.407 30.9785 47.1957 30.5982 47.0056 30.1439C46.94 29.9812 46.8344 29.7911 46.7541 29.7362C46.6738 29.6812 46.5407 29.5312 46.4815 29.4023C46.304 29.0157 46.0039 27.0423 45.9066 25.5908C45.9278 25.5168 45.9108 25.24 45.9003 24.997C45.8559 24.7604 45.839 24.4836 45.8601 24.4097C45.877 24.1266 45.8262 23.2962 45.7522 22.7152C45.6994 22.0602 45.7226 21.8109 45.7331 20.3741C45.7584 18.8296 45.7943 18.088 45.8365 17.9401C45.8576 17.8661 45.8661 17.7246 45.8471 17.6232C45.8027 17.3865 45.8491 16.328 45.9568 15.7829C45.9864 15.5673 46.016 15.3518 45.9822 15.3582C45.942 15.3307 45.4244 15.7427 45.3145 15.9033C45.061 16.2308 43.9454 16.4401 43.3602 16.3049C42.9967 16.2331 41.7522 15.3816 41.6402 15.1577C41.5874 15.0626 41.5409 15.0013 41.5071 15.0077C41.4057 15.0267 41.2409 14.7077 40.6809 13.5879C40.5753 13.3977 40.4759 13.2414 40.402 13.2202C40.3618 13.1928 40.2562 13.0026 40.1843 12.8061C40.028 12.3455 40.1315 12.1511 40.5308 12.0413C40.7949 11.9567 41.1414 11.7518 41.5766 11.4602C41.6992 11.3672 41.9443 11.1813 42.1006 11.0819C42.2908 10.9763 42.4746 10.8368 42.5633 10.7502C42.9584 10.4311 44.9212 9.32812 45.6396 9.05341C45.836 8.98156 46.0938 8.86323 46.1614 8.85055C46.2565 8.79772 46.3516 8.7449 46.3854 8.73855C46.4192 8.73221 46.5481 8.67305 46.677 8.61388C46.7995 8.52091 46.996 8.44906 47.1587 8.38355C47.2939 8.35819 47.4904 8.28635 47.5517 8.23986C47.6404 8.15323 47.8707 8.07504 48.0735 8.037C48.27 7.96515 48.4665 7.8933 48.5341 7.88062C48.5616 7.84048 48.7919 7.76229 48.9947 7.72425C49.7596 7.51081 50.6469 7.2044 50.816 7.1727C50.8772 7.12621 51.3442 7.00364 51.8513 6.90853C52.3182 6.78597 52.7577 6.70354 52.7851 6.6634C52.8126 6.62325 54.9487 6.25761 55.0564 6.2724C55.1304 6.29352 55.3396 6.28929 55.5424 6.25125C55.7114 6.21954 55.9206 6.21531 55.9607 6.24277C55.9945 6.23643 56.2037 6.23219 56.3727 6.20049C56.5756 6.16245 56.9263 6.16666 57.1418 6.19623C57.3573 6.2258 57.539 6.26171 57.539 6.26171C57.5729 6.25537 57.5982 6.39059 57.6299 6.55961C57.6616 6.72864 57.7271 6.89133 57.7673 6.91879C57.8138 6.98006 57.8264 7.04767 57.7715 7.12797C57.7293 7.27587 57.7356 7.30968 57.856 7.39207C57.9828 7.50827 57.9828 7.50827 57.8751 7.49349ZM61.9557 6.09824C62.0783 6.00527 62.1459 5.99259 62.3001 6.06864C62.3804 6.12358 62.4882 6.13836 62.5896 6.11934C62.7248 6.09398 62.7987 6.1151 62.8917 6.23764C62.9847 6.36018 63.1727 6.4299 63.3544 6.46581C63.5362 6.50172 63.7982 6.59256 63.9249 6.70876C64.2799 6.92214 64.6814 7.19679 64.694 7.2644C64.694 7.2644 64.7807 7.35314 64.8673 7.44187C65.0279 7.55173 65.1673 7.73554 65.311 8.12853C65.3639 8.2236 65.4104 8.28488 65.478 8.2722C65.5456 8.25951 65.666 8.34191 65.7463 8.39684C65.7991 8.49191 66.0062 8.66305 66.1393 8.81305C66.5661 9.22293 66.7774 9.60323 66.9803 10.1251C67.0648 10.3892 67.1895 10.6808 67.2423 10.7758C67.3945 11.0273 67.5445 12.014 67.6037 12.7028C67.5868 12.9859 67.6101 13.2965 67.6291 13.3979C67.6545 13.5331 67.6397 13.6409 67.646 13.6747C67.6186 13.7148 67.6292 13.9578 67.6672 14.1606C67.7116 14.3973 67.701 14.7142 67.6651 14.8959C67.663 15.0713 67.6609 15.2466 67.6673 15.2804C67.7137 15.3417 67.7053 15.4833 67.6905 15.591C67.5976 16.0284 67.5511 16.527 67.6039 16.6221C67.6504 16.6834 67.6335 16.9665 67.604 17.182C67.5807 17.4313 67.604 17.7419 67.623 17.8433C67.6484 17.9786 67.6505 18.3631 67.6526 18.7476C67.6146 19.1047 67.6231 19.5231 67.621 19.6984C67.6506 20.6027 67.6612 20.8457 67.5725 20.9324C67.5175 21.0126 67.5239 21.0464 67.5894 21.2091C67.676 21.2979 67.695 21.3993 67.6464 21.5134C67.5979 21.6275 67.6359 21.8303 67.6676 21.9993C67.7394 22.1958 67.731 22.3374 67.7099 22.4113C67.6275 22.5318 67.6423 22.9839 67.748 23.734C67.7987 24.0044 67.841 24.4164 67.8516 24.6594C67.8917 25.2468 68.1982 26.6941 68.3609 27.1885C68.4644 27.554 68.6927 28.771 68.6441 28.8851C68.6504 28.9189 68.6293 28.9929 68.6145 29.1006C68.6336 29.202 68.5786 29.2823 68.5385 29.2549C68.4983 29.2274 68.3969 29.2464 68.3631 29.2528C68.2955 29.2654 68.1877 29.2507 68.1074 29.1957C67.9131 29.0922 67.8116 29.1112 67.837 29.2464C67.8835 29.3077 67.8687 29.4155 67.8412 29.4556C67.8201 29.5296 67.7863 29.5359 67.5856 29.3986C67.4651 29.3162 67.3109 29.2401 67.2433 29.2528C67.1757 29.2655 67.0003 29.2634 66.8186 29.2275C66.5693 29.2043 66.5291 29.1768 66.3833 28.9592C66.3178 28.7965 65.9924 28.3676 65.7072 27.9662C65.348 27.5436 65.1367 27.1633 65.0648 26.9668C64.9993 26.8041 64.9275 26.6076 64.881 26.5464C64.8281 26.4513 64.7436 26.1872 64.6929 25.9167C64.6147 25.6864 64.5112 25.3209 64.4393 25.1244C64.4076 24.9554 64.2724 24.4209 64.1899 23.9814C64.1413 23.5356 64.0251 23.1024 64.0187 23.0686C63.9596 22.9398 63.8244 22.9651 63.742 23.0856C63.5772 23.3264 62.7891 23.7892 62.6349 23.7131C62.601 23.7195 62.5672 23.7258 62.5461 23.7998C62.5525 23.8336 62.3285 23.9456 62.0982 24.0238C61.8404 24.1421 61.6503 24.2477 61.6228 24.2879C61.5954 24.328 61.5003 24.3809 61.3989 24.3999C61.196 24.4379 60.8897 24.6703 60.7925 24.8985C60.7228 25.0866 60.6468 25.8007 60.5855 26.4071C60.5454 26.9396 60.4863 27.3706 60.444 27.5185C60.3891 27.5988 60.4018 27.6664 60.4018 27.6664C60.4419 27.6939 60.3722 28.4418 60.3152 28.6975C60.2877 28.7376 60.2856 28.913 60.2835 29.0884C60.2814 29.2637 60.2392 29.4116 60.1568 29.5321C60.0469 29.6927 60.0321 29.8004 60.0575 29.9356C60.0828 30.0709 60.0554 30.111 59.9878 30.1237C59.9202 30.1364 59.8927 30.1765 59.899 30.2103C59.9181 30.3117 59.6814 30.3561 59.3645 30.3456C59.075 30.2949 59.0074 30.3076 58.9863 30.3815C58.9314 30.4618 58.9314 30.4618 58.8912 30.4343C58.8785 30.3667 58.7708 30.3519 58.7032 30.3646C58.6017 30.3836 58.5616 30.3562 58.5489 30.2886C58.5362 30.221 58.4496 30.1322 58.3419 30.1174C58.2341 30.1027 58.1601 30.0815 58.1538 30.0477C58.1475 30.0139 58.046 30.0329 57.9108 30.0583C57.6404 30.109 57.5537 30.0203 57.5094 29.7836C57.4439 29.621 57.0318 29.1033 56.9706 29.1498C56.9367 29.1562 56.8966 29.1287 56.8501 29.0674C56.8374 28.9998 56.7191 28.742 56.567 28.4906C56.343 28.0427 56.3303 27.9751 56.2183 27.1912C56.0872 26.306 56.0872 26.306 55.6013 26.3271C55.4661 26.3525 55.2505 26.3229 55.109 26.3145C54.9674 26.306 54.6505 26.2955 54.4075 26.306C54.1244 26.2892 53.9025 26.2258 53.7821 26.1434C53.5814 26.0061 53.1186 25.7779 52.7362 25.6047C52.5481 25.5349 52.4214 25.4187 52.4023 25.3173C52.3495 25.2222 52.1699 25.011 52.003 24.8673C51.7959 24.6962 51.61 24.4511 51.5508 24.3222C51.4916 24.1933 51.3923 24.037 51.3522 24.0095C51.1515 23.8722 51.1261 23.1771 51.3099 23.0376C51.4261 22.9108 52.286 22.6446 52.4276 22.653C52.4614 22.6467 52.5079 22.7079 52.5205 22.7755C52.5332 22.8432 52.5797 22.9044 52.66 22.9594C52.7678 22.9741 52.8142 23.0354 52.8142 23.0354C52.8206 23.0692 52.7931 23.1094 52.6917 23.1284C52.5227 23.1601 52.6009 23.3904 52.8016 23.5277C52.9685 23.6714 53.0023 23.665 53.4693 23.5425C54.2679 23.3227 55.2504 22.9634 55.8335 22.7141C56.349 22.4774 56.5265 22.3042 56.4885 22.1013C56.4758 22.0337 56.4906 21.926 56.5518 21.8795C56.5793 21.8393 56.6004 21.7654 56.6004 21.7654C56.5138 21.6767 56.7504 20.5125 56.8729 20.4195C56.9004 20.3793 56.894 20.3455 56.8877 20.3117C56.8475 20.2843 56.8835 20.1025 56.9468 19.8807C57.0165 19.6926 57.1222 19.3229 57.1517 19.1074C57.1834 18.7165 57.2806 18.4883 57.4116 18.2538C57.4327 18.1798 57.4411 18.0383 57.4623 17.9643C57.4433 17.8629 57.4918 17.7488 57.513 17.6748C57.5679 17.5945 57.589 17.5206 57.5763 17.453C57.5637 17.3854 57.6122 17.2713 57.6672 17.191C57.7158 17.0769 57.7306 16.9691 57.7306 16.9691C57.7052 16.8339 58.4002 14.5689 58.6009 14.1463C58.6432 13.9984 58.7065 13.7765 58.7277 13.7026C58.7488 13.6286 58.7636 13.5209 58.791 13.4807C58.8946 13.2864 59.3931 11.6531 59.4015 11.5115C59.3635 11.3087 59.5452 10.7847 59.7649 10.4635C59.8684 10.2691 60.0142 9.92685 60.1177 9.73246C60.1874 9.54441 60.3332 9.20212 60.4304 8.97392C60.5339 8.77954 60.6522 8.47739 60.6945 8.32949C60.7916 8.10129 61.062 7.49066 61.2902 7.02794C61.4487 6.75326 61.8606 6.15107 61.9557 6.09824ZM63.5345 15.6356C63.4584 15.23 63.4098 15.344 63.1289 16.2716C63.0866 16.4195 62.9683 16.7217 62.8986 16.9097C62.7951 17.1041 62.7317 17.3259 62.7381 17.3598C62.7444 17.3936 62.6895 17.4739 62.6345 17.5541C62.6134 17.6281 62.5712 17.776 62.5627 17.9176C62.5543 18.0591 62.5458 18.2007 62.4846 18.2472C62.3958 18.3338 62.2479 18.8515 62.2733 18.9867C62.2797 19.0205 62.2374 19.1684 62.1888 19.2825C62.0304 19.5572 62.0388 19.9755 62.1741 19.9501C62.2079 19.9438 62.472 19.8593 62.7361 19.7748C62.9664 19.6966 63.2643 19.6057 63.3657 19.5867C63.427 19.5402 63.5284 19.5212 63.5558 19.481C63.5833 19.4409 63.5875 19.0901 63.5854 18.7056C63.5494 18.3274 63.5621 17.8351 63.5515 17.5921C63.5747 17.3428 63.5726 16.9583 63.562 16.7153C63.5578 16.5061 63.5409 16.2293 63.5493 16.0878C63.5641 15.98 63.5599 15.7708 63.5345 15.6356ZM70.4878 3.55316C70.5428 3.47287 70.678 3.4475 71.1576 3.39254C71.4682 3.36929 71.8464 3.33335 71.9478 3.31433C72.1507 3.27628 72.8035 3.3988 73.6233 3.66498C73.8853 3.75581 74.1199 3.8868 74.2931 4.06427C74.4263 4.21428 74.627 4.3516 74.7347 4.36639C74.9164 4.4023 74.9629 4.46357 75.3771 5.36574C75.4954 5.6235 75.5208 5.75872 75.4891 6.1496C75.4934 6.35878 75.4363 6.61444 75.4025 6.62078C75.3751 6.66092 75.3603 6.76868 75.373 6.83629C75.4364 7.17434 75.4427 7.76806 75.3878 7.84835C75.3603 7.8885 75.3519 8.03006 75.3709 8.13147C75.3963 8.2667 75.3878 8.40826 75.3604 8.4484C75.3329 8.48855 75.2949 8.84563 75.2907 9.19636C75.2928 9.5809 75.2886 9.93164 75.2611 9.97178C75.1999 10.0183 75.1619 10.9353 75.164 11.3198C75.1619 11.4952 75.1957 11.4888 75.3119 11.362C75.3732 11.3156 75.4492 11.1613 75.5316 11.0409C75.5802 10.9268 75.7239 10.7599 75.8401 10.6331C75.9901 10.5 76.2035 10.145 76.3281 9.87665C76.4866 9.60197 76.6936 9.21319 76.7908 8.985C77.019 8.52227 77.657 7.07281 77.7964 6.69672C77.8386 6.54881 77.9147 6.39457 77.9485 6.38823C78.0098 6.34174 78.0309 6.26779 78.0246 6.23399C78.0182 6.20018 78.0393 6.12623 78.0943 6.04594C78.1154 5.97199 78.2189 5.7776 78.2485 5.56209C78.4745 4.71482 78.4682 4.68101 78.6372 4.64931C78.7386 4.63029 78.9203 4.6662 79.0682 4.70845C79.2499 4.74436 79.5056 4.80139 79.6408 4.77603C79.85 4.77179 79.9578 4.78658 80.0444 4.87531C80.1712 4.99151 80.5135 5.13729 81.3797 5.46473C81.5678 5.53445 81.8425 5.6929 81.9354 5.81544C82.1151 6.02672 82.1953 6.08165 82.5165 6.30137C82.6771 6.41123 82.6834 6.44503 82.7003 6.72182C82.7046 6.93099 82.7299 7.06621 82.7701 7.09368C82.918 7.13593 82.8715 7.63457 82.6434 8.09729C82.5187 8.36563 82.4004 8.66778 82.3856 8.77554C82.337 8.88963 82.261 9.04388 82.1723 9.13051C82.1173 9.2108 82.0413 9.36504 81.9927 9.47914C81.9378 9.55943 81.8892 9.67353 81.8216 9.68621C81.7877 9.69255 81.7539 9.69889 81.7603 9.73269C81.773 9.8003 81.3441 10.6856 81.2406 10.88C81.2131 10.9202 81.1371 11.0744 81.0547 11.1948C81.0124 11.3427 80.8751 11.5435 80.7864 11.6301C80.704 11.7505 80.6216 11.871 80.6279 11.9048C80.6342 11.9386 80.5857 12.0527 80.5307 12.133C80.442 12.2196 80.3321 12.3802 80.2561 12.5344C79.9392 13.0838 78.2321 15.3637 78.1307 15.3827C78.0631 15.3954 78.0356 15.4355 78.0419 15.4693C78.0483 15.5031 77.987 15.5496 77.9469 15.5221C77.9131 15.5285 77.7081 15.7419 77.537 15.9489C77.3384 16.1962 77.1271 16.3758 77.0257 16.3948C76.9581 16.4075 76.8017 16.5068 76.6855 16.6336C76.5693 16.7603 76.4193 16.8935 76.3517 16.9061C76.2778 16.885 76.1552 16.978 76.1003 17.0583C76.0116 17.1449 75.8827 17.2041 75.7813 17.2231C75.7137 17.2358 75.6249 17.3224 75.5637 17.3689C75.5087 17.4492 75.3798 17.5084 75.3122 17.521C75.2446 17.5337 75.1897 17.614 75.196 17.6478C75.1939 17.8232 77.3111 19.0359 77.9893 19.2936C78.1774 19.3633 78.4056 19.4605 78.5197 19.5091C79.8276 20.1386 80.3917 20.3478 80.7361 20.3182C80.9115 20.3203 81.127 20.3499 81.2347 20.3646C81.3425 20.3794 81.484 20.3879 81.7418 20.2695C82.2299 20.073 82.6017 20.0033 82.7222 20.0857C82.7687 20.1469 82.8088 20.1744 82.8426 20.1681C82.8764 20.1617 82.9968 20.2441 83.1173 20.3265C83.2039 20.4152 83.3582 20.4913 83.4596 20.4723C83.6688 20.468 83.7681 20.6244 83.5652 20.6624C83.43 20.6878 83.4955 20.8505 83.7427 21.0491C83.9498 21.2202 83.9752 21.3554 83.8125 21.4209C83.7512 21.4674 83.7575 21.5012 83.8716 21.5498C83.9921 21.6322 83.9921 21.6322 83.8822 21.7928C83.7935 21.8794 83.7449 21.9935 83.7512 22.0273C83.7639 22.0949 83.709 22.1752 83.6076 22.1943C83.54 22.2069 83.5188 22.2809 83.5252 22.3147C83.578 22.4098 83.354 22.5218 83.1385 22.4922C83.0371 22.5112 83.0033 22.5176 83.0096 22.5514C83.016 22.5852 82.9547 22.6317 82.8533 22.6507C82.7519 22.6697 82.6906 22.7162 82.6631 22.7563C82.642 22.8303 82.5744 22.843 82.3652 22.8472C82.2237 22.8387 81.9131 22.862 81.7103 22.9C81.5074 22.9381 81.2644 22.9487 81.1905 22.9275C80.658 22.8874 79.515 22.5769 78.9043 22.3065C78.7438 22.1966 78.4818 22.1058 78.3677 22.0572C77.4338 21.7424 75.8702 21.0558 75.4688 20.7812C75.3483 20.6988 75.2342 20.6502 75.2004 20.6565C75.1666 20.6629 75.1772 20.9058 75.1941 21.1826C75.2174 21.4932 75.2575 22.0806 75.3062 22.5264C75.3548 23.5321 75.4943 24.8358 75.7014 26.1267C75.8198 26.9444 75.8114 27.0859 75.7437 27.0986C75.6761 27.1113 75.6487 27.1514 75.6614 27.219C75.674 27.2867 75.3867 27.6205 75.2853 27.6395C75.2515 27.6459 75.1902 27.6924 75.1966 27.7262C75.1881 27.8677 74.7085 27.9227 74.5078 27.7854C74.3535 27.7093 74.2859 27.722 74.2246 27.7685C74.1697 27.8488 74.062 27.834 73.7197 27.6882C73.2569 27.46 72.9358 27.2403 72.5491 26.8579C72.3885 26.7481 72.2681 26.6657 72.2005 26.6783C72.173 26.7185 72.1328 26.691 72.1202 26.6234C72.1138 26.5896 72.0145 26.4333 71.9215 26.3107C71.8222 26.1544 71.7631 26.0255 71.7969 26.0191C71.7905 25.9853 71.7778 25.9177 71.7039 25.8966C71.5771 25.7804 71.406 25.4276 71.2052 24.7303C71.0953 24.331 70.9748 23.6887 70.7825 22.29C70.5225 20.3441 70.4739 19.8983 70.4887 19.2306C70.4844 19.0214 70.4865 18.846 70.4464 18.8186C70.44 18.7848 70.4295 18.5418 70.4062 18.2312C70.3787 17.7114 70.3724 17.6776 70.2118 17.5678C70.0913 17.4854 70.0047 17.3966 70.0047 17.3966C69.9984 17.3628 69.9181 17.3079 69.8505 17.3206C69.7427 17.3058 69.6561 17.2171 69.6096 17.1558C69.5969 17.0882 69.5103 16.9995 69.4765 17.0058C69.4363 16.9783 69.2969 16.7945 69.1173 16.5832C68.851 16.2832 68.832 16.1818 68.8531 16.1079C68.9017 15.9938 68.9693 15.9811 69.2799 15.9578C69.7321 15.943 70.2117 15.8881 70.273 15.8416C70.2666 15.8078 70.2899 15.5584 70.2729 15.2817C70.2877 14.614 70.3129 12.5096 70.3319 12.0511C70.334 11.8757 70.3509 11.5926 70.3467 11.3834C70.3763 11.1679 70.3657 10.9249 70.3741 10.7834C70.3889 10.6756 70.41 10.0418 70.4374 9.4417C70.4649 8.84165 70.5134 8.16764 70.5092 7.95847C70.505 7.7493 70.5599 7.1091 70.5873 6.50905C70.6865 4.42576 70.6738 4.35815 70.5703 3.99263C70.4519 3.73486 70.4667 3.62711 70.4878 3.55316ZM31.9457 36.8127C32.5415 36.631 33.4606 36.4936 33.8177 36.5316C34.0268 36.5273 34.2423 36.5569 34.31 36.5442C34.4114 36.5252 34.5255 36.5738 34.6332 36.5886C34.7135 36.6435 35.003 36.6942 35.2586 36.7512C35.5418 36.7681 35.8777 36.8801 36.0256 36.9223C36.1735 36.9646 36.3214 37.0068 36.4228 36.9878C36.5581 36.9625 37.7392 37.4758 38.0942 37.6892C39.419 38.5956 39.8056 38.978 40.2135 39.8463C40.4966 40.4231 40.5347 40.626 40.4586 41.3401C40.3615 42.1282 40.0847 42.705 39.3981 43.7087C38.8213 44.5517 38.6502 44.7588 38.2551 45.0779C38.0988 45.1772 37.9826 45.304 37.9889 45.3378C38.0755 45.4265 37.7882 45.7604 37.2642 46.1386C37.1692 46.1914 36.998 46.3985 36.8882 46.5591L36.6621 46.8464L36.9474 47.2479C37.1206 47.4253 37.2728 47.6767 37.3193 47.738C37.3319 47.8056 37.3848 47.9007 37.4376 47.9958C37.5242 48.0845 37.5432 48.1859 37.6511 49.3205C37.6891 49.5234 37.687 49.6987 37.6595 49.7389C37.6321 49.779 37.6173 49.8868 37.63 49.9544C37.6426 50.022 37.5983 50.3453 37.5603 50.7023C37.4885 51.0658 37.4504 51.4228 37.4695 51.5243C37.4885 51.6257 37.4864 51.801 37.4441 51.9489C37.4357 52.0905 37.4125 52.3398 37.4378 52.475C37.5033 52.6377 37.4801 52.8871 37.4505 53.1026C37.4146 53.2843 37.4189 53.4934 37.4252 53.5273C37.4653 53.5547 37.4506 53.6625 37.4231 53.7026C37.3132 53.8632 37.3323 53.9646 37.4337 53.9456C37.5013 53.9329 37.3471 54.4168 37.1189 54.8795C36.8844 55.3084 36.8844 55.3084 37.0112 55.4246C37.0577 55.4859 36.9816 55.6401 36.7682 55.9951C36.576 56.2761 36.445 56.5107 36.4851 56.5381C36.4851 56.5381 36.3879 56.7663 36.257 57.0009C36.071 57.3157 36.0563 57.4234 36.1239 57.4108C36.1978 57.4319 36.238 57.4593 36.2168 57.5333C36.2021 57.6411 35.8725 58.1228 35.7711 58.1418C35.7373 58.1482 35.7373 58.1482 35.7499 58.2158C35.7563 58.2496 35.7077 58.3637 35.6253 58.4841C35.5767 58.5982 35.5345 58.7461 35.5471 58.8137C35.5852 59.0166 34.007 60.6774 33.7027 60.7344C33.6351 60.7471 33.5062 60.8063 33.4175 60.8929C33.3562 60.9394 33.0921 61.0239 32.9231 61.0556C32.7202 61.0937 32.4773 61.1042 32.3695 61.0894C32.2554 61.0409 32.08 61.0388 31.9448 61.0641C31.742 61.1022 31.5666 61.1001 31.049 60.9522C30.975 60.9311 30.7806 60.8275 30.6264 60.7515C30.5059 60.6691 30.3517 60.593 30.3116 60.5656C30.0897 60.5022 29.4558 59.9212 29.3438 59.6972C29.1727 59.3444 28.8811 58.9092 28.8134 58.9218C28.6782 58.9472 28.4817 58.4591 27.8076 56.7308C27.6766 56.4055 27.3807 54.6412 27.3215 53.9525C27.3321 53.6355 27.3025 53.2911 27.2771 53.1559C27.2538 52.8453 27.2136 51.1381 27.2284 50.4705C27.2368 49.769 27.2199 49.4922 27.3254 47.4427C27.3824 46.6272 27.393 46.3102 27.319 46.2891C27.2852 46.2955 27.2176 46.3081 27.1901 46.3483C27.1352 46.4286 27.095 46.4011 27.0021 46.2786C26.9429 46.1497 26.8626 46.0948 26.8288 46.1011C26.7274 46.1201 26.4252 46.0018 26.4189 45.968C26.4126 45.9342 26.3788 45.9405 26.345 45.9469C26.2773 45.9596 26.1632 45.911 26.083 45.856C26.0027 45.8011 25.8484 45.7251 25.7745 45.7039C25.4787 45.6194 25.2251 44.8271 25.1764 43.8214C25.1532 43.5108 25.1701 43.2277 25.1574 43.1601C25.1785 43.0861 25.2292 42.7967 25.2524 42.5473C25.3411 41.9008 25.5714 41.2627 25.9221 40.707C26.1841 40.2379 26.9975 39.3505 27.4538 38.9849C27.5764 38.892 27.7264 38.7589 27.7877 38.7124C27.8426 38.6321 28.094 38.4799 28.3454 38.3278C28.5631 38.182 28.8081 37.9961 28.8758 37.9834C28.992 37.8566 29.7652 37.5016 30.3209 37.2924C30.585 37.2079 30.9843 37.098 31.2548 37.0473C31.5252 36.9965 31.7555 36.9183 31.7555 36.9183C31.7492 36.8845 31.8443 36.8317 31.9457 36.8127ZM35.506 39.1895C35.5081 39.0141 35.5081 39.0141 35.2714 39.0585C34.6693 39.2064 33.0762 39.8552 32.7699 40.0876C32.7086 40.1341 32.6473 40.1806 32.5797 40.1932C32.5459 40.1996 32.4846 40.2461 32.4635 40.32C32.4699 40.3538 32.4149 40.4341 32.3473 40.4468C32.286 40.4933 32.2438 40.6412 32.267 40.9518C32.2776 41.1947 32.2481 41.4103 32.2206 41.4504C32.1868 41.4567 32.172 41.5645 32.1847 41.6321C32.1974 41.6997 32.2164 41.8011 32.1826 41.8075C32.1276 41.8878 32.0643 42.6695 32.1066 43.0815C32.1319 43.2168 32.1003 43.6076 32.0496 43.8971C32.0052 44.2204 31.9672 44.5775 31.9926 44.7127C32.037 44.9493 32.0031 44.9557 32.8314 45.0803C32.9392 45.0951 33.5054 44.5689 33.8476 44.1548C34.3948 43.5272 34.5998 43.3138 34.7012 43.2948C34.735 43.2885 34.7963 43.242 34.7836 43.1744C34.7772 43.1406 34.8533 42.9863 34.942 42.8997C35.2843 42.4855 36.0744 41.2875 36.2963 40.791C36.5118 40.2606 36.6047 39.8233 36.5624 39.4113C36.5244 39.2084 36.518 39.1746 36.3427 39.1725C36.2349 39.1577 35.9983 39.2021 35.8292 39.2338L35.4975 39.331L35.506 39.1895ZM34.9275 48.6065C34.8747 48.5115 34.8346 48.484 34.8346 48.484C34.8008 48.4903 34.6169 48.6298 34.4057 48.8094C34.1944 48.989 33.9768 49.1348 33.9366 49.1073C33.9028 49.1137 33.8077 49.1665 33.7528 49.2468C33.6979 49.3271 33.5753 49.42 33.5077 49.4327C33.2098 49.5236 33.026 49.6631 32.6373 50.0159C32.4323 50.2293 32.2337 50.4765 32.1788 50.5568C32.164 50.6646 32.014 50.7977 31.864 50.9308C31.714 51.064 31.5978 51.1907 31.6105 51.2583C31.6464 51.6365 31.5958 52.4859 31.581 52.5937C31.5535 52.6338 31.5451 52.7754 31.5577 52.843C31.5768 52.9444 31.5683 53.086 31.5261 53.2339C31.5176 53.3754 31.5007 53.6586 31.5388 53.8614C31.543 54.0706 31.5409 54.2459 31.5071 54.2523C31.4796 54.2924 31.505 54.4276 31.5705 54.5903C31.6022 54.7594 31.6403 54.9622 31.6191 55.0361C31.5642 55.1164 31.5769 55.184 31.617 55.2115C31.691 55.2326 31.7206 55.577 31.6488 55.9404C31.6255 56.1898 31.6847 56.3186 31.841 56.2193C31.8748 56.213 32.1284 55.8855 32.3756 55.5242C32.6565 55.1565 33.0136 54.6346 33.1784 54.3937C33.3432 54.1529 33.6453 53.7113 33.8312 53.3964C34.0171 53.0816 34.1967 52.733 34.2516 52.6527C34.3066 52.5724 34.3552 52.4583 34.3552 52.4583C34.3488 52.4245 34.4185 52.2364 34.522 52.0421C34.8347 51.2835 35.1156 49.7961 35.0396 49.3904C35.0269 49.3228 35.0818 49.2425 35.1093 49.2023C35.1642 49.1221 35.1642 49.1221 35.1241 49.0946C35.0839 49.0671 35.0311 48.972 35.0184 48.9044C34.9994 48.803 34.9402 48.6741 34.9275 48.6065ZM47.4542 34.4289C47.4753 34.355 47.6507 34.3571 47.9402 34.4078C48.0881 34.45 48.5804 34.4627 48.6818 34.4437C48.7093 34.4035 48.7494 34.431 48.8234 34.4521C48.9037 34.507 48.9713 34.4943 49.1276 34.395C49.3178 34.2894 49.3178 34.2894 49.6453 34.5429C50.0467 34.8176 50.4228 34.957 50.5918 34.9253C50.6595 34.9126 50.7398 34.9675 50.7862 35.0288C50.8391 35.1239 50.9468 35.1387 51.0144 35.126C51.0482 35.1196 51.2828 35.2506 51.5173 35.3816C51.8321 35.5675 51.9188 35.6563 51.904 35.764C51.8892 35.8718 51.942 35.9669 52.0287 36.0556C52.1554 36.1718 52.2273 36.3683 52.4217 37.0317C52.4872 37.1944 52.5252 37.3972 52.5717 37.4585C52.5844 37.5261 52.595 37.7691 52.5253 37.9571C52.4957 38.1727 52.4323 38.3945 52.4387 38.4283C52.4514 38.4959 52.4218 38.7114 52.3309 38.9734C52.2739 39.2291 52.2296 39.5524 52.2549 39.6876C52.2465 39.8292 52.2507 40.0383 52.2085 40.1862C52.1599 40.3003 52.1514 40.4419 52.1303 40.5158C52.1282 40.6912 51.6592 40.9891 51.3486 41.0124C50.9366 41.0547 50.4844 41.0695 50.4717 41.0019C50.4717 41.0019 50.3513 40.9195 50.2097 40.911C50.028 40.8751 49.8738 40.7991 49.7808 40.6765C49.728 40.5815 49.5737 40.5054 49.4596 40.4568C49.3857 40.4357 49.2653 40.3533 49.2526 40.2857C49.2336 40.1843 49.1934 40.1568 49.0645 40.216C48.8004 40.3005 48.3905 40.7273 48.1497 41.1224C48.0462 41.3168 47.8476 41.564 47.7314 41.6908C47.6152 41.8176 47.5391 41.9718 47.5518 42.0394C47.5645 42.1071 47.4546 42.2676 47.311 42.4346C47.1736 42.6353 46.975 42.8825 46.899 43.0368C46.8293 43.2248 46.6793 43.3579 46.618 43.4044C46.5905 43.4446 46.5293 43.491 46.5419 43.5586C46.5483 43.5925 46.4236 43.8608 46.2314 44.1418C46.0729 44.4165 45.9419 44.651 45.9419 44.651C45.9483 44.6848 45.9272 44.7588 45.8659 44.8053C45.7074 45.08 45.4243 45.623 45.437 45.6906C45.4434 45.7244 45.4159 45.7645 45.3948 45.8385C45.3673 45.8786 45.3462 45.9526 45.3251 46.0265C45.3314 46.0603 45.268 46.2822 45.192 46.4364C45.0251 46.8527 44.835 47.5182 44.8603 47.6535C44.873 47.7211 44.8244 47.8352 44.7695 47.9155C44.6385 48.15 44.4843 48.6338 44.4104 49.1726C44.3533 49.4283 44.3301 49.6776 44.309 49.7516C44.2878 49.8255 44.2773 50.1424 44.2667 50.4594C44.2625 50.8101 44.2583 51.1608 44.2161 51.3087C44.1675 51.4228 44.1907 51.7334 44.195 51.9426C44.3366 53.0709 44.4106 53.6519 44.4951 53.916L44.6198 54.2076L44.8902 54.1568C45.0593 54.1251 45.2896 54.047 45.4522 53.9814C45.6086 53.8821 45.8664 53.7638 46.0628 53.692C46.253 53.5863 46.477 53.4743 46.5657 53.3877C46.7094 53.2208 47.3559 52.7496 47.4235 52.7369C47.4573 52.7305 47.8672 52.3037 47.9157 52.1896C47.9432 52.1495 48.0594 52.0227 48.1481 51.9361C48.5707 51.5769 48.8031 51.3233 49.1601 50.8014C49.3461 50.4866 49.5447 50.2394 49.5447 50.2394C49.5785 50.233 49.7559 50.0598 49.9271 49.8527C50.0982 49.6456 50.2757 49.4724 50.3095 49.466C50.3433 49.4597 50.5419 49.2125 50.7341 48.9314C50.9539 48.6103 51.1525 48.3631 51.1525 48.3631C51.1863 48.3567 51.3025 48.2299 51.4461 48.063C51.6384 47.782 52.5553 46.7002 52.7666 46.5206C52.8279 46.4741 53.0117 46.3346 53.1617 46.2015C53.318 46.1022 53.4955 45.9289 53.5842 45.8423C53.673 45.7557 53.768 45.7028 53.8082 45.7303C53.842 45.724 53.9645 45.631 54.0533 45.5443C54.1357 45.4239 54.3406 45.2105 54.4969 45.1112C54.7357 44.8914 54.7695 44.8851 54.8899 44.9675C55.0907 45.1048 55.116 45.24 54.985 45.4746C54.8202 45.7155 54.8562 46.0937 55.0125 45.9943C55.2301 45.8485 55.3928 45.783 55.4055 45.8506C55.4119 45.8845 55.452 45.9119 55.5133 45.8654C55.6421 45.8063 55.6506 46.2246 55.507 46.3915C55.452 46.4718 55.4034 46.5859 55.4161 46.6535C55.4225 46.6873 55.4415 46.7888 55.4204 46.8627C55.4119 47.0043 55.4521 47.0317 55.5197 47.0191C55.6211 47 55.6211 47 55.5323 47.0867C55.376 47.186 55.2154 47.636 55.3232 47.6508C55.357 47.6445 55.3697 47.7121 55.3824 47.7797C55.3612 47.8536 55.319 48.0015 55.338 48.103C55.3423 48.3121 55.3486 48.3459 55.4838 48.3206C55.6528 48.2889 55.6528 48.2889 55.6043 48.403C55.5557 48.5171 55.5683 48.5847 55.6951 48.7009C55.8282 48.8509 55.8282 48.8509 55.7395 48.9375C55.6444 48.9903 55.636 49.1319 55.6466 49.3749C55.6571 49.6179 55.6149 49.7658 55.4987 49.8925C55.4501 50.0066 55.374 50.1609 55.3931 50.2623C55.4121 50.3637 55.336 50.518 55.2748 50.5644C55.2198 50.6447 55.1649 50.725 55.1776 50.7926C55.1839 50.8264 55.0867 51.0546 54.9558 51.2892C54.8586 51.5174 54.7551 51.7118 54.7551 51.7118C54.8353 51.7667 54.417 52.3351 54.2332 52.4745C54.1107 52.5675 54.0832 52.6076 54.1572 52.6288C54.3452 52.6985 52.7163 54.6487 51.6937 55.5404C51.305 55.8933 50.8275 56.3328 50.6162 56.5124C49.7711 57.2308 49.0992 57.5668 48.0301 57.8373C47.1639 58.0697 46.7519 58.112 46.0229 58.1438C45.6722 58.1395 45.3616 58.1628 45.3679 58.1966C45.3341 58.203 45.3806 58.2642 45.4673 58.353C45.668 58.4903 45.5328 58.5156 45.0891 58.3889C44.8672 58.3255 44.4383 58.091 44.0833 57.8776C43.7621 57.6579 43.4199 57.5121 43.3522 57.5248C43.2508 57.5438 42.8029 57.2079 42.469 56.9206C41.776 56.2107 41.3639 55.6931 41.2984 55.5304C41.1738 55.2388 40.5884 53.9838 40.3243 53.5084C39.4474 51.8182 39.1472 49.2849 39.5401 46.9016C39.5612 46.8276 39.5971 46.6459 39.6056 46.5043C39.7407 45.3592 40.6175 43.13 41.547 41.5559C42.0013 40.8058 43.5668 38.5175 43.8541 38.1837C43.909 38.1034 44.0802 37.8963 44.1626 37.7759C44.4436 37.4082 44.9781 36.7131 45.1555 36.5398C45.2443 36.4532 45.4429 36.2059 45.6203 36.0327C45.7915 35.8256 45.9753 35.6862 45.9753 35.6862C46.0091 35.6798 46.1253 35.553 46.2753 35.4199C46.3915 35.2931 46.6302 35.0734 46.7591 35.0142C46.8817 34.9213 47.0317 34.7881 47.0866 34.7078C47.1415 34.6276 47.2303 34.5409 47.2979 34.5282C47.3655 34.5156 47.4268 34.4691 47.4542 34.4289ZM70.4521 48.4878C70.4838 48.6568 70.5768 48.7793 70.6634 48.8681C70.8367 49.0455 70.9212 49.3096 70.7712 49.4428C70.7099 49.4892 70.6677 49.6371 70.6867 49.7386C70.6508 49.9203 70.6297 49.9942 70.355 50.3957C70.3339 50.4696 70.1776 50.5689 70.0487 50.6281C69.8923 50.7274 69.8311 50.7739 69.829 50.9493C69.793 51.131 69.7656 51.1711 69.2501 51.4078C68.931 51.5726 68.6458 51.7311 68.5845 51.7776C68.4345 51.9107 67.6063 52.346 67.5049 52.365C67.4711 52.3714 67.4436 52.4115 67.4161 52.4516C67.4014 52.5594 66.5668 52.9609 65.652 53.3074C65.428 53.4194 65.1977 53.4976 65.1702 53.5378C65.1428 53.5779 64.6885 53.7681 64.2892 53.878C64.1941 53.9308 63.9913 53.9689 63.8286 54.0344C63.6997 54.0935 63.537 54.159 63.4757 54.2055C63.4208 54.2858 63.0616 54.4232 62.6961 54.5267C61.5446 54.9177 61.2953 54.8944 60.0107 54.5755C59.4529 54.4001 59.3388 54.3515 58.9648 54.0367C58.7176 53.8381 58.3837 53.5508 58.1767 53.3797C57.809 53.0987 57.4899 52.7036 57.2786 52.3233C57.2195 52.1944 57.1011 51.9366 57.0018 51.7803C56.6172 51.2225 56.5517 51.0598 56.389 50.5654C56.0763 49.6442 55.8543 47.9011 55.9219 46.7686C55.924 46.5933 55.9303 46.0672 55.9493 45.6087C55.9556 44.5227 56.1413 41.4083 56.1899 41.2942C56.2111 41.2203 56.192 41.1188 56.1857 41.085C56.1667 40.9836 56.3737 39.475 56.4307 39.2194C56.4793 39.1053 56.5595 38.6003 56.6736 38.089C56.7877 37.5776 56.8743 37.1065 56.9229 36.9924C56.9377 36.8846 57.0729 36.2994 57.2144 35.7479C57.3496 35.1626 57.4784 34.5435 57.5207 34.3956C57.6411 33.9181 57.6918 33.6287 57.6601 33.4596C57.6474 33.392 57.6495 33.2167 57.6981 33.1026C57.8227 32.8342 57.9918 32.8025 58.2728 32.9948C58.4735 33.1321 59.5553 33.4891 59.6905 33.4638C59.7243 33.4574 59.9187 33.5609 60.428 33.8504C60.6561 33.9476 60.8653 33.9433 61.0766 33.7637C61.1315 33.6834 61.2879 33.5841 61.4168 33.5249C61.5456 33.4658 61.6682 33.3728 61.6956 33.3327C61.7294 33.3263 61.8245 33.2735 61.8858 33.227C61.9872 33.208 62.0823 33.1552 62.1098 33.115C62.1985 33.0284 62.9802 32.5318 63.4345 32.3416C63.5634 32.2825 63.781 32.1367 63.9437 32.0712C64.3916 31.8472 65.224 31.6211 65.7839 31.621C65.9931 31.6168 66.0671 31.6379 66.1199 31.733C66.1389 31.8344 66.2192 31.8893 66.2932 31.9105C66.3608 31.8978 66.5087 31.94 66.5488 31.9675C66.6228 31.9886 66.7031 32.0436 66.7707 32.0309C66.8446 32.052 66.9186 32.0731 66.8974 32.1471C66.9101 32.2147 67.0644 32.2907 67.3137 32.314C67.3876 32.3351 67.4278 32.3626 67.4405 32.4302C67.4468 32.464 67.4996 32.559 67.5461 32.6203C67.5926 32.6816 67.6454 32.7767 67.618 32.8168C67.5905 32.857 67.6708 32.9119 67.7785 32.9267C67.8926 32.9753 67.9455 33.0703 67.9582 33.1379C67.9708 33.2056 67.9899 33.307 68.03 33.3344C68.0765 33.3957 67.9772 33.7993 67.8758 33.8183C67.8758 33.8183 67.8483 33.8584 67.861 33.9261C67.88 34.0275 67.5842 34.5029 67.4828 34.5219C67.449 34.5282 67.3941 34.6085 67.3455 34.7226C67.2906 34.8029 67.2082 34.9234 67.1068 34.9424C67.0455 34.9889 66.8891 35.0882 66.8004 35.1748C66.6779 35.2678 66.5828 35.3206 66.549 35.3269C66.5152 35.3333 66.3926 35.4263 66.3102 35.5467C66.2215 35.6333 66.099 35.7263 66.0652 35.7326C65.9637 35.7517 65.2285 36.3095 65.1736 36.3898C65.1524 36.4637 64.6496 36.768 64.5144 36.7934C64.4806 36.7997 64.3242 36.899 64.1679 36.9983C63.9841 37.1378 63.8277 37.2371 63.7939 37.2435C63.7263 37.2561 63.5974 37.3153 63.4474 37.4484C62.9234 37.8266 62.4227 37.9556 61.7149 37.9133C61.6071 37.8986 61.5797 37.9387 61.4825 38.1669C61.4064 38.3211 61.3705 38.5028 61.3832 38.5705C61.3959 38.6381 61.36 38.8198 61.3177 38.9677C61.2691 39.0818 61.2607 39.2233 61.2945 39.217C61.2945 39.217 61.2459 39.3311 61.1361 39.4917C61.06 39.6459 60.9903 39.834 61.003 39.9016C61.0156 39.9692 60.9797 40.1509 60.9375 40.2988C60.8952 40.4467 60.8868 40.5883 60.8995 40.6559C60.9122 40.7235 60.8636 40.8376 60.8213 40.9855C60.7579 41.2073 60.8108 41.3024 60.9671 41.2031C61.0284 41.1566 61.1023 41.1777 61.1763 41.1989C61.2566 41.2538 61.3242 41.2411 62.0764 40.9601C62.239 40.8946 62.4081 40.8629 62.4144 40.8967C62.4546 40.9241 62.4884 40.9178 62.5158 40.8776C62.5982 40.7572 63.2743 40.6304 63.2933 40.7318C63.3124 40.8332 63.5406 40.9304 63.6758 40.905C63.8448 40.8733 63.9314 40.9621 63.8364 41.0149C63.8026 41.0213 63.9167 41.0698 64.1047 41.1396C64.2864 41.1755 64.4745 41.2452 64.4808 41.279C64.4871 41.3128 64.5738 41.4015 64.6879 41.4501C64.802 41.4987 64.8886 41.5874 64.8611 41.6276C64.8675 41.6614 64.9203 41.7565 65.0407 41.8389C65.1274 41.9276 65.2542 42.0438 65.2668 42.1114C65.2795 42.179 65.2922 42.2466 65.326 42.2403C65.4401 42.2889 65.4253 42.3966 65.3239 42.4157C65.2225 42.4347 65.2415 42.5361 65.3831 42.5445C65.457 42.5657 65.4634 42.5995 65.4084 42.6798C65.3873 42.7537 65.3662 42.8277 65.3662 42.8277C65.3915 42.9629 65.2458 43.3052 65.157 43.3918C65.062 43.4446 65.0007 43.4911 65.007 43.5249C64.9859 43.5989 64.8232 43.6644 64.5528 43.7151C64.0858 43.8377 64.0309 43.918 64.1577 44.0342C64.238 44.0891 64.2105 44.1292 64.014 44.2011C63.0252 44.5265 62.4083 44.7822 61.6012 45.1436C61.3434 45.2619 60.9441 45.3718 60.7476 45.4436L60.3757 45.5134L60.4053 45.8578C60.4032 46.0331 60.4011 46.2085 60.3737 46.2486C60.2976 46.4029 60.2639 47.529 60.3505 47.6178C60.3568 47.6516 60.3632 47.6854 60.3357 47.7255C60.3019 47.7319 60.2871 47.8396 60.3125 47.9749C60.3315 48.0763 60.3167 48.184 60.3231 48.2178C60.2956 48.258 60.2597 48.4397 60.2576 48.6151C60.2407 48.8982 60.2386 49.0735 60.3548 50.0666C60.3865 50.2356 60.3844 50.411 60.357 50.4511C60.3358 50.5251 60.3274 50.6666 60.3802 50.7617L60.4584 50.992L60.8577 50.8821C61.0542 50.8103 61.5824 50.6412 61.9416 50.5039C62.3283 50.3264 62.7551 50.1763 62.8501 50.1235C62.9854 50.0981 63.148 50.0326 63.2431 49.9798C63.3382 49.927 63.6572 49.7622 63.9826 49.6312C64.308 49.5001 64.6333 49.3691 64.6946 49.3226C64.7559 49.2762 64.8848 49.217 64.9862 49.198C65.0538 49.1853 65.1827 49.1261 65.2101 49.086C65.2714 49.0395 65.4341 48.974 65.5968 48.9085C65.7531 48.8092 66.1123 48.6718 66.3701 48.5535C66.6342 48.4689 67.0145 48.2576 67.2722 48.1393C67.4962 48.0273 67.8216 47.8963 67.9843 47.8308C68.147 47.7653 68.3709 47.6533 68.4935 47.5603C68.7449 47.4082 69.0153 47.3575 69.0745 47.4863C69.1125 47.6892 69.1189 47.723 69.2203 47.704C69.2879 47.6913 69.328 47.7187 69.3006 47.7589C69.3259 47.8941 69.3724 47.9554 69.5351 47.8899C69.664 47.8307 69.7379 47.8518 69.8922 47.9279C69.9725 47.9828 70.0591 48.0715 70.0654 48.1054C70.0718 48.1392 70.1521 48.1941 70.2598 48.2089C70.4014 48.2173 70.4141 48.2849 70.4521 48.4878ZM21.2023 64.9634C21.3312 64.9043 21.5615 64.8261 21.703 64.8345C21.8446 64.843 22.1214 64.8261 22.3644 64.8155C22.675 64.7922 22.7827 64.807 22.956 64.9845C23.0828 65.1007 23.1968 65.1493 23.2645 65.1366C23.3807 65.0098 23.911 65.2253 23.9828 65.4218C23.9955 65.4894 24.116 65.5718 24.1899 65.5929C24.3315 65.6014 24.3378 65.6352 24.2829 65.7155C24.228 65.7958 24.2343 65.8296 24.3146 65.8845C24.3949 65.9394 24.4012 65.9732 24.3336 65.9859C24.1984 66.0113 24.2512 66.1063 24.4055 66.1824C24.5534 66.2247 24.5534 66.2247 24.4963 66.4803C24.4541 66.6282 24.3506 66.8226 24.2682 66.943C24.2132 67.0233 24.021 67.3044 23.8837 67.5051C23.7125 67.7121 23.5604 68.0206 23.5245 68.2023C23.4886 68.3841 23.4527 68.5658 23.4316 68.6397C23.4104 68.7137 23.4083 68.889 23.4464 69.0919C23.4443 69.2672 23.4422 69.4426 23.4147 69.4827C23.3936 69.5567 23.3788 69.6645 23.364 69.7722C23.3619 69.9476 23.25 70.8434 23.1296 71.8809C23.0198 72.6013 22.9121 73.7064 22.9163 73.9156C22.9078 74.0571 22.8846 74.3064 22.8762 74.448C22.8403 74.6297 22.8234 74.9128 22.8276 75.122C22.8255 75.2974 22.7917 75.8636 22.7453 76.3623C22.6587 77.9532 22.6799 79.559 22.7688 81.1521C22.8174 82.1578 22.7985 83.1762 22.7858 84.2284C22.7732 84.7207 22.7669 85.2468 22.7944 85.7666C22.7986 85.9758 22.8092 86.2187 22.8134 86.4279C22.7838 86.6434 22.7141 86.8315 22.7247 87.0745C22.7226 87.2498 22.7543 87.4189 22.6782 87.5731C22.5958 87.6935 22.467 87.7527 22.3381 87.8119C22.1078 87.8901 21.85 88.0084 21.6007 87.9852C21.4591 87.9767 21.3112 87.9345 21.1633 87.8922C20.8337 87.8141 20.5379 87.7296 20.2083 87.6514C20.0942 87.6028 19.9463 87.5606 19.8259 87.4782C19.5913 87.3472 19.4329 87.062 19.1962 87.1063C19.0018 86.4429 19.0229 85.809 18.97 85.1541C18.9616 84.7357 18.9531 84.3174 19.0122 83.8863C19.0756 83.1046 18.8558 82.3059 18.879 81.4967C18.8874 80.7952 18.7332 80.1593 18.7078 79.4641C18.6929 79.012 18.6993 78.4859 18.6612 78.2831C18.657 78.0739 18.6612 77.7231 18.6633 77.5478C18.6929 77.3323 18.6548 77.1294 18.6485 77.0956C18.6147 77.102 18.6231 76.9604 18.6252 76.785C18.6337 76.6435 18.6569 76.3942 18.6527 76.185C18.6104 75.773 18.6589 75.099 18.7033 74.7757C18.7329 74.5602 18.7075 74.425 18.7223 73.7573C18.6969 73.6221 18.7201 73.3728 18.7349 73.265C18.794 72.834 18.8194 72.4093 18.906 71.3782C18.9397 70.812 18.9672 70.2119 18.9819 70.1042C19.0242 69.9563 19.0263 69.7809 19.0474 69.7069C19.0347 69.6393 19.0432 69.4978 19.0643 69.4238C19.1066 69.2759 19.039 69.2886 17.5452 69.5338C16.6662 69.6986 15.9225 69.8381 15.8549 69.8508C15.6183 69.8952 15.7197 70.9959 15.7176 71.1713C15.6374 71.6763 15.705 72.2235 15.6649 72.756C15.6248 73.2884 15.5847 73.8209 15.5382 74.3195C15.4791 75.3104 15.3798 76.2739 15.2806 77.2374C15.2151 77.6346 15.2722 77.9388 15.2743 78.3234C15.2764 78.7079 15.1708 79.0777 15.1729 79.4622C15.1624 79.7791 15.1244 80.1362 15.1096 80.244C15.0167 80.6813 14.9744 80.8292 15.0209 80.8905C15.0336 80.9581 15.0167 81.2413 14.9723 81.5645C14.9554 81.8476 14.9301 82.2723 14.9555 82.4076C14.9872 82.5766 14.983 82.9273 14.9597 83.1766C14.8056 84.7803 14.7761 86.6755 14.8733 87.0073C14.9198 87.0685 14.9113 87.2101 14.8226 87.2967C14.7402 87.4172 14.7191 87.4911 14.7846 87.6538C14.8755 87.9517 14.8269 88.6257 14.698 88.6849C14.6368 88.7314 14.6156 88.8053 14.6558 88.8328C14.7086 88.9279 14.5649 89.0948 14.51 89.1751C14.4741 89.3568 14.5058 89.5258 14.2755 89.604C14.2417 89.6103 14.1741 89.623 14.1466 89.6632C14.0853 89.7096 14.0706 89.8174 14.003 89.8301C13.9691 89.8364 13.9227 89.7752 13.8551 89.7878C13.7874 89.8005 13.76 89.8407 13.7325 89.8808C13.6374 89.9336 13.5635 89.9125 13.4557 89.8977C13.2064 89.8745 12.9698 89.9189 12.7522 90.0647C12.7543 89.8893 12.5873 89.7456 12.4394 89.7034C12.2514 89.6337 12.076 89.6316 11.9281 89.5893C11.7739 89.5133 11.6133 89.4034 11.4928 89.321C11.4062 89.2323 11.3259 89.1773 11.2393 89.0886C11.0724 88.9449 10.8716 88.8076 10.7935 88.5773C10.7279 88.4146 10.7913 88.1928 10.5969 88.0893C10.5568 88.0618 10.523 88.0681 10.4828 88.0407C10.3286 87.9646 10.2441 87.7005 10.1511 87.578C10.0053 87.3604 9.83837 87.2167 9.63764 87.0794C9.40944 86.9822 9.42213 87.0498 9.39253 86.7054C9.38195 86.4624 9.40518 86.2131 9.44743 86.0652C9.49602 85.9511 9.50446 85.8095 9.45164 85.7145C9.43896 85.6469 9.42628 85.5792 9.45374 85.5391C9.51501 85.4926 9.52346 85.351 9.49809 85.2158C9.45371 84.9792 9.51495 84.3728 9.58043 83.9756C9.68606 83.6058 9.70084 83.4981 9.63533 83.3354C9.60997 83.2002 9.65222 83.0522 9.66067 82.9107C9.7198 82.4797 9.7726 82.0148 9.79159 81.5563C9.81482 81.307 9.68591 80.8063 9.8169 80.5717C9.87183 80.4915 9.90984 80.1344 9.90137 79.716C9.91189 78.8392 9.98157 78.0912 10.0323 77.8018C10.047 77.694 10.0703 77.4447 10.066 77.2355C9.98996 76.8299 10.104 76.3185 10.1294 75.8939C10.1758 75.3952 10.2223 74.8966 10.2751 74.4317C10.3448 73.6838 10.4609 72.9971 10.3891 72.2407C10.3785 71.9977 10.4017 71.7484 10.4249 71.4991C10.4249 70.9392 10.4587 70.3729 10.4925 69.8067C10.5093 69.5236 10.4924 69.2468 10.4755 68.97C10.4776 68.7946 10.5135 68.6129 10.4818 68.4439C10.391 68.146 10.4902 67.7424 10.6656 67.7445C10.7332 67.7318 10.8832 67.5987 10.972 67.5121C11.1431 67.305 11.1769 67.2987 11.3924 67.3282C11.5741 67.3642 11.6417 67.3515 11.6967 67.2712C11.7854 67.1846 11.8192 67.1782 12.6728 67.438C12.8207 67.4803 13.0573 67.4359 13.5179 67.2795C14.0398 67.0767 14.2088 67.045 14.3229 67.0936C14.4434 67.176 14.9505 67.0809 15.4047 66.8907C15.6075 66.8526 15.6075 66.8526 16.8943 66.4363C17.9232 66.1384 18.2211 66.0475 19.1022 65.7073C19.4951 65.5636 20.0846 65.348 20.3825 65.2572C20.6741 65.1325 21.0333 64.9951 21.2023 64.9634ZM38.9915 64.1466C39.2789 64.3727 39.767 65.8559 39.7649 66.5912C39.7692 66.8003 39.7776 67.2187 39.8072 67.5631C39.7988 67.7047 39.7903 67.8462 39.7565 67.8526C39.7291 67.8927 39.7079 67.9666 39.727 68.0681C39.746 68.1695 39.7439 68.3448 39.6953 68.4589C39.6805 68.5667 39.6319 68.6808 39.6446 68.7484C39.6763 68.9174 39.2707 70.1133 38.9939 70.6902C38.282 72.1185 37.2299 73.7856 36.4228 74.7068C36.2242 74.9541 36.0594 75.1949 36.0319 75.2351C36.0108 75.309 35.8946 75.4358 35.7446 75.5689C35.6284 75.6957 35.4171 75.8753 35.3347 75.9957C35.2185 76.1225 35.0749 76.2894 34.9523 76.3824C34.8636 76.4691 34.6312 76.7226 34.4664 76.9635C34.308 77.2382 34.0756 77.4917 34.0143 77.5382C33.0889 78.2017 32.7424 78.4067 32.5734 78.4384C32.0663 78.5335 31.5465 78.561 31.4662 78.506C31.4197 78.4448 31.3859 78.4511 31.3986 78.5187C31.35 78.6328 30.9105 78.7152 30.8915 78.6138C30.8852 78.58 30.8049 78.5251 30.7373 78.5378C30.6971 78.5103 30.583 78.4617 30.5091 78.4406C30.3084 78.3033 30.2048 78.4976 30.2619 78.8019C30.2809 78.9033 30.245 79.085 30.2176 79.1252C30.1964 79.1991 30.1669 79.4146 30.1373 79.6301C30.131 80.1562 30.0888 80.8641 30.0528 81.0458C30.0317 81.1197 30.0296 81.2951 30.0275 81.4704C30.0614 82.024 29.9769 82.8797 29.9283 82.9938C29.8734 83.0741 29.8649 83.2157 29.8839 83.3171C29.903 83.4185 29.9135 83.6615 29.9114 83.8369C29.9093 84.0122 29.9115 84.3968 29.9284 84.6735C29.9918 85.5715 29.9475 85.8948 29.7974 86.0279C29.7087 86.1145 29.6263 86.235 29.565 86.2815C29.5439 86.3554 29.4488 86.4082 29.3073 86.3998C29.1657 86.3913 28.9565 86.3956 28.7875 86.4273C28.5171 86.478 28.3628 86.402 28.3248 86.1991C28.3185 86.1653 28.2445 86.1442 28.1769 86.1569C27.9403 86.2013 27.4564 86.047 27.2028 85.8146C26.6429 85.2548 26.4232 85.016 26.2985 84.7244C26.2731 84.5892 26.1273 84.3716 26.0407 84.2829C25.6139 83.873 25.4047 83.3173 25.3624 82.3454C25.3328 82.001 25.3243 81.5827 25.2863 81.3798C25.244 80.9678 25.2566 79.3557 25.284 78.7557C25.3009 78.4725 25.3178 78.1894 25.3389 78.1155C25.3495 77.7985 25.3853 77.0569 25.4318 76.5583C25.455 76.309 25.493 75.9519 25.5015 75.8103C25.4846 75.5335 25.5606 74.8194 25.6282 74.2468C25.6641 74.0651 25.7021 73.708 25.7126 73.3911C25.7295 73.108 25.7612 72.7171 25.7971 72.5354C25.7992 72.36 25.8436 72.0367 25.8795 71.855C25.8752 71.6459 25.9365 71.0395 25.9766 70.507C26.0231 70.0084 26.0357 69.5161 26.023 69.4485C25.9765 69.3872 25.9977 69.3133 26.0251 69.2731C26.0589 69.2668 26.061 69.0914 26.0293 68.9224C25.985 68.6857 26.0082 68.4364 26.1075 68.0329C26.3251 67.3271 26.4074 66.0869 26.2827 65.7953C26.2172 65.6326 26.2383 65.5587 26.2933 65.4784C26.3482 65.3981 26.3693 65.3241 26.363 65.2903C26.3566 65.2565 26.3778 65.1826 26.4116 65.1762C26.5679 65.0769 27.1215 65.0431 27.2081 65.1318C27.3286 65.2142 27.4849 65.1149 27.7046 64.7938C28.0617 64.2719 29.004 63.3252 29.7392 62.7674C30.6583 62.0701 31.3914 61.6877 32.0675 61.5608C32.3041 61.5165 32.507 61.4784 32.5344 61.4383C32.5556 61.3643 32.9465 61.396 33.0605 61.4446C33.1007 61.4721 33.2423 61.4805 33.3775 61.4551C33.9036 61.4614 34.3283 61.4868 34.4424 61.5354C34.5966 61.6114 34.7783 61.6473 35.2896 61.7614C35.5115 61.8248 35.6932 61.8607 35.7333 61.8882C35.7397 61.922 35.8876 61.9642 36.0693 62.0001C36.2172 62.0424 36.5658 62.2219 36.8468 62.4142C37.1215 62.5726 37.3899 62.6973 37.4237 62.691C37.5251 62.6719 38.0406 62.9952 38.0597 63.0966C38.0597 63.0966 38.1526 63.2191 38.2731 63.3015C38.366 63.4241 38.5393 63.6015 38.6386 63.7579C38.7717 63.9079 38.9112 64.0917 38.9915 64.1466ZM36.137 64.787C36.1666 64.5715 36.1222 64.3348 36.0821 64.3074C36.0229 64.1785 35.8201 64.2165 35.5687 64.3687C35.4461 64.4616 35.3172 64.5208 35.2496 64.5335C35.1144 64.5588 34.5841 64.9033 34.3792 65.1167C34.3179 65.1632 34.1615 65.2625 34.0052 65.3618C33.8489 65.4611 33.6988 65.5942 33.6777 65.6682C33.6503 65.7083 33.5341 65.8351 33.4052 65.8943C33.3164 65.9809 33.1664 66.114 33.1178 66.2281C33.0354 66.3485 32.9805 66.4288 32.9467 66.4352C32.8326 66.3866 32.465 66.6655 32.2115 66.993C32.1016 67.1536 31.9241 67.3269 31.8565 67.3395C31.8227 67.3459 31.7678 67.4262 31.7467 67.5001C31.7319 67.6079 31.6622 67.7959 31.5798 67.9164C31.4277 68.2248 31.2439 69.4841 31.1827 70.6504C31.1574 71.0751 31.1257 71.466 31.0982 71.5061C31.0708 71.5463 31.0665 71.897 31.0623 72.2478C31.0328 73.0232 30.9673 73.4204 30.8363 73.6549C30.699 73.8557 30.8364 74.2148 30.9991 74.1493C31.0603 74.1028 31.1491 74.0162 31.204 73.9359C31.2589 73.8556 31.3202 73.8091 31.354 73.8028C31.4216 73.7901 31.5653 73.6232 32.4949 72.609C33.2195 71.8082 34.2358 70.3228 34.8632 69.1902C35.0766 68.8353 35.2625 68.5204 35.2963 68.5141C35.3301 68.5078 35.3576 68.4676 35.3513 68.4338C35.3449 68.4 35.4146 68.212 35.4843 68.0239C35.5942 67.8633 35.6639 67.6753 35.6576 67.6415C35.6512 67.6077 35.6724 67.5337 35.7336 67.4872C35.9048 67.2802 36.1963 66.0357 36.154 65.6237C36.1498 65.4145 36.1476 65.03 36.137 64.787ZM52.8121 66.4538C53.184 67.5038 53.5433 69.6061 53.4863 70.4217C53.4441 70.5696 53.4335 70.8865 53.4039 71.102C53.3828 71.7359 53.2815 72.3148 53.0385 73.4452C52.9456 73.8826 52.8527 74.32 52.8167 74.5017C52.7745 74.6496 52.7386 74.8313 52.7175 74.9052C52.69 74.9454 52.633 75.201 52.5759 75.4567C52.2802 76.492 51.6189 78.1908 51.3654 78.5183C51.2767 78.6049 51.2556 78.6789 51.2682 78.7465C51.2408 78.7866 51.2196 78.8606 51.1584 78.9071C51.0971 78.9536 51.0422 79.0338 51.0612 79.1353C51.0802 79.2367 50.964 79.3635 50.7591 79.5769C50.5816 79.7501 50.2393 80.1643 50.0133 80.4516C49.7534 80.7453 49.521 80.9989 49.4872 81.0052C49.4534 81.0116 49.3034 81.1447 49.1534 81.2778C48.8259 81.5842 47.2772 82.4695 46.9666 82.4928C46.3856 82.5668 45.3123 82.6281 45.0292 82.6112C44.3213 82.569 43.9664 82.3556 42.3035 80.9528C41.7288 80.5006 41.5555 80.3232 41.2111 79.7929C40.4229 78.5759 39.882 77.5575 39.5692 76.6363C38.9627 74.8954 38.7471 72.6262 38.9921 70.2006C39.0744 68.9603 39.1504 68.2462 39.2201 68.0581C39.2413 67.9842 39.2497 67.8426 39.237 67.775C39.2244 67.7074 39.2603 67.5257 39.3025 67.3778C39.3786 67.2236 39.499 66.746 39.5919 66.3087C39.6849 65.8713 39.8053 65.3938 39.875 65.2057C39.9172 65.0578 39.9806 64.836 40.0017 64.762C40.0229 64.6881 40.0588 64.5064 40.1074 64.3923C40.1221 64.2845 40.1919 64.0965 40.2404 63.9824C40.2489 63.8408 40.3186 63.6528 40.3947 63.4985C40.4433 63.3844 40.5278 63.0886 40.6249 62.8604C40.682 62.6048 40.8615 62.2561 40.9925 62.0216C41.3496 61.4997 42.0383 60.3207 42.0531 60.2129C42.0467 60.1791 42.0679 60.1052 42.1291 60.0587C42.1777 59.9446 42.2855 59.9594 42.4397 60.0354C42.594 60.1115 43.1792 60.2467 43.5765 60.3122C43.6842 60.3269 43.7983 60.3755 43.8448 60.4368C43.9188 60.4579 43.9927 60.4791 44.0878 60.4262C44.2843 60.3544 44.9456 60.3353 45.0998 60.4114C45.1463 60.4727 45.2879 60.4811 45.3957 60.4959C45.5309 60.4705 45.6724 60.479 45.7527 60.5339C45.8267 60.555 45.9344 60.5698 46.002 60.5571C46.0697 60.5444 46.2852 60.574 46.4732 60.6437C46.6211 60.686 46.9106 60.7367 47.0458 60.7113C47.2212 60.7134 47.443 60.7768 47.7114 60.9014C47.9058 61.005 48.2417 61.1169 48.3896 61.1592C48.8333 61.2859 50.2807 62.0993 50.5406 62.3655C50.6673 62.4817 50.8406 62.6592 50.9336 62.7817C50.9864 62.8768 51.0794 62.9993 51.1132 62.993C51.24 63.1092 51.4724 63.4155 51.4914 63.517C51.5104 63.6184 51.6097 63.7747 51.7365 63.8909C51.9098 64.0684 51.9626 64.1635 52.0133 64.4339C52.045 64.6029 52.1697 64.8945 52.2754 65.0847C52.381 65.2748 52.5057 65.5664 52.5649 65.6953C52.5902 65.8305 52.7212 66.1559 52.8121 66.4538ZM49.2605 67.8548C49.2879 67.8146 49.2626 67.6794 49.2034 67.5505C49.1717 67.3815 49.0745 67.0498 49.0238 66.7794C48.7934 65.7377 48.4764 64.6074 48.1172 63.6249L48.0073 63.2256L47.7368 63.2763C47.5953 63.2678 47.4601 63.2932 47.4664 63.327C47.4326 63.3334 47.3037 63.3925 47.1347 63.4242C46.6276 63.5193 46.4713 63.6186 46.1903 63.9863C46.129 64.0328 46.0128 64.1596 45.9177 64.2124C45.829 64.299 45.7677 64.3455 45.7741 64.3793C45.7931 64.4807 45.4233 64.935 45.3557 64.9477C45.2881 64.9604 44.5381 66.1859 44.5571 66.2873C44.5635 66.3211 44.4938 66.5091 44.4177 66.6634C44.3417 66.8176 44.2656 66.9719 44.2783 67.0395C44.2846 67.0733 44.2487 67.255 44.2001 67.3691C44.0882 67.705 43.9804 68.2502 44.0185 68.453C44.0312 68.5206 43.9614 68.7087 43.9065 68.7889C43.8241 68.9094 43.7819 69.0573 43.8009 69.1587C43.8136 69.2263 43.7777 69.408 43.7354 69.5559C43.653 69.6764 43.6023 69.9658 43.6066 70.175C43.5706 70.3567 43.5411 70.5722 43.52 70.6462C43.4502 70.8342 43.3721 71.7237 43.3193 72.7485C43.2856 73.3147 43.2518 73.881 43.2497 74.0563C43.1821 74.6289 43.3681 76.5537 43.5668 77.4263C43.7337 78.1299 44.2409 79.1546 44.3824 79.1631C44.5515 79.1314 45.048 78.7933 45.4156 78.5144C46.4171 77.6966 47.0868 76.9761 47.3572 76.3655C47.4607 76.1711 47.5981 75.9704 47.6593 75.9239C47.7544 75.8711 48.1368 74.9245 48.1452 74.7829C48.1262 74.6815 48.3501 74.0096 48.4114 73.9631C48.4389 73.923 48.4663 73.8828 48.4198 73.8215C48.4135 73.7877 48.4283 73.68 48.4769 73.5659C48.5255 73.4518 48.5677 73.3039 48.555 73.2363C48.5487 73.2025 48.5846 73.0208 48.6543 72.8327C48.6966 72.6848 48.7325 72.5031 48.7261 72.4693C48.7198 72.4355 48.7409 72.3615 48.7959 72.2813C48.8571 72.2348 48.8719 72.127 48.8592 72.0594C48.8402 71.958 48.8972 71.7023 48.9606 71.4805C49.0515 71.2185 49.0874 71.0368 49.081 71.003C49.0345 70.9417 49.1232 70.2951 49.2415 69.993C49.2775 69.8113 49.2964 69.3528 49.233 68.4548C49.2499 68.1717 49.2393 67.9287 49.2605 67.8548ZM61.1664 57.2931C61.1875 57.2191 61.3629 57.2212 61.6524 57.2719C61.8003 57.3142 62.2926 57.3268 62.394 57.3078C62.4214 57.2676 62.4616 57.2951 62.5355 57.3162C62.6158 57.3712 62.6834 57.3585 62.8398 57.2592C63.0299 57.1535 63.0299 57.1535 63.3575 57.407C63.7589 57.6817 64.135 57.8211 64.304 57.7894C64.3716 57.7767 64.4519 57.8317 64.4984 57.8929C64.5513 57.988 64.659 58.0028 64.7266 57.9901C64.7604 57.9838 64.995 58.1148 65.2295 58.2458C65.5443 58.4317 65.631 58.5204 65.6162 58.6282C65.6014 58.7359 65.6542 58.831 65.7408 58.9197C65.8676 59.0359 65.9395 59.2324 66.1339 59.8959C66.1994 60.0585 66.2374 60.2614 66.2839 60.3226C66.2966 60.3903 66.3072 60.6332 66.2375 60.8213C66.2079 61.0368 66.1445 61.2586 66.1509 61.2925C66.1635 61.3601 66.134 61.5756 66.0431 61.8376C65.9861 62.0932 65.9417 62.4165 65.9671 62.5517C65.9587 62.6933 65.9629 62.9025 65.9206 63.0504C65.8721 63.1645 65.8636 63.306 65.8425 63.38C65.8404 63.5553 65.3713 63.8533 65.0608 63.8765C64.6487 63.9188 64.1966 63.9336 64.1839 63.866C64.1839 63.866 64.0635 63.7836 63.9219 63.7752C63.7402 63.7393 63.586 63.6632 63.493 63.5407C63.4402 63.4456 63.2859 63.3695 63.1718 63.321C63.0979 63.2998 62.9774 63.2174 62.9648 63.1498C62.9457 63.0484 62.9056 63.0209 62.7767 63.0801C62.5126 63.1646 62.1027 63.5915 61.8619 63.9866C61.7584 64.181 61.5598 64.4282 61.4436 64.555C61.3274 64.6817 61.2513 64.836 61.264 64.9036C61.2767 64.9712 61.1668 65.1318 61.0232 65.2987C60.8858 65.4994 60.6872 65.7466 60.6112 65.9009C60.5415 66.0889 60.3915 66.2221 60.3302 66.2685C60.3027 66.3087 60.2414 66.3552 60.2541 66.4228C60.2605 66.4566 60.1358 66.7249 59.9436 67.006C59.7851 67.2806 59.6541 67.5152 59.6541 67.5152C59.6605 67.549 59.6393 67.6229 59.5781 67.6694C59.4196 67.9441 59.1365 68.4871 59.1492 68.5547C59.1556 68.5885 59.1281 68.6287 59.107 68.7026C59.0795 68.7428 59.0584 68.8167 59.0372 68.8907C59.0436 68.9245 58.9802 69.1463 58.9042 69.3006C58.7373 69.7168 58.5471 70.3824 58.5725 70.5176C58.5852 70.5852 58.5366 70.6993 58.4817 70.7796C58.3507 71.0141 58.1965 71.498 58.1225 72.0368C58.0655 72.2924 58.0423 72.5417 58.0212 72.6157C58 72.6896 57.9895 73.0066 57.9789 73.3235C57.9747 73.6742 57.9705 74.025 57.9283 74.1729C57.8797 74.287 57.9029 74.5976 57.9072 74.8067C58.0488 75.935 58.1228 76.516 58.2073 76.7801L58.332 77.0717L58.6024 77.021C58.7714 76.9893 59.0017 76.9111 59.1644 76.8456C59.3208 76.7463 59.5785 76.6279 59.775 76.5561C59.9652 76.4504 60.1891 76.3384 60.2779 76.2518C60.4215 76.0849 61.0681 75.6137 61.1357 75.601C61.1695 75.5947 61.5793 75.1679 61.6279 75.0538C61.6554 75.0136 61.7716 74.8868 61.8603 74.8002C62.2829 74.441 62.5153 74.1874 62.8723 73.6655C63.0583 73.3507 63.2568 73.1035 63.2568 73.1035C63.2907 73.0972 63.4681 72.9239 63.6393 72.7168C63.8104 72.5098 63.9879 72.3365 64.0217 72.3302C64.0555 72.3238 64.2541 72.0766 64.4463 71.7956C64.666 71.4744 64.8646 71.2272 64.8646 71.2272C64.8984 71.2209 65.0146 71.0941 65.1583 70.9272C65.3506 70.6461 66.2675 69.5643 66.4788 69.3847C66.54 69.3382 66.7239 69.1988 66.8739 69.0656C67.0302 68.9663 67.2077 68.7931 67.2964 68.7064C67.3851 68.6198 67.4802 68.567 67.5204 68.5944C67.5542 68.5881 67.6767 68.4951 67.7655 68.4085C67.8478 68.288 68.0528 68.0746 68.2091 67.9753C68.4479 67.7556 68.4817 67.7492 68.6021 67.8316C68.8028 67.969 68.8282 68.1042 68.6972 68.3387C68.5324 68.5796 68.5684 68.9578 68.7247 68.8585C68.9423 68.7127 69.105 68.6472 69.1177 68.7148C69.124 68.7486 69.1642 68.7761 69.2255 68.7296C69.3543 68.6704 69.3628 69.0887 69.2191 69.2557C69.1642 69.336 69.1156 69.4501 69.1283 69.5177C69.1346 69.5515 69.1537 69.6529 69.1325 69.7268C69.1241 69.8684 69.1642 69.8959 69.2319 69.8832C69.3333 69.8642 69.3333 69.8642 69.2445 69.9508C69.0882 70.0501 68.9276 70.5002 69.0354 70.5149C69.0692 70.5086 69.0819 70.5762 69.0946 70.6438C69.0734 70.7178 69.0312 70.8657 69.0502 70.9671C69.0544 71.1763 69.0608 71.2101 69.196 71.1847C69.365 71.153 69.365 71.153 69.3164 71.2671C69.2678 71.3812 69.2805 71.4488 69.4073 71.565C69.5404 71.715 69.5404 71.715 69.4517 71.8017C69.3566 71.8545 69.3482 71.996 69.3587 72.239C69.3693 72.482 69.3271 72.6299 69.2109 72.7567C69.1623 72.8708 69.0862 73.025 69.1052 73.1264C69.1243 73.2279 69.0482 73.3821 68.9869 73.4286C68.932 73.5089 68.8771 73.5892 68.8898 73.6568C68.8961 73.6906 68.7989 73.9188 68.6679 74.1533C68.5708 74.3815 68.4672 74.5759 68.4672 74.5759C68.5475 74.6308 68.1292 75.1992 67.9454 75.3387C67.8229 75.4316 67.7954 75.4718 67.8693 75.4929C68.0574 75.5626 66.4285 77.5129 65.4059 78.4046C65.0172 78.7574 64.5397 79.1969 64.3284 79.3765C63.4833 80.0949 62.8114 80.4309 61.7423 80.7014C60.8761 80.9339 60.4641 80.9762 59.7351 81.0079C59.3844 81.0037 59.0738 81.0269 59.0801 81.0608C59.0463 81.0671 59.0928 81.1284 59.1794 81.2171C59.3802 81.3544 59.245 81.3798 58.8012 81.253C58.5794 81.1897 58.1505 80.9552 57.7955 80.7418C57.4743 80.5221 57.132 80.3763 57.0644 80.389C56.963 80.408 56.5151 80.0721 56.1812 79.7847C55.4882 79.0748 55.0761 78.5572 55.0106 78.3945C54.8859 78.103 54.3006 76.848 54.0365 76.3726C53.1596 74.6823 52.8594 72.149 53.2523 69.7657C53.2734 69.6917 53.3093 69.51 53.3178 69.3685C53.4529 68.2233 54.3296 65.9942 55.2592 64.4201C55.7134 63.67 57.279 61.3817 57.5663 61.0478C57.6212 60.9675 57.7924 60.7604 57.8747 60.64C58.1557 60.2724 58.6903 59.5772 58.8677 59.4039C58.9565 59.3173 59.1551 59.0701 59.3325 58.8968C59.5037 58.6898 59.6875 58.5503 59.6875 58.5503C59.7213 58.544 59.8375 58.4172 59.9875 58.2841C60.1037 58.1573 60.3424 57.9375 60.4713 57.8784C60.5939 57.7854 60.7439 57.6523 60.7988 57.572C60.8537 57.4917 60.9425 57.4051 61.0101 57.3924C61.0777 57.3797 61.1389 57.3332 61.1664 57.2931ZM84.3255 53.4044C84.2516 53.3833 84.184 53.396 84.1903 53.4298C84.203 53.4974 84.2368 53.491 84.2706 53.4847C84.3044 53.4784 84.3509 53.5396 84.3636 53.6073C84.3763 53.6749 84.3551 53.7488 84.3213 53.7552C84.2875 53.7615 84.3066 53.8629 84.3256 53.9643C84.3847 54.0932 84.4376 54.1883 84.4439 54.2221C84.4502 54.2559 84.4502 54.2559 84.4164 54.2622C84.3087 54.2475 84.1228 54.5623 84.1481 54.6975C84.1608 54.7651 84.1333 54.8053 84.0995 54.8116C84.0657 54.8179 83.9559 54.9785 83.9136 55.1264C83.8376 55.2807 83.7277 55.4412 83.6728 55.5215C83.6115 55.568 83.5904 55.642 83.6305 55.6694C83.7235 55.792 83.2883 56.0836 82.9164 56.1533C82.7136 56.1914 82.5107 56.2294 82.5234 56.297C82.496 56.3372 82.4283 56.3498 82.3607 56.3625C82.2931 56.3752 82.1706 56.4682 82.0755 56.521C82.0206 56.6013 81.729 56.726 81.4248 56.783C81.1269 56.8739 80.8289 56.9648 80.8015 57.0049C80.7465 57.0852 80.4148 57.1824 80.0493 57.286C79.65 57.3959 79.2908 57.5332 79.2295 57.5797C79.1683 57.6262 79.0394 57.6853 78.938 57.7044C78.8366 57.7234 78.7077 57.7826 78.6802 57.8227C78.6527 57.8628 78.5577 57.9157 78.4626 57.9685C78.3274 57.9939 78.1647 58.0594 78.0759 58.146C77.9809 58.1988 77.8858 58.2517 77.852 58.258C77.8182 58.2643 77.6956 58.3573 77.6069 58.4439C77.4231 58.5834 77.3745 58.6975 77.3302 59.0208C77.3344 59.2299 77.271 59.4518 77.2435 59.4919C77.2499 59.5257 77.2414 59.6673 77.2731 59.8363C77.3302 60.1406 77.2647 60.5378 77.1971 60.5505C77.1633 60.5568 77.1422 60.6308 77.1612 60.7322C77.1929 60.9012 77.1612 61.2921 77.0556 61.6619C77.0134 61.8098 76.9901 62.0591 76.9817 62.2006C77.0071 62.3359 76.9986 62.4774 76.9373 62.5239C76.8761 62.5704 76.8402 62.7521 76.8719 62.9211C76.8698 63.0965 76.8402 63.312 76.7916 63.4261C76.7705 63.5001 76.762 63.6416 76.7811 63.743C76.8001 63.8445 76.7789 63.9184 76.7451 63.9247C76.6775 63.9374 76.6606 64.2206 76.6184 64.9284C76.648 65.2728 76.591 65.5284 76.5276 65.7503C76.5065 65.8242 76.498 65.9658 76.5171 66.0672C76.5361 66.1686 76.534 66.344 76.479 66.4243C76.4643 66.532 76.4495 66.6398 76.496 66.7011C76.5086 66.7687 76.5065 66.944 76.4432 67.1659C76.3502 67.6033 76.327 67.8526 76.3672 68.44C76.3841 68.7167 76.3672 68.9999 76.3186 69.114C76.3038 69.2217 76.3207 69.4985 76.325 69.7077C76.363 69.9105 76.3736 70.1535 76.3187 70.2338C76.2975 70.3077 76.3145 70.5845 76.3314 70.8613C76.3462 71.3134 76.4181 72.6298 76.4646 73.8108C76.4795 74.263 76.5027 74.5736 76.5556 75.2286C76.5936 75.4314 76.5704 75.6807 76.5556 75.7885C76.5408 75.8962 76.6106 76.2681 76.7078 76.5998C76.862 77.2358 76.8282 77.2421 76.7184 77.4027C76.6296 77.4893 76.5874 77.6372 76.6001 77.7048C76.6254 77.8401 76.5642 77.8865 76.4036 77.7767C76.3233 77.7218 76.3296 77.7556 76.3085 77.8295C76.2662 77.9774 76.0634 78.0155 75.9366 77.8993C75.8965 77.8718 75.7486 77.8295 75.681 77.8422C75.5796 77.8612 75.4718 77.8465 75.3915 77.7915C75.345 77.7303 75.3112 77.7366 75.2838 77.7767C75.3091 77.912 75.1676 77.9035 75.0408 77.7873C74.988 77.6922 74.8802 77.6775 74.8527 77.7176C74.7851 77.7303 74.7112 77.7092 74.6119 77.5528C74.5189 77.4303 74.4048 77.3817 74.3773 77.4218C74.3097 77.4345 74.2696 77.407 74.2569 77.3394C74.2379 77.238 74.1449 77.1155 74.0646 77.0605C73.8575 76.8894 73.6462 76.5091 73.456 76.0549C73.3905 75.8922 73.2849 75.702 73.2046 75.6471C73.1243 75.5922 72.9912 75.4421 72.932 75.3133C72.7545 74.9266 72.4544 72.9532 72.3571 71.5017C72.3782 71.4277 72.3613 71.151 72.3508 70.908C72.3064 70.6713 72.2895 70.3946 72.3106 70.3206C72.3275 70.0375 72.2767 69.2071 72.2027 68.6261C72.1499 67.9711 72.1731 67.7218 72.1836 66.285C72.2089 64.7405 72.2448 63.9989 72.287 63.851C72.3081 63.7771 72.3166 63.6355 72.2975 63.5341C72.2532 63.2975 72.2996 62.2389 72.4073 61.6938C72.4369 61.4783 72.4665 61.2628 72.4327 61.2691C72.3925 61.2416 71.8749 61.6537 71.765 61.8143C71.5115 62.1418 70.3959 62.351 69.8106 62.2158C69.4472 62.144 68.2027 61.2926 68.0907 61.0686C68.0379 60.9735 67.9914 60.9123 67.9576 60.9186C67.8562 60.9376 67.6914 60.6186 67.1314 59.4988C67.0257 59.3086 66.9264 59.1523 66.8525 59.1312C66.8123 59.1037 66.7067 58.9136 66.6348 58.7171C66.4785 58.2565 66.582 58.0621 66.9813 57.9522C67.2454 57.8677 67.5919 57.6627 68.0271 57.3711C68.1497 57.2781 68.3948 57.0922 68.5511 56.9929C68.7413 56.8872 68.9251 56.7478 69.0138 56.6611C69.4089 56.3421 71.3717 55.2391 72.09 54.9643C72.2865 54.8925 72.5443 54.7742 72.6119 54.7615C72.707 54.7087 72.8021 54.6558 72.8359 54.6495C72.8697 54.6431 72.9986 54.584 73.1274 54.5248C73.25 54.4318 73.4465 54.36 73.6092 54.2945C73.7444 54.2691 73.9409 54.1973 74.0021 54.1508C74.0909 54.0642 74.3212 53.986 74.524 53.9479C74.7205 53.8761 74.917 53.8042 74.9846 53.7916C75.0121 53.7514 75.2424 53.6732 75.4452 53.6352C76.21 53.4217 77.0974 53.1153 77.2665 53.0836C77.3277 53.0371 77.7947 52.9146 78.3017 52.8195C78.7687 52.6969 79.2082 52.6145 79.2356 52.5743C79.2631 52.5342 81.3992 52.1685 81.5069 52.1833C81.5809 52.2045 81.79 52.2002 81.9929 52.1622C82.1619 52.1305 82.3711 52.1262 82.4112 52.1537C82.445 52.1474 82.6542 52.1431 82.8232 52.1114C83.0261 52.0734 83.3768 52.0776 83.5923 52.1072C83.8078 52.1367 83.9895 52.1726 83.9895 52.1726C84.0233 52.1663 84.0487 52.3015 84.0804 52.4705C84.1121 52.6396 84.1776 52.8023 84.2178 52.8297C84.2642 52.891 84.2769 52.9586 84.222 53.0389C84.1797 53.1868 84.1861 53.2206 84.3065 53.303C84.4333 53.4192 84.4333 53.4192 84.3255 53.4044ZM95.4506 58.4568C95.8225 59.5069 96.1818 61.6091 96.1248 62.4247C96.0825 62.5726 96.072 62.8895 96.0424 63.105C96.0213 63.7389 95.9199 64.3178 95.677 65.4482C95.584 65.8856 95.4911 66.323 95.4552 66.5047C95.4129 66.6526 95.377 66.8343 95.3559 66.9082C95.3284 66.9484 95.2714 67.204 95.2144 67.4597C94.9186 68.495 94.2574 70.1938 94.0039 70.5213C93.9151 70.6079 93.894 70.6819 93.9067 70.7495C93.8792 70.7896 93.8581 70.8636 93.7968 70.9101C93.7356 70.9566 93.6806 71.0369 93.6996 71.1383C93.7187 71.2397 93.6025 71.3665 93.3975 71.5799C93.2201 71.7531 92.8778 72.1673 92.6517 72.4546C92.3919 72.7483 92.1595 73.0019 92.1257 73.0082C92.0919 73.0146 91.9419 73.1477 91.7918 73.2808C91.4644 73.5872 89.9157 74.4726 89.6051 74.4958C89.0241 74.5698 87.9507 74.6311 87.6676 74.6142C86.9598 74.572 86.6048 74.3586 84.9419 72.9558C84.3672 72.5037 84.1939 72.3262 83.8495 71.7959C83.0614 70.5789 82.5204 69.5605 82.2077 68.6393C81.6012 66.8984 81.3856 64.6292 81.6305 62.2036C81.7129 60.9633 81.7889 60.2492 81.8586 60.0611C81.8797 59.9872 81.8882 59.8456 81.8755 59.778C81.8628 59.7104 81.8987 59.5287 81.941 59.3808C82.017 59.2266 82.1374 58.749 82.2304 58.3117C82.3233 57.8743 82.4437 57.3968 82.5134 57.2087C82.5557 57.0608 82.6191 56.839 82.6402 56.765C82.6613 56.6911 82.6972 56.5094 82.7458 56.3953C82.7606 56.2875 82.8303 56.0995 82.8789 55.9854C82.8873 55.8438 82.9571 55.6558 83.0331 55.5015C83.0817 55.3874 83.1662 55.0916 83.2634 54.8634C83.3204 54.6078 83.5 54.2591 83.631 54.0246C83.988 53.5027 84.6768 52.3237 84.6915 52.2159C84.6852 52.1821 84.7063 52.1082 84.7676 52.0617C84.8162 51.9476 84.9239 51.9624 85.0782 52.0384C85.2324 52.1145 85.8177 52.2497 86.2149 52.3152C86.3227 52.33 86.4368 52.3785 86.4833 52.4398C86.5572 52.4609 86.6312 52.4821 86.7262 52.4292C86.9227 52.3574 87.5841 52.3383 87.7383 52.4144C87.7848 52.4757 87.9263 52.4841 88.0341 52.4989C88.1693 52.4735 88.3109 52.482 88.3912 52.5369C88.4651 52.558 88.5729 52.5728 88.6405 52.5601C88.7081 52.5475 88.9236 52.577 89.1117 52.6467C89.2596 52.689 89.549 52.7397 89.6843 52.7143C89.8596 52.7164 90.0815 52.7798 90.3498 52.9044C90.5442 53.008 90.8802 53.1199 91.0281 53.1622C91.4718 53.2889 92.9191 54.1023 93.179 54.3685C93.3058 54.4847 93.4791 54.6622 93.572 54.7847C93.6249 54.8798 93.7178 55.0023 93.7516 54.996C93.8784 55.1122 94.1108 55.4186 94.1299 55.52C94.1489 55.6214 94.2482 55.7777 94.375 55.8939C94.5482 56.0714 94.6011 56.1665 94.6518 56.4369C94.6835 56.606 94.8082 56.8975 94.9138 57.0877C95.0195 57.2778 95.1441 57.5694 95.2033 57.6983C95.2287 57.8335 95.3597 58.1589 95.4506 58.4568ZM91.8989 59.8578C91.9264 59.8176 91.901 59.6824 91.8418 59.5535C91.8101 59.3845 91.7129 59.0528 91.6622 58.7824C91.4319 57.7407 91.1149 56.6104 90.7556 55.6279L90.6457 55.2286L90.3753 55.2793C90.2337 55.2709 90.0985 55.2962 90.1049 55.33C90.071 55.3364 89.9422 55.3955 89.7731 55.4272C89.2661 55.5223 89.1097 55.6217 88.8287 55.9893C88.7674 56.0358 88.6512 56.1626 88.5562 56.2154C88.4674 56.302 88.4062 56.3485 88.4125 56.3823C88.4315 56.4837 88.0618 56.938 87.9942 56.9507C87.9266 56.9634 87.1766 58.1889 87.1956 58.2903C87.2019 58.3241 87.1322 58.5121 87.0562 58.6664C86.9801 58.8206 86.9041 58.9749 86.9167 59.0425C86.9231 59.0763 86.8872 59.258 86.8386 59.3721C86.7266 59.708 86.6189 60.2532 86.6569 60.456C86.6696 60.5236 86.5999 60.7117 86.545 60.792C86.4626 60.9124 86.4203 61.0603 86.4393 61.1617C86.452 61.2293 86.4161 61.411 86.3739 61.5589C86.2915 61.6794 86.2408 61.9688 86.245 62.178C86.2091 62.3597 86.1795 62.5752 86.1584 62.6492C86.0887 62.8372 86.0106 63.7267 85.9578 64.7515C85.924 65.3177 85.8902 65.884 85.8881 66.0594C85.8206 66.6319 86.0066 68.5567 86.2052 69.4294C86.3722 70.1329 86.8793 71.1576 87.0209 71.1661C87.1899 71.1344 87.6864 70.7963 88.0541 70.5174C89.0555 69.6996 89.7252 68.9791 89.9957 68.3685C90.0992 68.1741 90.2365 67.9734 90.2978 67.9269C90.3929 67.8741 90.7752 66.9275 90.7837 66.7859C90.7647 66.6845 90.9886 66.0126 91.0499 65.9661C91.0773 65.926 91.1048 65.8858 91.0583 65.8246C91.052 65.7908 91.0667 65.683 91.1153 65.5689C91.1639 65.4548 91.2062 65.3069 91.1935 65.2393C91.1871 65.2055 91.2231 65.0238 91.2928 64.8357C91.335 64.6878 91.3709 64.5061 91.3646 64.4723C91.3583 64.4385 91.3794 64.3646 91.4343 64.2843C91.4956 64.2378 91.5104 64.13 91.4977 64.0624C91.4787 63.961 91.5357 63.7053 91.5991 63.4835C91.6899 63.2215 91.7258 63.0398 91.7195 63.006C91.673 62.9447 91.7617 62.2982 91.88 61.996C91.9159 61.8143 91.9349 61.3558 91.8715 60.4578C91.8884 60.1747 91.8778 59.9317 91.8989 59.8578Z" fill="#FEC7FF"/>
</g>
</svg>
