<svg width="99" height="95" viewBox="0 0 99 95" fill="none" xmlns="http://www.w3.org/2000/svg">
<rect x="0.277588" y="16.9551" width="84.9574" height="78.9964" rx="1.07405" transform="rotate(-10.847 0.277588 16.9551)" fill="#FF2626"/>
<path d="M14.52 37.0385L11.7866 22.7728L6.82862 23.7228L6.42532 21.618L18.5395 19.2968L18.9428 21.4016L14.0083 22.3471L16.7417 36.6128L14.52 37.0385ZM24.5022 35.3926C23.7382 35.5389 23.0301 35.513 22.3779 35.3147C21.7227 35.1008 21.1728 34.7617 20.7283 34.2973C20.2993 33.8299 20.0221 33.2688 19.8966 32.614C19.7562 31.8812 19.8583 31.1909 20.2029 30.543C20.5445 29.8795 21.083 29.3157 21.8184 28.8515C22.5693 28.3843 23.4593 28.0521 24.4883 27.855L27.2246 27.3307L27.5382 28.9677L24.9423 29.4651C23.851 29.6743 23.0512 30.0134 22.5431 30.4825C22.0475 30.9331 21.861 31.4779 21.9834 32.1172C22.085 32.6473 22.3558 33.048 22.7957 33.3193C23.2326 33.575 23.8096 33.6341 24.5268 33.4967C25.166 33.3742 25.7034 33.142 26.1389 32.7999C26.5715 32.4422 26.8692 32.0134 27.032 31.5135C27.2104 31.0106 27.2473 30.4863 27.1428 29.9406L26.5602 26.9003C26.4616 26.3858 26.2737 25.9531 25.9963 25.6022C25.7189 25.2513 25.3737 25.0103 24.9607 24.8793C24.5447 24.7327 24.0872 24.7072 23.5883 24.8028C22.9023 24.9343 22.391 25.2181 22.0543 25.6544C21.7333 26.0877 21.569 26.5798 21.5614 27.1308L19.48 27.5296C19.4295 26.8443 19.5361 26.1773 19.7997 25.5288C20.079 24.8772 20.5131 24.3172 21.1022 23.8487C21.6913 23.3803 22.4068 23.0654 23.2487 22.9041C24.1374 22.7338 24.9621 22.7778 25.7228 23.0361C26.4805 23.2789 27.1137 23.7152 27.6223 24.3451C28.1435 24.9564 28.4907 25.7142 28.664 26.6185L30.089 34.0554L28.5455 34.3511L27.8233 32.9863L27.7064 33.0087C27.4626 33.508 27.0789 33.9937 26.5551 34.4658C26.044 34.9193 25.3597 35.2282 24.5022 35.3926ZM39.7905 32.1964L33.5128 27.1441L37.2091 20.4958L39.6881 20.0208L35.6425 27.1239L35.4633 26.1885L42.4566 31.6856L39.7905 32.1964ZM32.798 33.5363L29.6612 17.1658L31.7426 16.7669L34.8794 33.1375L32.798 33.5363ZM47.9323 30.9031C46.8721 31.1062 45.8547 31.0264 44.88 30.6636C43.9053 30.3008 43.0789 29.6995 42.4008 28.8596C41.7226 28.0197 41.2715 27.0152 41.0475 25.8458C40.8294 24.7077 40.8802 23.6231 41.1998 22.592C41.5351 21.558 42.0885 20.6923 42.86 19.9949C43.6285 19.2819 44.5273 18.8268 45.5563 18.6297C46.5697 18.4355 47.5389 18.5165 48.4638 18.8727C49.4043 19.2258 50.1935 19.802 50.8316 20.601C51.4852 21.3971 51.9165 22.3408 52.1256 23.4322C52.1704 23.6661 52.2045 23.8858 52.2277 24.0915C52.251 24.2972 52.2526 24.4746 52.2328 24.6239L42.808 26.4298L42.4854 24.746L50.6005 23.191L50.1444 24.7331C50.1643 24.5839 50.17 24.4454 50.1617 24.3176C50.166 24.1714 50.1562 24.0358 50.1323 23.9111C49.9859 23.1472 49.7064 22.4895 49.2936 21.9382C48.8779 21.3714 48.3722 20.9672 47.7763 20.7258C47.1775 20.4688 46.5585 20.4015 45.9193 20.524C45.2645 20.6495 44.6908 20.9453 44.1982 21.4114C43.7056 21.8775 43.3584 22.4694 43.1565 23.1869C42.9515 23.8889 42.9267 24.6452 43.0821 25.456C43.2464 26.3135 43.5457 27.032 43.98 27.6115C44.4143 28.1909 44.9372 28.5999 45.5486 28.8383C46.1756 29.0738 46.8476 29.1228 47.5648 28.9854C48.2352 28.8569 48.7789 28.6154 49.1959 28.2607C49.6128 27.906 49.9324 27.465 50.1546 26.9375L52.2827 26.5297C52.1624 27.167 51.9114 27.797 51.5296 28.4197C51.1449 29.0268 50.6409 29.5598 50.0176 30.0186C49.4069 30.4589 48.7118 30.7537 47.9323 30.9031ZM60.5109 28.2262L58.2569 16.4628L60.3383 16.064L62.5923 27.8274L60.5109 28.2262ZM58.9733 14.5072C58.5991 14.5789 58.2634 14.5139 57.9661 14.3122C57.6688 14.1106 57.4844 13.8226 57.4127 13.4485C57.3649 13.199 57.3776 12.9703 57.4509 12.7623C57.5368 12.5357 57.6706 12.3484 57.8524 12.2004C58.0312 12.0369 58.2375 11.9327 58.4714 11.8879C58.8456 11.8162 59.1735 11.8827 59.4551 12.0873C59.7524 12.289 59.9369 12.5769 60.0086 12.9511C60.0564 13.2005 60.0373 13.4385 59.9514 13.6651C59.8781 13.8731 59.7521 14.0589 59.5733 14.2225C59.4071 14.3675 59.2071 14.4623 58.9733 14.5072ZM69.5788 26.7554C68.9084 26.8838 68.2783 26.8429 67.6884 26.6327C67.0986 26.4224 66.5988 26.0495 66.1891 25.5138C65.7793 24.9781 65.4953 24.2971 65.3369 23.4707L64.1539 17.2967L62.1427 17.6821L61.7932 15.858L62.6819 15.6877C63.134 15.601 63.4624 15.4169 63.667 15.1352C63.8717 14.8536 63.9292 14.4789 63.8396 14.0111L63.5035 12.2572L65.2808 11.9166L65.8724 15.0036L68.515 14.4972L68.878 16.3915L66.2353 16.8979L67.4004 22.9784C67.5348 23.68 67.7908 24.1724 68.1684 24.4557C68.5615 24.7359 69.0465 24.8208 69.6234 24.7102C69.9196 24.6535 70.1835 24.5544 70.415 24.4131L70.778 26.3074C70.634 26.3996 70.4637 26.4808 70.267 26.5508C70.0733 26.6364 69.8439 26.7046 69.5788 26.7554ZM14.9722 59.6435L11.9116 43.6705L13.4551 43.3748L14.1728 44.7162L14.2897 44.6938C14.4068 44.4612 14.6036 44.1811 14.8802 43.8533C15.1725 43.5225 15.5501 43.2158 16.0132 42.9331C16.4732 42.6348 16.9995 42.4289 17.592 42.3154C18.5586 42.1302 19.5059 42.2235 20.4338 42.5952C21.3743 42.9484 22.1758 43.5464 22.8383 44.3893C23.5165 45.2291 23.9676 46.2337 24.1917 47.403C24.4157 48.5724 24.3694 49.6804 24.0527 50.727C23.7487 51.7551 23.2264 52.6148 22.4861 53.3062C21.7584 53.9791 20.9112 54.4081 19.9445 54.5933C19.3677 54.7038 18.8104 54.7056 18.2726 54.5985C17.7505 54.4884 17.294 54.3415 16.9032 54.1578C16.528 53.971 16.2586 53.7883 16.095 53.6095L15.9781 53.6319L17.0536 59.2447L14.9722 59.6435ZM19.4089 52.6836C20.0481 52.5611 20.5999 52.2776 21.0643 51.833C21.5257 51.3728 21.851 50.7933 22.0404 50.0943C22.2267 49.3797 22.2422 48.6171 22.0869 47.8063C21.9315 46.9956 21.6367 46.3005 21.2024 45.721C20.7681 45.1415 20.2531 44.7311 19.6572 44.4897C19.0584 44.2326 18.4394 44.1654 17.8002 44.2879C17.1765 44.4073 16.6262 44.6987 16.1493 45.1618C15.6849 45.6064 15.358 46.1782 15.1687 46.8771C14.9794 47.5761 14.9624 48.331 15.1177 49.1417C15.2731 49.9524 15.5694 50.6553 16.0067 51.2504C16.441 51.8299 16.9575 52.2481 17.5563 52.5052C18.1677 52.7436 18.7853 52.8031 19.4089 52.6836ZM27.2866 52.9198L25.0326 41.1564L26.5762 40.8606L27.2938 42.2021L27.4108 42.1797C27.5982 41.7235 27.9303 41.2639 28.4073 40.8007C28.8843 40.3376 29.4502 40.0432 30.105 39.9178C30.2765 39.8849 30.4417 39.8613 30.6006 39.8471C30.7595 39.8328 30.9121 39.8278 31.0584 39.8321L31.4572 41.9135C31.1802 41.9019 30.8624 41.9305 30.5038 41.9992C29.9114 42.1127 29.4067 42.3468 28.9897 42.7015C28.5884 43.0531 28.3044 43.5116 28.138 44.0769C27.9841 44.6236 27.9714 45.2322 28.0999 45.9026L29.368 52.521L27.2866 52.9198ZM39.2491 50.8943C38.2201 51.0915 37.2183 51.0087 36.2436 50.6459C35.266 50.2675 34.4303 49.6599 33.7365 48.823C33.0398 47.9705 32.5824 46.9752 32.3643 45.8371C32.1462 44.6989 32.2048 43.6128 32.5401 42.5788C32.8753 41.5448 33.4287 40.679 34.2003 39.9817C34.9688 39.2687 35.8676 38.8136 36.8966 38.6164C37.91 38.4223 38.9055 38.5144 39.8832 38.8927C40.8578 39.2555 41.692 39.8554 42.3858 40.6923C43.0795 41.5291 43.5354 42.5166 43.7535 43.6548C43.9716 44.7929 43.9145 45.8868 43.5822 46.9364C43.247 47.9705 42.6951 48.844 41.9265 49.557C41.155 50.2544 40.2626 50.7001 39.2491 50.8943ZM38.8772 48.9532C39.532 48.8278 40.0994 48.5413 40.5794 48.0937C41.0719 47.6276 41.4129 47.045 41.6022 46.346C41.8042 45.6285 41.8275 44.8643 41.6721 44.0536C41.5168 43.2429 41.2142 42.5493 40.7643 41.9728C40.33 41.3933 39.7993 40.9858 39.1723 40.7504C38.5579 40.4963 37.9233 40.432 37.2685 40.5575C36.5981 40.686 36.0166 40.9833 35.524 41.4494C35.0441 41.897 34.7016 42.4717 34.4967 43.1737C34.3074 43.8727 34.2904 44.6275 34.4457 45.4383C34.6011 46.249 34.8974 46.9519 35.3347 47.547C35.7846 48.1235 36.3167 48.5387 36.9311 48.7928C37.5581 49.0282 38.2068 49.0817 38.8772 48.9532ZM50.6511 48.7096C49.7936 48.8739 48.9968 48.8488 48.2607 48.6342C47.5245 48.4197 46.9063 48.0613 46.406 47.5591C45.9213 47.054 45.5913 46.4707 45.4161 45.8092L47.4741 45.4149C47.647 45.9798 47.9876 46.4075 48.4958 46.6981C49.0011 46.973 49.6045 47.0433 50.3061 46.9088C51.0077 46.7744 51.5157 46.5154 51.8301 46.1319C52.1446 45.7484 52.257 45.3228 52.1674 44.855C52.0986 44.4964 51.9249 44.2226 51.6463 44.0336C51.3646 43.8289 51.0388 43.6893 50.6689 43.6147C50.2961 43.5245 49.7877 43.4441 49.1438 43.3735C48.3009 43.2764 47.6075 43.1588 47.0638 43.0205C46.5201 42.8822 46.0271 42.6292 45.5849 42.2613C45.1552 41.8749 44.8717 41.3231 44.7343 40.6059C44.6148 39.9823 44.6694 39.3819 44.8983 38.8046C45.1271 38.2274 45.5172 37.7324 46.0684 37.3197C46.6353 36.9039 47.3319 36.6169 48.1582 36.4586C48.969 36.3032 49.7175 36.3295 50.4039 36.5374C51.0873 36.7298 51.662 37.0722 52.1282 37.5648C52.5943 38.0573 52.915 38.6343 53.0902 39.2958L51.0322 39.6901C50.8437 39.1282 50.5388 38.7179 50.1175 38.4592C49.6962 38.2005 49.1581 38.1339 48.5033 38.2593C47.8641 38.3818 47.3998 38.6162 47.1106 38.9626C46.8214 39.309 46.7186 39.7004 46.8022 40.137C46.8679 40.48 47.0324 40.7475 47.2954 40.9395C47.5555 41.116 47.872 41.2493 48.2449 41.3395C48.6148 41.4141 49.1139 41.4882 49.7422 41.5617C50.6007 41.6558 51.3033 41.7798 51.85 41.9337C52.3938 42.0719 52.8897 42.3406 53.3379 42.7396C53.7988 43.1201 54.0979 43.6689 54.2353 44.386C54.3638 45.0565 54.3073 45.6896 54.0658 46.2854C53.84 46.8782 53.4373 47.3918 52.8579 47.8261C52.2754 48.2448 51.5398 48.5393 50.6511 48.7096ZM60.9295 46.7401C60.2591 46.8686 59.6289 46.8277 59.0391 46.6174C58.4493 46.4072 57.9495 46.0342 57.5397 45.4985C57.13 44.9628 56.8459 44.2818 56.6876 43.4555L55.5046 37.2815L53.4933 37.6669L53.1438 35.8427L54.0325 35.6724C54.4846 35.5858 54.813 35.4017 55.0177 35.12C55.2223 34.8383 55.2798 34.4636 55.1902 33.9959L54.8541 32.2419L56.6315 31.9014L57.223 34.9884L59.8657 34.482L60.2286 36.3763L57.586 36.8827L58.7511 42.9631C58.8855 43.6647 59.1415 44.1572 59.519 44.4404C59.9122 44.7207 60.3972 44.8055 60.974 44.695C61.2702 44.6383 61.5341 44.5392 61.7657 44.3979L62.1286 46.2922C61.9847 46.3844 61.8143 46.4655 61.6176 46.5355C61.4239 46.6212 61.1945 46.6893 60.9295 46.7401ZM68.8376 45.2249C67.8086 45.422 66.8067 45.3392 65.8321 44.9764C64.8544 44.598 64.0187 43.9904 63.325 43.1535C62.6282 42.3011 62.1708 41.3057 61.9527 40.1676C61.7347 39.0295 61.7933 37.9434 62.1285 36.9093C62.4638 35.8753 63.0172 35.0096 63.7887 34.3122C64.5572 33.5992 65.456 33.1441 66.485 32.947C67.4984 32.7528 68.4939 32.8449 69.4716 33.2233C70.4463 33.5861 71.2805 34.1859 71.9742 35.0228C72.668 35.8597 73.1239 36.8472 73.3419 37.9853C73.56 39.1235 73.5029 40.2173 73.1707 41.267C72.8354 42.301 72.2835 43.1745 71.515 43.8875C70.7434 44.5849 69.851 45.0307 68.8376 45.2249ZM68.4656 43.2838C69.1205 43.1583 69.6878 42.8718 70.1678 42.4242C70.6604 41.9581 71.0013 41.3755 71.1907 40.6766C71.3926 39.959 71.4159 39.1949 71.2606 38.3841C71.1052 37.5734 70.8026 36.8798 70.3527 36.3033C69.9184 35.7238 69.3877 35.3163 68.7607 35.0809C68.1463 34.8269 67.5117 34.7626 66.8569 34.888C66.1865 35.0165 65.605 35.3138 65.1125 35.7799C64.6325 36.2275 64.2901 36.8023 64.0851 37.5042C63.8958 38.2032 63.8788 38.9581 64.0341 39.7688C64.1895 40.5795 64.4858 41.2824 64.9231 41.8775C65.373 42.454 65.9051 42.8693 66.5195 43.1233C67.1465 43.3587 67.7952 43.4122 68.4656 43.2838Z" fill="white"/>
<path d="M81.7368 12.6063C81.7884 12.8757 81.7432 13.1151 81.6011 13.3246C81.4774 13.5069 81.3265 13.6151 81.1484 13.6492C81.0206 13.6737 80.9118 13.6496 80.8221 13.5768C80.7324 13.5041 80.6729 13.3912 80.6436 13.2382C80.6056 13.0396 80.6343 12.8128 80.7298 12.5578C80.8276 12.3023 80.9459 12.172 81.0845 12.1667C81.1174 12.1533 81.1522 12.1431 81.1887 12.1361C81.3188 12.1112 81.4313 12.1358 81.5259 12.21C81.6315 12.2915 81.7018 12.4236 81.7368 12.6063ZM81.5758 12.6371C81.5491 12.4978 81.4982 12.3987 81.423 12.3397C81.3618 12.2923 81.297 12.2751 81.2285 12.2882C81.1897 12.2957 81.1616 12.3034 81.1442 12.3115C81.1287 12.3168 81.1106 12.3274 81.0899 12.3432C80.9831 12.4157 80.9018 12.5414 80.8461 12.7201C80.7927 12.8984 80.7811 13.0663 80.8113 13.2239C80.8327 13.3357 80.875 13.414 80.938 13.4588C80.9928 13.498 81.0556 13.5108 81.1264 13.4972C81.2771 13.4683 81.3985 13.367 81.4906 13.1931C81.5846 13.0165 81.613 12.8312 81.5758 12.6371Z" fill="white"/>
<path d="M80.4054 12.8568C80.4565 13.1239 80.4279 13.3637 80.3195 13.5762C80.2213 13.7679 80.1003 13.8774 79.9565 13.905C79.9062 13.9146 79.8377 13.9088 79.7508 13.8876C79.6638 13.8664 79.5802 13.8315 79.4999 13.783L79.4877 13.7747C79.4686 13.9961 79.4564 14.1795 79.4511 14.3249C79.4481 14.4699 79.4523 14.572 79.4637 14.6314C79.4654 14.6405 79.4705 14.6549 79.479 14.6746C79.4875 14.6943 79.4929 14.7098 79.4951 14.7212C79.503 14.7623 79.4974 14.7954 79.4786 14.8203C79.4597 14.8452 79.4365 14.8603 79.4091 14.8655C79.3749 14.8721 79.3464 14.8657 79.3238 14.8464C79.3011 14.8271 79.2863 14.7991 79.2793 14.7626C79.2644 14.685 79.271 14.4659 79.299 14.1055C79.3189 13.839 79.3421 13.5955 79.3685 13.375C79.4092 13.0193 79.4318 12.822 79.4362 12.7833C79.4652 12.5766 79.5117 12.4671 79.5756 12.4548C79.6053 12.4491 79.6274 12.4532 79.6419 12.467C79.6582 12.4781 79.669 12.4973 79.6742 12.5247C79.679 12.5498 79.677 12.5762 79.6681 12.604C79.6344 12.7122 79.6165 12.7855 79.6144 12.8237C79.6777 12.7098 79.7428 12.6169 79.8095 12.5449C79.8784 12.4725 79.9449 12.4302 80.0088 12.418C80.091 12.4022 80.1701 12.432 80.2461 12.5074C80.3216 12.5805 80.3747 12.697 80.4054 12.8568ZM80.251 12.9219C80.2265 12.794 80.1869 12.6987 80.1322 12.6358C80.0893 12.5848 80.0473 12.5633 80.0062 12.5711C79.9514 12.5816 79.8892 12.6397 79.8195 12.7454C79.7516 12.8483 79.6872 12.9814 79.6261 13.1446C79.5734 13.2896 79.5328 13.4418 79.5041 13.6011C79.5544 13.6412 79.6257 13.6796 79.7179 13.7164C79.812 13.7504 79.8888 13.7617 79.9481 13.7504C80.0532 13.7302 80.1382 13.6429 80.2033 13.4885C80.2749 13.3185 80.2908 13.1297 80.251 12.9219Z" fill="white"/>
<path d="M78.9524 12.8507C78.9726 12.8823 78.9908 12.9214 79.0068 12.9681C79.0229 13.0147 79.0348 13.0586 79.0427 13.0997C79.0672 13.2275 79.0685 13.3516 79.0465 13.4717C79.0246 13.5919 78.987 13.6985 78.9338 13.7916C78.8756 13.8951 78.8017 13.979 78.7123 14.0435C78.6398 14.0976 78.5602 14.133 78.4734 14.1496C78.3798 14.1676 78.2942 14.1591 78.2165 14.1243C78.1388 14.0895 78.075 14.0283 78.0251 13.9408C78.0076 13.9111 77.993 13.8783 77.9814 13.8427C77.9694 13.8048 77.9597 13.7664 77.9523 13.7276C77.9422 13.675 77.9364 13.6324 77.9349 13.5995C77.9333 13.5667 77.9346 13.5238 77.9386 13.471C77.8437 13.5933 77.7714 13.7101 77.7217 13.8214C77.6985 13.8732 77.6745 13.9394 77.6497 14.0199C77.6272 14.0999 77.6136 14.1463 77.6089 14.1591C77.5954 14.1995 77.5798 14.2297 77.5624 14.2496C77.5444 14.2673 77.5252 14.2781 77.5046 14.282C77.4841 14.2859 77.4643 14.2814 77.4453 14.2685C77.4308 14.2547 77.4211 14.2353 77.4163 14.2102C77.4071 14.1622 77.4079 14.0922 77.4187 14.0002C77.4245 13.9565 77.4365 13.8832 77.4547 13.7803C77.46 13.7462 77.4844 13.6326 77.5279 13.4396C77.5468 13.3532 77.5517 13.286 77.5425 13.238C77.532 13.1832 77.5277 13.1485 77.5297 13.134C77.535 13.0879 77.5632 13.0435 77.6142 13.0006C77.6344 12.9825 77.6559 12.9713 77.6787 12.9669C77.7107 12.9608 77.7308 12.9794 77.7391 13.0228C77.7453 13.0548 77.7436 13.0894 77.7342 13.1267C77.7157 13.2155 77.7017 13.2844 77.6922 13.3336C77.6746 13.4269 77.664 13.4893 77.6606 13.5207L77.6433 13.7087C77.6781 13.631 77.7168 13.5608 77.7592 13.4983C77.7629 13.4928 77.8005 13.4418 77.8719 13.3453L77.957 13.2331C77.9956 13.0766 78.028 12.9675 78.054 12.9057C78.08 12.8439 78.1067 12.8103 78.1341 12.8051C78.1478 12.8025 78.1692 12.809 78.1983 12.8248C78.2329 12.7708 78.2763 12.7258 78.3286 12.6897C78.3809 12.6537 78.4287 12.6315 78.4721 12.6232C78.5634 12.6057 78.652 12.6171 78.7378 12.6575C78.8255 12.6951 78.897 12.7595 78.9524 12.8507ZM78.8923 13.4267C78.9054 13.3343 78.9021 13.2367 78.8824 13.1339C78.8671 13.054 78.8421 12.9854 78.8075 12.9282C78.7751 12.8705 78.7326 12.8277 78.6799 12.7999C78.6295 12.7717 78.5758 12.7631 78.5187 12.774C78.4616 12.7849 78.4106 12.8089 78.3656 12.846C78.3041 12.8956 78.2502 12.9722 78.2038 13.0758C78.1007 13.3038 78.068 13.516 78.1056 13.7124C78.1275 13.8265 78.1708 13.9106 78.2356 13.9644C78.2636 13.9874 78.2979 14.0057 78.3384 14.0193C78.3807 14.0301 78.4235 14.0314 78.4669 14.0231C78.5149 14.0139 78.5659 13.9899 78.62 13.9511C78.6902 13.8974 78.7503 13.822 78.8003 13.7248C78.8499 13.6254 78.8806 13.526 78.8923 13.4267Z" fill="white"/>
<path d="M77.448 12.1241C77.4555 12.1629 77.4546 12.1832 77.4455 12.1849C77.4318 12.1876 77.417 12.1845 77.4011 12.1757C77.3852 12.1669 77.3544 12.1669 77.3088 12.1756C77.1832 12.1997 77.0256 12.2606 76.8361 12.3585C76.6141 12.4721 76.5103 12.5665 76.5247 12.6419C76.5317 12.6784 76.5599 12.7144 76.6093 12.7499C76.6311 12.7647 76.6749 12.7894 76.7407 12.8241C76.8596 12.8889 76.953 12.9622 77.0207 13.0439C77.1092 13.1476 77.1683 13.2771 77.1981 13.4324C77.2405 13.6539 77.2018 13.8779 77.0819 14.1044C76.9638 14.3282 76.8123 14.4578 76.6274 14.4933C76.536 14.5108 76.4523 14.4878 76.3763 14.4242C76.302 14.358 76.2518 14.2564 76.2255 14.1194C76.1857 13.9116 76.2101 13.7176 76.2986 13.5373C76.3821 13.3674 76.4877 13.2703 76.6156 13.2458C76.7 13.2296 76.7788 13.2453 76.8518 13.2928C76.9267 13.3377 76.9729 13.4057 76.9904 13.4971C76.996 13.5267 76.9956 13.5493 76.9891 13.5648C76.9826 13.5802 76.9679 13.5901 76.9451 13.5945C76.9268 13.598 76.9096 13.5823 76.8935 13.5476C76.8662 13.4913 76.8493 13.459 76.843 13.4507C76.8268 13.4278 76.8107 13.4119 76.7948 13.4032C76.7653 13.3851 76.7323 13.3796 76.6958 13.3866C76.5771 13.4094 76.4859 13.4955 76.4222 13.645C76.3581 13.7922 76.3405 13.9411 76.3694 14.0918C76.3895 14.1968 76.4265 14.2726 76.4804 14.3191C76.5257 14.3577 76.5757 14.3718 76.6305 14.3613C76.7583 14.3368 76.868 14.2235 76.9594 14.0213C77.0509 13.8192 77.0785 13.6234 77.0422 13.4339C77.0207 13.322 76.9798 13.2257 76.9193 13.145C76.8747 13.0849 76.8136 13.0315 76.736 12.9848C76.6607 12.9377 76.587 12.8927 76.5148 12.8497C76.43 12.7902 76.3815 12.7285 76.3693 12.6645C76.3544 12.5869 76.3895 12.5044 76.4745 12.4171C76.5775 12.3122 76.7521 12.2042 76.9983 12.0931C77.0875 12.0523 77.1641 12.0258 77.228 12.0136C77.2988 12 77.353 12.005 77.3907 12.0286C77.4202 12.0466 77.4393 12.0784 77.448 12.1241Z" fill="white"/>
<path d="M70.4477 7.77474C70.5603 7.75316 70.6553 7.7705 70.7321 7.82665C70.8128 7.87698 70.8637 7.95845 70.8852 8.07074L71.5869 11.7326C71.6083 11.8448 71.5915 11.9414 71.5361 12.0228C71.4846 12.0984 71.4022 12.1469 71.2896 12.1684L70.9222 12.2388L71.0626 12.9716L70.7692 13.0278L69.7869 7.90137L70.4477 7.77474ZM72.5069 7.38018C72.6196 7.35859 72.7145 7.37593 72.7913 7.43208C72.872 7.48242 72.9229 7.56392 72.9445 7.67617L73.6461 11.3381C73.6675 11.4501 73.6506 11.5468 73.5953 11.6282C73.5438 11.7039 73.4614 11.7523 73.3488 11.7739L73.8565 12.4363L73.5256 12.4997L73.0179 11.8373L72.9815 11.8443L73.1219 12.577L72.8284 12.6333L71.8461 7.5068L72.5069 7.38018ZM74.5671 6.98542C74.6797 6.96384 74.7747 6.98117 74.8515 7.03733C74.9321 7.08766 74.9831 7.16917 75.0046 7.28142L75.8465 11.6751C75.868 11.7874 75.8513 11.8847 75.7959 11.9662C75.7444 12.0419 75.662 12.0903 75.5494 12.1119L75.2559 12.1681C75.1432 12.1897 75.046 12.1757 74.9653 12.1254C74.8886 12.0692 74.8399 11.9844 74.8183 11.8721L73.9765 7.47843C73.955 7.36617 73.9694 7.27213 74.0209 7.19648C74.0763 7.11499 74.161 7.06324 74.2736 7.04166L74.5671 6.98542ZM76.4067 6.63294C76.519 6.61147 76.6134 6.62911 76.6901 6.68503C76.7708 6.73535 76.8227 6.81666 76.8442 6.92893L76.8723 7.07568L76.5779 7.1321L76.5498 6.98535C76.5404 6.93664 76.5117 6.91717 76.4629 6.92643L76.1685 6.98285C76.1197 6.9923 76.1002 7.02101 76.1095 7.06971L76.1656 7.36224C76.1749 7.41099 76.2052 7.43886 76.2569 7.44418L76.662 7.48787C76.7497 7.49638 76.8242 7.53029 76.8862 7.58908C76.9531 7.64705 76.9957 7.71973 77.0126 7.80748L77.6861 11.3226C77.7076 11.4349 77.69 11.5324 77.6345 11.6139C77.583 11.6893 77.5013 11.7378 77.389 11.7594L77.0945 11.8158C76.9821 11.8373 76.8855 11.8231 76.8049 11.7729C76.7281 11.7167 76.6785 11.6321 76.657 11.5198L76.629 11.374L76.9235 11.3176L76.9514 11.4634C76.9608 11.5121 76.9897 11.5325 77.0385 11.5233L77.3329 11.4669C77.3817 11.4574 77.401 11.4278 77.3916 11.3791L76.7181 7.8639C76.7087 7.81534 76.6785 7.78823 76.627 7.78292L76.2219 7.73923C76.1342 7.73072 76.0569 7.69736 75.99 7.63949C75.9279 7.58052 75.888 7.50654 75.8711 7.41866L75.8151 7.12613C75.7936 7.01385 75.809 6.91966 75.8605 6.84399C75.9159 6.76265 75.9998 6.71097 76.1122 6.68936L76.4067 6.63294ZM78.665 6.50448L78.2977 6.57486L79.2237 11.4078L78.9303 11.4641L78.0042 6.6311L77.6369 6.70149L77.5806 6.408L78.6088 6.21099L78.665 6.50448ZM80.0762 5.92981C80.1888 5.90828 80.2839 5.92559 80.3606 5.98171C80.4412 6.03206 80.4923 6.11365 80.5138 6.2258L81.3557 10.6195C81.3772 10.7317 81.3605 10.8291 81.3051 10.9106C81.2536 10.9862 81.1711 11.0347 81.0585 11.0563L80.7641 11.1127C80.6517 11.1342 80.5551 11.12 80.4745 11.0698C80.3977 11.0136 80.3481 10.929 80.3265 10.8167L79.4847 6.423C79.4631 6.31072 79.4785 6.21653 79.53 6.14086C79.5854 6.05947 79.6694 6.00786 79.7818 5.98623L80.0762 5.92981ZM74.3298 7.33515C74.2809 7.34453 74.2606 7.37337 74.27 7.42219L75.1118 11.8159C75.1212 11.8647 75.1509 11.885 75.1998 11.8756L75.4933 11.8194C75.5423 11.81 75.5624 11.7802 75.553 11.7314L74.7111 7.33765C74.7018 7.28884 74.6723 7.26953 74.6233 7.27891L74.3298 7.33515ZM79.838 6.27972C79.7894 6.28919 79.7698 6.31789 79.7791 6.36658L80.621 10.7603C80.6303 10.809 80.6593 10.8294 80.708 10.8202L81.0025 10.7637C81.0513 10.7543 81.0706 10.7247 81.0612 10.6759L80.2193 6.28222C80.21 6.23347 80.1813 6.214 80.1325 6.2233L79.838 6.27972ZM70.8662 11.9463L71.2335 11.8759C71.2824 11.8666 71.3026 11.8374 71.2934 11.7889L70.5917 8.12698C70.5824 8.07815 70.5527 8.05789 70.5037 8.06727L70.1364 8.13766L70.8662 11.9463ZM72.9254 11.5517L73.2927 11.4813C73.3416 11.472 73.3618 11.4429 73.3526 11.3943L72.651 7.73241C72.6416 7.68358 72.6119 7.66332 72.563 7.67271L72.1956 7.74309L72.9254 11.5517Z" fill="white"/>
</svg>
