<svg width="99" height="94" viewBox="0 0 99 94" fill="none" xmlns="http://www.w3.org/2000/svg">
<rect y="15.9879" width="84.9574" height="78.9964" rx="1.07405" transform="rotate(-10.847 0 15.9879)" fill="#FF2626"/>
<path d="M14.2424 36.0714L11.509 21.8056L6.55104 22.7556L6.14774 20.6508L18.2619 18.3296L18.6652 20.4344L13.7307 21.3799L16.4641 35.6457L14.2424 36.0714ZM24.2246 34.4254C23.4606 34.5718 22.7525 34.5458 22.1003 34.3475C21.4451 34.1336 20.8953 33.7945 20.4507 33.3301C20.0217 32.8628 19.7445 32.3017 19.619 31.6469C19.4786 30.9141 19.5807 30.2237 19.9253 29.5758C20.2669 28.9123 20.8054 28.3485 21.5408 27.8843C22.2918 27.4171 23.1817 27.085 24.2108 26.8878L26.947 26.3635L27.2606 28.0006L24.6647 28.498C23.5734 28.7071 22.7736 29.0462 22.2655 29.5153C21.7699 29.9659 21.5834 30.5108 21.7059 31.15C21.8074 31.6801 22.0782 32.0808 22.5181 32.3521C22.955 32.6078 23.532 32.667 24.2492 32.5295C24.8885 32.4071 25.4258 32.1748 25.8614 31.8327C26.2939 31.4751 26.5916 31.0463 26.7544 30.5463C26.9328 30.0434 26.9697 29.5191 26.8652 28.9734L26.2826 25.9332C26.184 25.4187 25.9961 24.986 25.7187 24.635C25.4413 24.2841 25.0961 24.0431 24.6831 23.9121C24.2671 23.7656 23.8097 23.7401 23.3107 23.8357C22.6247 23.9671 22.1134 24.251 21.7768 24.6872C21.4557 25.1205 21.2914 25.6126 21.2838 26.1637L19.2024 26.5625C19.1519 25.8771 19.2585 25.2102 19.5221 24.5616C19.8014 23.9101 20.2355 23.35 20.8246 22.8816C21.4137 22.4131 22.1292 22.0982 22.9712 21.9369C23.8598 21.7666 24.6845 21.8106 25.4452 22.069C26.2029 22.3117 26.8361 22.748 27.3447 23.3779C27.8659 23.9892 28.2132 24.747 28.3864 25.6513L29.8114 33.0882L28.2679 33.3839L27.5457 32.0191L27.4288 32.0415C27.185 32.5408 26.8013 33.0265 26.2775 33.4986C25.7664 33.9522 25.0821 34.2611 24.2246 34.4254ZM39.513 31.2293L33.2352 26.1769L36.9316 19.5286L39.4105 19.0536L35.3649 26.1568L35.1857 25.2213L42.179 30.7184L39.513 31.2293ZM32.5204 32.5691L29.3836 16.1986L31.465 15.7998L34.6018 32.1703L32.5204 32.5691ZM47.6547 29.9359C46.5945 30.1391 45.5771 30.0592 44.6024 29.6964C43.6278 29.3336 42.8013 28.7323 42.1232 27.8924C41.445 27.0526 40.9939 26.048 40.7699 24.8787C40.5518 23.7405 40.6026 22.6559 40.9223 21.6249C41.2575 20.5908 41.8109 19.7251 42.5824 19.0277C43.351 18.3147 44.2497 17.8597 45.2787 17.6625C46.2921 17.4683 47.2613 17.5493 48.1862 17.9055C49.1267 18.2587 49.916 18.8348 50.554 19.6339C51.2076 20.4299 51.6389 21.3737 51.8481 22.465C51.8929 22.6989 51.9269 22.9187 51.9501 23.1243C51.9734 23.33 51.9751 23.5075 51.9552 23.6568L42.5304 25.4626L42.2078 23.7788L50.3229 22.2239L49.8668 23.766C49.8867 23.6167 49.8925 23.4782 49.8841 23.3505C49.8884 23.2042 49.8786 23.0687 49.8547 22.9439C49.7084 22.18 49.4288 21.5224 49.0161 20.9711C48.6003 20.4042 48.0946 20 47.4988 19.7586C46.8999 19.5016 46.2809 19.4343 45.6417 19.5568C44.9869 19.6823 44.4132 19.9781 43.9206 20.4442C43.4281 20.9104 43.0808 21.5022 42.8789 22.2198C42.6739 22.9217 42.6491 23.6781 42.8045 24.4888C42.9688 25.3463 43.2681 26.0648 43.7024 26.6443C44.1367 27.2238 44.6596 27.6327 45.271 27.8712C45.898 28.1066 46.5701 28.1556 47.2872 28.0182C47.9577 27.8898 48.5013 27.6482 48.9183 27.2935C49.3352 26.9389 49.6548 26.4978 49.877 25.9703L52.0052 25.5625C51.8848 26.1998 51.6338 26.8298 51.252 27.4525C50.8673 28.0596 50.3633 28.5926 49.74 29.0514C49.1294 29.4917 48.4342 29.7865 47.6547 29.9359ZM60.2334 27.259L57.9794 15.4956L60.0608 15.0968L62.3147 26.8602L60.2334 27.259ZM58.6957 13.54C58.3215 13.6117 57.9858 13.5467 57.6885 13.345C57.3913 13.1434 57.2068 12.8555 57.1351 12.4813C57.0873 12.2318 57.1 12.0031 57.1733 11.7951C57.2592 11.5685 57.393 11.3812 57.5748 11.2333C57.7536 11.0697 57.9599 10.9655 58.1938 10.9207C58.568 10.849 58.8959 10.9155 59.1776 11.1201C59.4748 11.3218 59.6593 11.6097 59.731 11.9839C59.7788 12.2333 59.7597 12.4714 59.6738 12.6979C59.6006 12.9059 59.4745 13.0917 59.2957 13.2553C59.1296 13.4003 58.9295 13.4952 58.6957 13.54ZM69.3012 25.7882C68.6308 25.9167 68.0007 25.8758 67.4109 25.6655C66.821 25.4553 66.3212 25.0823 65.9115 24.5466C65.5017 24.0109 65.2177 23.3299 65.0593 22.5036L63.8763 16.3295L61.8651 16.7149L61.5156 14.8908L62.4043 14.7205C62.8564 14.6339 63.1848 14.4497 63.3894 14.1681C63.5941 13.8864 63.6516 13.5117 63.562 13.044L63.2259 11.29L65.0033 10.9494L65.5948 14.0364L68.2374 13.5301L68.6004 15.4244L65.9577 15.9307L67.1228 22.0112C67.2573 22.7128 67.5132 23.2052 67.8908 23.4885C68.2839 23.7687 68.7689 23.8536 69.3458 23.7431C69.642 23.6863 69.9059 23.5873 70.1374 23.4459L70.5004 25.3402C70.3564 25.4325 70.1861 25.5136 69.9894 25.5836C69.7957 25.6692 69.5663 25.7374 69.3012 25.7882ZM14.6946 58.6763L11.634 42.7034L13.1775 42.4076L13.8952 43.749L14.0121 43.7266C14.1292 43.4941 14.326 43.2139 14.6027 42.8861C14.8949 42.5554 15.2725 42.2486 15.7356 41.9659C16.1956 41.6677 16.7219 41.4618 17.3144 41.3482C18.281 41.163 19.2283 41.2563 20.1562 41.6281C21.0967 41.9812 21.8982 42.5792 22.5608 43.4221C23.2389 44.262 23.69 45.2666 23.9141 46.4359C24.1381 47.6052 24.0918 48.7132 23.7751 49.7598C23.4711 50.7879 22.9489 51.6476 22.2085 52.339C21.4808 53.0119 20.6336 53.4409 19.6669 53.6261C19.0901 53.7367 18.5328 53.7384 17.995 53.6313C17.4729 53.5212 17.0164 53.3743 16.6256 53.1906C16.2504 53.0039 15.981 52.8211 15.8174 52.6423L15.7005 52.6647L16.776 58.2775L14.6946 58.6763ZM19.1313 51.7164C19.7705 51.5939 20.3223 51.3104 20.7867 50.8658C21.2481 50.4057 21.5735 49.8261 21.7628 49.1271C21.9491 48.4126 21.9646 47.6499 21.8093 46.8392C21.654 46.0284 21.3591 45.3333 20.9248 44.7539C20.4905 44.1744 19.9755 43.7639 19.3796 43.5225C18.7808 43.2655 18.1618 43.1982 17.5226 43.3207C16.899 43.4402 16.3487 43.7315 15.8717 44.1947C15.4073 44.6392 15.0805 45.211 14.8911 45.91C14.7018 46.609 14.6848 47.3638 14.8401 48.1745C14.9955 48.9853 15.2918 49.6882 15.7291 50.2832C16.1634 50.8627 16.6799 51.281 17.2787 51.538C17.8902 51.7764 18.5077 51.8359 19.1313 51.7164ZM27.0091 51.9526L24.7551 40.1892L26.2986 39.8935L27.0163 41.2349L27.1332 41.2125C27.3206 40.7563 27.6527 40.2967 28.1297 39.8335C28.6067 39.3704 29.1726 39.0761 29.8274 38.9506C29.9989 38.9177 30.1641 38.8942 30.323 38.8799C30.4819 38.8656 30.6345 38.8606 30.7808 38.8649L31.1796 40.9463C30.9026 40.9347 30.5848 40.9633 30.2262 41.032C29.6338 41.1455 29.1291 41.3796 28.7121 41.7343C28.3108 42.086 28.0269 42.5444 27.8604 43.1097C27.7065 43.6564 27.6938 44.265 27.8223 44.9354L29.0904 51.5538L27.0091 51.9526ZM38.9716 49.9272C37.9425 50.1243 36.9407 50.0415 35.966 49.6787C34.9884 49.3003 34.1527 48.6927 33.4589 47.8558C32.7622 47.0033 32.3048 46.008 32.0867 44.8699C31.8686 43.7318 31.9272 42.6457 32.2625 41.6116C32.5978 40.5776 33.1511 39.7119 33.9227 39.0145C34.6912 38.3015 35.59 37.8464 36.619 37.6493C37.6324 37.4551 38.6279 37.5472 39.6056 37.9256C40.5802 38.2884 41.4144 38.8882 42.1082 39.7251C42.8019 40.562 43.2579 41.5495 43.4759 42.6876C43.694 43.8257 43.6369 44.9196 43.3046 45.9693C42.9694 47.0033 42.4175 47.8768 41.649 48.5898C40.8774 49.2872 39.985 49.733 38.9716 49.9272ZM38.5996 47.9861C39.2544 47.8606 39.8218 47.5741 40.3018 47.1265C40.7944 46.6604 41.1353 46.0778 41.3246 45.3789C41.5266 44.6613 41.5499 43.8972 41.3945 43.0864C41.2392 42.2757 40.9366 41.5821 40.4867 41.0056C40.0524 40.4261 39.5217 40.0186 38.8947 39.7832C38.2803 39.5292 37.6457 39.4649 36.9909 39.5903C36.3205 39.7188 35.739 40.0161 35.2464 40.4822C34.7665 40.9298 34.424 41.5046 34.2191 42.2065C34.0298 42.9055 34.0128 43.6604 34.1681 44.4711C34.3235 45.2818 34.6198 45.9847 35.0571 46.5798C35.507 47.1563 36.0391 47.5715 36.6535 47.8256C37.2805 48.061 37.9292 48.1145 38.5996 47.9861ZM50.3735 47.7424C49.516 47.9067 48.7192 47.8816 47.9831 47.6671C47.247 47.4525 46.6287 47.0941 46.1284 46.592C45.6437 46.0868 45.3137 45.5035 45.1385 44.842L47.1965 44.4477C47.3694 45.0126 47.71 45.4403 48.2182 45.7309C48.7235 46.0058 49.3269 46.0761 50.0285 45.9416C50.7301 45.8072 51.2381 45.5482 51.5525 45.1647C51.867 44.7812 51.9794 44.3556 51.8898 43.8879C51.8211 43.5293 51.6474 43.2554 51.3687 43.0664C51.087 42.8617 50.7612 42.7221 50.3914 42.6475C50.0185 42.5573 49.5101 42.477 48.8662 42.4064C48.0233 42.3093 47.3299 42.1916 46.7862 42.0533C46.2425 41.9151 45.7495 41.662 45.3073 41.2942C44.8776 40.9078 44.5941 40.356 44.4567 39.6388C44.3372 39.0151 44.3919 38.4147 44.6207 37.8375C44.8495 37.2602 45.2396 36.7652 45.7909 36.3525C46.3577 35.9368 47.0543 35.6497 47.8806 35.4914C48.6914 35.3361 49.4399 35.3623 50.1263 35.5703C50.8097 35.7626 51.3845 36.105 51.8506 36.5976C52.3167 37.0902 52.6374 37.6672 52.8126 38.3286L50.7546 38.7229C50.5662 38.161 50.2612 37.7507 49.8399 37.492C49.4186 37.2333 48.8805 37.1667 48.2257 37.2922C47.5865 37.4146 47.1222 37.6491 46.833 37.9954C46.5438 38.3418 46.441 38.7332 46.5246 39.1698C46.5904 39.5128 46.7548 39.7803 47.0178 39.9724C47.2779 40.1488 47.5944 40.2821 47.9673 40.3723C48.3372 40.4469 48.8363 40.521 49.4646 40.5946C50.3231 40.6887 51.0257 40.8127 51.5725 40.9665C52.1162 41.1048 52.6121 41.3734 53.0604 41.7724C53.5212 42.1529 53.8203 42.7017 53.9577 43.4189C54.0862 44.0893 54.0297 44.7224 53.7883 45.3182C53.5624 45.911 53.1598 46.4246 52.5803 46.8589C51.9978 47.2776 51.2622 47.5721 50.3735 47.7424ZM60.6519 45.773C59.9815 45.9014 59.3514 45.8605 58.7615 45.6503C58.1717 45.44 57.6719 45.0671 57.2621 44.5314C56.8524 43.9957 56.5683 43.3147 56.41 42.4883L55.227 36.3143L53.2158 36.6997L52.8662 34.8755L53.7549 34.7053C54.2071 34.6186 54.5354 34.4345 54.7401 34.1528C54.9447 33.8712 55.0022 33.4965 54.9126 33.0287L54.5765 31.2747L56.3539 30.9342L56.9454 34.0212L59.5881 33.5148L59.9511 35.4091L57.3084 35.9155L58.4735 41.996C58.6079 42.6976 58.8639 43.19 59.2414 43.4732C59.6346 43.7535 60.1196 43.8384 60.6964 43.7278C60.9927 43.6711 61.2565 43.572 61.4881 43.4307L61.851 45.325C61.7071 45.4172 61.5367 45.4984 61.34 45.5684C61.1463 45.654 60.9169 45.7222 60.6519 45.773ZM68.56 44.2577C67.531 44.4549 66.5291 44.372 65.5545 44.0092C64.5768 43.6309 63.7411 43.0232 63.0474 42.1863C62.3506 41.3339 61.8932 40.3386 61.6752 39.2004C61.4571 38.0623 61.5157 36.9762 61.8509 35.9422C62.1862 34.9081 62.7396 34.0424 63.5111 33.345C64.2796 32.632 65.1784 32.177 66.2074 31.9798C67.2208 31.7856 68.2163 31.8777 69.194 32.2561C70.1687 32.6189 71.0029 33.2187 71.6966 34.0556C72.3904 34.8925 72.8463 35.88 73.0644 37.0181C73.2824 38.1563 73.2253 39.2502 72.8931 40.2998C72.5578 41.3338 72.0059 42.2074 71.2374 42.9203C70.4659 43.6177 69.5734 44.0635 68.56 44.2577ZM68.188 42.3166C68.8429 42.1911 69.4103 41.9046 69.8902 41.4571C70.3828 40.9909 70.7237 40.4084 70.9131 39.7094C71.115 38.9918 71.1383 38.2277 70.983 37.417C70.8276 36.6062 70.525 35.9126 70.0751 35.3361C69.6408 34.7566 69.1102 34.3492 68.4832 34.1137C67.8688 33.8597 67.2342 33.7954 66.5793 33.9209C65.9089 34.0493 65.3274 34.3466 64.8349 34.8128C64.3549 35.2603 64.0125 35.8351 63.8075 36.5371C63.6182 37.236 63.6012 37.9909 63.7566 38.8016C63.9119 39.6124 64.2082 40.3153 64.6455 40.9103C65.0954 41.4868 65.6275 41.9021 66.2419 42.1561C66.8689 42.3916 67.5176 42.4451 68.188 42.3166Z" fill="white"/>
</svg>
