<svg width="118" height="98" viewBox="0 0 118 98" fill="none" xmlns="http://www.w3.org/2000/svg">
<g filter="url(#filter0_d_435_256)">
<path d="M17.1014 6.4857C17.2079 5.85502 17.8055 5.43005 18.4361 5.5365L111.219 21.1972C111.85 21.3036 112.275 21.9012 112.169 22.5319L100.604 91.0488C100.497 91.6794 99.8998 92.1044 99.2691 91.998L6.48584 76.3373C5.85516 76.2308 5.43019 75.6333 5.53664 75.0026L17.1014 6.4857Z" fill="#FF2626"/>
<path d="M78.5225 58.8589L81.6404 40.3862L78.9254 39.928L79.6665 35.5371L89.6693 37.2255L88.9282 41.6163L86.2131 41.158L83.0952 59.6308L78.5225 58.8589Z" fill="white"/>
<path d="M70.8587 57.5623L74.7178 34.6987L79.1346 35.4442L75.2755 58.3078L70.8587 57.5623Z" fill="white"/>
<path d="M53.3218 54.6048L57.1809 31.7412L63.2216 32.7608C64.486 32.9742 65.4388 33.4245 66.0799 34.1117C66.7297 34.8003 67.1271 35.6913 67.2721 36.7847C67.4171 37.878 67.3683 39.1435 67.1256 40.5811C66.8918 41.9668 66.5536 43.1523 66.1112 44.1375C65.6702 45.1142 65.0558 45.8255 64.268 46.2715C63.4888 46.7189 62.467 46.8359 61.2025 46.6225L59.3449 46.3089L57.8166 55.3634L53.3218 54.6048ZM60.0378 42.2039L60.2976 42.2477C61.1463 42.391 61.7061 42.2405 61.9771 41.7964C62.248 41.3522 62.4616 40.6668 62.6181 39.7401C62.7642 38.8741 62.7815 38.1912 62.6699 37.6913C62.5685 37.1843 62.1713 36.8723 61.4785 36.7554L60.9718 36.6699L60.0378 42.2039Z" fill="white"/>
<path d="M42.8926 52.8475L46.7517 29.9839L55.8971 31.5275L55.1516 35.9443L50.6569 35.1857L49.9048 39.6415L54.2177 40.3694L53.4919 44.6694L49.179 43.9414L48.2954 49.1766L53.0889 49.9857L52.3368 54.4415L42.8926 52.8475Z" fill="white"/>
<path d="M32.4595 51.0857L36.3186 28.2222L45.464 29.7658L44.7185 34.1826L40.2238 33.424L39.4717 37.8798L43.7846 38.6077L43.0588 42.9076L38.7459 42.1797L37.8623 47.4149L42.6558 48.224L41.9037 52.6798L32.4595 51.0857Z" fill="white"/>
<path d="M20.4134 49.0516L24.2725 26.188L28.7932 26.951L27.2474 36.1095L30.9237 27.3106L35.5224 28.0868L31.1959 38.1254L32.1959 51.0403L27.4543 50.24L26.8283 38.7509L24.9601 49.819L20.4134 49.0516Z" fill="white"/>
<path d="M79.3372 69.7904C79.3657 69.9082 79.3404 70.154 79.2611 70.5279C79.2002 70.8887 79.1383 71.1122 79.0754 71.1984C79.057 71.2114 79.0307 71.2715 78.9965 71.3787C78.9833 71.4572 78.9308 71.529 78.8391 71.5942C78.7631 71.662 78.6938 71.6907 78.631 71.6801C78.5996 71.6748 78.5735 71.6865 78.5525 71.7152C78.5288 71.7596 78.4765 71.7831 78.3954 71.7855C78.3143 71.788 78.2607 71.7708 78.2346 71.7342C78.2086 71.6975 78.155 71.6804 78.0739 71.6828C78.0085 71.6879 77.9379 71.676 77.8621 71.6471C77.7837 71.6338 77.7079 71.6049 77.6347 71.5603C77.5746 71.534 77.5394 71.5039 77.529 71.4698C77.5212 71.4201 77.4938 71.3913 77.4468 71.3834C77.3997 71.3754 77.3592 71.3283 77.3254 71.2419C77.3046 71.1738 77.259 71.1096 77.1885 71.0493C77.131 71.0074 77.1024 70.938 77.1026 70.8412C77.1028 70.7444 77.0755 70.6672 77.0207 70.6096C76.9659 70.5519 76.9216 70.4799 76.8878 70.3935C76.8382 70.3045 76.8164 70.0991 76.8223 69.7774C76.8182 69.2281 76.8582 68.2264 76.9423 66.7723C77.0423 65.2241 77.1663 64.0591 77.3144 63.2773C77.4097 62.7126 77.426 62.4249 77.3633 62.4143C77.3319 62.409 77.2401 62.5226 77.0879 62.7551C76.9384 62.9719 76.8361 63.0998 76.7811 63.1389C76.7261 63.178 76.6658 63.2485 76.6002 63.3504C76.5529 63.4393 76.4913 63.5176 76.4153 63.5854C76.3576 63.6402 76.3262 63.6833 76.3209 63.7147C76.3156 63.7461 76.2828 63.797 76.2225 63.8675C76.1778 63.9407 76.1411 64.0151 76.1122 64.0909C76.0859 64.151 76.0046 64.2503 75.8683 64.3886C75.7477 64.5296 75.6533 64.6589 75.585 64.7764C75.5324 64.8967 75.48 64.9685 75.4276 64.9919C75.3909 65.018 75.2925 65.1708 75.1324 65.4503C74.9067 65.8317 74.7165 66.0981 74.5619 66.2495C74.5042 66.3043 74.4701 66.3631 74.4595 66.4259C74.4489 66.4886 74.4279 66.5174 74.3966 66.5121C74.3809 66.5094 74.3415 66.5512 74.2786 66.6374C74.2156 66.7235 74.1802 66.7902 74.1723 66.8372C74.167 66.8686 74.1276 66.9104 74.0543 66.9625C73.9836 66.999 73.9443 67.0408 73.9363 67.0878C73.931 67.1192 73.8654 67.2211 73.7395 67.3935C73.632 67.5528 73.5769 67.6403 73.5742 67.656C73.5663 67.7031 73.4692 67.848 73.283 68.0909C73.1125 68.3364 72.98 68.4996 72.8857 68.5805C72.7704 68.6901 72.6694 68.8102 72.5829 68.9408C72.3573 69.2255 72.2302 69.3573 72.2015 69.3363C72.2015 69.3363 72.2054 69.3128 72.2134 69.2657C72.258 69.1926 72.2646 69.1533 72.2332 69.148C72.2072 69.1114 72.1575 69.1191 72.0841 69.1713C72.0265 69.2261 71.9465 69.3175 71.8442 69.4454C71.7366 69.6047 71.6436 69.6778 71.5652 69.6646C71.5025 69.654 71.4147 69.6956 71.3021 69.7896C71.2051 69.8861 71.1331 69.9305 71.086 69.9225C71.039 69.9146 71.0023 69.9406 70.976 70.0007L70.9366 70.0909L70.8348 69.9769C70.7539 69.8826 70.6572 69.834 70.5448 69.8312C70.414 69.8413 70.3434 69.8294 70.333 69.7954C70.3069 69.7587 70.2612 69.7429 70.1958 69.748C70.1147 69.7505 70.0689 69.7347 70.0585 69.7007C70.0481 69.6667 70.0259 69.6548 69.9919 69.6652C69.9579 69.6756 69.937 69.656 69.9293 69.6063C69.9215 69.5565 69.8941 69.5277 69.8471 69.5198C69.7843 69.5092 69.7556 69.4882 69.7609 69.4568C69.7662 69.4254 69.7413 69.4293 69.6863 69.4684C69.6156 69.5049 69.5724 69.5218 69.5567 69.5192C69.541 69.5165 69.5385 69.4838 69.5491 69.4211C69.5754 69.361 69.5728 69.3283 69.5414 69.323C69.4944 69.315 69.4656 69.294 69.4553 69.26C69.4135 69.2207 69.5303 69.0065 69.8058 68.6173C69.8923 68.4867 69.9921 68.326 70.1049 68.1353C70.2913 67.7957 70.4921 67.4665 70.7072 67.1479C70.7755 67.0303 70.8346 66.9193 70.8845 66.8148C70.979 66.6371 71.1076 66.449 71.2701 66.2506C71.3331 66.1644 71.3699 66.0899 71.3805 66.0272C71.3911 65.9644 71.4711 65.8247 71.6207 65.6079C71.7885 65.378 71.8881 65.2658 71.9195 65.2711C71.9509 65.2764 71.9732 65.2398 71.9864 65.1614C71.9997 65.0829 72.0325 65.032 72.0848 65.0085C72.1399 64.9694 72.1543 64.9315 72.1282 64.8949C72.1179 64.8608 72.1546 64.7864 72.2386 64.6715C72.4904 64.3267 72.6281 64.1321 72.6517 64.0877C72.6544 64.072 72.6885 64.0133 72.7541 63.9114C72.8197 63.8095 72.8538 63.7507 72.8565 63.735C72.8591 63.7193 72.9142 63.6318 73.0218 63.4725C73.1477 63.3001 73.2448 63.1552 73.313 63.0376C73.3996 62.907 73.4507 62.843 73.4664 62.8457C73.4978 62.851 73.5161 62.8379 73.5214 62.8066C73.5373 62.7124 73.666 62.476 73.9074 62.0972C73.9257 62.0842 73.9572 62.0411 74.0018 61.9679C74.0464 61.8948 74.0792 61.8439 74.1002 61.8151C74.1895 61.6688 74.2367 61.58 74.242 61.5486C74.2656 61.5042 74.2958 61.469 74.3325 61.4429C74.3691 61.4168 74.3901 61.3881 74.3954 61.3567C74.4034 61.3096 74.4388 61.243 74.5018 61.1568C74.5804 61.0733 74.6145 61.0145 74.6041 60.9805C74.6094 60.9491 74.6383 60.9217 74.6906 60.8983C74.7456 60.8592 74.7771 60.8161 74.785 60.769C74.7956 60.7062 74.8757 60.5665 75.0252 60.3497C75.1905 60.1356 75.2679 60.0115 75.2575 59.9774C75.221 59.9068 75.4717 59.4731 76.0095 58.6764C76.2037 58.3865 76.365 58.1475 76.4936 57.9594C76.7034 57.6722 76.8542 57.4959 76.9459 57.4307C77.0402 57.3498 77.094 57.2702 77.1072 57.1917C77.1152 57.1447 77.1716 57.0493 77.2765 56.9057C77.3841 56.7463 77.4917 56.587 77.5992 56.4277C77.7225 56.271 77.8038 56.1718 77.8431 56.13C77.8981 56.0909 77.9269 56.0635 77.9296 56.0478C77.9349 56.0164 77.9847 55.9603 78.079 55.8794C78.1733 55.7985 78.2337 55.728 78.2599 55.6679C78.3045 55.5948 78.3844 55.5518 78.4995 55.5389C78.633 55.513 78.7089 55.4936 78.7272 55.4805C78.7665 55.4388 78.875 55.4652 79.0527 55.5597C79.2303 55.6542 79.3753 55.7513 79.4876 55.8509C79.6102 55.9846 79.6964 56.0475 79.7461 56.0398C79.8142 56.019 79.8429 56.04 79.8323 56.1027C79.8217 56.1655 79.8465 56.21 79.9066 56.2363C79.9667 56.2625 79.9928 56.2992 79.9848 56.3463C79.9795 56.3777 80.0225 56.4575 80.1138 56.5859C80.2077 56.6985 80.3042 56.8439 80.4032 57.022C80.5206 57.187 80.595 57.2722 80.6263 57.2775C80.7963 57.3223 80.9515 57.5018 81.0921 57.8159C81.1989 58.0437 81.2548 58.1903 81.2599 58.2557C81.2807 58.3237 81.2464 58.4793 81.1569 58.7224C81.0859 58.9524 81.0265 59.2086 80.9788 59.491C80.9311 59.7734 80.8785 59.942 80.8208 59.9968C80.7789 60.0542 80.7643 60.1405 80.7771 60.2556C80.7979 60.3237 80.7713 60.5289 80.6974 60.8714C80.6418 61.2009 80.5957 61.3787 80.559 61.4047C80.538 61.4335 80.4375 61.9812 80.2574 63.048C80.08 64.0991 79.9647 64.8299 79.9116 65.2405C79.8478 65.7138 79.8012 66.1335 79.7716 66.4996C79.7448 66.85 79.6984 67.1246 79.6326 67.3232C79.5852 67.5088 79.5573 67.722 79.5489 67.9626C79.5406 68.2032 79.5259 68.3379 79.5049 68.3666C79.4682 68.3927 79.4233 68.611 79.3702 69.0215C79.3327 69.4347 79.3217 69.691 79.3372 69.7904Z" fill="#FEC7FF"/>
<path d="M69.5341 54.0447C69.5734 54.0029 69.6806 54.0371 69.8556 54.1473C70.0594 54.2785 70.2188 54.3377 70.3339 54.3249C70.3653 54.3302 70.394 54.3512 70.4201 54.3878C70.4619 54.4272 70.5325 54.4391 70.6319 54.4236C70.7156 54.4054 70.764 54.4055 70.777 54.4239C70.8058 54.4449 70.8671 54.5117 70.961 54.6244C71.167 54.9334 71.3328 55.0985 71.4583 55.1197C71.521 55.1303 71.5628 55.1696 71.5836 55.2377C71.6044 55.3057 71.6383 55.3437 71.6854 55.3517C71.7324 55.3596 71.8212 55.4553 71.9516 55.6386C72.1003 55.809 72.1615 55.9242 72.1352 55.9843C72.109 56.0444 72.1062 56.1084 72.127 56.1765C72.1765 56.2655 72.1904 56.518 72.1686 56.9338C72.1448 57.075 72.1354 57.1783 72.1405 57.2437C72.1456 57.3091 72.0957 57.4136 71.9908 57.5573C71.9015 57.7035 71.8529 57.8002 71.845 57.8473C71.8397 57.8787 71.7649 57.9871 71.6207 58.1725C71.4948 58.3448 71.4212 58.4938 71.4001 58.6193C71.3815 58.7291 71.3408 58.8271 71.2778 58.9133C71.2149 58.9995 71.1624 59.0713 71.1204 59.1287C71.0968 59.1732 71.0091 59.2148 70.8573 59.2537C70.7239 59.2796 70.6022 59.2833 70.4924 59.2648C70.1212 59.1698 69.9396 59.0988 69.9475 59.0518C69.9528 59.0204 69.8967 58.9706 69.7791 58.9023C69.6616 58.8341 69.5859 58.7568 69.552 58.6704C69.5365 58.571 69.4922 58.4989 69.4191 58.4543C69.3486 58.394 69.3186 58.3325 69.3292 58.2697C69.3398 58.207 69.2967 58.1755 69.1999 58.1753C68.9724 58.1853 68.7001 58.3168 68.3831 58.5699C68.2521 58.6769 68.1237 58.7681 67.998 58.8437C67.8723 58.9193 67.7976 58.9793 67.774 59.0238C67.7661 59.0708 67.6809 59.1452 67.5185 59.2469C67.3588 59.3328 67.2226 59.4228 67.1099 59.5167C66.9973 59.6107 66.9148 59.6693 66.8624 59.6928C66.8127 59.7005 66.7839 59.7279 66.7759 59.775C66.7706 59.8064 66.6566 59.9081 66.4339 60.0803C66.2139 60.2368 66.1026 60.3229 66.0999 60.3386C66.0973 60.3542 66.0763 60.383 66.037 60.4247C65.7226 60.6621 65.5601 60.8122 65.5495 60.8749C65.5442 60.9063 65.5141 60.9416 65.4591 60.9807C65.4224 61.0068 65.3923 61.042 65.3686 61.0864C65.3633 61.1178 65.3017 61.1961 65.1837 61.3214C64.8875 61.6426 64.7262 61.8815 64.6997 62.0384C64.6917 62.0855 64.6511 62.1351 64.5778 62.1873C64.4127 62.3046 64.2265 62.5475 64.0191 62.9159C63.9246 63.0935 63.8564 63.2111 63.8144 63.2685C63.7908 63.313 63.7251 63.4632 63.6173 63.7193C63.5252 63.9781 63.4464 64.1584 63.3808 64.2603C63.3335 64.3491 63.2861 64.4863 63.2387 64.6719C63.0541 65.383 62.9616 65.8353 62.9612 66.0289L62.949 66.2446L63.1373 66.2764C63.2785 66.3002 63.4145 66.3071 63.5453 66.2969C63.6944 66.2736 63.8501 66.2596 64.0122 66.2547C64.1928 66.2367 64.3275 66.203 64.4166 66.1535C64.4846 66.1327 64.6115 66.0977 64.7973 66.0483C65.0015 65.986 65.1114 65.9561 65.1271 65.9588C65.1428 65.9614 65.2122 65.9328 65.3352 65.8729C65.4766 65.8 65.5656 65.7504 65.6023 65.7244C65.6416 65.6826 65.7123 65.6461 65.8144 65.6149C66.1259 65.49 66.4297 65.3154 66.7257 65.0911C66.9824 64.9085 67.1186 64.8186 67.1343 64.8212C67.15 64.8239 67.2547 64.777 67.4485 64.6806C67.6606 64.5712 67.7744 64.5178 67.7901 64.5205C67.8215 64.5258 67.9564 64.4437 68.1947 64.2741C68.4515 64.0916 68.5955 64.0029 68.6269 64.0082C68.6582 64.0135 68.7394 63.9627 68.8704 63.8557C69.3079 63.5584 69.7242 63.3383 70.1194 63.1952C70.1901 63.1588 70.2935 63.1197 70.4296 63.0782C70.5814 63.0393 70.7018 62.995 70.7909 62.9455C70.8956 62.8987 70.9545 62.8844 70.9675 62.9027C70.9962 62.9237 71.0643 62.9029 71.1716 62.8404C71.279 62.7778 71.4099 62.7192 71.5643 62.6646C71.7188 62.61 71.8221 62.6194 71.8742 62.6927C71.9682 62.8054 71.9405 62.9217 71.7911 63.0418C71.6628 63.133 71.6142 63.2297 71.6454 63.3318C71.6401 63.3632 71.6544 63.3737 71.6885 63.3633C71.8873 63.3323 71.9828 63.3403 71.9748 63.3874C71.9695 63.4188 71.9917 63.4306 72.0414 63.4228C72.0755 63.4124 72.0963 63.4321 72.1041 63.4818C72.1012 63.5943 72.0448 63.6896 71.9348 63.7679C71.8614 63.82 71.8221 63.8618 71.8168 63.8932C71.8115 63.9246 71.7866 63.9768 71.742 64.05C71.7157 64.1101 71.7261 64.1441 71.7731 64.152C71.8359 64.1626 71.8332 64.1783 71.7652 64.1991C71.6395 64.2747 71.5569 64.3818 71.5174 64.5203C71.5461 64.5413 71.5408 64.5727 71.5015 64.6144C71.4622 64.6562 71.4254 64.7307 71.3912 64.8378C71.3649 64.898 71.3583 64.9372 71.3713 64.9555C71.3843 64.9738 71.4144 64.987 71.4615 64.9949C71.5085 65.0029 71.5307 65.0147 71.5281 65.0304C71.5438 65.033 71.5319 65.0552 71.4926 65.097C71.4533 65.1388 71.4506 65.2028 71.4844 65.2892C71.5339 65.3783 71.5246 65.4332 71.4566 65.454C71.3885 65.4747 71.3334 65.5622 71.2913 65.7165C71.2491 65.8707 71.1822 65.9804 71.0905 66.0456C71.0015 66.0951 70.9411 66.1656 70.9096 66.2571C70.8963 66.3356 70.8544 66.393 70.7837 66.4295C70.713 66.466 70.6737 66.5077 70.6657 66.5548C70.6604 66.5862 70.5726 66.6762 70.4023 66.825C70.2346 66.958 70.1573 67.0337 70.1703 67.052C70.186 67.0547 70.1559 67.0899 70.0799 67.1578C70.0065 67.21 69.9253 67.2608 69.8363 67.3103C69.7473 67.3598 69.6858 67.3898 69.6517 67.4002C69.5497 67.4313 69.513 67.4574 69.5417 67.4784C69.5835 67.5177 69.4682 67.6273 69.1958 67.8073C68.9417 67.9741 68.6209 68.1539 68.2334 68.3467C67.8616 68.5421 67.537 68.6971 67.2595 68.8116C66.8642 68.9546 66.5462 69.0704 66.3054 69.1588C65.6666 69.406 65.006 69.4961 64.3235 69.4293C63.8005 69.3733 63.3338 69.2704 62.9235 69.1204C62.649 69.0257 62.5026 68.9849 62.4843 68.9979C62.466 69.0109 62.4829 69.0541 62.535 69.1275C62.6106 69.2532 62.5387 69.2491 62.3193 69.1153L62.2566 69.0563C62.113 68.9514 61.9355 68.76 61.7242 68.4824C61.526 68.223 61.4033 68.0894 61.3563 68.0814C61.2464 68.0629 61.103 67.8612 60.9259 67.4763C60.6317 66.8297 60.4808 66.4331 60.4733 66.2866C60.4688 65.9309 60.4188 65.4142 60.3235 64.7365C60.2411 64.0772 60.291 63.3515 60.4731 62.5594C60.6736 61.7542 60.9877 60.9924 61.4155 60.274C61.4418 60.2139 61.4891 60.125 61.5573 60.0075C61.728 59.6652 62.052 59.2277 62.5291 58.6951C63.0089 58.1469 63.5003 57.6731 64.0033 57.274C64.2286 57.0861 64.6347 56.7836 65.2214 56.3663C65.8108 55.9333 66.1671 55.6869 66.2901 55.627C66.3792 55.5774 66.4865 55.5149 66.6122 55.4393C66.9946 55.1811 67.3102 54.9843 67.559 54.8488C67.6454 54.815 67.7854 54.7499 67.9792 54.6535C68.1756 54.5414 68.2816 54.4867 68.2973 54.4894C68.313 54.492 68.3916 54.4569 68.5329 54.3839C68.69 54.3136 68.8274 54.2642 68.9452 54.2357C69.0787 54.2098 69.1729 54.1773 69.2279 54.1382C69.3012 54.086 69.3614 54.0639 69.4085 54.0719C69.4713 54.0825 69.5131 54.0734 69.5341 54.0447Z" fill="#FEC7FF"/>
<path d="M56.2626 60.4574C56.2807 60.5412 56.2858 60.6066 56.2779 60.6536C56.2699 60.7007 56.279 60.7426 56.3051 60.7792C56.3285 60.8316 56.3177 60.9911 56.2727 61.2578C56.2434 61.5272 56.2011 61.7298 56.1459 61.8657C56.0487 62.059 55.9999 62.2525 55.9995 62.446C55.9887 62.6056 55.9309 62.7572 55.8259 62.9008C55.7394 63.0314 55.6934 63.1124 55.6881 63.1438C55.6855 63.1595 55.6147 63.2443 55.4757 63.3984C55.3368 63.5524 55.1874 63.7208 55.0274 63.9035C54.8858 64.0733 54.7967 64.1712 54.76 64.1973C54.6657 64.2781 54.5674 64.3826 54.4651 64.5105C54.3785 64.6411 54.2213 64.8082 53.9933 65.0117C53.768 65.1996 53.65 65.3249 53.6394 65.3877C53.6182 65.5132 53.3444 65.7493 52.818 66.0961C52.6713 66.2004 52.5769 66.2813 52.535 66.3388C52.493 66.3962 52.4406 66.4197 52.3779 66.4091C52.3308 66.4011 52.2628 66.4219 52.1737 66.4714C52.0874 66.5052 52.0128 66.5169 51.95 66.5063C51.8873 66.4957 51.814 66.4994 51.7303 66.5176C51.6125 66.5461 51.4282 66.5392 51.1771 66.4968C50.9288 66.4388 50.7615 66.3783 50.6753 66.3153C50.5578 66.2471 50.4702 66.2403 50.4125 66.2952C50.3575 66.3343 50.3077 66.3904 50.2631 66.4635C50.1791 66.5785 49.9933 66.6278 49.7056 66.6115C49.5461 66.6007 49.4416 66.5508 49.3921 66.4618C49.3582 66.3754 49.3256 66.3295 49.2943 66.3242C49.2629 66.3189 49.2133 66.2783 49.1454 66.2023C49.0959 66.1133 49.0476 66.0648 49.0006 66.0568C48.9692 66.0515 48.9209 66.0031 48.8557 65.9114C48.8088 65.8067 48.7697 65.7516 48.7383 65.7463C48.707 65.741 48.6939 65.7227 48.6992 65.6913C48.7072 65.6443 48.6773 65.5344 48.6097 65.3616C48.5447 65.1731 48.511 64.99 48.5088 64.8121C48.5092 64.6185 48.4898 64.4943 48.4507 64.4393C48.3985 64.3659 48.3559 64.1409 48.3226 63.7642C48.3047 63.5837 48.3301 63.2895 48.399 62.8816C48.4678 62.4737 48.5299 62.2018 48.5851 62.0659C48.6639 61.8856 48.7324 61.6712 48.7904 61.4229C48.8326 61.2686 48.9102 61.0478 49.0233 60.7603C49.1547 60.4598 49.2361 60.3122 49.2674 60.3175C49.2988 60.3227 49.3146 60.277 49.3148 60.1802C49.315 60.0835 49.3243 60.0285 49.3426 60.0155C49.3609 60.0025 49.382 59.9253 49.4058 59.7842C49.4295 59.7397 49.4637 59.6326 49.5085 59.4626C49.5692 59.1986 49.6284 59.0392 49.6861 58.9844C49.7227 58.9583 49.7635 58.8603 49.8083 58.6904C49.8531 58.5204 49.8965 58.4067 49.9385 58.3493C49.9988 58.2788 50.0302 58.2357 50.0329 58.22C50.0382 58.1886 50.05 58.1664 50.0683 58.1534C50.0867 58.1403 50.0907 58.1168 50.0803 58.0828C50.0882 58.0357 50.1355 57.9469 50.2221 57.8163C50.3086 57.6857 50.3625 57.5576 50.3837 57.4321C50.4391 57.1995 50.497 57.0479 50.5573 56.9774C50.6176 56.9069 50.6412 56.8625 50.6282 56.8441C50.6178 56.8101 50.7072 56.567 50.8965 56.1149C51.0884 55.6471 51.2053 55.3845 51.2473 55.327C51.2866 55.2853 51.3443 55.1821 51.4205 55.0175C51.4967 54.8528 51.5663 54.7274 51.6293 54.6412C51.6765 54.5524 51.7842 54.3447 51.9523 54.0181C52.1387 53.6784 52.2358 53.4851 52.2438 53.438C52.2491 53.4066 52.2766 53.3871 52.3263 53.3793C52.376 53.3716 52.4088 53.3207 52.4247 53.2265C52.4671 52.9755 52.5629 52.79 52.7123 52.67C52.7673 52.6309 52.8512 52.516 52.9641 52.3253C53.006 52.2678 53.0546 52.1711 53.1098 52.0352C53.1807 51.902 53.2411 51.7831 53.291 51.6786C53.3593 51.561 53.4222 51.4748 53.4799 51.42C53.5009 51.3913 53.5559 51.3522 53.6449 51.3027C53.8387 51.2063 53.9905 51.1674 54.1003 51.1859C54.1787 51.1991 54.2741 51.2556 54.3863 51.3552C54.4124 51.3919 54.445 51.4377 54.4841 51.4927C54.5807 51.5897 54.6916 51.7455 54.8167 51.9603C54.9575 52.1777 55.067 52.3414 55.1452 52.4514C55.4113 52.7867 55.5337 53.0655 55.5123 53.2878C55.4964 53.382 55.5132 53.4735 55.5627 53.5626C55.6122 53.6516 55.6159 53.7732 55.5737 53.9275C55.5499 54.0687 55.5197 54.1523 55.483 54.1784C55.4463 54.2045 55.4214 54.2567 55.4081 54.3352C55.3975 54.3979 55.3529 54.4711 55.2743 54.5546C55.2113 54.6408 55.185 54.7009 55.1954 54.7349C55.2058 54.7689 55.1782 54.8369 55.1126 54.9388C55.0497 55.0249 55.0129 55.0994 55.0023 55.1622C54.9944 55.2092 54.9642 55.2445 54.9118 55.2679C54.8778 55.2783 54.8043 55.4272 54.6912 55.7147C54.6387 55.8349 54.5822 55.9303 54.5219 56.0008C54.4643 56.0556 54.4406 56.1 54.451 56.134C54.4614 56.1681 54.4155 56.249 54.3132 56.377C54.2293 56.4919 54.1912 56.5742 54.1989 56.6239C54.2093 56.658 54.1791 56.7416 54.1082 56.8748C54.053 57.0107 54.0069 57.1401 53.97 57.263C53.9358 57.3701 53.8886 57.459 53.8282 57.5295C53.718 57.7045 53.7347 57.8445 53.8784 57.9494C53.9646 58.0123 54.039 58.0491 54.1018 58.0597C54.29 58.0915 54.4572 58.2004 54.6033 58.3864C54.6816 58.4964 54.7521 58.5567 54.8148 58.5673C54.8619 58.5752 54.9415 58.629 55.0538 58.7286C55.1661 58.8283 55.2835 58.9449 55.4062 59.0785C55.5315 59.1965 55.6267 59.3013 55.6919 59.393C56.0153 59.8671 56.2055 60.2219 56.2626 60.4574ZM53.4244 61.2127C53.6028 60.9201 53.6947 60.7582 53.7 60.7268C53.7133 60.6483 53.6412 60.6927 53.484 60.8597C53.3739 60.938 53.3098 60.9836 53.2914 60.9967C53.2234 61.0174 53.0034 61.1739 52.6313 61.4661C52.4794 61.6018 52.3812 61.6578 52.3367 61.6342C52.2636 61.5896 52.0946 61.7305 51.8297 62.0569C51.7091 62.1979 51.6251 62.3612 51.5776 62.5468C51.5196 62.7951 51.4551 62.986 51.3842 63.1192C51.3579 63.1793 51.4745 63.1102 51.7338 62.912C52.1582 62.5964 52.5435 62.2258 52.8896 61.8001C52.9919 61.6722 53.0797 61.5821 53.153 61.5299C53.229 61.4621 53.3195 61.3564 53.4244 61.2127ZM62.5836 56.4176C62.6175 56.504 62.6172 56.6491 62.5827 56.8531C62.551 57.0413 62.4906 57.1602 62.4015 57.2097C62.3282 57.2619 62.2587 57.3389 62.1931 57.4408C62.1432 57.5453 62.0854 57.6485 62.0198 57.7504C61.852 57.9802 61.7614 58.1343 61.7482 58.2128C61.7376 58.2755 61.6864 58.3879 61.5945 58.5499C61.5209 58.6988 61.4723 58.7955 61.4487 58.8399C61.4408 58.887 61.4066 58.9458 61.3463 59.0163C61.3017 59.0894 61.2768 59.1417 61.2715 59.173C61.2688 59.1887 61.24 59.2161 61.185 59.2553C61.1483 59.2813 61.1037 59.3545 61.0511 59.4747C60.9986 59.5949 60.9106 59.7817 60.7871 60.0352C60.6453 60.3017 60.5219 60.5551 60.4167 60.7956C60.3143 61.0203 60.2316 61.1758 60.1686 61.2619C60.1213 61.3508 60.1016 61.42 60.1093 61.4698C60.1197 61.5038 60.1066 61.5338 60.0699 61.5599C59.9599 61.6382 59.8496 61.8616 59.739 62.2301C59.6968 62.3844 59.656 62.4824 59.6167 62.5241C59.5957 62.5529 59.5878 62.5999 59.5929 62.6653C59.6006 62.715 59.5782 62.8 59.5257 62.9202C59.4731 63.0404 59.4008 63.2299 59.3087 63.4887C59.2193 63.7317 59.1536 63.882 59.1116 63.9394C59.088 63.9839 59.0669 64.061 59.0484 64.1708C59.0349 64.346 58.9744 64.5133 58.8668 64.6726C58.8039 64.7588 58.7263 64.9797 58.634 65.3352C58.6049 65.5078 58.5601 65.6777 58.4996 65.8449C58.3154 66.3625 58.1903 66.7689 58.1243 67.0644C58.0819 67.3154 58.007 67.5205 57.8994 67.6799C57.7945 67.8235 57.7288 67.9738 57.7023 68.1306L57.6666 68.3424L57.5254 68.3186C57.3084 68.2658 57.1906 68.2944 57.1721 68.4042C57.1668 68.4356 57.1563 68.4499 57.1406 68.4473C57.138 68.463 57.1171 68.4433 57.078 68.3883C57.0232 68.3306 56.9709 68.3057 56.9212 68.3134C56.8872 68.3238 56.8441 68.2924 56.7919 68.219C56.7528 68.164 56.7071 68.0998 56.655 68.0265C56.6185 67.9558 56.547 67.7582 56.4404 67.4336C56.3522 67.096 56.2978 66.8448 56.2772 66.68C56.2566 66.5151 56.244 66.3033 56.2393 66.0443C56.2346 65.7853 56.2427 65.6415 56.2637 65.6128C56.2873 65.5684 56.2848 65.5357 56.2561 65.5147C56.243 65.4963 56.2485 65.3682 56.2725 65.1302C56.3149 64.8792 56.3322 64.7288 56.3245 64.6791C56.3167 64.6294 56.3524 64.466 56.4314 64.1889C56.5261 63.9145 56.5827 63.7707 56.601 63.7577C56.635 63.7473 56.6443 63.6924 56.6288 63.593C56.6133 63.4936 56.624 63.3824 56.6609 63.2596C56.7662 62.9224 56.8479 62.6296 56.906 62.3812C56.9245 62.2714 56.9626 62.1891 57.0202 62.1343C57.0936 62.0821 57.0989 62.0507 57.0361 62.0402C56.9917 62.0165 56.9814 61.9341 57.0053 61.7929C57.0448 61.6544 57.0842 61.5642 57.1235 61.5224C57.1418 61.5094 57.1538 61.4388 57.1593 61.3107C57.1831 61.1695 57.1898 61.0819 57.1794 61.0478C57.169 61.0138 57.1835 60.9759 57.2228 60.9341C57.2778 60.895 57.3119 60.8362 57.3252 60.7578C57.3384 60.6794 57.3792 60.5814 57.4474 60.4638C57.5157 60.3462 57.5459 60.2626 57.5382 60.2129C57.5304 60.1632 57.5567 60.1031 57.617 60.0326C57.68 59.9464 57.7049 59.8941 57.6919 59.8758C57.6815 59.8418 57.7065 59.7411 57.767 59.5738C57.8432 59.4092 57.8775 59.302 57.8697 59.2523C57.8803 59.1896 57.9053 59.1373 57.9446 59.0956C57.9866 59.0381 58.0747 58.8029 58.2089 58.3899C58.2431 58.2827 58.2799 58.2083 58.3192 58.1665C58.3665 58.0777 58.4323 57.879 58.5166 57.5705C58.5482 57.4791 58.5444 57.4058 58.5053 57.3508C58.4819 57.2984 58.5265 57.2253 58.6392 57.1314C58.7518 57.0374 58.8134 56.9591 58.824 56.8963C58.8399 56.8022 58.9214 56.6062 59.0685 56.3083C59.2156 56.0105 59.3285 55.8198 59.4071 55.7362C59.5067 55.624 59.6314 55.411 59.7811 55.0975C59.9466 54.7866 60.0267 54.5984 60.0216 54.533C60.0165 54.4676 60.052 54.401 60.128 54.3331C60.2066 54.2496 60.2695 54.2118 60.3165 54.2197C60.3793 54.2303 60.4212 54.2213 60.4421 54.1925C60.4658 54.1481 60.5128 54.1561 60.5833 54.2164C60.6408 54.2583 60.7114 54.2702 60.7951 54.2521C60.8815 54.2183 60.9416 54.2446 60.9754 54.331C61.0119 54.4017 61.0837 54.4541 61.1909 54.4883C61.3138 54.5252 61.3934 54.579 61.4299 54.6497C61.4847 54.7073 61.5278 54.7388 61.5592 54.7441C61.5905 54.7494 61.6088 54.7848 61.6139 54.8502C61.6373 54.9025 61.6647 54.9313 61.6961 54.9366C61.7432 54.9446 61.7836 54.9918 61.8174 55.0781C61.8512 55.1645 61.9022 55.1973 61.9702 55.1765C62.0146 55.2002 62.0447 55.2133 62.0604 55.216C62.0394 55.2447 62.0993 55.3677 62.2401 55.5851C62.3992 55.7895 62.4618 55.8968 62.4278 55.9072C62.4094 55.9203 62.425 55.9713 62.4745 56.0603C62.524 56.1494 62.5461 56.2096 62.5409 56.241C62.5382 56.2566 62.5525 56.3155 62.5836 56.4176Z" fill="#FEC7FF"/>
<path d="M50.5123 53.7832C50.52 53.8329 50.4765 53.995 50.3818 54.2695C50.2871 54.5439 50.1911 54.7778 50.0939 54.9712C49.9968 55.1645 49.9009 55.35 49.8064 55.5277C49.7302 55.6923 49.633 55.8857 49.5149 56.1078C49.402 56.2985 49.3088 56.4683 49.2352 56.6172C49.159 56.7818 49.1026 56.8772 49.0659 56.9033C49.0293 56.9294 48.9177 57.1122 48.7313 57.4519C48.5449 57.7915 48.4491 57.977 48.4438 58.0084C48.4358 58.0555 48.4135 58.092 48.3768 58.1181C48.2852 58.1833 48.1132 58.4851 47.861 59.0233C47.7638 59.2167 47.672 59.3787 47.5854 59.5093C47.5171 59.6268 47.454 59.8098 47.3959 60.0582C47.2484 60.5496 47.1183 60.8907 47.0054 61.0814C46.9214 61.1963 46.8834 61.2786 46.8911 61.3283C46.9145 61.3807 46.9079 61.4199 46.8712 61.446C46.7952 61.5138 46.7032 61.7726 46.595 62.2222C46.5502 62.3922 46.5068 62.5058 46.4648 62.5633C46.4412 62.6077 46.3832 62.8077 46.291 63.1632C46.1987 63.5187 46.1458 63.7841 46.1324 63.9593C46.1112 64.0848 46.0519 64.2927 45.9545 64.5828C45.8729 64.8756 45.8228 65.0285 45.8045 65.0415C45.7705 65.0519 45.7495 65.0806 45.7416 65.1277C45.7336 65.1748 45.693 65.2244 45.6196 65.2765C45.5463 65.3287 45.4782 65.3495 45.4155 65.3389C45.3684 65.331 45.3317 65.357 45.3055 65.4171C45.2555 65.5217 45.1849 65.5097 45.0937 65.3814C45.0415 65.308 44.9814 65.2818 44.9134 65.3026C44.8453 65.3233 44.7982 65.3154 44.7722 65.2787C44.7618 65.2447 44.7147 65.2368 44.631 65.2549C44.5499 65.2573 44.512 65.2429 44.5173 65.2115C44.5252 65.1644 44.4913 65.1264 44.4155 65.0975C44.3554 65.0712 44.2797 64.9939 44.1884 64.8656C44.1128 64.7399 44.0202 64.6193 43.9106 64.504C43.8193 64.3757 43.783 64.2566 43.8015 64.1468C43.8465 63.8801 43.813 63.6485 43.7009 63.4521C43.5497 63.2007 43.5852 62.5129 43.8072 61.3886C43.8917 60.9834 43.9458 60.7586 43.9694 60.7142L43.9578 60.6396C43.8898 60.6604 43.7666 60.7687 43.5883 60.9645C43.4101 61.1603 43.2594 61.2881 43.1364 61.348C43.0133 61.4079 42.953 61.4784 42.9555 61.5595C42.9736 61.6433 42.967 61.6825 42.9356 61.6772C42.9042 61.6719 42.8479 61.7188 42.7666 61.8181C42.7036 61.9043 42.6552 61.9525 42.6211 61.9629C42.6028 61.976 42.5452 61.9824 42.4485 61.9822C42.336 61.9793 42.1791 61.9529 41.9778 61.9028C41.8236 61.8606 41.7438 61.8552 41.7385 61.8866C41.7202 61.8996 41.6731 61.8917 41.5973 61.8627C41.5399 61.8208 41.4759 61.7696 41.4054 61.7093C41.3506 61.6517 41.3167 61.6137 41.3036 61.5953C41.2932 61.5613 41.2645 61.5403 41.2174 61.5324C41.1704 61.5244 41.0934 61.455 40.9864 61.324C40.8951 61.1956 40.7856 61.0319 40.6578 60.8329C40.5301 60.6338 40.418 60.4374 40.3216 60.2437C40.0117 59.5944 39.8234 58.9414 39.7568 58.2847C39.7336 58.1356 39.7129 58.0191 39.6947 57.9354C39.643 57.6685 39.627 57.1898 39.6467 56.4994C39.6664 55.8089 39.7094 55.2675 39.7756 54.8753C39.8208 54.5119 39.8369 54.3209 39.8239 54.3026L39.7413 54.3613L39.5562 54.7415C39.4484 54.9976 39.2896 55.2693 39.0797 55.5566C38.9748 55.7002 38.9157 55.8112 38.9025 55.8897C38.8919 55.9524 38.8342 56.0556 38.7292 56.1993C38.627 56.3272 38.5692 56.4304 38.556 56.5089C38.5427 56.5873 38.5178 56.6396 38.4811 56.6657C38.4444 56.6917 38.3762 56.8093 38.2764 57.0183C38.1922 57.23 38.1305 57.3568 38.0912 57.3985C38.0702 57.4273 38.0334 57.5017 37.9809 57.6219C37.944 57.7448 37.8718 57.8859 37.7642 58.0452C37.6593 58.1889 37.5884 58.3221 37.5515 58.445C37.5173 58.5521 37.4818 58.6188 37.4452 58.6448C37.4111 58.6552 37.3888 58.6918 37.3782 58.7545C37.3676 58.8173 37.3217 58.8983 37.2404 58.9975C37.1618 59.0811 37.0935 59.1986 37.0357 59.3502C36.9935 59.5044 36.9423 59.6168 36.882 59.6873C36.8007 59.7865 36.5591 60.2621 36.1571 61.1139C36.0127 61.3961 35.901 61.6274 35.8222 61.8077C35.7277 61.9853 35.6147 62.2244 35.4833 62.5249C35.3702 62.8124 35.2862 62.9757 35.2312 63.0149C35.1788 63.0383 35.146 63.0892 35.1328 63.1677C35.1196 63.2461 35.0946 63.2984 35.0579 63.3244C35.0239 63.3348 35.0016 63.3714 34.991 63.4342C34.9831 63.4812 34.9371 63.5622 34.8532 63.6771C34.7692 63.792 34.7207 63.8887 34.7074 63.9672C34.6915 64.0613 34.6482 64.1266 34.5775 64.1631C34.5225 64.2022 34.4924 64.2374 34.4871 64.2688C34.4818 64.3002 34.432 64.3563 34.3377 64.4372C34.2564 64.5364 34.162 64.6173 34.0547 64.6799C33.9447 64.7581 33.874 64.7946 33.8426 64.7893C33.8269 64.7866 33.8243 64.7539 33.8349 64.6912C33.8455 64.6284 33.8286 64.5852 33.7842 64.5616C33.7371 64.5537 33.7018 64.5719 33.6782 64.6163C33.6545 64.6607 33.631 64.6568 33.6076 64.6044C33.5841 64.552 33.5305 64.5349 33.4468 64.5531C33.3761 64.5895 33.3356 64.5908 33.3252 64.5567C33.3148 64.5227 33.2704 64.4991 33.1919 64.4858C33.1135 64.4726 33.0782 64.4425 33.0862 64.3954C33.0915 64.364 33.0784 64.3457 33.0471 64.3404C32.9529 64.3245 32.8185 64.2131 32.6436 64.0061C32.4819 63.8174 32.4076 63.6839 32.4208 63.6054C32.4314 63.5427 32.4106 63.4746 32.3585 63.4013C32.2906 63.3253 32.287 63.2036 32.3475 63.0364C32.3949 62.8508 32.3861 62.7121 32.3208 62.6204C32.2844 62.5497 32.2714 62.483 32.282 62.4203C32.2953 62.3418 32.3467 62.1327 32.4363 61.7928C32.5838 61.3014 32.8704 60.6076 33.2959 59.7113C33.8187 58.6217 34.3413 57.5804 34.8639 56.5876C35.9222 54.5234 36.6285 53.2066 36.9828 52.6372C37.0511 52.5196 37.1416 52.3655 37.2545 52.1748C37.8818 51.135 38.3528 50.3997 38.6675 49.9688C38.9613 49.5666 39.1475 49.3237 39.2262 49.2402C39.3048 49.1567 39.3612 49.0613 39.3955 48.9541C39.4454 48.8496 39.486 48.8 39.5174 48.8053C39.5488 48.8106 39.6077 48.7963 39.694 48.7625C39.7831 48.713 39.9204 48.712 40.106 48.7594C40.3099 48.7939 40.4367 48.8556 40.4862 48.9446C40.5514 49.0363 40.6179 49.1201 40.6858 49.1961C40.7406 49.2538 40.7979 49.3441 40.8578 49.4672C40.9334 49.5929 40.9686 49.6714 40.9633 49.7028C40.958 49.7342 40.9958 49.797 41.0767 49.8914C41.1576 49.9857 41.2306 50.0787 41.2958 50.1704C41.3767 50.2647 41.4407 50.3159 41.4877 50.3238C41.5531 50.3187 41.591 50.3332 41.6014 50.3672C41.6275 50.4039 41.6798 50.4288 41.7582 50.4421C41.8523 50.4579 41.9255 50.5026 41.9776 50.5759C42.0846 50.7069 42.2478 50.8393 42.4672 50.9732C42.5274 50.9995 42.5887 51.0663 42.6512 51.1736C42.7164 51.2653 42.7711 51.3714 42.8154 51.4918C42.8596 51.6122 42.8842 51.7051 42.8893 51.7705C42.8838 51.8986 42.894 52.0295 42.9199 52.1629C42.9458 52.2963 42.9496 52.3696 42.9312 52.3826C42.9129 52.3957 42.9128 52.4441 42.9309 52.5278C42.9595 52.6456 42.8944 53.1267 42.7357 53.9712C42.6856 54.1725 42.6644 54.298 42.6721 54.3477C42.6982 54.3844 42.5656 55.2656 42.2744 56.9913C42.1947 57.5587 42.1849 57.8555 42.2451 57.8818C42.3681 57.8219 42.5385 57.6248 42.7563 57.2904C42.9558 56.9691 43.2035 56.6963 43.4995 56.472C43.5912 56.4068 43.6685 56.3311 43.7315 56.2449C43.7944 56.1587 44.1011 55.8233 44.6516 55.2385C44.9452 54.9331 45.1458 54.7007 45.2533 54.5414C45.3583 54.3977 45.4972 54.2437 45.6702 54.0793C45.8432 53.9148 45.9336 53.8091 45.9415 53.762C45.9678 53.7019 46.0281 53.6314 46.1225 53.5505C46.2194 53.454 46.2693 53.3978 46.2719 53.3821C46.2772 53.3508 46.3847 53.2398 46.5943 53.0493C46.8066 52.8431 46.9232 52.7257 46.9442 52.6969C46.9652 52.6682 47.0465 52.569 47.1881 52.3993C47.4136 52.1146 47.7829 51.8865 48.2959 51.715C48.5864 51.6188 48.7591 51.5995 48.8139 51.6572C48.8844 51.7175 48.951 51.7529 49.0138 51.7635C49.0922 51.7768 49.1366 51.8004 49.147 51.8344C49.1574 51.8684 49.2306 51.913 49.3665 51.9683C49.5755 52.0681 49.7765 52.2634 49.9695 52.5541C50.0764 52.6851 50.1691 52.7572 50.2476 52.7704C50.326 52.7837 50.3782 52.857 50.404 52.9905C50.4483 53.1109 50.4847 53.1816 50.5135 53.2026C50.5422 53.2236 50.5433 53.3125 50.5168 53.4694C50.493 53.6106 50.4915 53.7152 50.5123 53.7832Z" fill="#FEC7FF"/>
<path d="M31.329 47.6125C31.3684 47.5708 31.4755 47.605 31.6505 47.7152C31.8543 47.8464 32.0137 47.9056 32.1288 47.8927C32.1602 47.898 32.1889 47.919 32.215 47.9557C32.2568 47.995 32.3274 48.0069 32.4268 47.9914C32.5105 47.9733 32.5589 47.9734 32.572 47.9917C32.6007 48.0127 32.662 48.0796 32.756 48.1922C32.9619 48.5013 33.1277 48.6664 33.2532 48.6876C33.316 48.6982 33.3577 48.7375 33.3785 48.8056C33.3993 48.8736 33.4332 48.9116 33.4803 48.9195C33.5273 48.9275 33.6161 49.0231 33.7465 49.2065C33.8952 49.3768 33.9564 49.492 33.9302 49.5521C33.9039 49.6122 33.9011 49.6763 33.9219 49.7444C33.9714 49.8334 33.9853 50.0858 33.9635 50.5017C33.9397 50.6429 33.9303 50.7462 33.9354 50.8116C33.9405 50.877 33.8906 50.9815 33.7857 51.1251C33.6964 51.2714 33.6479 51.3681 33.6399 51.4152C33.6346 51.4465 33.5599 51.5549 33.4156 51.7403C33.2897 51.9127 33.2162 52.0616 33.195 52.1871C33.1764 52.297 33.1357 52.395 33.0727 52.4811C33.0098 52.5673 32.9573 52.6392 32.9154 52.6966C32.8917 52.741 32.804 52.7827 32.6522 52.8216C32.5188 52.8475 32.3972 52.8512 32.2873 52.8326C31.9161 52.7377 31.7345 52.6667 31.7424 52.6196C31.7477 52.5883 31.6916 52.5385 31.574 52.4702C31.4565 52.402 31.3808 52.3246 31.347 52.2383C31.3315 52.1388 31.2871 52.0668 31.214 52.0222C31.1435 51.9619 31.1136 51.9004 31.1241 51.8376C31.1347 51.7749 31.0916 51.7434 30.9949 51.7432C30.7673 51.7532 30.495 51.8847 30.178 52.1378C30.047 52.2447 29.9186 52.336 29.7929 52.4116C29.6672 52.4872 29.5926 52.5472 29.5689 52.5916C29.561 52.6387 29.4758 52.7131 29.3134 52.8147C29.1537 52.9007 29.0175 52.9907 28.9049 53.0846C28.7922 53.1785 28.7097 53.2372 28.6573 53.2606C28.6076 53.2684 28.5788 53.2958 28.5708 53.3429C28.5655 53.3742 28.4515 53.476 28.2289 53.6482C28.0088 53.8047 27.8975 53.8907 27.8948 53.9064C27.8922 53.9221 27.8712 53.9508 27.8319 53.9926C27.5175 54.23 27.3551 54.3801 27.3445 54.4428C27.3392 54.4742 27.309 54.5094 27.254 54.5485C27.2173 54.5746 27.1872 54.6099 27.1636 54.6543C27.1583 54.6857 27.0966 54.764 26.9787 54.8893C26.6824 55.2104 26.5211 55.4494 26.4946 55.6063C26.4867 55.6534 26.446 55.703 26.3727 55.7551C26.2077 55.8725 26.0214 56.1154 25.8141 56.4837C25.7195 56.6614 25.6513 56.779 25.6093 56.8364C25.5857 56.8808 25.52 57.0311 25.4122 57.2872C25.3201 57.546 25.2413 57.7263 25.1757 57.8281C25.1284 57.917 25.0811 58.0542 25.0336 58.2398C24.849 58.9509 24.7566 59.4032 24.7562 59.5967L24.7439 59.8125L24.9322 59.8443C25.0734 59.8681 25.2094 59.8749 25.3402 59.8647C25.4893 59.8415 25.645 59.8274 25.8072 59.8225C25.9877 59.8046 26.1224 59.7709 26.2115 59.7214C26.2795 59.7006 26.4065 59.6655 26.5923 59.6162C26.7964 59.5539 26.9063 59.524 26.922 59.5267C26.9377 59.5293 27.0071 59.5007 27.1301 59.4408C27.2715 59.3678 27.3606 59.3183 27.3972 59.2922C27.4366 59.2505 27.5073 59.214 27.6093 59.1828C27.9208 59.0579 28.2246 58.8833 28.5206 58.659C28.7773 58.4764 28.9135 58.3864 28.9292 58.3891C28.9449 58.3917 29.0496 58.3449 29.2434 58.2485C29.4555 58.1391 29.5694 58.0857 29.5851 58.0883C29.6164 58.0936 29.7513 58.0115 29.9897 57.842C30.2464 57.6594 30.3904 57.5708 30.4218 57.5761C30.4532 57.5814 30.5344 57.5306 30.6654 57.4236C31.1028 57.1263 31.5191 56.9062 31.9144 56.7631C31.9851 56.7266 32.0885 56.6876 32.2246 56.6461C32.3763 56.6071 32.4967 56.5629 32.5858 56.5134C32.6905 56.4665 32.7494 56.4523 32.7624 56.4706C32.7911 56.4916 32.8592 56.4708 32.9666 56.4083C33.0739 56.3457 33.2048 56.2871 33.3593 56.2325C33.5137 56.1779 33.617 56.1873 33.6692 56.2606C33.7631 56.3733 33.7354 56.4896 33.586 56.6096C33.4577 56.7009 33.4091 56.7976 33.4403 56.8997C33.435 56.931 33.4493 56.9415 33.4834 56.9311C33.6822 56.9002 33.7777 56.9082 33.7697 56.9553C33.7644 56.9866 33.7866 56.9985 33.8364 56.9907C33.8704 56.9803 33.8913 57 33.899 57.0497C33.8962 57.1622 33.8397 57.2575 33.7297 57.3358C33.6564 57.3879 33.617 57.4297 33.6118 57.4611C33.6065 57.4924 33.5815 57.5447 33.5369 57.6178C33.5106 57.6779 33.521 57.712 33.5681 57.7199C33.6308 57.7305 33.6282 57.7462 33.5601 57.767C33.4344 57.8426 33.3518 57.9496 33.3123 58.0882C33.341 58.1092 33.3357 58.1405 33.2964 58.1823C33.2571 58.2241 33.2203 58.2985 33.1861 58.4057C33.1598 58.4658 33.1532 58.505 33.1662 58.5234C33.1793 58.5417 33.2093 58.5549 33.2564 58.5628C33.3034 58.5707 33.3256 58.5826 33.323 58.5982C33.3387 58.6009 33.3269 58.6231 33.2876 58.6649C33.2482 58.7066 33.2455 58.7707 33.2793 58.8571C33.3288 58.9461 33.3196 59.001 33.2515 59.0218C33.1835 59.0426 33.1283 59.1301 33.0862 59.2844C33.044 59.4386 32.9771 59.5483 32.8854 59.6135C32.7964 59.663 32.7361 59.7335 32.7045 59.825C32.6913 59.9034 32.6493 59.9609 32.5786 59.9974C32.5079 60.0338 32.4686 60.0756 32.4606 60.1227C32.4553 60.154 32.3675 60.2441 32.1972 60.3928C32.0295 60.5259 31.9522 60.6016 31.9653 60.6199C31.9809 60.6226 31.9508 60.6578 31.8748 60.7257C31.8015 60.7778 31.7203 60.8287 31.6312 60.8782C31.5422 60.9277 31.4807 60.9576 31.4466 60.968C31.3446 60.9992 31.3079 61.0253 31.3366 61.0463C31.3784 61.0856 31.2631 61.1952 30.9907 61.3751C30.7366 61.542 30.4159 61.7218 30.0283 61.9146C29.6565 62.11 29.3319 62.2649 29.0544 62.3794C28.6591 62.5225 28.3411 62.6382 28.1003 62.7267C27.4616 62.9738 26.8009 63.064 26.1184 62.9972C25.5954 62.9412 25.1287 62.8382 24.7184 62.6883C24.444 62.5936 24.2976 62.5527 24.2792 62.5658C24.2609 62.5788 24.2778 62.622 24.33 62.6953C24.4056 62.821 24.3336 62.817 24.1142 62.6831L24.0515 62.6241C23.9079 62.5192 23.7304 62.3279 23.5191 62.0502C23.3209 61.7909 23.1982 61.6572 23.1512 61.6493C23.0414 61.6307 22.8979 61.4291 22.7209 61.0442C22.4266 60.3975 22.2757 60.001 22.2682 59.8545C22.2637 59.4987 22.2138 58.9821 22.1184 58.3044C22.036 57.6451 22.0859 56.9194 22.268 56.1272C22.4685 55.322 22.7826 54.5602 23.2104 53.8418C23.2367 53.7817 23.284 53.6929 23.3522 53.5753C23.523 53.2331 23.8469 52.7956 24.324 52.263C24.8038 51.7147 25.2952 51.241 25.7982 50.8419C26.0236 50.654 26.4296 50.3514 27.0164 49.9341C27.6058 49.5012 27.962 49.2547 28.085 49.1948C28.1741 49.1453 28.2814 49.0828 28.4071 49.0072C28.7896 48.749 29.1051 48.5522 29.3539 48.4167C29.4403 48.3829 29.5804 48.3178 29.7741 48.2214C29.9705 48.1093 30.0766 48.0546 30.0922 48.0573C30.1079 48.0599 30.1865 48.0248 30.3279 47.9518C30.4849 47.8815 30.6224 47.8321 30.7401 47.8036C30.8736 47.7777 30.9678 47.7452 31.0228 47.7061C31.0962 47.6539 31.1564 47.6318 31.2034 47.6397C31.2662 47.6503 31.308 47.6413 31.329 47.6125Z" fill="#FEC7FF"/>
</g>
<defs>
<filter id="filter0_d_435_256" x="1.4782e-05" y="-0.000229359" width="117.705" height="97.5346" filterUnits="userSpaceOnUse" color-interpolation-filters="sRGB">
<feFlood flood-opacity="0" result="BackgroundImageFix"/>
<feColorMatrix in="SourceAlpha" type="matrix" values="0 0 0 0 0 0 0 0 0 0 0 0 0 0 0 0 0 0 127 0" result="hardAlpha"/>
<feOffset/>
<feGaussianBlur stdDeviation="2.76012"/>
<feComposite in2="hardAlpha" operator="out"/>
<feColorMatrix type="matrix" values="0 0 0 0 0 0 0 0 0 0 0 0 0 0 0 0 0 0 0.1 0"/>
<feBlend mode="normal" in2="BackgroundImageFix" result="effect1_dropShadow_435_256"/>
<feBlend mode="normal" in="SourceGraphic" in2="effect1_dropShadow_435_256" result="shape"/>
</filter>
</defs>
</svg>
