<svg width="158" height="90" viewBox="0 0 158 90" fill="none" xmlns="http://www.w3.org/2000/svg">
<rect y="23.1999" width="148.556" height="67.5257" rx="1.94318" transform="rotate(-8.98459 0 23.1999)" fill="black"/>
<g filter="url(#filter0_g_435_197)">
<path d="M141.413 6.29045C147.306 8.06667 140.021 36.2176 130.647 65.0823C130.496 65.5477 129.972 65.7577 129.658 65.4714C119.767 56.4566 104.803 39.1204 110.788 34.2948C114.335 31.4344 121.343 38.0492 125.539 41.9617C125.766 42.1736 126.301 41.7538 126.246 41.4221C125.642 37.8161 125.923 30.2009 128.103 22.6273C132.397 7.71598 137.263 5.03982 141.413 6.29045Z" fill="#FEC7FF"/>
</g>
<path d="M11.4141 54.1237L8.13315 33.3725L21.2064 31.3056L21.6141 33.8846L11.3571 35.5063L13.8225 51.0993L19.0696 50.2697C19.8404 50.1479 20.4806 49.9048 20.9902 49.5407C21.5164 49.1536 21.8856 48.6698 22.0977 48.0894C22.3264 47.486 22.3829 46.8187 22.2673 46.0875C22.1548 45.376 21.8983 44.7785 21.4977 44.2949C21.1169 43.8081 20.6165 43.4619 19.9965 43.256C19.3963 43.0471 18.7108 43.0035 17.94 43.1254L12.189 44.0347L11.7812 41.4556L17.5915 40.537C18.8564 40.337 20.0251 40.4257 21.0976 40.803C22.1701 41.1804 23.058 41.7997 23.7614 42.6608C24.4616 43.5022 24.9023 44.496 25.0836 45.6422C25.2679 46.8082 25.1584 47.9093 24.755 48.9454C24.3485 49.9618 23.6934 50.8149 22.7896 51.5047C21.8858 52.1945 20.8015 52.6394 19.5367 52.8394L11.4141 54.1237ZM34.9235 50.7409C33.5796 50.9534 32.3011 50.8111 31.0882 50.3142C29.8752 49.8172 28.8588 49.0258 28.0389 47.94C27.219 46.8543 26.6919 45.5702 26.4575 44.088C26.2294 42.6453 26.3378 41.2811 26.7828 39.9953C27.2475 38.7064 27.98 37.6385 28.9805 36.7916C29.9779 35.9249 31.1288 35.3884 32.4331 35.1822C33.7177 34.9791 34.9353 35.1208 36.0858 35.6074C37.2561 36.0909 38.2268 36.849 38.9978 37.8817C39.7886 38.9113 40.2933 40.1178 40.512 41.5013C40.5589 41.7977 40.5928 42.0759 40.6136 42.336C40.6345 42.596 40.6293 42.8197 40.5982 43.0069L28.6514 44.8958L28.314 42.7614L38.6006 41.135L37.9629 43.059C37.994 42.8717 38.007 42.6975 38.0017 42.5362C38.0132 42.3521 38.0064 42.181 37.9814 42.0229C37.8282 41.0545 37.503 40.2146 37.0057 39.5033C36.5052 38.7721 35.8846 38.2423 35.1439 37.9137C34.4001 37.5654 33.623 37.4553 32.8128 37.5834C31.9827 37.7147 31.2479 38.0638 30.6083 38.6308C29.9687 39.1979 29.507 39.9292 29.2232 40.8249C28.9363 41.7008 28.8741 42.6526 29.0366 43.6802C29.2084 44.7672 29.5561 45.6846 30.0794 46.4324C30.6028 47.1802 31.2447 47.7168 32.0052 48.0422C32.7854 48.3645 33.63 48.4538 34.5391 48.31C35.3889 48.1757 36.0837 47.8936 36.6235 47.4639C37.1633 47.0342 37.5839 46.4917 37.8854 45.8363L40.5831 45.4098C40.4054 46.2076 40.0633 46.991 39.5569 47.7598C39.0473 48.5088 38.3906 49.1596 37.5867 49.7121C36.7993 50.2417 35.9116 50.5846 34.9235 50.7409ZM48.8209 48.5436C47.6351 48.731 46.5747 48.686 45.6395 48.4085C44.7209 48.1081 43.9568 47.6313 43.3471 46.9782C42.7541 46.3022 42.3461 45.5159 42.1234 44.6193L44.7024 44.2115C44.8971 44.9302 45.2987 45.4846 45.9073 45.8745C46.5357 46.2613 47.3637 46.3735 48.3914 46.211C49.3993 46.0517 50.119 45.7353 50.5506 45.2619C50.9988 44.7657 51.1682 44.1717 51.0589 43.48C50.9464 42.7685 50.6004 42.2459 50.021 41.9121C49.4581 41.5554 48.7024 41.4521 47.7538 41.6021L46.0937 41.8645L45.7609 39.7598L47.3617 39.5067C47.9349 39.4161 48.4066 39.2605 48.7768 39.0399C49.144 38.7995 49.4029 38.5155 49.5537 38.1878C49.7044 37.8601 49.7486 37.4986 49.6861 37.1034C49.6236 36.7081 49.4571 36.3597 49.1865 36.0581C48.916 35.7565 48.5576 35.5397 48.1114 35.4077C47.6651 35.2756 47.1653 35.2534 46.6119 35.3409C45.7226 35.4815 45.0653 35.8082 44.6399 36.3212C44.2344 36.8309 44.0368 37.4395 44.0474 38.1468L41.4683 38.5546C41.3744 37.192 41.7414 35.9894 42.5691 34.947C43.4167 33.9014 44.6903 33.2443 46.3899 32.9755C47.4373 32.8099 48.3792 32.8737 49.2156 33.1669C50.0686 33.4371 50.7557 33.8754 51.277 34.4817C51.818 35.0849 52.1526 35.7917 52.2807 36.602C52.3807 37.2344 52.3283 37.7997 52.1235 38.298C51.9353 38.7734 51.6837 39.1677 51.3685 39.4809C51.0534 39.7941 50.7274 40.038 50.3904 40.2129L50.3435 39.9164C50.7971 39.9663 51.2563 40.1165 51.7214 40.3671C52.1864 40.6176 52.5994 40.9879 52.9605 41.4777C53.3381 41.9447 53.5801 42.5141 53.6863 43.1861C53.8145 43.9964 53.7158 44.7817 53.3904 45.5422C53.0618 46.2829 52.5055 46.9279 51.7213 47.4773C50.934 48.0069 49.9672 48.3623 48.8209 48.5436ZM14.4348 75.9194L12.0772 61.0082L14.6563 60.6004L16.4701 72.0728L16.0255 72.1431L22.5417 59.3537L24.8836 58.9834L27.2412 73.8946L24.6325 74.307L22.8186 62.8346L23.2633 62.7643L16.747 75.5538L14.4348 75.9194ZM29.7349 73.8345C29.5176 73.8689 29.3069 73.8819 29.103 73.8737C28.9189 73.8622 28.7447 73.8493 28.5803 73.8348L28.2101 71.4928L28.7437 71.4085C29.2575 71.3272 29.6767 71.1597 30.0011 70.9058C30.3225 70.6322 30.5461 70.2524 30.6718 69.7666C30.7976 69.2809 30.8307 68.6578 30.7713 67.8974L30.0531 58.166L40.3397 56.5396L42.6973 71.4508L40.059 71.868L38.0904 59.4173L32.8433 60.2469L33.416 67.9047C33.5526 69.6657 33.2944 71.0435 32.6414 72.038C31.9884 73.0326 31.0195 73.6314 29.7349 73.8345ZM45.2091 71.3879C44.9917 71.4223 44.7811 71.4353 44.5772 71.427C44.3931 71.4156 44.2189 71.4027 44.0545 71.3882L43.6842 69.0462L44.2178 68.9619C44.7317 68.8806 45.1508 68.7131 45.4753 68.4592C45.7967 68.1856 46.0202 67.8058 46.146 67.32C46.2718 66.8342 46.3049 66.2112 46.2455 65.4508L45.5273 55.7194L55.8139 54.093L58.1715 69.0042L55.5331 69.4214L53.5646 56.9707L48.3175 57.8003L48.8902 65.458C49.0268 67.2191 48.7686 68.5969 48.1156 69.5914C47.4625 70.586 46.4937 71.1848 45.2091 71.3879ZM73.2229 66.9587C71.9581 67.1587 70.7504 67.0154 69.5999 66.5288C68.4462 66.0225 67.4708 65.2347 66.6738 64.1656C65.8737 63.0767 65.3533 61.7713 65.1127 60.2496C64.8752 58.7476 64.9691 57.3553 65.3943 56.0726C65.8194 54.79 66.5042 53.7398 67.4485 52.922C68.3928 52.1042 69.4974 51.5953 70.7622 51.3953C72.0073 51.1985 73.2051 51.3433 74.3557 51.8299C75.5062 52.3165 76.4816 53.1042 77.2817 54.1931C78.0818 55.282 78.6006 56.5775 78.8381 58.0795C79.0787 59.6012 78.9864 61.0034 78.5613 62.2861C78.133 63.549 77.4482 64.5992 76.507 65.4367C75.5627 66.2545 74.468 66.7618 73.2229 66.9587ZM61.61 68.4605L59.2524 53.5494L61.8908 53.1322L62.8798 59.3872L65.5181 58.9701L65.8931 61.3416L63.2547 61.7588L64.2484 68.0434L61.61 68.4605ZM72.8339 64.4982C73.5849 64.3795 74.2438 64.0626 74.8106 63.5476C75.394 63.0097 75.8094 62.3059 76.0568 61.4362C76.3208 60.5437 76.3685 59.5638 76.1997 58.4966C76.031 57.4294 75.685 56.5219 75.1616 55.7741C74.658 55.0232 74.0457 54.4819 73.3248 54.1503C72.6236 53.8155 71.8976 53.7074 71.1466 53.8262C70.3758 53.948 69.6987 54.2779 69.1153 54.8158C68.5516 55.3506 68.1362 56.0544 67.869 56.9272C67.6217 57.7968 67.5823 58.7652 67.7511 59.8324C67.9198 60.8996 68.2575 61.8186 68.7643 62.5893C69.2876 63.337 69.8999 63.8783 70.6011 64.2131C71.3189 64.525 72.0631 64.6201 72.8339 64.4982ZM87.0843 64.7671C85.8985 64.9546 84.838 64.9095 83.9028 64.632C82.9843 64.3316 82.2201 63.8548 81.6105 63.2017C81.0174 62.5257 80.6095 61.7394 80.3867 60.8428L82.9658 60.435C83.1604 61.1538 83.5621 61.7081 84.1707 62.098C84.799 62.4849 85.627 62.597 86.6547 62.4345C87.6626 62.2752 88.3824 61.9588 88.8139 61.4854C89.2622 60.9892 89.4316 60.3952 89.3222 59.7035C89.2097 58.992 88.8638 58.4694 88.2843 58.1356C87.7215 57.7789 86.9658 57.6756 86.0171 57.8256L84.357 58.0881L84.0243 55.9833L85.6251 55.7302C86.1982 55.6396 86.6699 55.484 87.0402 55.2634C87.4073 55.023 87.6662 54.739 87.817 54.4113C87.9678 54.0836 88.0119 53.7221 87.9494 53.3269C87.8869 52.9316 87.7204 52.5832 87.4499 52.2816C87.1794 51.98 86.821 51.7632 86.3747 51.6312C85.9284 51.4992 85.4286 51.4769 84.8753 51.5644C83.9859 51.705 83.3286 52.0318 82.9033 52.5447C82.4977 53.0544 82.3002 53.663 82.3107 54.3703L79.7317 54.7781C79.6378 53.4155 80.0047 52.2129 80.8325 51.1705C81.68 50.1249 82.9536 49.4678 84.6532 49.199C85.7006 49.0334 86.6426 49.0972 87.4789 49.3904C88.3319 49.6606 89.0191 50.0989 89.5403 50.7053C90.0814 51.3085 90.4159 52.0152 90.5441 52.8255C90.644 53.4579 90.5916 54.0233 90.3868 54.5216C90.1986 54.997 89.947 55.3912 89.6319 55.7044C89.3168 56.0176 88.9907 56.2616 88.6537 56.4364L88.6069 56.1399C89.0604 56.1898 89.5197 56.34 89.9847 56.5906C90.4497 56.8412 90.8627 57.2114 91.2238 57.7012C91.6015 58.1682 91.8434 58.7377 91.9497 59.4096C92.0778 60.2199 91.9791 61.0053 91.6537 61.7657C91.3252 62.5064 90.7688 63.1514 89.9846 63.7008C89.1973 64.2304 88.2305 64.5859 87.0843 64.7671ZM95.106 63.1645L92.7484 48.2534L95.3275 47.8456L97.1413 59.318L96.6967 59.3883L103.213 46.5988L105.555 46.2286L107.912 61.1397L105.304 61.5522L103.49 50.0798L103.934 50.0095L97.4182 62.799L95.106 63.1645ZM111.333 60.5989L108.975 45.6878L111.554 45.28L113.368 56.7524L112.924 56.8227L119.44 44.0332L121.782 43.663L124.139 58.5741L121.531 58.9866L119.717 47.5142L120.161 47.4439L113.645 60.2333L111.333 60.5989ZM115.213 42.6657C114.363 42.8001 113.595 42.7493 112.91 42.5133C112.224 42.2773 111.657 41.891 111.207 41.3544C110.755 40.798 110.442 40.1687 110.271 39.4666L112.286 39.1479C112.465 39.7678 112.772 40.2358 113.207 40.552C113.639 40.8483 114.211 40.9403 114.922 40.8278C115.634 40.7153 116.149 40.4515 116.468 40.0364C116.784 39.6015 116.932 39.0616 116.911 38.4167L118.927 38.098C118.98 38.8189 118.877 39.5137 118.618 40.1826C118.356 40.8318 117.936 41.3743 117.356 41.8103C116.777 42.2462 116.062 42.5314 115.213 42.6657Z" fill="white"/>
<defs>
<filter id="filter0_g_435_197" x="108.889" y="5.49037" width="35.1746" height="60.6397" filterUnits="userSpaceOnUse" color-interpolation-filters="sRGB">
<feFlood flood-opacity="0" result="BackgroundImageFix"/>
<feBlend mode="normal" in="SourceGraphic" in2="BackgroundImageFix" result="shape"/>
<feTurbulence type="fractalNoise" baseFrequency="9.4632863998413086 9.4632863998413086" numOctaves="3" seed="5292" />
<feDisplacementMap in="shape" scale="1.0567153692245483" xChannelSelector="R" yChannelSelector="G" result="displacedImage" width="100%" height="100%" />
<feMerge result="effect1_texture_435_197">
<feMergeNode in="displacedImage"/>
</feMerge>
</filter>
</defs>
</svg>
