<svg width="51" height="40" viewBox="0 0 51 40" fill="none" xmlns="http://www.w3.org/2000/svg">
<path d="M50.1776 31.7599C50.1776 33.0283 49.7638 34.0764 48.9361 34.904C48.2159 35.6242 47.4366 35.9843 46.5982 35.9843C45.9962 35.9843 45.5233 35.7801 45.1793 35.3716C44.8353 34.9632 44.6633 34.3988 44.6633 33.6786C44.6633 32.7435 44.9912 31.7384 45.6469 30.6635C46.3133 29.5886 46.9636 29.0995 47.5978 29.1963C47.7591 29.164 47.9257 29.1479 48.0977 29.1479C48.7103 29.1479 49.1994 29.3575 49.5649 29.7767C49.9734 30.2389 50.1776 30.9 50.1776 31.7599ZM49.4198 31.7599C49.4198 31.1042 49.2747 30.6098 48.9844 30.2766C48.748 30.0078 48.4685 29.8735 48.146 29.8735C47.9633 29.8735 47.8289 29.8842 47.7429 29.9057C47.6677 29.9165 47.5763 29.9487 47.4688 30.0025C46.9206 30.2389 46.4423 30.7388 46.0338 31.502C45.6361 32.2651 45.4373 33.0176 45.4373 33.7593C45.4373 34.286 45.5609 34.6783 45.8081 34.9363C46.0231 35.162 46.2972 35.2749 46.6304 35.2749C47.3398 35.2749 47.9794 34.9202 48.5491 34.2107C49.1296 33.4905 49.4198 32.6736 49.4198 31.7599Z" fill="#FF2626"/>
<path d="M43.9144 31.7448C43.9144 33.0024 43.5758 34.0666 42.8986 34.9373C42.2859 35.7219 41.641 36.1143 40.9638 36.1143C40.7273 36.1143 40.421 36.0283 40.0448 35.8563C39.6685 35.6843 39.3192 35.4532 38.9967 35.163L38.9484 35.1146C38.6689 36.1035 38.4539 36.9258 38.3034 37.5815C38.1637 38.2372 38.0938 38.7048 38.0938 38.9843C38.0938 39.0273 38.1046 39.0971 38.1261 39.1939C38.1476 39.2906 38.1583 39.3659 38.1583 39.4196C38.1583 39.6131 38.1046 39.7582 37.9971 39.8549C37.8896 39.9517 37.7713 40.0001 37.6423 40.0001C37.4811 40.0001 37.3575 39.9463 37.2715 39.8388C37.1855 39.7313 37.1425 39.5916 37.1425 39.4196C37.1425 39.0541 37.3629 38.0652 37.8036 36.4529C38.1261 35.2597 38.4432 34.1741 38.7549 33.1959C39.2493 31.6158 39.5234 30.7397 39.5772 30.5678C39.8889 29.6541 40.1952 29.1973 40.4962 29.1973C40.636 29.1973 40.7327 29.2349 40.7864 29.3101C40.8509 29.3746 40.8832 29.4714 40.8832 29.6003C40.8832 29.7186 40.8509 29.8368 40.7864 29.9551C40.5392 30.4173 40.3941 30.7344 40.3511 30.9064C40.7381 30.4441 41.1143 30.0787 41.4798 29.81C41.856 29.5412 42.1946 29.4069 42.4955 29.4069C42.8825 29.4069 43.2157 29.6111 43.4952 30.0196C43.7747 30.4173 43.9144 30.9924 43.9144 31.7448ZM43.1566 31.906C43.1566 31.3041 43.0599 30.8365 42.8664 30.5033C42.7159 30.2345 42.5439 30.1002 42.3504 30.1002C42.0925 30.1002 41.7592 30.3098 41.3508 30.729C40.9531 31.1375 40.5446 31.6857 40.1254 32.3736C39.7599 32.9863 39.4428 33.642 39.1741 34.3407C39.3676 34.5664 39.6578 34.8029 40.0448 35.0501C40.4425 35.2866 40.7811 35.4048 41.0605 35.4048C41.555 35.4048 42.0172 35.0824 42.4472 34.4374C42.9201 33.728 43.1566 32.8842 43.1566 31.906Z" fill="#FF2626"/>
<path d="M37.3226 30.4535C37.3871 30.6147 37.4355 30.8082 37.4677 31.0339C37.5 31.2597 37.5161 31.4693 37.5161 31.6627C37.5161 32.2647 37.414 32.829 37.2097 33.3557C37.0055 33.8824 36.7421 34.3339 36.4197 34.7101C36.065 35.1293 35.6565 35.4464 35.1943 35.6614C34.8181 35.8441 34.4257 35.9355 34.0173 35.9355C33.5766 35.9355 33.195 35.8226 32.8725 35.5969C32.55 35.3712 32.3135 35.038 32.163 34.5972C32.1093 34.4468 32.0717 34.2855 32.0502 34.1135C32.0287 33.9308 32.0179 33.7481 32.0179 33.5653C32.0179 33.3181 32.0287 33.1192 32.0502 32.9688C32.0717 32.8183 32.1147 32.6248 32.1792 32.3883C31.6417 32.8613 31.2118 33.3289 30.8893 33.7911C30.7388 34.006 30.5722 34.2855 30.3895 34.6295C30.2175 34.9735 30.1154 35.1723 30.0831 35.2261C29.9864 35.398 29.8896 35.5217 29.7929 35.5969C29.6961 35.6614 29.5994 35.6936 29.5027 35.6936C29.4059 35.6936 29.3199 35.656 29.2447 35.5808C29.1909 35.5055 29.1641 35.4088 29.1641 35.2906C29.1641 35.0648 29.2286 34.7477 29.3575 34.3393C29.422 34.1458 29.5403 33.8233 29.7123 33.3718C29.766 33.2214 29.9756 32.7269 30.3411 31.8885C30.5023 31.5123 30.5829 31.2113 30.5829 30.9856C30.5829 30.7276 30.5937 30.5663 30.6152 30.5019C30.6797 30.2976 30.8463 30.1203 31.115 29.9698C31.2225 29.9053 31.33 29.873 31.4375 29.873C31.588 29.873 31.6632 29.9751 31.6632 30.1794C31.6632 30.3299 31.6256 30.4857 31.5504 30.647C31.3891 31.0339 31.2655 31.3349 31.1795 31.5499C31.0183 31.9583 30.9162 32.2324 30.8732 32.3722L30.6313 33.2106C30.857 32.8881 31.0935 32.6033 31.3407 32.3561C31.3622 32.3346 31.5772 32.1357 31.9857 31.7595L32.4694 31.3242C32.7811 30.647 33.023 30.1794 33.195 29.9214C33.3669 29.6634 33.5174 29.5344 33.6464 29.5344C33.7109 29.5344 33.8023 29.5828 33.9205 29.6795C34.1248 29.4646 34.3612 29.298 34.63 29.1797C34.8987 29.0615 35.1352 29.0024 35.3394 29.0024C35.7694 29.0024 36.1617 29.1313 36.5164 29.3893C36.8819 29.6366 37.1506 29.9913 37.3226 30.4535ZM36.5487 33.0171C36.6884 32.6087 36.7583 32.1626 36.7583 31.6789C36.7583 31.3027 36.7045 30.9694 36.597 30.6792C36.5003 30.389 36.3444 30.1579 36.1295 29.9859C35.9252 29.8139 35.6887 29.7279 35.42 29.7279C35.1513 29.7279 34.8987 29.7924 34.6622 29.9214C34.3397 30.0934 34.028 30.3944 33.727 30.8243C33.0606 31.7702 32.7274 32.7054 32.7274 33.6298C32.7274 34.1673 32.851 34.5865 33.0982 34.8875C33.2057 35.0165 33.3454 35.1293 33.5174 35.2261C33.7002 35.3121 33.8936 35.355 34.0979 35.355C34.3236 35.355 34.5762 35.2906 34.8557 35.1616C35.2212 34.9788 35.5598 34.6886 35.8715 34.2909C36.1832 33.8824 36.4089 33.4578 36.5487 33.0171Z" fill="#FF2626"/>
<path d="M31.1181 25.8421C31.1181 26.0249 31.0966 26.1162 31.0536 26.1162C30.9891 26.1162 30.9246 26.0894 30.8601 26.0356C30.7956 25.9819 30.6559 25.955 30.4409 25.955C29.8497 25.955 29.0812 26.0947 28.1353 26.3742C27.0281 26.6967 26.4745 27.0353 26.4745 27.39C26.4745 27.562 26.5713 27.7501 26.7648 27.9543C26.8507 28.0403 27.0281 28.1908 27.2968 28.4058C27.7805 28.8035 28.1406 29.2173 28.3771 29.6473C28.6888 30.1955 28.8447 30.8351 28.8447 31.566C28.8447 32.6087 28.4739 33.5922 27.7322 34.5166C27.0012 35.4303 26.2004 35.8871 25.3298 35.8871C24.8998 35.8871 24.5397 35.7098 24.2495 35.355C23.97 34.9896 23.8303 34.4844 23.8303 33.8394C23.8303 32.8613 24.1097 32.0013 24.6687 31.2597C25.1954 30.561 25.7597 30.2116 26.3617 30.2116C26.7594 30.2116 27.1033 30.3514 27.3936 30.6308C27.6945 30.8996 27.845 31.2489 27.845 31.6789C27.845 31.8186 27.8235 31.9207 27.7805 31.9852C27.7375 32.0497 27.6623 32.082 27.5548 32.082C27.4688 32.082 27.4043 31.996 27.3613 31.824C27.2861 31.5445 27.2377 31.3833 27.2162 31.3403C27.1625 31.222 27.1033 31.136 27.0389 31.0823C26.9206 30.9748 26.7755 30.9211 26.6035 30.9211C26.0446 30.9211 25.5555 31.2328 25.1363 31.8562C24.7171 32.4689 24.5075 33.13 24.5075 33.8394C24.5075 34.3339 24.6096 34.7101 24.8138 34.9681C24.9858 35.1831 25.2008 35.2906 25.4587 35.2906C26.0607 35.2906 26.6573 34.8713 27.2485 34.0329C27.8397 33.1945 28.1353 32.3292 28.1353 31.437C28.1353 30.9103 28.0331 30.4374 27.8289 30.0181C27.6784 29.7064 27.4473 29.4108 27.1356 29.1313C26.8346 28.8519 26.539 28.5831 26.2488 28.3252C25.9156 27.9812 25.749 27.6587 25.749 27.3577C25.749 26.9923 25.9801 26.6483 26.4423 26.3258C27.0012 25.9389 27.888 25.6003 29.1027 25.3101C29.5434 25.2026 29.9142 25.1488 30.2152 25.1488C30.5484 25.1488 30.7903 25.2187 30.9408 25.3584C31.059 25.4659 31.1181 25.6272 31.1181 25.8421Z" fill="#FF2626"/>
<path d="M3.11328 0C3.64345 6.29498e-05 4.05871 0.160686 4.3584 0.482422C4.68111 0.781184 4.84175 1.19512 4.8418 1.72363L4.8418 18.9629C4.8418 19.4916 4.6812 19.9175 4.3584 20.2393C4.05872 20.538 3.64342 20.6874 3.11328 20.6875H1.38379V24.1348H0L0 0L3.11328 0ZM12.8037 0C13.3339 4.90582e-05 13.7491 0.1607 14.0488 0.482422C14.3716 0.781173 14.5331 1.19512 14.5332 1.72363V18.9629C14.5332 19.4916 14.3716 19.9175 14.0488 20.2393C13.7491 20.538 13.3339 20.6875 12.8037 20.6875L14.5332 24.1348H12.9766L11.2471 20.6875H11.0742V24.1348H9.69043V0L12.8037 0ZM22.5039 0C23.0341 0 23.4493 0.160738 23.749 0.482422C24.0718 0.781173 24.2333 1.19512 24.2334 1.72363V22.4111C24.2334 22.9397 24.0717 23.3648 23.749 23.6865C23.4493 23.9853 23.0342 24.1348 22.5039 24.1348H21.1201C20.59 24.1347 20.1635 23.9853 19.8408 23.6865C19.5412 23.3648 19.3916 22.9397 19.3916 22.4111V1.72363C19.3917 1.19512 19.5411 0.781173 19.8408 0.482422C20.1635 0.160811 20.5901 7.38516e-05 21.1201 0L22.5039 0ZM31.1611 0C31.6913 6.2015e-05 32.1066 0.160691 32.4062 0.482422C32.729 0.781171 32.8896 1.19513 32.8896 1.72363V2.41309H31.5068V1.72363C31.5067 1.4941 31.3914 1.37901 31.1611 1.37891H29.7773C29.5469 1.37892 29.4318 1.49401 29.4316 1.72363V3.10352C29.4318 3.33314 29.5469 3.48284 29.7773 3.55176L31.5762 4.10254C31.968 4.21746 32.2792 4.43613 32.5098 4.75781C32.7634 5.0796 32.8896 5.44761 32.8896 5.86133V22.4111C32.8896 22.9396 32.7289 23.3648 32.4062 23.6865C32.1066 23.9853 31.6913 24.1347 31.1611 24.1348H29.7773C29.2471 24.1348 28.8208 23.9853 28.498 23.6865C28.1983 23.3647 28.0479 22.9398 28.0479 22.4111V21.7217H29.4316V22.4111C29.4317 22.6409 29.5468 22.7558 29.7773 22.7559H31.1611C31.3915 22.7558 31.5068 22.6408 31.5068 22.4111V5.86133C31.5068 5.63159 31.3915 5.48207 31.1611 5.41309L29.3623 4.86133C28.9704 4.74639 28.6472 4.52783 28.3936 4.20605C28.1633 3.88446 28.0479 3.51691 28.0479 3.10352V1.72363C28.0479 1.19512 28.1984 0.781173 28.498 0.482422C28.8208 0.160854 29.2472 7.49602e-06 29.7773 0L31.1611 0ZM41.5361 1.37891H39.8066V24.1348H38.4229V1.37891H36.6943V0L41.5361 0V1.37891ZM48.4414 0C48.9716 2.4561e-05 49.3868 0.160715 49.6865 0.482422C50.0093 0.781173 50.1708 1.19512 50.1709 1.72363V22.4111C50.1709 22.9397 50.0092 23.3648 49.6865 23.6865C49.3868 23.9853 48.9717 24.1347 48.4414 24.1348H47.0576C46.5274 24.1347 46.1011 23.9853 45.7783 23.6865C45.4786 23.3647 45.3281 22.9397 45.3281 22.4111V1.72363C45.3282 1.19512 45.4786 0.781173 45.7783 0.482422C46.101 0.160829 46.5275 4.50967e-05 47.0576 0L48.4414 0ZM21.1201 1.37891C20.8899 1.37903 20.7745 1.49412 20.7744 1.72363V22.4111C20.7744 22.6408 20.8898 22.7557 21.1201 22.7559H22.5039C22.7344 22.7559 22.8496 22.6409 22.8496 22.4111V1.72363C22.8495 1.494 22.7344 1.37891 22.5039 1.37891H21.1201ZM47.0576 1.37891C46.8273 1.37898 46.712 1.49407 46.7119 1.72363V22.4111C46.7119 22.6408 46.8272 22.7558 47.0576 22.7559H48.4414C48.6719 22.7558 48.7871 22.6409 48.7871 22.4111V1.72363C48.787 1.49404 48.6718 1.37895 48.4414 1.37891H47.0576ZM1.38379 19.3076H3.11328C3.34365 19.3075 3.45898 19.1926 3.45898 18.9629L3.45898 1.72363C3.4589 1.49405 3.34356 1.37901 3.11328 1.37891H1.38379L1.38379 19.3076ZM11.0742 19.3076H12.8037C13.0341 19.3075 13.1494 19.1927 13.1494 18.9629V1.72363C13.1493 1.49408 13.034 1.37899 12.8037 1.37891L11.0742 1.37891V19.3076Z" fill="white"/>
</svg>
